<svg width="15" height="17" viewBox="0 0 15 17" fill="none" xmlns="http://www.w3.org/2000/svg">
<path d="M7.78029 0.0761719C3.72413 0.0761719 0.5 3.3003 0.5 7.35646C0.5 9.33254 1.22803 11.2046 2.68409 12.5567C2.78809 12.6607 6.94826 16.4048 7.05226 16.5088C7.46828 16.8208 8.0923 16.8208 8.40432 16.5088C8.50832 16.4048 12.7725 12.6607 12.7725 12.5567C14.2285 11.2046 14.9566 9.33254 14.9566 7.35646C15.0606 3.3003 11.8365 0.0761719 7.78029 0.0761719ZM7.78029 9.43655C6.63624 9.43655 5.70021 8.50051 5.70021 7.35646C5.70021 6.21242 6.63624 5.27638 7.78029 5.27638C8.92434 5.27638 9.86037 6.21242 9.86037 7.35646C9.86037 8.50051 8.92434 9.43655 7.78029 9.43655Z" fill="#5D62A8"/>
</svg>
