<svg width="38" height="36" viewBox="0 0 38 36" fill="none" xmlns="http://www.w3.org/2000/svg">
<g filter="url(#filter0_i_734_2307)">
<path d="M22.191 21.9777C21.812 22.0941 21.5154 22.3907 21.399 22.7697L20.63 25.2733C20.4883 25.7346 20.6353 26.2386 21.0304 26.5155C22.302 27.4067 24.4931 28.5864 26.8815 28.9264C27.7502 29.05 28.4713 28.3289 28.3477 27.4602C28.0078 25.0718 26.828 22.8807 25.9368 21.6091C25.6599 21.214 25.1559 21.067 24.6946 21.2087L22.191 21.9777Z" fill="url(#paint0_linear_734_2307)"/>
</g>
<path d="M22.191 21.9777C21.812 22.0941 21.5154 22.3907 21.399 22.7697L20.63 25.2733C20.4883 25.7346 20.6353 26.2386 21.0304 26.5155C22.302 27.4067 24.4931 28.5864 26.8815 28.9264C27.7502 29.05 28.4713 28.3289 28.3477 27.4602C28.0078 25.0718 26.828 22.8807 25.9368 21.6091C25.6599 21.214 25.1559 21.067 24.6946 21.2087L22.191 21.9777Z" stroke="url(#paint1_linear_734_2307)" stroke-width="1.09"/>
<g filter="url(#filter1_i_734_2307)">
<path fill-rule="evenodd" clip-rule="evenodd" d="M6.89506 8.71257C6.63281 11.9261 7.5625 17.5399 12.8861 21.3196C13.3665 21.6607 13.6687 22.2103 13.6512 22.7992L13.5481 26.2703C13.5282 26.9401 13.9136 27.5561 14.5246 27.8312L17.5549 29.1958C18.4647 29.6055 19.5276 29.1247 19.8206 28.1709L20.4578 26.0965L21.0885 24.043C21.4377 22.9062 22.3276 22.0163 23.4644 21.6671L25.5179 21.0363L27.5923 20.3992C28.5461 20.1062 29.0269 19.0433 28.6173 18.1335L27.2526 15.1032C26.9775 14.4922 26.3615 14.1068 25.6917 14.1267L22.2206 14.2298C21.6317 14.2473 21.0821 13.9451 20.741 13.4647C16.9613 8.1411 11.3475 7.2114 8.13397 7.47365C7.46812 7.52799 6.9494 8.04672 6.89506 8.71257Z" fill="url(#paint2_linear_734_2307)"/>
</g>
<path d="M12.8861 21.3196C7.5625 17.5399 6.63281 11.9261 6.89506 8.71257M12.8861 21.3196C13.3665 21.6607 13.6687 22.2103 13.6512 22.7992M12.8861 21.3196V21.3196C13.3665 21.6607 13.6687 22.2103 13.6512 22.7992V22.7992M6.89506 8.71257C6.9494 8.04672 7.46812 7.52799 8.13397 7.47365M6.89506 8.71257V8.71257C6.94929 8.04805 7.46946 7.52788 8.13397 7.47365V7.47365M8.13397 7.47365C11.3475 7.2114 16.9613 8.1411 20.741 13.4647M20.741 13.4647C21.0821 13.9451 21.6317 14.2473 22.2206 14.2298M20.741 13.4647V13.4647C21.0821 13.9451 21.6317 14.2473 22.2206 14.2298V14.2298M22.2206 14.2298L25.6917 14.1267M25.6917 14.1267C26.3615 14.1068 26.9775 14.4922 27.2526 15.1032M25.6917 14.1267V14.1267C26.3615 14.1068 26.9775 14.4922 27.2526 15.1032V15.1032M27.2526 15.1032L28.6173 18.1335M28.6173 18.1335C29.0269 19.0433 28.5461 20.1062 27.5923 20.3992M28.6173 18.1335V18.1335C29.0269 19.0433 28.5461 20.1062 27.5923 20.3992V20.3992M27.5923 20.3992L25.5179 21.0363L23.4644 21.6671C22.3276 22.0163 21.4377 22.9062 21.0885 24.043L20.4578 26.0965L19.8206 28.1709M19.8206 28.1709C19.5276 29.1247 18.4647 29.6055 17.5549 29.1958M19.8206 28.1709V28.1709C19.5276 29.1247 18.4647 29.6055 17.5549 29.1958V29.1958M17.5549 29.1958L14.5246 27.8312M14.5246 27.8312C13.9136 27.5561 13.5282 26.9401 13.5481 26.2703M14.5246 27.8312V27.8312C13.9136 27.5561 13.5282 26.9401 13.5481 26.2703V26.2703M13.5481 26.2703L13.6512 22.7992" stroke="url(#paint3_linear_734_2307)" stroke-width="1.09" stroke-linejoin="round"/>
<path d="M12.12 12.6987L12.771 13.3497" stroke="#FFE500" stroke-width="2.81694" stroke-linecap="round"/>
<path d="M35.3043 21.4038L33.1741 20.6285" stroke="#FFA5CB" stroke-width="3.05201" stroke-linecap="round"/>
<path d="M35.6821 24.9185L32.1403 23.4689" stroke="#4CD4FF" stroke-width="3.05201" stroke-linecap="round"/>
<defs>
<filter id="filter0_i_734_2307" x="18.8368" y="19.4156" width="10.0699" height="10.0698" filterUnits="userSpaceOnUse" color-interpolation-filters="sRGB">
<feFlood flood-opacity="0" result="BackgroundImageFix"/>
<feBlend mode="normal" in="SourceGraphic" in2="BackgroundImageFix" result="shape"/>
<feColorMatrix in="SourceAlpha" type="matrix" values="0 0 0 0 0 0 0 0 0 0 0 0 0 0 0 0 0 0 127 0" result="hardAlpha"/>
<feOffset dx="-1.19578" dy="-1.19578"/>
<feGaussianBlur stdDeviation="1.19578"/>
<feComposite in2="hardAlpha" operator="arithmetic" k2="-1" k3="1"/>
<feColorMatrix type="matrix" values="0 0 0 0 1 0 0 0 0 0.97125 0 0 0 0 0.7125 0 0 0 1 0"/>
<feBlend mode="normal" in2="shape" result="effect1_innerShadow_734_2307"/>
</filter>
<filter id="filter1_i_734_2307" x="3.77334" y="4.35201" width="25.536" height="25.5359" filterUnits="userSpaceOnUse" color-interpolation-filters="sRGB">
<feFlood flood-opacity="0" result="BackgroundImageFix"/>
<feBlend mode="normal" in="SourceGraphic" in2="BackgroundImageFix" result="shape"/>
<feColorMatrix in="SourceAlpha" type="matrix" values="0 0 0 0 0 0 0 0 0 0 0 0 0 0 0 0 0 0 127 0" result="hardAlpha"/>
<feOffset dx="-2.53715" dy="-2.53715"/>
<feGaussianBlur stdDeviation="3.58733"/>
<feComposite in2="hardAlpha" operator="arithmetic" k2="-1" k3="1"/>
<feColorMatrix type="matrix" values="0 0 0 0 0.454167 0 0 0 0 0.607 0 0 0 0 1 0 0 0 0.86 0"/>
<feBlend mode="normal" in2="shape" result="effect1_innerShadow_734_2307"/>
</filter>
<linearGradient id="paint0_linear_734_2307" x1="21.5851" y1="22.1638" x2="27.9867" y2="28.5654" gradientUnits="userSpaceOnUse">
<stop stop-color="#FFF84D"/>
<stop offset="1" stop-color="#FFA24D"/>
</linearGradient>
<linearGradient id="paint1_linear_734_2307" x1="21.5851" y1="22.1638" x2="27.9867" y2="28.5654" gradientUnits="userSpaceOnUse">
<stop stop-color="#F4E23D"/>
<stop offset="1" stop-color="#FFA337"/>
</linearGradient>
<linearGradient id="paint2_linear_734_2307" x1="7.04414" y1="7.62273" x2="24.3289" y2="24.9075" gradientUnits="userSpaceOnUse">
<stop stop-color="#DD94FF"/>
<stop offset="1" stop-color="#714DFF"/>
</linearGradient>
<linearGradient id="paint3_linear_734_2307" x1="7.04414" y1="7.62273" x2="24.3289" y2="24.9075" gradientUnits="userSpaceOnUse">
<stop stop-color="#CD8CFF"/>
<stop offset="1" stop-color="#9B6BFF"/>
</linearGradient>
</defs>
</svg>
