<svg width="1920" height="1110" viewBox="0 0 1920 1110" fill="none" xmlns="http://www.w3.org/2000/svg">
<path d="M-170 -66C-168.895 -66 -168 -66.8954 -168 -68V-72H-163.993C-162.888 -72 -161.993 -72.8954 -161.993 -74H-153.982C-153.982 -72.8954 -153.087 -72 -151.982 -72H-139.971C-138.867 -72 -137.971 -72.8954 -137.971 -74H-129.961C-129.961 -72.8954 -129.065 -72 -127.961 -72H-115.95C-114.845 -72 -113.95 -72.8954 -113.95 -74H-105.939C-105.939 -72.8954 -105.044 -72 -103.939 -72H-91.9285C-90.8239 -72 -89.9285 -72.8954 -89.9285 -74H-81.9177C-81.9177 -72.8954 -81.0223 -72 -79.9177 -72H-67.907C-66.8024 -72 -65.907 -72.8954 -65.907 -74H-57.8962C-57.8962 -72.8954 -57.0008 -72 -55.8962 -72H-43.8855C-42.7809 -72 -41.8855 -72.8954 -41.8855 -74H-33.8747C-33.8747 -72.8954 -32.9793 -72 -31.8747 -72H-19.864C-18.7594 -72 -17.864 -72.8954 -17.864 -74H-9.85326C-9.85326 -72.8954 -8.95782 -72 -7.85326 -72H4.15749C5.26205 -72 6.15749 -72.8954 6.15749 -74H14.1682C14.1682 -72.8954 15.0636 -72 16.1682 -72H28.179C29.2835 -72 30.179 -72.8954 30.179 -74H38.1897C38.1897 -72.8954 39.0851 -72 40.1897 -72H52.2004C53.305 -72 54.2004 -72.8954 54.2004 -74H62.2112C62.2112 -72.8954 63.1066 -72 64.2112 -72H76.2219C77.3265 -72 78.2219 -72.8954 78.2219 -74H86.2327C86.2327 -72.8954 87.1281 -72 88.2327 -72H100.243C101.348 -72 102.243 -72.8954 102.243 -74H110.254C110.254 -72.8954 111.15 -72 112.254 -72H124.265C125.369 -72 126.265 -72.8954 126.265 -74H134.276C134.276 -72.8954 135.171 -72 136.276 -72H148.286C149.391 -72 150.286 -72.8954 150.286 -74H158.297C158.297 -72.8954 159.193 -72 160.297 -72H172.308C173.412 -72 174.308 -72.8954 174.308 -74H182.319C182.319 -72.8954 183.214 -72 184.319 -72H196.329C197.434 -72 198.329 -72.8954 198.329 -74H206.34C206.34 -72.8954 207.236 -72 208.34 -72H220.351C221.455 -72 222.351 -72.8954 222.351 -74H230.362C230.362 -72.8954 231.257 -72 232.362 -72H244.372C245.477 -72 246.372 -72.8954 246.372 -74H254.383C254.383 -72.8954 255.278 -72 256.383 -72H268.394C269.498 -72 270.394 -72.8954 270.394 -74H278.405C278.405 -72.8954 279.3 -72 280.405 -72H292.415C293.52 -72 294.415 -72.8954 294.415 -74H302.426C302.426 -72.8954 303.321 -72 304.426 -72H316.437C317.541 -72 318.437 -72.8954 318.437 -74H326.447C326.447 -72.8954 327.343 -72 328.447 -72H340.458C341.563 -72 342.458 -72.8954 342.458 -74H350.469C350.469 -72.8954 351.364 -72 352.469 -72H364.48C365.584 -72 366.48 -72.8954 366.48 -74H374.49C374.49 -72.8954 375.386 -72 376.49 -72H388.501C389.606 -72 390.501 -72.8954 390.501 -74H398.512C398.512 -72.8954 399.407 -72 400.512 -72H412.523C413.627 -72 414.523 -72.8954 414.523 -74H422.533C422.533 -72.8954 423.429 -72 424.533 -72H436.544C437.649 -72 438.544 -72.8954 438.544 -74H446.555C446.555 -72.8954 447.45 -72 448.555 -72H460.566C461.67 -72 462.566 -72.8954 462.566 -74H470.576C470.576 -72.8954 471.472 -72 472.576 -72H484.587C485.692 -72 486.587 -72.8954 486.587 -74H494.598C494.598 -72.8954 495.493 -72 496.598 -72H508.609C509.713 -72 510.609 -72.8954 510.609 -74H518.619C518.619 -72.8954 519.515 -72 520.619 -72H532.63C533.735 -72 534.63 -72.8954 534.63 -74H542.641C542.641 -72.8954 543.536 -72 544.641 -72H556.652C557.756 -72 558.652 -72.8954 558.652 -74H566.662C566.662 -72.8954 567.558 -72 568.662 -72H580.673C581.778 -72 582.673 -72.8954 582.673 -74H590.684C590.684 -72.8954 591.579 -72 592.684 -72H604.695C605.799 -72 606.695 -72.8954 606.695 -74H614.705C614.705 -72.8954 615.601 -72 616.705 -72H628.716C629.821 -72 630.716 -72.8954 630.716 -74H638.727C638.727 -72.8954 639.622 -72 640.727 -72H652.737C653.842 -72 654.737 -72.8954 654.737 -74H662.748C662.748 -72.8954 663.644 -72 664.748 -72H676.759C677.864 -72 678.759 -72.8954 678.759 -74H686.77C686.77 -72.8954 687.665 -72 688.77 -72H700.78C701.885 -72 702.78 -72.8954 702.78 -74H710.791C710.791 -72.8954 711.687 -72 712.791 -72H724.802C725.906 -72 726.802 -72.8954 726.802 -74H734.813C734.813 -72.8954 735.708 -72 736.813 -72H748.823C749.928 -72 750.823 -72.8954 750.823 -74H758.834C758.834 -72.8954 759.73 -72 760.834 -72H772.845C773.949 -72 774.845 -72.8954 774.845 -74H782.856C782.856 -72.8954 783.751 -72 784.856 -72H796.866C797.971 -72 798.866 -72.8954 798.866 -74H806.877C806.877 -72.8954 807.773 -72 808.877 -72H820.888C821.992 -72 822.888 -72.8954 822.888 -74H830.899C830.899 -72.8954 831.794 -72 832.899 -72H844.909C846.014 -72 846.909 -72.8954 846.909 -74H854.92C854.92 -72.8954 855.816 -72 856.92 -72H868.931C870.035 -72 870.931 -72.8954 870.931 -74H878.942C878.942 -72.8954 879.837 -72 880.942 -72H892.952C894.057 -72 894.952 -72.8954 894.952 -74H902.963C902.963 -72.8954 903.859 -72 904.963 -72H916.974C918.078 -72 918.974 -72.8954 918.974 -74H926.984C926.984 -72.8954 927.88 -72 928.984 -72H940.995C942.1 -72 942.995 -72.8954 942.995 -74H951.006C951.006 -72.8954 951.901 -72 953.006 -72H965.017C966.121 -72 967.017 -72.8954 967.017 -74H975.028C975.028 -72.8954 975.923 -72 977.028 -72H989.038C990.143 -72 991.038 -72.8954 991.038 -74H999.049C999.049 -72.8954 999.944 -72 1001.05 -72H1013.06C1014.16 -72 1015.06 -72.8954 1015.06 -74H1023.07C1023.07 -72.8954 1023.97 -72 1025.07 -72H1037.08C1038.19 -72 1039.08 -72.8954 1039.08 -74H1047.09C1047.09 -72.8954 1047.99 -72 1049.09 -72H1061.1C1062.21 -72 1063.1 -72.8954 1063.1 -74H1071.11C1071.11 -72.8954 1072.01 -72 1073.11 -72H1085.12C1086.23 -72 1087.12 -72.8954 1087.12 -74H1095.14C1095.14 -72.8954 1096.03 -72 1097.14 -72H1109.15C1110.25 -72 1111.15 -72.8954 1111.15 -74H1119.16C1119.16 -72.8954 1120.05 -72 1121.16 -72H1133.17C1134.27 -72 1135.17 -72.8954 1135.17 -74H1143.18C1143.18 -72.8954 1144.07 -72 1145.18 -72H1157.19C1158.29 -72 1159.19 -72.8954 1159.19 -74H1167.2C1167.2 -72.8954 1168.09 -72 1169.2 -72H1181.21C1182.31 -72 1183.21 -72.8954 1183.21 -74H1191.22C1191.22 -72.8954 1192.12 -72 1193.22 -72H1205.23C1206.34 -72 1207.23 -72.8954 1207.23 -74H1215.24C1215.24 -72.8954 1216.14 -72 1217.24 -72H1229.25C1230.36 -72 1231.25 -72.8954 1231.25 -74H1239.26C1239.26 -72.8954 1240.16 -72 1241.26 -72H1253.27C1254.38 -72 1255.27 -72.8954 1255.27 -74H1263.29C1263.29 -72.8954 1264.18 -72 1265.29 -72H1277.3C1278.4 -72 1279.3 -72.8954 1279.3 -74H1287.31C1287.31 -72.8954 1288.2 -72 1289.31 -72H1301.32C1302.42 -72 1303.32 -72.8954 1303.32 -74H1311.33C1311.33 -72.8954 1312.22 -72 1313.33 -72H1325.34C1326.44 -72 1327.34 -72.8954 1327.34 -74H1335.35C1335.35 -72.8954 1336.25 -72 1337.35 -72H1349.36C1350.47 -72 1351.36 -72.8954 1351.36 -74H1359.37C1359.37 -72.8954 1360.27 -72 1361.37 -72H1373.38C1374.49 -72 1375.38 -72.8954 1375.38 -74H1383.39C1383.39 -72.8954 1384.29 -72 1385.39 -72H1397.4C1398.51 -72 1399.4 -72.8954 1399.4 -74H1407.41C1407.41 -72.8954 1408.31 -72 1409.41 -72H1421.43C1422.53 -72 1423.43 -72.8954 1423.43 -74H1431.44C1431.44 -72.8954 1432.33 -72 1433.44 -72H1445.45C1446.55 -72 1447.45 -72.8954 1447.45 -74H1455.46C1455.46 -72.8954 1456.35 -72 1457.46 -72H1469.47C1470.57 -72 1471.47 -72.8954 1471.47 -74H1479.48C1479.48 -72.8954 1480.37 -72 1481.48 -72H1493.49C1494.59 -72 1495.49 -72.8954 1495.49 -74H1503.5C1503.5 -72.8954 1504.4 -72 1505.5 -72H1517.51C1518.62 -72 1519.51 -72.8954 1519.51 -74H1527.52C1527.52 -72.8954 1528.42 -72 1529.52 -72H1541.53C1542.64 -72 1543.53 -72.8954 1543.53 -74H1551.54C1551.54 -72.8954 1552.44 -72 1553.54 -72H1565.55C1566.66 -72 1567.55 -72.8954 1567.55 -74H1575.56C1575.56 -72.8954 1576.46 -72 1577.56 -72H1589.58C1590.68 -72 1591.58 -72.8954 1591.58 -74H1599.59C1599.59 -72.8954 1600.48 -72 1601.59 -72H1613.6C1614.7 -72 1615.6 -72.8954 1615.6 -74H1623.61C1623.61 -72.8954 1624.5 -72 1625.61 -72H1637.62C1638.72 -72 1639.62 -72.8954 1639.62 -74H1647.63C1647.63 -72.8954 1648.52 -72 1649.63 -72H1661.64C1662.74 -72 1663.64 -72.8954 1663.64 -74H1671.65C1671.65 -72.8954 1672.55 -72 1673.65 -72H1685.66C1686.77 -72 1687.66 -72.8954 1687.66 -74H1695.67C1695.67 -72.8954 1696.57 -72 1697.67 -72H1709.68C1710.79 -72 1711.68 -72.8954 1711.68 -74H1719.69C1719.69 -72.8954 1720.59 -72 1721.69 -72H1733.7C1734.81 -72 1735.7 -72.8954 1735.7 -74H1743.72C1743.72 -72.8954 1744.61 -72 1745.72 -72H1757.73C1758.83 -72 1759.73 -72.8954 1759.73 -74H1767.74C1767.74 -72.8954 1768.63 -72 1769.74 -72H1781.75C1782.85 -72 1783.75 -72.8954 1783.75 -74H1791.76C1791.76 -72.8954 1792.65 -72 1793.76 -72H1805.77C1806.87 -72 1807.77 -72.8954 1807.77 -74H1815.78C1815.78 -72.8954 1816.67 -72 1817.78 -72H1829.79C1830.89 -72 1831.79 -72.8954 1831.79 -74H1839.8C1839.8 -72.8954 1840.7 -72 1841.8 -72H1853.81C1854.92 -72 1855.81 -72.8954 1855.81 -74H1863.82C1863.82 -72.8954 1864.72 -72 1865.82 -72H1877.83C1878.94 -72 1879.83 -72.8954 1879.83 -74H1887.84C1887.84 -72.8954 1888.74 -72 1889.84 -72H1901.85C1902.96 -72 1903.85 -72.8954 1903.85 -74H1911.87C1911.87 -72.8954 1912.76 -72 1913.87 -72H1925.88C1926.98 -72 1927.88 -72.8954 1927.88 -74H1935.89C1935.89 -72.8954 1936.78 -72 1937.89 -72H1949.9C1951 -72 1951.9 -72.8954 1951.9 -74H1959.91C1959.91 -72.8954 1960.8 -72 1961.91 -72H1973.92C1975.02 -72 1975.92 -72.8954 1975.92 -74H1983.93C1983.93 -72.8954 1984.83 -72 1985.93 -72H1997.94C1999.05 -72 1999.94 -72.8954 1999.94 -74H2007.95C2007.95 -72.8954 2008.85 -72 2009.95 -72H2021.96C2023.07 -72 2023.96 -72.8954 2023.96 -74H2031.97C2031.97 -72.8954 2032.87 -72 2033.97 -72H2045.98C2047.09 -72 2047.98 -72.8954 2047.98 -74H2055.99C2055.99 -72.8954 2056.89 -72 2057.99 -72H2062V-68C2062 -66.8954 2062.9 -66 2064 -66V-58C2062.9 -58 2062 -57.1046 2062 -56V-44C2062 -42.8954 2062.9 -42 2064 -42V-34C2062.9 -34 2062 -33.1046 2062 -32V-20C2062 -18.8954 2062.9 -18 2064 -18V-10C2062.9 -10 2062 -9.10457 2062 -8V4.00001C2062 5.10458 2062.9 6.00001 2064 6.00001V14C2062.9 14 2062 14.8954 2062 16V28C2062 29.1046 2062.9 30 2064 30V38C2062.9 38 2062 38.8954 2062 40V52C2062 53.1046 2062.9 54 2064 54V62C2062.9 62 2062 62.8954 2062 64V76C2062 77.1046 2062.9 78 2064 78V86C2062.9 86 2062 86.8954 2062 88V100C2062 101.105 2062.9 102 2064 102V110C2062.9 110 2062 110.895 2062 112V124C2062 125.105 2062.9 126 2064 126V134C2062.9 134 2062 134.895 2062 136V148C2062 149.105 2062.9 150 2064 150V158C2062.9 158 2062 158.895 2062 160V172C2062 173.105 2062.9 174 2064 174V182C2062.9 182 2062 182.895 2062 184V190C2062 192.015 2061.99 194.028 2061.98 196.04C2061.97 197.143 2062.86 198.044 2063.97 198.052C2063.94 200.747 2063.91 203.44 2063.86 206.129C2062.76 206.109 2061.85 206.987 2061.83 208.09C2061.75 212.101 2061.64 216.105 2061.52 220.103C2061.48 221.206 2062.35 222.13 2063.45 222.167C2063.36 224.837 2063.25 227.505 2063.14 230.169C2062.04 230.121 2061.1 230.975 2061.05 232.077C2060.87 236.086 2060.67 240.089 2060.43 244.084C2060.37 245.186 2061.21 246.131 2062.31 246.197C2062.15 248.885 2061.98 251.57 2061.79 254.251C2060.69 254.174 2059.73 255.003 2059.66 256.105C2059.37 260.104 2059.06 264.097 2058.73 268.083C2058.63 269.183 2059.45 270.149 2060.55 270.243C2060.32 272.905 2060.08 275.564 2059.82 278.22C2058.73 278.114 2057.75 278.918 2057.64 280.017C2057.25 284.013 2056.84 288.002 2056.4 291.984C2056.28 293.081 2057.07 294.069 2058.17 294.191C2057.86 296.865 2057.55 299.535 2057.23 302.201C2056.13 302.067 2055.13 302.845 2055 303.941C2054.51 307.919 2053.99 311.889 2053.44 315.851C2053.29 316.944 2054.06 317.952 2055.15 318.104C2054.78 320.75 2054.4 323.393 2054.01 326.032C2052.92 325.869 2051.9 326.621 2051.74 327.712C2051.14 331.685 2050.52 335.65 2049.87 339.607C2049.69 340.696 2050.43 341.724 2051.52 341.903C2051.08 344.555 2050.63 347.203 2050.16 349.847C2049.08 349.656 2048.04 350.381 2047.85 351.468C2047.15 355.413 2046.42 359.349 2045.67 363.276C2045.46 364.361 2046.17 365.407 2047.26 365.616C2046.75 368.239 2046.23 370.858 2045.7 373.473C2044.62 373.253 2043.57 373.95 2043.35 375.032C2042.54 378.971 2041.71 382.9 2040.85 386.82C2040.62 387.899 2041.3 388.964 2042.38 389.2C2041.8 391.823 2041.21 394.442 2040.61 397.056C2039.53 396.808 2038.46 397.477 2038.21 398.552C2037.3 402.453 2036.37 406.345 2035.41 410.227C2035.15 411.299 2035.8 412.382 2036.88 412.647C2036.23 415.245 2035.57 417.838 2034.91 420.427C2033.84 420.15 2032.75 420.791 2032.47 421.86C2031.46 425.747 2030.42 429.625 2029.36 433.492C2029.07 434.556 2029.69 435.656 2030.76 435.949C2030.04 438.536 2029.31 441.118 2028.58 443.696C2027.52 443.391 2026.41 444.003 2026.1 445.063C2024.99 448.91 2023.86 452.746 2022.7 456.572C2022.38 457.629 2022.97 458.744 2024.03 459.065C2023.25 461.63 2022.45 464.19 2021.65 466.744C2020.6 466.412 2019.47 466.994 2019.14 468.046C2017.92 471.872 2016.69 475.687 2015.42 479.492C2015.07 480.539 2015.64 481.67 2016.69 482.019C2015.84 484.563 2014.98 487.102 2014.1 489.635C2013.06 489.275 2011.92 489.828 2011.56 490.87C2010.25 494.652 2008.91 498.423 2007.55 502.182C2007.18 503.22 2007.72 504.366 2008.75 504.742C2007.83 507.265 2006.91 509.783 2005.97 512.296C2004.93 511.908 2003.78 512.43 2003.39 513.463C2001.98 517.217 2000.54 520.96 1999.08 524.691C1998.68 525.719 1999.18 526.878 2000.21 527.282C1999.23 529.776 1998.23 532.264 1997.23 534.748C1996.2 534.333 1995.04 534.825 1994.62 535.847C1993.11 539.554 1991.58 543.248 1990.03 546.931C1989.6 547.948 1990.07 549.12 1991.09 549.551C1990.04 552.024 1988.98 554.492 1987.9 556.954C1986.89 556.513 1985.71 556.974 1985.27 557.985C1983.66 561.658 1982.03 565.318 1980.38 568.965C1979.92 569.971 1980.36 571.155 1981.37 571.612C1980.26 574.05 1979.13 576.482 1978 578.908C1977 578.44 1975.81 578.87 1975.34 579.869C1973.64 583.494 1971.91 587.106 1970.16 590.705C1969.68 591.698 1970.09 592.894 1971.09 593.377C1969.91 595.79 1968.72 598.198 1967.52 600.599C1966.53 600.105 1965.33 600.503 1964.83 601.49C1963.03 605.071 1961.21 608.64 1959.37 612.194C1958.86 613.174 1959.24 614.38 1960.22 614.89C1958.98 617.265 1957.73 619.634 1956.47 621.997C1955.5 621.477 1954.29 621.844 1953.77 622.817C1951.88 626.35 1949.96 629.869 1948.02 633.374C1947.49 634.34 1947.84 635.556 1948.81 636.091C1947.5 638.437 1946.19 640.778 1944.87 643.112C1943.91 642.566 1942.69 642.901 1942.14 643.86C1940.16 647.341 1938.15 650.808 1936.12 654.261C1935.56 655.213 1935.88 656.437 1936.83 656.997C1935.47 659.304 1934.1 661.604 1932.72 663.898C1931.77 663.328 1930.54 663.63 1929.97 664.575C1927.9 668.005 1925.8 671.421 1923.68 674.822C1923.1 675.758 1923.38 676.991 1924.32 677.576C1922.89 679.85 1921.46 682.117 1920.02 684.378C1919.09 683.783 1917.85 684.053 1917.26 684.982C1915.09 688.354 1912.91 691.711 1910.7 695.052C1910.09 695.974 1910.35 697.213 1911.27 697.822C1909.79 700.056 1908.3 702.282 1906.8 704.502C1905.88 703.883 1904.64 704.121 1904.02 705.034C1901.77 708.351 1899.5 711.652 1897.2 714.938C1896.57 715.843 1896.79 717.089 1897.69 717.721C1896.15 719.917 1894.6 722.106 1893.05 724.287C1892.15 723.645 1890.9 723.85 1890.26 724.747C1887.92 728.001 1885.56 731.239 1883.19 734.461C1882.53 735.349 1882.72 736.6 1883.61 737.256C1882.01 739.41 1880.4 741.558 1878.79 743.697C1877.91 743.032 1876.66 743.204 1875.99 744.084C1873.57 747.278 1871.13 750.455 1868.66 753.616C1867.99 754.487 1868.14 755.742 1869.01 756.421C1867.36 758.533 1865.7 760.638 1864.03 762.735C1863.17 762.047 1861.91 762.187 1861.22 763.049C1858.72 766.176 1856.19 769.287 1853.65 772.381C1852.95 773.234 1853.07 774.493 1853.93 775.195C1852.22 777.263 1850.5 779.324 1848.78 781.378C1847.93 780.667 1846.67 780.775 1845.96 781.618C1843.38 784.681 1840.77 787.726 1838.15 790.754C1837.43 791.588 1837.52 792.85 1838.35 793.574C1836.59 795.597 1834.82 797.612 1833.05 799.619C1832.22 798.887 1830.96 798.961 1830.22 799.786C1827.56 802.779 1824.88 805.755 1822.18 808.713C1821.44 809.528 1821.49 810.792 1822.31 811.537C1820.5 813.514 1818.67 815.483 1816.85 817.444C1816.04 816.69 1814.77 816.732 1814.02 817.537C1811.28 820.461 1808.52 823.366 1805.75 826.254C1804.98 827.049 1805 828.314 1805.8 829.08C1803.94 831.009 1802.07 832.929 1800.19 834.841C1799.4 834.067 1798.13 834.076 1797.36 834.861C1794.55 837.712 1791.71 840.545 1788.86 843.359C1788.08 844.134 1788.07 845.399 1788.84 846.186C1786.93 848.065 1785.01 849.936 1783.08 851.799C1782.31 851.004 1781.05 850.98 1780.25 851.745C1777.37 854.522 1774.46 857.28 1771.54 860.02C1770.73 860.774 1770.69 862.039 1771.44 862.845C1769.48 864.674 1767.51 866.495 1765.54 868.307C1764.79 867.493 1763.53 867.436 1762.71 868.18C1759.76 870.881 1756.78 873.562 1753.79 876.224C1752.96 876.957 1752.89 878.22 1753.62 879.046C1751.61 880.823 1749.6 882.591 1747.57 884.351C1746.85 883.518 1745.59 883.428 1744.75 884.151C1741.73 886.773 1738.68 889.377 1735.62 891.961C1734.77 892.672 1734.67 893.933 1735.38 894.777C1733.32 896.502 1731.26 898.218 1729.19 899.925C1728.49 899.074 1727.23 898.951 1726.38 899.652C1723.29 902.194 1720.18 904.716 1717.05 907.218C1716.19 907.907 1716.05 909.165 1716.74 910.027C1714.64 911.698 1712.53 913.359 1710.42 915.011C1709.74 914.141 1708.49 913.986 1707.62 914.664C1704.46 917.126 1701.28 919.568 1698.08 921.989C1697.2 922.656 1697.03 923.909 1697.7 924.789C1695.56 926.404 1693.41 928.01 1691.26 929.607C1690.6 928.719 1689.35 928.531 1688.46 929.186C1685.24 931.564 1682 933.92 1678.75 936.256C1677.85 936.9 1677.64 938.148 1678.29 939.045C1676.11 940.604 1673.92 942.154 1671.72 943.694C1671.09 942.79 1669.84 942.569 1668.94 943.201C1665.65 945.495 1662.35 947.768 1659.03 950.02C1658.12 950.64 1657.88 951.883 1658.5 952.796C1656.28 954.297 1654.06 955.787 1651.82 957.268C1651.21 956.348 1649.97 956.095 1649.05 956.703C1645.71 958.908 1642.35 961.093 1638.98 963.256C1638.05 963.852 1637.78 965.088 1638.38 966.017C1636.12 967.46 1633.85 968.894 1631.58 970.318C1630.99 969.382 1629.76 969.096 1628.82 969.68C1625.42 971.799 1622.01 973.896 1618.58 975.972C1617.63 976.544 1617.33 977.772 1617.9 978.717C1615.6 980.098 1613.3 981.469 1611 982.831C1610.44 981.88 1609.21 981.562 1608.26 982.121C1604.81 984.149 1601.34 986.155 1597.86 988.139C1596.9 988.686 1596.57 989.906 1597.11 990.865C1594.78 992.189 1592.44 993.502 1590.09 994.806C1589.56 993.84 1588.34 993.49 1587.37 994.024C1583.87 995.961 1580.35 997.876 1576.82 999.768C1575.84 1000.29 1575.48 1001.5 1576 1002.47C1573.63 1003.73 1571.27 1004.98 1568.89 1006.22C1568.38 1005.24 1567.17 1004.86 1566.19 1005.37C1562.64 1007.21 1559.07 1009.03 1555.49 1010.83C1554.5 1011.33 1554.11 1012.53 1554.6 1013.52C1552.2 1014.72 1549.79 1015.91 1547.38 1017.08C1546.89 1016.09 1545.7 1015.68 1544.71 1016.16C1541.11 1017.91 1537.49 1019.64 1533.87 1021.34C1532.87 1021.81 1532.44 1023 1532.91 1024C1530.48 1025.13 1528.05 1026.26 1525.61 1027.37C1525.16 1026.36 1523.97 1025.92 1522.97 1026.38C1519.32 1028.03 1515.66 1029.66 1511.99 1031.27C1510.97 1031.71 1510.51 1032.89 1510.96 1033.9C1508.49 1034.98 1506.02 1036.04 1503.55 1037.09C1503.12 1036.07 1501.95 1035.6 1500.93 1036.03C1497.25 1037.58 1493.55 1039.11 1489.85 1040.62C1488.83 1041.04 1488.33 1042.2 1488.75 1043.23C1486.26 1044.23 1483.78 1045.23 1481.28 1046.21C1480.88 1045.18 1479.72 1044.68 1478.69 1045.08C1474.96 1046.54 1471.22 1047.98 1467.46 1049.39C1466.43 1049.78 1465.91 1050.93 1466.3 1051.97C1463.78 1052.91 1461.27 1053.83 1458.74 1054.75C1458.37 1053.72 1457.22 1053.18 1456.18 1053.55C1452.42 1054.91 1448.65 1056.25 1444.87 1057.56C1443.83 1057.92 1443.28 1059.06 1443.64 1060.1C1441.1 1060.98 1438.56 1061.84 1436.02 1062.69C1435.67 1061.64 1434.54 1061.07 1433.49 1061.42C1429.69 1062.69 1425.87 1063.92 1422.05 1065.14C1420.99 1065.47 1420.41 1066.6 1420.74 1067.65C1418.19 1068.45 1415.63 1069.25 1413.07 1070.03C1412.74 1068.97 1411.63 1068.38 1410.57 1068.7C1406.75 1069.86 1402.91 1070.99 1399.06 1072.1C1398 1072.41 1397.39 1073.52 1397.7 1074.58C1395.12 1075.31 1392.54 1076.04 1389.95 1076.76C1389.66 1075.69 1388.56 1075.07 1387.49 1075.36C1383.62 1076.42 1379.75 1077.46 1375.86 1078.47C1374.79 1078.75 1374.15 1079.84 1374.43 1080.91C1371.84 1081.57 1369.24 1082.23 1366.65 1082.88C1366.38 1081.8 1365.3 1081.15 1364.23 1081.41C1360.35 1082.37 1356.45 1083.3 1352.55 1084.21C1351.48 1084.46 1350.81 1085.53 1351.06 1086.61C1348.44 1087.21 1345.82 1087.8 1343.2 1088.38C1342.96 1087.3 1341.9 1086.62 1340.82 1086.85C1336.9 1087.71 1332.97 1088.54 1329.03 1089.35C1327.95 1089.57 1327.25 1090.62 1327.47 1091.7C1324.86 1092.23 1322.24 1092.75 1319.62 1093.26C1319.41 1092.17 1318.36 1091.46 1317.28 1091.67C1313.35 1092.42 1309.41 1093.15 1305.47 1093.85C1304.38 1094.04 1303.66 1095.08 1303.85 1096.16C1301.2 1096.63 1298.56 1097.08 1295.9 1097.52C1295.72 1096.43 1294.7 1095.69 1293.61 1095.87C1289.65 1096.52 1285.69 1097.14 1281.71 1097.74C1280.62 1097.9 1279.87 1098.92 1280.03 1100.01C1277.39 1100.4 1274.75 1100.78 1272.1 1101.15C1271.95 1100.06 1270.94 1099.3 1269.85 1099.44C1265.89 1099.99 1261.92 1100.51 1257.94 1101C1256.85 1101.13 1256.07 1102.13 1256.2 1103.23C1253.53 1103.55 1250.86 1103.86 1248.19 1104.17C1248.07 1103.07 1247.08 1102.28 1245.98 1102.4C1242 1102.84 1238.01 1103.25 1234.02 1103.64C1232.92 1103.75 1232.11 1104.73 1232.22 1105.82C1229.56 1106.08 1226.91 1106.32 1224.24 1106.55C1224.15 1105.45 1223.18 1104.63 1222.08 1104.73C1218.1 1105.06 1214.1 1105.37 1210.1 1105.66C1209 1105.73 1208.17 1106.69 1208.25 1107.79C1205.57 1107.98 1202.88 1108.15 1200.2 1108.31C1200.13 1107.21 1199.19 1106.37 1198.08 1106.43C1194.09 1106.67 1190.09 1106.87 1186.08 1107.05C1184.97 1107.1 1184.12 1108.04 1184.17 1109.14C1181.5 1109.25 1178.84 1109.36 1176.17 1109.45C1176.13 1108.35 1175.21 1107.48 1174.1 1107.52C1170.11 1107.64 1166.1 1107.75 1162.09 1107.83C1160.99 1107.85 1160.11 1108.76 1160.13 1109.86C1157.44 1109.91 1154.75 1109.94 1152.05 1109.97C1152.04 1108.86 1151.14 1107.97 1150.04 1107.98C1148.03 1107.99 1146.01 1108 1144 1108H1137.84C1136.74 1108 1135.84 1108.9 1135.84 1110H1127.53C1127.53 1108.9 1126.64 1108 1125.53 1108H1113.22C1112.11 1108 1111.22 1108.9 1111.22 1110H1102.91C1102.91 1108.9 1102.01 1108 1100.91 1108H1088.59C1087.49 1108 1086.59 1108.9 1086.59 1110H1078.28C1078.28 1108.9 1077.39 1108 1076.28 1108H1063.97C1062.86 1108 1061.97 1108.9 1061.97 1110H1053.66C1053.66 1108.9 1052.76 1108 1051.66 1108H1039.34C1038.24 1108 1037.34 1108.9 1037.34 1110H1029.03C1029.03 1108.9 1028.14 1108 1027.03 1108H1014.72C1013.61 1108 1012.72 1108.9 1012.72 1110H1004.41C1004.41 1108.9 1003.51 1108 1002.41 1108H990.094C988.989 1108 988.094 1108.9 988.094 1110H979.781C979.781 1108.9 978.886 1108 977.781 1108H965.469C964.364 1108 963.469 1108.9 963.469 1110H955.156C955.156 1108.9 954.261 1108 953.156 1108H940.844C939.739 1108 938.844 1108.9 938.844 1110H930.531C930.531 1108.9 929.636 1108 928.531 1108H916.219C915.114 1108 914.219 1108.9 914.219 1110H905.906C905.906 1108.9 905.011 1108 903.906 1108H891.594C890.489 1108 889.594 1108.9 889.594 1110H881.281C881.281 1108.9 880.386 1108 879.281 1108H866.969C865.864 1108 864.969 1108.9 864.969 1110H856.656C856.656 1108.9 855.761 1108 854.656 1108H842.344C841.239 1108 840.344 1108.9 840.344 1110H832.031C832.031 1108.9 831.136 1108 830.031 1108H817.719C816.614 1108 815.719 1108.9 815.719 1110H807.406C807.406 1108.9 806.511 1108 805.406 1108H793.094C791.989 1108 791.094 1108.9 791.094 1110H782.781C782.781 1108.9 781.886 1108 780.781 1108H768.469C767.364 1108 766.469 1108.9 766.469 1110H758.156C758.156 1108.9 757.261 1108 756.156 1108H750C747.985 1108 745.972 1107.99 743.96 1107.98C742.857 1107.97 741.956 1108.86 741.948 1109.97C739.253 1109.94 736.56 1109.91 733.871 1109.86C733.891 1108.76 733.013 1107.85 731.91 1107.83C727.899 1107.75 723.895 1107.64 719.897 1107.52C718.794 1107.48 717.87 1108.35 717.833 1109.45C715.163 1109.36 712.495 1109.25 709.831 1109.14C709.879 1108.04 709.025 1107.1 707.923 1107.05C703.914 1106.87 699.911 1106.67 695.916 1106.43C694.814 1106.37 693.869 1107.21 693.803 1108.31C691.115 1108.15 688.43 1107.98 685.749 1107.79C685.826 1106.69 684.997 1105.73 683.895 1105.66C679.896 1105.37 675.903 1105.06 671.917 1104.73C670.818 1104.63 669.851 1105.45 669.757 1106.55C667.095 1106.32 664.436 1106.08 661.78 1105.82C661.886 1104.73 661.082 1103.75 659.983 1103.64C655.987 1103.25 651.998 1102.84 648.016 1102.4C646.919 1102.28 645.931 1103.07 645.809 1104.17C643.135 1103.86 640.465 1103.55 637.799 1103.23C637.933 1102.13 637.155 1101.13 636.059 1101C632.081 1100.51 628.111 1099.99 624.149 1099.44C623.056 1099.3 622.047 1100.06 621.896 1101.15C619.25 1100.78 616.607 1100.4 613.968 1100.01C614.131 1098.92 613.379 1097.9 612.288 1097.74C608.315 1097.14 604.35 1096.52 600.393 1095.87C599.304 1095.69 598.276 1096.43 598.097 1097.52C595.445 1097.08 592.797 1096.63 590.153 1096.16C590.344 1095.08 589.619 1094.04 588.532 1093.85C584.587 1093.15 580.651 1092.42 576.724 1091.67C575.64 1091.46 574.593 1092.17 574.384 1093.26C571.761 1092.75 569.142 1092.23 566.527 1091.7C566.747 1090.62 566.05 1089.57 564.968 1089.35C561.029 1088.54 557.1 1087.71 553.18 1086.85C552.101 1086.62 551.036 1087.3 550.8 1088.38C548.177 1087.8 545.558 1087.21 542.944 1086.61C543.192 1085.53 542.523 1084.46 541.448 1084.21C537.547 1083.3 533.655 1082.37 529.773 1081.41C528.701 1081.15 527.618 1081.8 527.353 1082.88C524.755 1082.23 522.162 1081.57 519.573 1080.91C519.85 1079.84 519.209 1078.75 518.14 1078.47C514.253 1077.46 510.375 1076.42 506.508 1075.36C505.444 1075.07 504.344 1075.69 504.051 1076.76C501.464 1076.04 498.882 1075.31 496.304 1074.58C496.609 1073.52 495.997 1072.41 494.937 1072.1C491.09 1070.99 487.254 1069.86 483.428 1068.7C482.371 1068.38 481.256 1068.97 480.935 1070.03C478.37 1069.25 475.81 1068.45 473.256 1067.65C473.588 1066.6 473.006 1065.47 471.954 1065.14C468.128 1063.92 464.313 1062.69 460.508 1061.42C459.461 1061.07 458.33 1061.64 457.981 1062.69C455.437 1061.84 452.898 1060.98 450.365 1060.1C450.725 1059.06 450.172 1057.92 449.13 1057.56C445.348 1056.25 441.577 1054.91 437.818 1053.55C436.78 1053.18 435.634 1053.72 435.258 1054.75C432.735 1053.83 430.217 1052.91 427.704 1051.97C428.092 1050.93 427.57 1049.78 426.537 1049.39C422.783 1047.98 419.04 1046.54 415.309 1045.08C414.281 1044.68 413.122 1045.18 412.718 1046.21C410.224 1045.23 407.736 1044.23 405.252 1043.23C405.667 1042.21 405.175 1041.04 404.153 1040.62C400.446 1039.11 396.752 1037.58 393.069 1036.03C392.052 1035.6 390.88 1036.07 390.449 1037.09C387.976 1036.04 385.508 1034.98 383.046 1033.9C383.487 1032.89 383.026 1031.71 382.015 1031.27C378.342 1029.66 374.682 1028.03 371.035 1026.38C370.03 1025.92 368.845 1026.36 368.388 1027.37C365.95 1026.26 363.518 1025.13 361.092 1024C361.56 1023 361.13 1021.81 360.131 1021.34C356.506 1019.64 352.894 1017.91 349.295 1016.16C348.302 1015.68 347.106 1016.09 346.623 1017.09C344.21 1015.91 341.802 1014.72 339.401 1013.52C339.895 1012.53 339.497 1011.33 338.51 1010.83C334.929 1009.03 331.36 1007.21 327.806 1005.37C326.826 1004.86 325.62 1005.24 325.11 1006.22C322.735 1004.98 320.366 1003.73 318.003 1002.47C318.523 1001.5 318.156 1000.29 317.183 999.768C313.65 997.876 310.131 995.961 306.626 994.025C305.66 993.491 304.444 993.84 303.909 994.806C301.563 993.502 299.222 992.189 296.888 990.865C297.434 989.906 297.099 988.686 296.14 988.14C292.659 986.156 289.192 984.15 285.739 982.122C284.787 981.563 283.563 981.88 283.003 982.831C280.696 981.47 278.396 980.098 276.102 978.717C276.672 977.772 276.369 976.544 275.425 975.972C271.995 973.897 268.579 971.799 265.178 969.68C264.242 969.096 263.009 969.382 262.424 970.318C260.15 968.894 257.883 967.46 255.623 966.017C256.217 965.088 255.947 963.852 255.018 963.256C251.646 961.093 248.289 958.909 244.948 956.703C244.026 956.095 242.787 956.348 242.178 957.269C239.944 955.787 237.718 954.297 235.498 952.797C236.117 951.883 235.879 950.641 234.966 950.02C231.649 947.768 228.348 945.495 225.062 943.201C224.157 942.569 222.912 942.79 222.279 943.694C220.083 942.154 217.894 940.604 215.713 939.045C216.355 938.148 216.15 936.9 215.253 936.256C211.999 933.92 208.761 931.564 205.539 929.187C204.651 928.531 203.4 928.72 202.744 929.607C200.59 928.01 198.442 926.404 196.303 924.789C196.968 923.909 196.796 922.656 195.916 921.989C192.722 919.568 189.545 917.126 186.384 914.664C185.513 913.986 184.258 914.142 183.579 915.011C181.467 913.359 179.362 911.698 177.265 910.028C177.954 909.165 177.813 907.908 176.951 907.218C173.824 904.716 170.713 902.194 167.619 899.652C166.766 898.951 165.507 899.074 164.806 899.926C162.737 898.219 160.676 896.502 158.622 894.778C159.333 893.933 159.225 892.673 158.382 891.961C155.319 889.377 152.274 886.774 149.246 884.151C148.412 883.428 147.15 883.518 146.426 884.351C144.403 882.592 142.388 880.823 140.381 879.046C141.113 878.22 141.039 876.957 140.214 876.224C137.221 873.562 134.245 870.881 131.287 868.181C130.472 867.436 129.208 867.494 128.463 868.308C126.486 866.495 124.517 864.675 122.556 862.845C123.31 862.039 123.268 860.775 122.463 860.02C119.539 857.281 116.634 854.523 113.746 851.746C112.951 850.981 111.686 851.005 110.92 851.799C108.991 849.937 107.071 848.065 105.159 846.186C105.933 845.4 105.924 844.135 105.139 843.359C102.288 840.545 99.4552 837.713 96.6411 834.862C95.8657 834.076 94.6005 834.067 93.8143 834.842C91.9349 832.929 90.0638 831.009 88.201 829.08C88.9956 828.314 89.0198 827.049 88.2546 826.254C85.4778 823.367 82.7196 820.461 79.9804 817.538C79.2257 816.732 77.9612 816.69 77.1551 817.444C75.3257 815.483 73.5049 813.514 71.6925 811.538C72.5068 810.793 72.5639 809.529 71.8197 808.714C69.1194 805.755 66.4383 802.78 63.7764 799.786C63.0429 798.961 61.7799 798.887 60.9545 799.619C59.1773 797.612 57.4087 795.597 55.6489 793.574C56.4823 792.851 56.5722 791.589 55.8495 790.754C53.2266 787.726 50.6232 784.681 48.0394 781.619C47.3276 780.775 46.067 780.667 45.2228 781.378C43.4978 779.325 41.7817 777.264 40.0745 775.195C40.9264 774.493 41.0492 773.234 40.3485 772.381C37.8065 769.287 35.2843 766.176 32.7821 763.049C32.0925 762.187 30.8352 762.047 29.9727 762.735C28.3024 760.638 26.6411 758.534 24.9888 756.422C25.8587 755.743 26.0143 754.487 25.336 753.616C22.8741 750.455 20.4324 747.278 18.0112 744.084C17.3443 743.205 16.091 743.032 15.2108 743.698C13.5959 741.558 11.99 739.411 10.3933 737.256C11.2807 736.6 11.4689 735.349 10.8136 734.461C8.43645 731.239 6.0799 728.001 3.74409 724.747C3.10037 723.851 1.85201 723.645 0.954819 724.287C-0.60405 722.106 -2.15363 719.917 -3.69386 717.722C-2.78972 717.089 -2.56888 715.843 -3.20084 714.938C-5.49492 711.653 -7.76807 708.351 -10.0201 705.035C-10.6401 704.121 -11.8827 703.883 -12.7964 704.502C-14.2965 702.283 -15.7871 700.056 -17.2683 697.823C-16.3479 697.214 -16.0946 695.974 -16.7027 695.053C-18.9083 691.711 -21.0927 688.354 -23.2556 684.983C-23.8516 684.054 -25.0876 683.783 -26.0171 684.378C-27.4603 682.117 -28.8938 679.85 -30.3177 677.576C-29.3817 676.991 -29.0961 675.759 -29.6799 674.822C-31.799 671.421 -33.8965 668.006 -35.9722 664.575C-36.5436 663.631 -37.7721 663.328 -38.7168 663.899C-40.098 661.605 -41.4695 659.304 -42.8312 656.998C-41.8802 656.438 -41.5624 655.213 -42.1215 654.261C-44.1494 650.809 -46.1554 647.342 -48.1392 643.861C-48.6858 642.901 -49.9058 642.567 -50.8652 643.112C-52.1886 640.778 -53.502 638.438 -54.8055 636.091C-53.8402 635.556 -53.4903 634.341 -54.0243 633.374C-55.9612 629.869 -57.8759 626.35 -59.7681 622.818C-60.2893 621.845 -61.5002 621.478 -62.4735 621.998C-63.7326 619.635 -64.9818 617.265 -66.2208 614.89C-65.2418 614.381 -64.8602 613.174 -65.3686 612.195C-67.2129 608.64 -69.0347 605.072 -70.8337 601.49C-71.3291 600.504 -72.5299 600.105 -73.5166 600.6C-74.7163 598.198 -75.9058 595.791 -77.085 593.378C-76.0929 592.894 -75.6798 591.698 -76.1622 590.706C-77.911 587.107 -79.6369 583.495 -81.3398 579.87C-81.8092 578.871 -82.9991 578.441 -83.9984 578.909C-85.1318 576.483 -86.255 574.051 -87.3678 571.613C-86.3633 571.156 -85.9189 569.971 -86.3751 568.966C-88.0304 565.318 -89.6625 561.658 -91.2713 557.985C-91.7142 556.974 -92.8924 556.513 -93.9037 556.955C-94.976 554.493 -96.0377 552.025 -97.0889 549.551C-96.0728 549.121 -95.5973 547.948 -96.0268 546.931C-97.5823 543.249 -99.1144 539.554 -100.623 535.848C-101.039 534.825 -102.205 534.333 -103.227 534.748C-104.232 532.265 -105.226 529.776 -106.209 527.282C-105.182 526.879 -104.676 525.719 -105.078 524.691C-106.54 520.961 -107.977 517.218 -109.391 513.464C-109.78 512.431 -110.932 511.908 -111.965 512.296C-112.905 509.783 -113.835 507.266 -114.753 504.743C-113.716 504.366 -113.179 503.221 -113.554 502.183C-114.914 498.423 -116.249 494.653 -117.56 490.871C-117.922 489.828 -119.06 489.275 -120.103 489.636C-120.975 487.102 -121.837 484.563 -122.688 482.02C-121.641 481.671 -121.074 480.539 -121.422 479.492C-122.685 475.688 -123.924 471.873 -125.139 468.047C-125.473 466.994 -126.596 466.412 -127.648 466.745C-128.453 464.19 -129.247 461.63 -130.03 459.066C-128.974 458.745 -128.378 457.629 -128.698 456.572C-129.857 452.747 -130.992 448.91 -132.102 445.064C-132.408 444.003 -133.515 443.391 -134.576 443.696C-135.314 441.118 -136.041 438.536 -136.757 435.95C-135.693 435.656 -135.067 434.557 -135.359 433.492C-136.421 429.625 -137.457 425.747 -138.469 421.86C-138.747 420.792 -139.838 420.151 -140.906 420.427C-141.574 417.838 -142.23 415.245 -142.876 412.647C-141.805 412.382 -141.15 411.299 -141.414 410.227C-142.37 406.345 -143.301 402.454 -144.208 398.552C-144.457 397.477 -145.531 396.808 -146.606 397.056C-147.207 394.442 -147.798 391.823 -148.376 389.201C-147.299 388.964 -146.616 387.899 -146.852 386.82C-147.708 382.9 -148.539 378.971 -149.345 375.032C-149.567 373.951 -150.622 373.253 -151.703 373.473C-152.233 370.858 -152.751 368.239 -153.258 365.616C-152.174 365.408 -151.464 364.361 -151.671 363.276C-152.421 359.349 -153.146 355.413 -153.846 351.468C-154.039 350.381 -155.076 349.656 -156.163 349.848C-156.626 347.203 -157.078 344.555 -157.518 341.904C-156.43 341.724 -155.692 340.696 -155.87 339.607C-156.519 335.65 -157.142 331.686 -157.74 327.712C-157.904 326.621 -158.921 325.869 -160.013 326.032C-160.404 323.393 -160.784 320.75 -161.153 318.104C-160.059 317.953 -159.295 316.944 -159.445 315.851C-159.988 311.889 -160.506 307.919 -160.998 303.941C-161.134 302.845 -162.131 302.067 -163.227 302.202C-163.551 299.535 -163.864 296.865 -164.165 294.191C-163.069 294.069 -162.278 293.081 -162.399 291.984C-162.839 288.002 -163.254 284.013 -163.643 280.017C-163.75 278.918 -164.726 278.114 -165.825 278.22C-166.078 275.564 -166.319 272.905 -166.549 270.243C-165.449 270.149 -164.633 269.182 -164.726 268.082C-165.062 264.097 -165.372 260.104 -165.657 256.104C-165.735 255.003 -166.69 254.174 -167.791 254.251C-167.976 251.569 -168.15 248.885 -168.312 246.196C-167.21 246.131 -166.369 245.186 -166.433 244.084C-166.665 240.089 -166.872 236.086 -167.053 232.077C-167.103 230.974 -168.036 230.121 -169.139 230.169C-169.253 227.505 -169.356 224.837 -169.448 222.166C-168.345 222.13 -167.48 221.206 -167.516 220.103C-167.645 216.105 -167.748 212.101 -167.825 208.09C-167.847 206.986 -168.758 206.109 -169.861 206.129C-169.908 203.44 -169.942 200.747 -169.965 198.052C-168.862 198.044 -167.973 197.143 -167.981 196.039C-167.994 194.028 -168 192.015 -168 190V184C-168 182.895 -168.895 182 -170 182V174C-168.895 174 -168 173.105 -168 172V160C-168 158.895 -168.895 158 -170 158V150C-168.895 150 -168 149.105 -168 148V136C-168 134.895 -168.895 134 -170 134V126C-168.895 126 -168 125.105 -168 124V112C-168 110.895 -168.895 110 -170 110V102C-168.895 102 -168 101.105 -168 100V88C-168 86.8954 -168.895 86 -170 86V78C-168.895 78 -168 77.1046 -168 76V64C-168 62.8954 -168.895 62 -170 62V54C-168.895 54 -168 53.1046 -168 52V40C-168 38.8954 -168.895 38 -170 38V30C-168.895 30 -168 29.1046 -168 28V16C-168 14.8954 -168.895 14 -170 14V6.00001C-168.895 6.00001 -168 5.10458 -168 4.00001V-7.99999C-168 -9.10456 -168.895 -9.99999 -170 -9.99999V-18C-168.895 -18 -168 -18.8954 -168 -20V-32C-168 -33.1046 -168.895 -34 -170 -34V-42C-168.895 -42 -168 -42.8954 -168 -44V-56C-168 -57.1046 -168.895 -58 -170 -58V-66Z" fill="url(#paint0_radial_733_438)" stroke="#FDB913" stroke-width="4" stroke-linecap="round" stroke-dasharray="12 12"/>
<defs>
<radialGradient id="paint0_radial_733_438" cx="0" cy="0" r="1" gradientUnits="userSpaceOnUse" gradientTransform="translate(450.556 211.037) rotate(41.5761) scale(1292.7 1457.54)">
<stop stop-color="#B0B3DE"/>
<stop offset="0.466667" stop-color="#5D62A8"/>
<stop offset="0.796202" stop-color="#3B42A0"/>
<stop offset="1" stop-color="#282C6B"/>
</radialGradient>
</defs>
</svg>
