<svg width="288" height="289" viewBox="0 0 288 289" fill="none" xmlns="http://www.w3.org/2000/svg">
<g opacity="0.2" filter="url(#filter0_f_312_3673)">
<circle cx="144" cy="144.409" r="84" fill="#F9F8F6"/>
</g>
<circle cx="142" cy="143.409" r="72" fill="#F9F6DB"/>
<circle cx="145" cy="145.409" r="72" fill="#FAF3B4"/>
<path d="M145 217.409C184.764 217.409 217 185.174 217 145.409C217 129.093 211.573 114.044 202.425 101.97C195.367 99.659 187.83 98.4092 180 98.4092C140.236 98.4092 108 130.645 108 170.409C108 186.725 113.427 201.774 122.575 213.848C129.633 216.159 137.17 217.409 145 217.409Z" fill="#FAE09E"/>
<circle cx="110.431" cy="166.84" r="13.4654" transform="rotate(-14.6994 110.431 166.84)" fill="#F9F6DB"/>
<path fill-rule="evenodd" clip-rule="evenodd" d="M111.815 180.236C108.772 178.507 106.401 175.599 105.443 171.946C103.556 164.752 107.857 157.391 115.051 155.504C115.728 155.326 116.407 155.204 117.083 155.133C114.135 153.457 110.554 152.887 107.014 153.816C99.8211 155.703 95.5195 163.064 97.4065 170.257C99.1158 176.773 105.316 180.916 111.815 180.236Z" fill="#FAE09E"/>
<circle cx="161.453" cy="99.8619" r="7.49697" transform="rotate(38.3828 161.453 99.8619)" fill="#F9F6DB"/>
<path fill-rule="evenodd" clip-rule="evenodd" d="M155.953 104.958C155.705 103.025 156.206 100.997 157.512 99.3487C160.083 96.1031 164.798 95.5561 168.044 98.127C168.349 98.3692 168.631 98.6304 168.889 98.9076C168.648 97.0347 167.705 95.2503 166.108 93.9852C162.862 91.4143 158.147 91.9613 155.576 95.2069C153.247 98.1468 153.477 102.292 155.953 104.958Z" fill="#FAE09E"/>
<circle cx="104.532" cy="115.941" r="4.63534" transform="rotate(38.3828 104.532 115.941)" fill="#F9F6DB"/>
<path fill-rule="evenodd" clip-rule="evenodd" d="M101.131 119.092C100.978 117.896 101.288 116.643 102.095 115.624C103.685 113.617 106.6 113.279 108.607 114.868C108.796 115.018 108.97 115.179 109.129 115.351C108.981 114.193 108.397 113.09 107.41 112.307C105.403 110.718 102.488 111.056 100.898 113.063C99.4583 114.88 99.6001 117.444 101.131 119.092Z" fill="#FAE09E"/>
<defs>
<filter id="filter0_f_312_3673" x="0" y="0.40918" width="288" height="288" filterUnits="userSpaceOnUse" color-interpolation-filters="sRGB">
<feFlood flood-opacity="0" result="BackgroundImageFix"/>
<feBlend mode="normal" in="SourceGraphic" in2="BackgroundImageFix" result="shape"/>
<feGaussianBlur stdDeviation="30" result="effect1_foregroundBlur_312_3673"/>
</filter>
</defs>
</svg>
