<svg width="1920" height="1594" viewBox="0 0 1920 1594" fill="none" xmlns="http://www.w3.org/2000/svg">
<path d="M2090.06 1594C2090.53 1594 2090.53 1593.81 2090.06 1593.44L2090.06 49.4287C2013.62 26.8356 1880.94 8.83842 1707.05 26.8354C1533.15 44.8324 1463.31 66.224 1264.23 91.7023C927.595 134.783 808.756 18.3847 443.478 0.958682C177.412 -11.7343 109.767 106.826 -73.9998 49.4287L-73.9999 1533.5C10.5413 1504.26 180.616 1489 375.833 1498.22C647.844 1511.06 768.625 1533.5 944.044 1533.5C1244.61 1533.5 1395.71 1498.22 1579.9 1498.22C1859.94 1498.22 2080.13 1585.64 2090.06 1593.44L2090.06 1594Z" fill="#C8CBF7" fill-opacity="0.3"/>
</svg>
