<svg width="55" height="56" viewBox="0 0 55 56" fill="none" xmlns="http://www.w3.org/2000/svg">
<path d="M42.2479 1.4348L45.4378 10.2583C45.5744 10.6362 45.8448 10.9357 46.1862 11.0866L54.1556 14.6189C55.2815 15.1178 55.2815 16.8825 54.1556 17.3814L46.1859 20.9133C45.8448 21.0647 45.5741 21.3638 45.4375 21.7416L42.2476 30.5652C41.7969 31.8116 40.2031 31.8116 39.7524 30.5652L36.5625 21.7416C36.4259 21.3638 36.1556 21.0643 35.8141 20.9133L27.8444 17.3814C26.7185 16.8825 26.7185 15.1178 27.8444 14.6189L35.8141 11.087C36.1556 10.9357 36.4259 10.6365 36.5625 10.2587L39.7524 1.43515C40.2031 0.18834 41.7972 0.188341 42.2479 1.4348Z" fill="white"/>
<path d="M9.83737 36.1031L11.8954 41.7957C11.9835 42.0395 12.1579 42.2327 12.3782 42.3301L17.5197 44.6089C18.2461 44.9308 18.2461 46.0694 17.5197 46.3913L12.378 48.6699C12.1579 48.7675 11.9833 48.9605 11.8952 49.2043L9.83714 54.8969C9.54637 55.701 8.51815 55.701 8.22738 54.8969L6.16936 49.2043C6.08124 48.9605 5.90683 48.7673 5.68654 48.6699L0.544779 46.3913C-0.181593 46.0694 -0.181593 44.9308 0.544779 44.6089L5.68654 42.3303C5.90683 42.2327 6.08124 42.0397 6.16936 41.7959L8.22738 36.1033C8.51815 35.2989 9.54659 35.2989 9.83737 36.1031Z" fill="white"/>
</svg>
