<svg width="18" height="17" viewBox="0 0 18 17" fill="none" xmlns="http://www.w3.org/2000/svg">
<path d="M14.3829 11.5561L11.5527 10.2988C11.2587 10.1673 10.9293 10.1369 10.6161 10.2123C10.3029 10.2876 10.0235 10.4646 9.82148 10.7155L9.00586 11.7353C7.66867 10.8772 6.53038 9.74321 5.66732 8.40925L6.68711 7.59363C6.93779 7.39166 7.11459 7.11242 7.18996 6.79945C7.26533 6.48648 7.23503 6.15737 7.10377 5.86342L5.85586 3.02592C5.71563 2.70996 5.46772 2.45409 5.15635 2.30394C4.84499 2.15379 4.49041 2.11912 4.15586 2.20613L1.76002 2.83113C1.41244 2.92106 1.11025 3.13605 0.911323 3.43493C0.712392 3.73381 0.630703 4.09556 0.681899 4.45092C1.1282 7.54964 2.56612 10.4205 4.78042 12.6336C6.99472 14.8468 9.86628 16.2833 12.9652 16.728C13.3204 16.7783 13.6816 16.6959 13.9799 16.4966C14.2781 16.2974 14.4924 15.9952 14.5819 15.6478L15.2069 13.252C15.2938 12.9175 15.2586 12.563 15.1076 12.2521C14.9566 11.9413 14.6996 11.6945 14.3829 11.5561Z" fill="#5D62A8"/>
<path d="M17.3343 8.40951H15.251C15.2493 6.75241 14.5903 5.16366 13.4186 3.99192C12.2468 2.82017 10.6581 2.16116 9.00098 2.15951V0.0761719C11.2104 0.0786532 13.3285 0.957424 14.8908 2.51969C16.4531 4.08196 17.3318 6.20013 17.3343 8.40951Z" fill="#5D62A8"/>
<path d="M13.1676 8.40983H11.0843C11.0843 7.8573 10.8648 7.32739 10.4741 6.93669C10.0834 6.54599 9.55351 6.3265 9.00098 6.3265V4.24316C10.106 4.24316 11.1659 4.68215 11.9473 5.46355C12.7287 6.24495 13.1676 7.30476 13.1676 8.40983Z" fill="#5D62A8"/>
</svg>
