<svg width="20" height="21" viewBox="0 0 20 21" fill="none" xmlns="http://www.w3.org/2000/svg">
<g clip-path="url(#clip0_312_3553)">
<path d="M15.3829 13.5561L12.5527 12.2988C12.2587 12.1673 11.9293 12.1369 11.6161 12.2123C11.3029 12.2876 11.0235 12.4646 10.8215 12.7155L10.0059 13.7353C8.66867 12.8772 7.53038 11.7432 6.66732 10.4093L7.68711 9.59363C7.93779 9.39166 8.11459 9.11242 8.18996 8.79945C8.26533 8.48648 8.23503 8.15737 8.10377 7.86342L6.85586 5.02592C6.71563 4.70996 6.46772 4.45409 6.15635 4.30394C5.84499 4.15379 5.49041 4.11912 5.15586 4.20613L2.76002 4.83113C2.41244 4.92106 2.11025 5.13605 1.91132 5.43493C1.71239 5.73381 1.6307 6.09556 1.6819 6.45092C2.1282 9.54964 3.56612 12.4205 5.78042 14.6336C7.99472 16.8468 10.8663 18.2833 13.9652 18.728C14.3204 18.7783 14.6816 18.6959 14.9799 18.4966C15.2781 18.2974 15.4924 17.9952 15.5819 17.6478L16.2069 15.252C16.2938 14.9175 16.2586 14.563 16.1076 14.2521C15.9566 13.9413 15.6996 13.6945 15.3829 13.5561V13.5561Z" fill="#5D62A8"/>
<path d="M18.3343 10.4095H16.251C16.2493 8.75241 15.5903 7.16366 14.4186 5.99192C13.2468 4.82017 11.6581 4.16116 10.001 4.15951V2.07617C12.2104 2.07865 14.3285 2.95742 15.8908 4.51969C17.4531 6.08196 18.3318 8.20013 18.3343 10.4095V10.4095Z" fill="#5D62A8"/>
<path d="M14.1676 10.4098H12.0843C12.0843 9.8573 11.8648 9.32739 11.4741 8.93669C11.0834 8.54599 10.5535 8.3265 10.001 8.3265V6.24316C11.106 6.24316 12.1659 6.68215 12.9473 7.46355C13.7287 8.24495 14.1676 9.30476 14.1676 10.4098Z" fill="#5D62A8"/>
</g>
<defs>
<clipPath id="clip0_312_3553">
<rect width="16.6667" height="16.6667" fill="white" transform="translate(1.66699 2.07617)"/>
</clipPath>
</defs>
</svg>
