<svg width="30" height="31" viewBox="0 0 30 31" fill="none" xmlns="http://www.w3.org/2000/svg">
<circle cx="15" cy="15.4092" r="15" fill="#5D62A8"/>
<path d="M18.2728 7.9123L16.3355 7.90918C14.159 7.90918 12.7525 9.3581 12.7525 11.6007V13.3027H10.8046C10.6363 13.3027 10.5 13.4397 10.5 13.6088V16.0748C10.5 16.2438 10.6365 16.3807 10.8046 16.3807H12.7525V22.6033C12.7525 22.7723 12.8888 22.9092 13.0571 22.9092H15.5985C15.7668 22.9092 15.9031 22.7722 15.9031 22.6033V16.3807H18.1806C18.3489 16.3807 18.4852 16.2438 18.4852 16.0748L18.4862 13.6088C18.4862 13.5276 18.454 13.4499 18.3969 13.3925C18.3399 13.335 18.2622 13.3027 18.1814 13.3027H15.9031V11.8599C15.9031 11.1664 16.0677 10.8144 16.9674 10.8144L18.2725 10.8139C18.4406 10.8139 18.5769 10.6769 18.5769 10.508V8.21816C18.5769 8.04947 18.4408 7.91261 18.2728 7.9123Z" fill="white"/>
</svg>
