<svg width="690" height="583" viewBox="0 0 690 583" fill="none" xmlns="http://www.w3.org/2000/svg">
<g filter="url(#filter0_i_312_3493)">
<rect x="21" width="669" height="562" rx="24" fill="#5D62A8"/>
</g>
<path d="M47.8181 414.134C50.139 404.301 44.049 394.448 34.2158 392.127C24.3826 389.806 14.5298 395.896 12.209 405.73C9.88813 415.563 15.9781 425.416 25.8113 427.736C35.6445 430.057 45.4973 423.967 47.8181 414.134Z" fill="#EBEBEB"/>
<path d="M27.6377 415.644C27.6387 416.235 27.4642 416.813 27.1364 417.305C26.8087 417.796 26.3423 418.18 25.7964 418.407C25.2506 418.633 24.6497 418.693 24.07 418.578C23.4902 418.463 22.9577 418.178 22.5397 417.76C22.1218 417.342 21.8373 416.81 21.7222 416.23C21.6071 415.65 21.6667 415.049 21.8933 414.503C22.1199 413.958 22.5034 413.491 22.9953 413.163C23.4871 412.836 24.0651 412.661 24.6562 412.662C25.4466 412.663 26.2042 412.978 26.7631 413.537C27.3219 414.096 27.6365 414.853 27.6377 415.644V415.644Z" fill="#F5F5F5"/>
<path d="M23.4045 407.036C23.4036 407.379 23.3011 407.714 23.11 407.998C22.9188 408.283 22.6477 408.504 22.3308 408.635C22.0138 408.765 21.6653 408.799 21.3293 408.731C20.9933 408.664 20.6847 408.498 20.4427 408.256C20.2007 408.013 20.036 407.704 19.9695 407.368C19.903 407.032 19.9376 406.683 20.069 406.367C20.2004 406.05 20.4226 405.78 20.7077 405.589C20.9927 405.399 21.3278 405.297 21.6705 405.297C21.8986 405.297 22.1245 405.342 22.3352 405.43C22.5459 405.517 22.7373 405.645 22.8984 405.807C23.0594 405.968 23.1871 406.16 23.2739 406.371C23.3608 406.582 23.4052 406.808 23.4045 407.036Z" fill="#F5F5F5"/>
<path d="M12.268 414.382C12.3499 414.699 -3.39102 429.795 0.669445 433.022C4.72991 436.249 21.7906 427.984 36.3418 416.231C50.893 404.478 64.1823 390.221 60.5409 386.435C56.8994 382.649 38.7213 393.843 38.7213 393.843L40.8984 395.226C40.8984 395.226 51.8901 388.174 55.3485 390.891C58.8069 393.607 48.9134 404.324 34.9209 414.536C20.9284 424.747 7.41762 431.914 5.31755 429.121C3.21747 426.327 13.1206 416.987 13.1206 416.987L12.268 414.382Z" fill="#F5F5F5"/>
<path d="M282.51 540.724C288.856 535.321 289.62 525.797 284.218 519.451C278.815 513.105 269.291 512.341 262.945 517.743C256.599 523.146 255.834 532.67 261.237 539.016C266.639 545.362 276.164 546.127 282.51 540.724Z" fill="#F5F5F5"/>
<path d="M274.807 524.588C274.818 524.101 274.974 523.629 275.253 523.231C275.533 522.833 275.924 522.527 276.378 522.351C276.832 522.175 277.327 522.138 277.802 522.243C278.277 522.349 278.71 522.593 279.046 522.945C279.383 523.297 279.607 523.74 279.691 524.219C279.776 524.699 279.716 525.192 279.52 525.637C279.324 526.083 279.001 526.46 278.59 526.721C278.18 526.983 277.701 527.117 277.215 527.107C276.891 527.101 276.571 527.031 276.274 526.901C275.977 526.771 275.709 526.584 275.485 526.35C275.261 526.115 275.086 525.839 274.969 525.536C274.853 525.234 274.798 524.912 274.807 524.588V524.588Z" fill="#EBEBEB"/>
<path d="M278.125 531.769C278.13 531.482 278.22 531.203 278.384 530.968C278.548 530.733 278.778 530.551 279.045 530.447C279.313 530.343 279.605 530.321 279.885 530.383C280.164 530.446 280.419 530.59 280.617 530.798C280.815 531.006 280.946 531.268 280.994 531.55C281.043 531.833 281.006 532.124 280.888 532.385C280.771 532.647 280.578 532.868 280.335 533.02C280.092 533.171 279.809 533.247 279.522 533.238C279.143 533.225 278.784 533.064 278.523 532.789C278.261 532.515 278.119 532.148 278.125 531.769V531.769Z" fill="#EBEBEB"/>
<path d="M206.301 523.948C238.508 491.741 238.508 439.523 206.301 407.316C174.094 375.109 121.876 375.109 89.6686 407.316C57.4615 439.523 57.4615 491.741 89.6686 523.948C121.876 556.155 174.094 556.155 206.301 523.948Z" fill="#F5F5F5"/>
<path d="M218.576 437.309C217.897 436.485 217.806 433.783 216.168 435.329C216.279 433.971 215.735 430.734 218.148 431.033C220.778 431.365 219.593 434.217 220.185 435.681C220.903 437.396 223.297 437.535 224.665 438.508C225.589 439.168 226.143 440.146 226.668 440.917C223.223 429.972 217.529 419.869 209.95 411.255C209.95 411.318 209.95 411.385 209.95 411.453C208.206 411.332 206.636 413.659 206.959 415.118C207.012 415.364 207.72 415.793 207.806 416.323C207.893 416.852 207.435 417.079 207.421 417.493C207.382 418.456 207.132 419.376 208.437 419.636C209.28 418.028 211.173 419.935 211.558 421.004C212.233 422.878 211.414 423.822 212.743 425.339C213.259 425.927 214.79 426.65 214.482 427.685C214.174 428.721 213.398 428.523 212.642 428.234C211.424 427.753 210.769 425.932 209.338 425.879C208.375 428.258 209.275 431.341 208.524 433.875C208.105 435.286 207.59 435.344 208.808 436.389C209.246 436.765 209.545 436.345 210.06 436.952C210.364 437.314 210.369 438.089 210.335 438.532C211.009 438.123 211.607 437.492 212.469 437.569C211.178 438.682 211.38 440.758 210.484 442.174C209.362 443.946 208.428 443.354 206.886 444.062C204.194 445.305 205.586 447.723 205.297 449.726C205.133 450.897 204.165 451.884 203.707 453.006C203.039 454.578 202.669 456.26 202.619 457.968C202.585 459.981 203.23 461.821 203.616 463.748C203.924 465.327 203.929 468.357 205.475 469.272C206.438 469.826 209.41 469.72 210.672 469.908C211.934 470.096 213.418 469.426 214.482 469.976C215.547 470.525 215.388 472.196 216.751 471.811C217.517 471.594 217.96 469.797 218.918 469.46C220.455 468.921 221.669 470.327 222.093 471.536C222.632 473.068 221.832 473.126 221.418 474.763C221.091 476.054 221.418 477.422 221.832 478.617C222.69 481.059 221.741 479.989 220.869 482.263C221.511 482.433 222.175 482.507 222.839 482.485C222.887 483.356 223.075 484.642 222.873 485.5C222.309 487.908 219.983 489.213 219.867 491.993C219.756 494.531 220.922 497.594 220.44 500.08C220.089 501.905 218.032 503.09 218.369 505.2C219.52 504.458 220.397 503.273 221.659 502.666C230.819 484.481 232.926 463.549 227.574 443.903C226.15 443.265 224.874 442.338 223.827 441.181C222.386 439.683 219.877 438.874 218.576 437.309Z" fill="#EBEBEB"/>
<path d="M158.927 385.515C159.938 385.698 161.08 385.683 162.081 385.929C163.213 386.204 164.008 386.979 165.251 386.488C165.815 386.23 166.296 385.82 166.638 385.303C146.227 380.555 124.773 383.765 106.646 394.281C109.801 394.479 109.093 398.019 111.81 395.105C113.019 393.804 114.363 392.027 115.904 390.89C117.628 389.614 119.603 390.476 121.684 390.408C120.99 390.89 117.113 393.693 117.542 394.604C118.134 395.861 120.282 394.339 119.439 396.762C118.688 398.92 115.615 397.45 113.712 397.595C112.238 397.711 111.434 398.698 109.859 398.775C108.188 398.857 106.511 398.385 104.883 398.433C102.282 398.51 100.616 400.008 99.031 401.834C98.1159 402.893 97.0273 403.683 96.3578 404.96C95.6256 406.357 95.9194 408.182 95.2355 409.434C94.6478 410.513 93.3088 410.692 92.3455 411.332C91.0681 412.248 89.9039 413.312 88.8774 414.502C87.3313 416.298 86.6377 419.718 83.9981 420.368C83.6224 423.148 87.8515 419.275 89.0846 419.829C89.7252 418.981 89.9756 417.859 90.9245 417.223C91.8734 416.587 93.2125 416.698 94.2962 416.004C96.3626 414.685 95.6979 411.79 98.2748 411.298C100.356 410.903 102.687 410.499 103.197 412.787C103.453 413.924 103.01 413.818 102.976 414.916C102.928 416.361 102.812 415.484 103.91 416.361C105.567 417.724 105.837 419.366 104.541 421.288C103.92 422.199 103.578 422.073 103.197 423.253C102.817 424.434 102.952 425.7 102.995 426.938C103.039 428.321 102.904 429.664 102.86 431.047C102.788 433.349 103.342 434.207 105.163 435.656C106.545 436.759 108.019 437.583 108.732 439.293C109.348 440.786 109.213 442.573 109.642 444.11C110.066 445.714 114.059 449.066 113.621 446.21C113.394 444.736 111.718 444.404 111.728 442.607C111.728 441.88 112.026 440.81 112.104 440.044C114.391 439.418 113.789 443.32 114.401 444.485C115.273 446.138 117.551 447.202 118.736 448.512C117.633 449.028 115.774 450.107 116.386 451.633C117.166 453.56 119.627 452.216 120.985 452.25C123.953 452.317 126.9 454.302 129.318 455.887C131.621 457.394 132.55 458.295 135.45 458.078C137.26 457.893 139.085 458.252 140.691 459.109C141.894 459.654 142.865 460.608 143.431 461.801C144.351 463.55 144.765 464.171 146.321 465.361C147.333 466.136 147.863 466.979 148.985 466.922C149.756 466.888 150.314 465.761 151.49 466.127C153.725 466.82 153.074 469.662 152.342 470.943C151.726 472.042 151.148 473.458 150.464 474.546C149.587 475.934 147.294 476.449 147.029 478.279C146.779 480.018 148.715 482.007 149.144 483.65C149.534 485.138 149.491 486.781 149.491 488.303C148.527 489.709 154.384 494.68 155.478 495.634C157.077 497.026 159.408 498.875 160.03 501C160.285 501.871 160.136 503.239 160.222 504.159C160.406 506.104 160.453 508.06 160.362 510.012C160.232 512.858 158.185 514.597 157.703 517.294C157.313 519.457 158.084 521.731 157.756 523.869C157.607 524.833 157.419 526.201 157.178 527.145C156.937 528.089 156.475 528.079 156.094 528.749C155.41 529.943 155.757 531.123 156.335 532.414C158.146 531.109 159.649 533.575 160.502 534.822C161.566 536.383 162.838 537.004 165.044 536.749C164.177 536.036 162.717 533.705 163.016 532.414C163.454 530.531 166.171 529.009 167.086 527.434C168.073 525.733 167.794 524.144 169.836 523.388C170.41 523.176 171.084 523.282 171.657 523.046C172.37 522.752 172.75 522.082 173.444 521.75C175.342 520.849 175.775 521.09 176.565 518.975C177.529 516.418 178.347 513.195 180.78 511.558C181.743 510.917 182.788 510.961 183.829 510.513C184.97 510.031 185.327 509.241 186.237 508.586C187.606 507.654 188.845 506.545 189.922 505.286C191.194 503.773 192.299 502.125 193.217 500.373C193.828 499.27 194.093 498.244 195.018 497.358C195.408 496.982 196.005 496.833 196.463 496.395C198.134 494.728 198.761 492.06 200.21 490.234C201.024 489.204 201.829 488.621 202.277 487.431C202.103 487.031 201.883 486.653 201.622 486.304C201.27 485.663 200.408 485.071 199.979 484.411C199.83 484.18 199.777 483.448 199.628 483.308C198.428 482.027 195.524 481.352 193.905 481.285C191.694 481.198 188.381 480.856 186.936 478.877C185.861 477.388 187.701 475.274 186.993 473.689C186.117 471.709 181.512 470.756 179.744 469.682C178.526 468.94 177.702 467.813 176.493 467.056C174.725 465.953 173.666 465.496 172.914 463.55C172.461 462.384 173.155 462.187 171.744 461.744C170.429 461.334 168.372 462.481 166.898 462.596C165.805 462.683 164.572 462.909 163.526 462.596C162.226 462.206 161.267 460.732 159.914 460.482C158.695 460.25 156.292 460.824 155.174 461.561C154.211 462.177 153.729 463.29 152.689 463.771C151.186 464.47 151.292 463.555 149.837 463.429C148.383 463.304 147.631 464.099 146.519 462.466C145.011 460.231 145.623 455.665 142.073 455.434C141.018 455.366 138.985 456.253 138.335 454.899C137.372 452.905 140.821 450.261 140.324 448.103C139.804 445.858 135.614 448.811 134.67 450.029C134.068 450.824 133.591 452.765 132.324 452.919C131.361 453.021 129.41 451.763 128.832 451.065C127.825 449.846 127.763 447.481 127.618 445.945C127.344 443.055 128.008 442.154 130.026 439.996C131.809 438.07 132.175 437.925 134.458 437.525C135.859 437.28 135.845 436.784 137.035 437.405C137.603 437.704 137.955 438.59 138.648 438.874C139.612 437.911 140.271 437.631 141.572 437.887C142.506 438.074 144.462 439.158 144.977 440.035C145.29 440.569 145.782 445.372 147.511 442.443C146.504 441.615 146.774 440.637 146.365 439.717C145.955 438.797 145.021 438.127 144.847 436.976C144.64 435.637 145.811 432.848 147.338 432.554L147.174 431.052C148.864 430.816 150.873 426.717 150.545 424.698C150.372 423.692 149.279 423.769 149.862 422.319C150.545 420.624 151.726 421.51 153.161 421.197C154.596 420.884 154.389 419.94 155.415 419.179C156.533 418.34 157.058 418.981 158.007 419.024C159.789 419.101 162.125 419.506 162.255 417.03C163.343 416.881 164.292 416.549 165.381 417.001C165.525 415.075 165.097 413.668 163.454 412.556C162.009 411.592 160.083 411.284 158.57 410.325C157.607 409.709 156.908 408.813 155.988 408.158C154.505 407.098 153.484 405.928 152.135 404.733C150.425 403.211 148.763 405.133 146.514 404.82C143.513 404.396 143.706 402.137 141.851 400.798C141.639 400.644 141.028 400.851 140.753 400.716C140.264 400.352 139.818 399.933 139.424 399.469C138.359 398.375 137.682 396.962 137.497 395.447C140.806 393.52 141.644 398.077 143.027 399.724C143.653 400.471 146.114 400.938 144.187 402.132C145.522 402.224 146.707 402.026 147.954 402.325C148.542 402.46 149.043 402.807 149.683 402.807C149.813 401.781 149.447 400.774 149.245 399.787C149.149 399.334 149.279 398.867 149.091 398.428C148.816 397.788 148.128 397.465 147.882 396.94C147.15 395.413 148.065 395.413 146.398 394.493C145.252 393.862 143.87 393.409 142.685 392.875C141.841 392.58 141.057 392.138 140.368 391.569C140.074 391.275 138.21 389.315 138.07 388.959C136.75 385.688 141.885 388.66 143.06 388.959C144.991 389.471 146.888 390.103 148.739 390.852C150.252 391.43 150.276 391.767 150.859 393.26C151.909 395.996 153.383 394.705 155.054 396.521C156.061 397.619 156.846 399.604 157.713 400.904C158.806 402.551 163.103 407.696 165.501 405.239C166.787 403.914 164.302 401.598 164.254 400.307C164.201 398.934 165.13 398.086 166.079 397.34C167.674 396.083 168.045 395.562 166.156 394.04C163.84 392.167 161.292 391.863 158.527 390.986C155.526 390.023 154.726 388.299 153.204 385.866C154.206 385.683 155.261 385.601 156.287 385.51C157.163 385.396 158.051 385.398 158.927 385.515V385.515ZM128.35 406.66C127.96 407.686 127.242 407.368 126.573 407.893C125.542 408.697 127.363 410.128 126.626 410.653C126.366 410.841 124.945 410.764 124.622 410.653C123.798 410.378 123.543 409.796 122.58 409.805C121.313 409.805 120.041 409.569 120.321 407.975C120.451 407.228 121.207 406.487 120.851 405.668C120.502 405.164 120.058 404.732 119.545 404.396C119.213 404.165 118.799 404.199 118.51 404.016C117.85 403.606 118.1 401.988 118.828 401.704C118.852 403.939 122.166 401.92 122.854 402.946C123.543 403.972 122.17 404.391 123.037 405.042C123.543 405.437 124.873 405.437 125.378 405.287C126.159 405.061 127.459 403.886 128.23 404.738C128.528 405.109 128.509 406.246 128.35 406.66ZM138.971 402.73C139.795 402.966 139.65 403.361 140.079 404.011C140.56 404.748 141.384 404.68 141.967 405.215C143.07 406.231 141.326 407.57 141.967 408.827C142.531 409.921 148.831 411.559 144.717 412.898C143.513 413.288 142.791 412.498 141.707 412.19C140.523 411.947 139.294 412.082 138.191 412.575C136.182 413.741 140.681 415.903 137.906 416.741C137.343 416.915 135.498 416.804 135.325 416.106C135.151 415.489 136.018 415.499 136.197 414.906C136.905 412.575 134.044 414.015 133.244 413.813C132.117 413.524 132.468 411.501 133.364 411.043C133.846 410.798 135.074 410.928 135.614 410.918C136.495 410.918 137.377 411.038 138.258 410.961C138.668 409.266 136.124 408.408 134.79 408.225C133.74 408.086 133.6 407.874 132.733 407.262C131.688 406.501 131.231 406.713 131.963 405.335C132.603 404.122 133.649 403.476 134.689 402.657C135.171 402.416 135.561 402.922 136.038 402.975C137.015 403.052 138.008 402.469 138.971 402.73V402.73Z" fill="#EBEBEB"/>
<path d="M146.224 445.743C145.285 445.416 141.938 446.625 143.31 447.612C144.24 448.286 146.446 447.419 147.583 447.684C148.72 447.949 150.131 447.525 151.243 447.978C152.067 448.315 152.515 449.076 153.43 449.303C154.543 449.582 155.131 449.129 154.095 448.267C153.368 447.66 152.356 447.496 151.508 447.102C150.868 446.808 150.29 446.23 149.649 446.056C148.797 445.82 146.894 446.601 146.224 445.743Z" fill="#EBEBEB"/>
<path d="M157.92 450.757C157.096 451.277 156.311 451.537 156.037 452.597C155.714 453.84 156.229 453.608 157.067 453.127C157.597 452.819 158.329 452.298 158.994 452.332C159.659 452.366 160.174 452.843 160.8 452.953C161.352 453.077 161.924 453.076 162.474 452.95C163.025 452.824 163.541 452.577 163.984 452.226C164.673 451.624 164.726 450.844 163.652 450.67C162.838 450.54 161.532 450.94 160.685 451.027C159.837 451.113 158.377 451.166 157.92 450.757Z" fill="#EBEBEB"/>
<path d="M196.911 529.943C195.023 531.239 193.876 533.012 191.646 533.932C189.238 534.924 186.955 536.297 184.469 537.303C181.984 538.31 179.272 539.866 176.695 540.492C174.542 541.017 172.119 540.01 169.952 540.054C167.698 540.16 165.464 540.527 163.295 541.147C161.797 541.532 161.85 541.258 160.68 540.81C160.117 540.54 159.506 540.386 158.883 540.357C158.145 540.342 157.409 540.288 156.677 540.193C156.639 541.229 158.926 543.329 159.793 543.989C153.05 544.572 145.873 543.719 139.173 543.026C137.198 542.823 136.028 543.681 134.145 543.922C132.406 544.148 130.932 543.209 129.179 543.194C127.069 543.194 126.144 543.613 125.243 544.928C138.185 548.643 151.841 549.13 165.014 546.346C178.188 543.563 190.479 537.593 200.812 528.961C200.809 528.698 200.788 528.436 200.75 528.176C199.661 528.6 197.903 529.26 196.911 529.943Z" fill="#EBEBEB"/>
<path d="M68.0645 466.455C68.4286 465.617 68.5569 464.696 68.4354 463.791C68.2138 462.857 67.7755 462.938 67.3468 462.192C66.1571 460.135 67.9296 459.889 67.9248 458.16C67.9248 457.149 65.8247 454.74 67.2168 453.71C67.8429 453.228 70.1068 454.374 71.258 453.898C71.0557 452.236 69.4228 452.742 68.7581 451.614C67.7659 449.924 69.4132 449.572 69.9237 448.821C71.5807 446.412 69.235 445.155 68.6377 443.161C66.5642 450.471 65.5122 458.033 65.5117 465.631C65.5117 465.925 65.5117 466.219 65.5357 466.517C66.1378 465.987 66.9229 465.838 68.0645 466.455Z" fill="#EBEBEB"/>
<path d="M70.7811 443.046C71.6096 442.786 71.2868 440.763 71.441 440.213C72.0143 438.503 72.825 436.882 73.8493 435.397C75.2124 433.364 74.6055 432.608 74.3021 430.127C74.2491 429.708 74.2202 429.251 74.1865 428.803C72.1562 432.846 70.4646 437.051 69.129 441.374C69.6058 442.063 70.2079 443.229 70.7811 443.046Z" fill="#EBEBEB"/>
<path d="M68.9363 456.604C67.6551 460.381 71.6963 460.94 71.7782 464.041C71.8071 465.193 71.2146 469.157 73.623 468.858C74.5863 466.662 73.0353 466.358 73.3147 464.321C73.5025 462.943 74.4948 462.548 72.9534 461.431C72.5296 461.113 71.7733 461.103 71.4314 460.771C70.9497 460.313 71.046 459.687 70.757 459.23C70.2416 458.396 69.4517 457.862 68.9363 456.604Z" fill="#EBEBEB"/>
<path d="M68.9363 469.639C67.9152 471.888 66.0463 479.99 69.6781 480.139C70.0827 480.139 70.8245 479.417 71.2387 479.691C71.5662 479.908 71.282 480.751 71.4314 480.837C72.3706 481.367 72.6115 481.497 72.9872 479.874C73.2858 478.588 72.6307 478.535 72.4429 477.658C72.3239 476.891 72.3158 476.111 72.4188 475.342C70.0634 474.764 74.8271 474.263 74.6345 473.314C74.4948 472.591 70.9738 472.798 70.468 472.957C70.3963 472.304 70.4321 471.643 70.574 471.002C69.7889 470.65 69.548 469.822 68.9363 469.639Z" fill="#EBEBEB"/>
<path d="M80.8002 476.994C78.7483 477.114 77.6741 475.245 75.2658 475.977C75.2658 476.459 75.1357 477.018 75.1357 477.475C75.68 477.311 78.204 476.719 77.7994 478.174C77.4622 479.387 75.2658 477.851 75.6463 479.643C76.2725 479.57 77.2599 479.103 77.8764 479.161C78.7723 479.277 79.124 479.758 79.9669 479.946C81.0843 480.187 80.9302 479.633 82.1248 480.476C83.0496 481.131 84.0081 482.138 84.3115 483.154C84.9618 485.312 83.9984 486.165 86.768 486.502C88.213 486.68 91.2716 488.255 91.1801 485.88C92.5577 486.362 94.6674 490.447 96.5122 490.032C98.8242 489.517 94.3495 485.919 94.364 485.519C95.2743 485.437 97.2973 484.556 97.9957 484.151C98.6942 483.747 99.4407 483.804 99.1614 482.345C98.068 482.215 97.5863 482.745 96.753 482.961C95.7485 483.177 94.7159 483.231 93.6944 483.12C91.175 482.933 88.7809 481.948 86.8596 480.307C85.7565 479.402 84.8125 478.651 83.6613 477.798C82.9099 477.244 82.934 476.892 82.0718 476.642C81.8475 476.586 81.6125 476.589 81.3897 476.65C81.1668 476.712 80.9637 476.83 80.8002 476.994V476.994Z" fill="#EBEBEB"/>
<path d="M69.2687 482.34C70.7426 482.34 72.3176 482.518 73.7819 482.34C74.2636 482.278 74.8657 481.468 75.4292 482.037C75.6315 482.244 75.4726 483.544 75.2895 483.747C74.3984 484.739 69.4854 484.421 69.7696 482.504" fill="#EBEBEB"/>
<path d="M91.8253 493.89C91.6856 491.294 90.6837 491.651 89.4843 489.989C89.0701 491.063 88.6077 493.216 87.1579 493.361C85.0145 493.592 84.6725 490.389 83.3912 489.507C81.5561 488.255 77.3848 489.474 76.9561 491.179C75.251 491.848 75.1403 492.653 74.4515 494.069C73.9528 495.09 73.3797 496.074 72.7367 497.012C72.5304 497.307 72.3068 497.59 72.0672 497.859C73.6486 501.569 75.5 505.157 77.6064 508.596C77.7998 508.659 78.0006 508.696 78.2037 508.707C80.0196 508.851 80.9877 506.847 82.4375 507.035C83.4924 507.17 84.2631 508.962 85.1301 509.665C87.5384 511.65 91.5652 513.123 92.4996 516.057C93.068 517.834 93.7712 518.605 94.8838 520.132C95.6641 521.196 95.5052 523.084 96.6516 523.735C96.6859 522.059 96.9039 520.392 97.3018 518.764C97.8654 516.726 97.2681 515.041 98.2122 513.229C99.1562 511.418 100.664 509.925 100.495 507.666C100.38 506.13 99.2381 504.189 98.1447 503.086C95.0187 499.964 92.0902 498.803 91.8253 493.89Z" fill="#EBEBEB"/>
<path d="M112.72 511.419C111.381 511.674 111.844 514.28 111.463 515.344C110.929 516.842 110.394 516.688 108.824 517.097C107.819 517.297 106.832 517.576 105.871 517.931C104.426 518.605 104.301 519.809 103.877 521.254C105.678 521.404 106.714 519.299 108.332 518.962C109.724 518.677 110.866 519.303 112.311 518.673C115.938 517.093 115.037 513.519 115.533 510.609C114.459 510.417 113.722 511.062 112.72 511.419Z" fill="#EBEBEB"/>
<path d="M114.247 496.212C113.765 497.286 114.247 499.853 115.832 498.298C116.564 497.575 116.506 495.803 115.109 495.889C115.109 496.111 115.003 496.173 114.917 496.371" fill="#EBEBEB"/>
<path d="M126.087 498.886C124.781 499.912 127.594 501.65 128.057 500.017C128.399 498.837 126.515 498.447 126.087 498.886Z" fill="#EBEBEB"/>
<path d="M105.033 470.477C105.414 471.44 107.88 472.211 108.337 473.81C108.756 475.284 108.337 476.57 110.524 476.633C110.471 475.578 111.049 474.195 110.558 473.261C110.336 472.842 109.595 472.779 109.33 472.298C109.065 471.816 109.257 471.243 109.041 470.79C108.578 469.846 104.532 467.621 105.033 470.477Z" fill="#EBEBEB"/>
<g style="mix-blend-mode:multiply">
<g style="mix-blend-mode:multiply">
<path d="M167.615 544.277C148.963 544.277 130.833 538.112 116.048 526.741C101.262 515.37 90.6489 499.431 85.8603 481.403C81.0717 463.376 82.3759 444.271 89.5698 427.062C96.7638 409.852 109.444 395.503 125.638 386.247C115.145 389.277 105.358 394.362 96.8455 401.205C88.3332 408.049 81.2651 416.515 76.0514 426.112C70.8378 435.71 67.5824 446.247 66.4743 457.113C65.3663 467.979 66.4276 478.957 69.5966 489.409C72.7657 499.861 77.9794 509.58 84.935 518.001C91.8907 526.422 100.45 533.377 110.115 538.463C119.781 543.55 130.361 546.665 141.24 547.629C152.12 548.593 163.082 547.387 173.492 544.08C171.565 544.191 169.6 544.277 167.615 544.277Z" fill="#FAFAFA"/>
</g>
</g>
<path d="M162.414 565.163L162.684 565.645C162.985 566.192 163.439 566.64 163.989 566.936L164.471 567.201L163.989 567.47C163.437 567.763 162.983 568.212 162.684 568.761L162.414 569.243L162.144 568.761C161.846 568.213 161.394 567.765 160.844 567.47L160.362 567.201L160.844 566.936C161.392 566.639 161.843 566.191 162.144 565.645L162.414 565.163Z" fill="#EBEBEB"/>
<path d="M65.5116 546.055L65.7814 546.537C66.0828 547.084 66.5361 547.532 67.0867 547.828L67.5683 548.097L67.0867 548.362C66.5361 548.658 66.0828 549.106 65.7814 549.653L65.5116 550.135L65.2467 549.653C64.9425 549.108 64.4898 548.661 63.9414 548.362L63.4597 548.097L63.9414 547.828C64.4898 547.53 64.9425 547.082 65.2467 546.537L65.5116 546.055Z" fill="#EBEBEB"/>
<path d="M80.0489 396.618L80.3138 397.099C80.6166 397.646 81.0696 398.094 81.6192 398.39L82.1008 398.66L81.6192 398.925C81.0707 399.223 80.6181 399.671 80.3138 400.216L80.0489 400.697L79.7792 400.216C79.4778 399.668 79.0244 399.22 78.4739 398.925L77.9922 398.66L78.4739 398.39C79.0254 398.096 79.4791 397.648 79.7792 397.099L80.0489 396.618Z" fill="#EBEBEB"/>
<path d="M284.276 478.313L284.758 479.152C285.271 480.094 286.045 480.868 286.988 481.382L287.826 481.839L286.988 482.321C286.046 482.833 285.271 483.605 284.758 484.546L284.276 485.389L283.818 484.546C283.303 483.606 282.529 482.834 281.588 482.321L280.75 481.839L281.588 481.382C282.53 480.867 283.303 480.093 283.818 479.152L284.276 478.313Z" fill="#EBEBEB"/>
<path d="M233.917 394.575L234.182 395.057C234.486 395.602 234.939 396.05 235.487 396.348L235.969 396.613L235.487 396.882C234.939 397.181 234.486 397.628 234.182 398.173L233.917 398.655L233.647 398.173C233.343 397.628 232.89 397.181 232.342 396.882L231.86 396.613L232.342 396.348C232.89 396.05 233.343 395.602 233.647 395.057L233.917 394.575Z" fill="#EBEBEB"/>
<path d="M182.788 372.452L183.053 372.934C183.357 373.479 183.81 373.927 184.358 374.225L184.84 374.49L184.358 374.759C183.81 375.057 183.357 375.505 183.053 376.05L182.788 376.532L182.518 376.05C182.211 375.504 181.753 375.057 181.198 374.764L180.717 374.494L181.198 374.23C181.748 373.933 182.201 373.485 182.504 372.939L182.788 372.452Z" fill="#EBEBEB"/>
<path d="M18.1446 504.959L18.6263 505.797C19.1399 506.739 19.9141 507.514 20.8564 508.027L21.6945 508.509L20.8564 508.966C19.9151 509.481 19.1412 510.255 18.6263 511.197L18.1446 512.035L17.663 511.197C17.1481 510.255 16.3741 509.481 15.4328 508.966L14.5947 508.509L15.4328 508.027C16.3751 507.514 17.1494 506.739 17.663 505.797L18.1446 504.959Z" fill="#EBEBEB"/>
<defs>
<filter id="filter0_i_312_3493" x="21" y="0" width="669" height="566" filterUnits="userSpaceOnUse" color-interpolation-filters="sRGB">
<feFlood flood-opacity="0" result="BackgroundImageFix"/>
<feBlend mode="normal" in="SourceGraphic" in2="BackgroundImageFix" result="shape"/>
<feColorMatrix in="SourceAlpha" type="matrix" values="0 0 0 0 0 0 0 0 0 0 0 0 0 0 0 0 0 0 127 0" result="hardAlpha"/>
<feOffset dy="4"/>
<feGaussianBlur stdDeviation="17"/>
<feComposite in2="hardAlpha" operator="arithmetic" k2="-1" k3="1"/>
<feColorMatrix type="matrix" values="0 0 0 0 0 0 0 0 0 0 0 0 0 0 0 0 0 0 0.25 0"/>
<feBlend mode="normal" in2="shape" result="effect1_innerShadow_312_3493"/>
</filter>
</defs>
</svg>
