<svg width="161" height="109" viewBox="0 0 161 109" fill="none" xmlns="http://www.w3.org/2000/svg">
<path d="M130.189 76.3383C118.044 103.427 86.2293 115.545 59.1408 103.4C32.0522 91.2554 19.9601 59.4409 32.105 32.3524C44.25 5.2638 76.0381 -6.82836 103.127 5.31661C130.215 17.4616 142.334 49.2497 130.189 76.3383Z" fill="#EE4B96"/>
<path d="M96.6583 19.7847C53.0948 0.247155 10.5611 0.537578 1.66356 20.4184C-7.26035 40.2991 20.8051 72.2457 64.3685 91.7832C107.932 111.321 150.439 111.03 159.363 91.1496C168.261 71.2688 140.195 39.3223 96.6583 19.7847ZM68.3025 82.9649C35.4054 68.2326 14.2046 44.0746 20.9371 29.0518C27.6696 14.029 59.801 13.8178 92.698 28.5766C125.595 43.3354 146.822 67.4669 140.063 82.4897C133.331 97.5125 101.199 97.7237 68.3025 82.9649Z" fill="#9ACA3C"/>
<path d="M35.0888 49.0646C51.9597 56.7477 68.3818 66.49 86.0448 72.2721C82.5862 71.0576 92.3285 73.3018 93.9655 73.5658C98.0842 74.173 102.229 74.6747 106.348 75.3611C113.688 76.5492 120.922 78.3182 127.945 80.7736C128.763 79.3479 129.503 77.8693 130.189 76.338C142.334 49.2495 130.216 17.4613 103.153 5.31636C76.0648 -6.8286 44.2767 5.26356 32.1053 32.3521C30.0196 37.0253 28.6467 41.8569 27.9602 46.6885C30.31 47.2165 32.7126 47.9822 35.0888 49.0646Z" fill="#EE4B96"/>
<path d="M66.7446 29.4482L71.5762 39.2698L82.4011 40.8275L74.586 48.4842L76.4342 59.2562L66.7446 54.1606L57.055 59.2562L58.9032 48.4842L51.0618 40.8275L61.913 39.2698L66.7446 29.4482Z" fill="#33C0CC"/>
</svg>
