<svg width="196" height="63" viewBox="0 0 196 63" fill="none" xmlns="http://www.w3.org/2000/svg">
<g clip-path="url(#clip0_344_276)">
<path d="M95.142 26.2571C95.142 26.6929 95.0883 27.1287 94.9433 27.543C94.5673 28.6245 93.4125 29.3455 92.5048 29.9427C91.452 30.6422 90.3026 31.1964 89.0995 31.5838C86.8382 32.3155 84.3943 32.4393 82.0686 31.9281C81.032 31.7021 80.0222 31.347 79.0715 30.8736C73.8991 28.3124 71.004 22.8674 71.6486 16.9435C72.234 11.5254 76.3859 6.73674 81.7893 5.4508C86.4622 4.33704 90.598 5.50461 94.1 8.81898C95.0024 9.67448 95.142 10.8797 94.5029 11.7567C93.9174 12.5584 92.6982 12.7252 91.6347 12.1226C91.2802 11.9235 90.9633 11.6491 90.6356 11.4016C86.2689 8.098 80.6506 8.82436 77.7287 13.1341C74.1247 18.4554 76.5363 26.1656 82.8582 27.6991C85.4793 28.334 88.0145 27.9681 90.3187 26.4347C90.786 26.1226 90.9794 25.7567 90.9794 25.1595C90.9794 24.304 90.974 23.6799 90.974 22.7652C90.974 22.3294 90.8236 22.1733 90.3939 22.1787C89.3895 22.2002 86.7684 22.1733 86.4622 22.1303C85.4149 21.9689 84.6468 21.1618 84.6414 20.2417C84.636 19.2248 85.4256 18.2617 86.5052 18.2294C88.7396 18.1595 90.9794 18.1595 93.2138 18.2348C94.3525 18.2725 95.1743 19.1872 95.1743 20.3493C95.1581 21.872 95.142 23.9596 95.142 26.2571Z" fill="#5D62A8"/>
<path d="M146.947 29.9641C144.723 31.8849 142.204 32.5144 139.465 32.127C134.416 31.4222 130.881 26.7573 131.349 21.5221C131.768 16.8357 135.377 13.1017 140.018 12.5529C144.777 11.9879 149.224 14.7535 150.663 19.2623C150.986 20.2738 151.147 21.3768 151.184 22.4422C151.26 24.7343 151.211 27.0263 151.206 29.3184C151.206 29.652 151.179 29.991 151.109 30.3138C150.9 31.2285 150.212 31.8365 149.353 31.9064C148.338 31.9871 147.607 31.5567 147.21 30.6259C147.129 30.4483 147.065 30.26 146.947 29.9641ZM141.361 27.9303C144.465 27.9141 146.936 25.4176 146.925 22.313C146.909 19.2031 144.427 16.7227 141.323 16.7227C138.186 16.7227 135.662 19.2354 135.667 22.3507C135.672 25.4714 138.202 27.9518 141.361 27.9303Z" fill="#5D62A8"/>
<path d="M114.199 29.9587C111.981 31.8903 109.462 32.5145 106.722 32.1378C101.802 31.4599 98.2896 27.021 98.5689 21.9311C98.8589 16.5291 103.328 12.3323 108.629 12.4829C114.161 12.639 118.372 16.8788 118.415 22.3669C118.437 24.8419 118.442 27.3115 118.405 29.7865C118.383 31.3146 117.142 32.2616 115.751 31.8688C114.86 31.6105 114.484 30.8842 114.199 29.9587ZM102.92 22.34C102.914 25.466 105.412 27.9464 108.575 27.9357C111.691 27.9303 114.167 25.4445 114.151 22.34C114.14 19.2032 111.691 16.7335 108.581 16.7281C105.439 16.7281 102.93 19.2085 102.92 22.34Z" fill="#5D62A8"/>
<path d="M121.853 8.00632C121.853 7.66735 121.853 7.323 121.896 6.98941C122.03 5.91869 122.841 5.13852 123.899 5.04168C124.925 4.94483 125.935 5.60125 126.22 6.60739C126.338 7.02707 126.365 7.48441 126.365 7.92561C126.375 13.107 126.37 24.3092 126.397 24.7235C126.526 26.5259 127.466 27.5428 129.211 27.7903C130.812 28.0163 131.612 29.1839 131.193 30.6743C130.898 31.7127 130.087 32.1001 129.152 32.1916C125.623 32.5252 122.218 30.911 121.944 26.2192C121.756 23.0609 121.848 10.9118 121.853 8.00632Z" fill="#5D62A8"/>
<path d="M193.354 12.7574C192.108 12.7574 191.178 13.5591 191.071 14.7912C191.044 15.0979 191.087 20.6075 191.055 22.9803C191.023 25.4231 189.922 27.1556 188.036 27.8281C184.685 29.0226 181.489 26.8274 181.43 23.2278C181.381 20.5699 181.403 17.7666 181.392 15.1141C181.387 13.7151 180.479 12.7628 179.179 12.752C177.858 12.7413 176.897 13.7205 176.886 15.1302C176.875 17.7613 176.87 20.5376 176.913 23.1686C176.977 27.1018 179.62 30.8358 183.449 31.9012C186.146 32.649 189.105 32.111 191.404 30.6206C191.404 30.6206 191.828 35.0326 187.188 36.2916C183.465 37.3032 180.823 34.1018 180.694 33.9404C179.958 33.0042 178.605 32.8374 177.665 33.5637C176.719 34.2955 176.547 35.6567 177.278 36.6037C180.823 41.1771 187.875 42.2048 192.355 38.39C194.492 36.5714 195.739 34.0211 195.739 31.2178L195.717 15.0764C195.722 14.1832 195.03 12.7574 193.354 12.7574Z" fill="#5D62A8"/>
<path d="M172.797 28.3553C173.662 29.2539 173.651 30.6958 172.781 31.5782C172.346 32.0194 171.782 32.2346 171.218 32.2346C170.643 32.2346 170.074 32.0087 169.639 31.5567L164.026 25.7404L158.418 31.5621C157.983 32.0087 157.414 32.24 156.839 32.24C156.275 32.24 155.711 32.0248 155.282 31.5836C154.412 30.7012 154.401 29.2592 155.266 28.3607L160.911 22.5014L155.266 16.6366C154.401 15.7435 154.412 14.3015 155.282 13.4191C155.717 12.9779 156.281 12.7627 156.839 12.7627C157.414 12.7627 157.989 12.9887 158.418 13.4406L164.026 19.2569L169.633 13.4353C170.069 12.9887 170.638 12.7573 171.213 12.7573C171.777 12.7573 172.346 12.9725 172.776 13.4137C173.646 14.2961 173.656 15.7381 172.792 16.6313L167.147 22.496L172.797 28.3553Z" fill="#5D62A8"/>
<path d="M72.5603 52.6745C72.4207 52.6745 72.2864 52.6476 72.1682 52.5938C72.0501 52.54 71.9426 52.4701 71.8513 52.384C71.76 52.2979 71.6902 52.1957 71.6365 52.0719C71.5828 51.9535 71.5559 51.819 71.5559 51.6791V41.7898C71.5559 41.6499 71.5828 41.5154 71.6365 41.397C71.6902 41.2787 71.76 41.1711 71.8513 41.0796C71.9426 40.9881 72.0447 40.9182 72.1682 40.8698C72.2918 40.8213 72.4207 40.7944 72.5603 40.7944H72.5979H75.8099C76.3524 40.7944 76.8787 40.8644 77.389 41.0097C77.8992 41.1495 78.3773 41.354 78.8177 41.6123C79.2635 41.8705 79.6717 42.1826 80.0423 42.5485C80.413 42.9143 80.7299 43.3179 80.9984 43.7537C81.2616 44.1949 81.4711 44.6684 81.6161 45.1741C81.7611 45.6799 81.8363 46.2072 81.8363 46.7506C81.8363 47.5685 81.6752 48.3325 81.3529 49.0535C81.0306 49.7691 80.5956 50.3986 80.0477 50.9366C79.4999 51.4747 78.8607 51.8997 78.1302 52.2064C77.3997 52.5131 76.6317 52.6691 75.8152 52.6691H72.5711H72.5603V52.6745ZM73.5701 42.8121V50.6622H75.8582C76.4007 50.6622 76.9163 50.5546 77.3944 50.3448C77.8778 50.1296 78.2967 49.8444 78.6566 49.4893C79.0165 49.1342 79.3011 48.7199 79.5106 48.2518C79.7201 47.7837 79.8221 47.2887 79.8221 46.7775C79.8221 46.2556 79.7201 45.7606 79.5106 45.2818C79.3065 44.8083 79.0218 44.3832 78.6566 44.0173C78.2967 43.6515 77.8724 43.3609 77.3944 43.1403C76.911 42.9197 76.4007 42.8121 75.8582 42.8121H73.5701Z" fill="#005E85"/>
<path d="M83.2708 41.9946C83.2708 41.8386 83.2976 41.6933 83.3567 41.5588C83.4158 41.4243 83.4963 41.3059 83.593 41.2037C83.6897 41.1015 83.8079 41.0261 83.9475 40.9669C84.0818 40.9078 84.2268 40.8809 84.3718 40.8809C84.5169 40.8809 84.6619 40.9078 84.7962 40.9669C84.9304 41.0261 85.0486 41.1068 85.1507 41.2037C85.2527 41.3005 85.3333 41.4189 85.3924 41.5588C85.4515 41.6933 85.4783 41.8386 85.4783 41.9946C85.4783 42.1453 85.4515 42.2852 85.3924 42.4143C85.3333 42.5488 85.2527 42.6618 85.1507 42.764C85.0486 42.8609 84.9304 42.9416 84.7962 43.0008C84.6619 43.0599 84.5169 43.0869 84.3718 43.0869C84.2268 43.0869 84.0818 43.0599 83.9475 43.0008C83.8132 42.9416 83.6951 42.8609 83.593 42.764C83.491 42.6672 83.4158 42.5488 83.3567 42.4143C83.2976 42.2852 83.2708 42.1453 83.2708 41.9946ZM85.3816 51.6741C85.3816 51.814 85.3548 51.9485 85.3011 52.0669C85.2473 52.1852 85.1775 52.2928 85.0862 52.3843C84.9949 52.4758 84.8875 52.5457 84.7639 52.5995C84.6404 52.6533 84.5115 52.6802 84.3772 52.6802C84.2429 52.6802 84.114 52.6533 83.9905 52.5995C83.867 52.5457 83.7595 52.4758 83.6682 52.3843C83.5769 52.2928 83.5017 52.1906 83.448 52.0669C83.3943 51.9485 83.3674 51.814 83.3674 51.6741V45.0507C83.3674 44.9162 83.3943 44.7871 83.4534 44.6633C83.5071 44.545 83.5823 44.4374 83.6736 44.3459C83.7649 44.2544 83.8723 44.1791 83.9959 44.1253C84.1194 44.0715 84.2537 44.0446 84.3933 44.0446C84.5276 44.0446 84.6565 44.0715 84.7801 44.1253C84.8982 44.1791 85.0056 44.249 85.097 44.3459C85.1883 44.4374 85.2581 44.545 85.3064 44.6633C85.3548 44.7817 85.3816 44.9108 85.3816 45.0507V51.6741Z" fill="#005E85"/>
<path d="M97.1875 41.9946C97.1875 41.8386 97.2144 41.6933 97.2734 41.5588C97.3325 41.4243 97.4131 41.3059 97.5098 41.2037C97.6065 41.1068 97.7246 41.0261 97.8643 40.9669C97.9986 40.9078 98.1436 40.8809 98.2886 40.8809C98.439 40.8809 98.5786 40.9078 98.7129 40.9669C98.8472 41.0261 98.9654 41.1068 99.0674 41.2037C99.1695 41.3005 99.25 41.4189 99.3091 41.5588C99.3682 41.6933 99.395 41.8386 99.395 41.9946C99.395 42.1453 99.3682 42.2852 99.3091 42.4143C99.25 42.5488 99.1695 42.6618 99.0674 42.764C98.9654 42.8609 98.8472 42.9416 98.7129 43.0008C98.5786 43.0599 98.4336 43.0869 98.2886 43.0869C98.1382 43.0869 97.9986 43.0599 97.8643 43.0008C97.73 42.9416 97.6118 42.8609 97.5098 42.764C97.4131 42.6672 97.3325 42.5488 97.2734 42.4143C97.2197 42.2852 97.1875 42.1453 97.1875 41.9946ZM99.2984 51.6741C99.2984 51.814 99.2715 51.9485 99.2178 52.0669C99.1641 52.1852 99.0943 52.2928 99.003 52.3843C98.9116 52.4758 98.8042 52.5457 98.6807 52.5995C98.5571 52.6533 98.4282 52.6802 98.294 52.6802C98.1597 52.6802 98.0308 52.6533 97.9072 52.5995C97.7837 52.5457 97.6763 52.4758 97.585 52.3843C97.4937 52.2928 97.4185 52.1906 97.3647 52.0669C97.311 51.9485 97.2842 51.814 97.2842 51.6741V45.0507C97.2842 44.9162 97.311 44.7871 97.3701 44.6633C97.4238 44.545 97.499 44.4374 97.5903 44.3459C97.6816 44.2544 97.7891 44.1791 97.9126 44.1253C98.0361 44.0715 98.1704 44.0446 98.3101 44.0446C98.4443 44.0446 98.5733 44.0715 98.6968 44.1253C98.8203 44.1791 98.9224 44.249 99.0137 44.3459C99.105 44.4374 99.1748 44.545 99.2232 44.6633C99.2715 44.7817 99.2984 44.9108 99.2984 45.0507V51.6741Z" fill="#005E85"/>
<path d="M102.849 43.9367H106.071C106.206 43.9367 106.335 43.9636 106.458 44.0228C106.582 44.0766 106.689 44.1519 106.78 44.2434C106.872 44.3349 106.947 44.4425 107.001 44.5662C107.054 44.69 107.087 44.8191 107.087 44.9536C107.087 45.0881 107.06 45.2173 107.006 45.341C106.952 45.4594 106.882 45.567 106.786 45.6585C106.694 45.7499 106.587 45.8199 106.463 45.8737C106.34 45.9275 106.206 45.9544 106.066 45.9544H102.843V48.3003C102.843 48.6285 102.908 48.9352 103.031 49.2257C103.16 49.5109 103.327 49.7638 103.547 49.979C103.762 50.1942 104.02 50.361 104.31 50.4848C104.605 50.6085 104.917 50.6677 105.25 50.6677C105.545 50.6677 105.819 50.6247 106.071 50.544C106.324 50.4579 106.56 50.3233 106.775 50.1297C106.845 50.0705 106.909 50.0113 106.974 49.9682C107.038 49.9198 107.113 49.8822 107.199 49.8499C107.355 49.7961 107.516 49.7799 107.683 49.8014C107.849 49.823 108.005 49.9037 108.155 50.0382C108.268 50.1458 108.343 50.2642 108.392 50.3933C108.44 50.5278 108.456 50.6677 108.445 50.813C108.435 50.9582 108.402 51.0981 108.338 51.2327C108.274 51.3672 108.188 51.4909 108.08 51.5931C107.71 51.9536 107.285 52.2227 106.802 52.4056C106.318 52.5885 105.803 52.68 105.244 52.68C104.632 52.68 104.063 52.567 103.525 52.3356C102.994 52.1043 102.521 51.7922 102.124 51.3994C101.721 51.0013 101.404 50.5386 101.173 50.0005C100.942 49.4679 100.824 48.8921 100.824 48.2788V42.3226C100.824 42.1827 100.851 42.0482 100.904 41.9244C100.958 41.8007 101.028 41.6931 101.125 41.6016C101.216 41.5101 101.323 41.4348 101.447 41.381C101.57 41.3272 101.705 41.3003 101.844 41.3003C101.979 41.3003 102.107 41.3272 102.231 41.381C102.349 41.4348 102.457 41.5047 102.548 41.6016C102.639 41.6931 102.709 41.8007 102.763 41.9244C102.816 42.0482 102.843 42.1827 102.843 42.3226V43.9367H102.849Z" fill="#005E85"/>
<path d="M109.711 48.2519C109.711 47.6385 109.829 47.0682 110.066 46.5301C110.302 45.9974 110.619 45.524 111.022 45.1258C111.425 44.7223 111.892 44.4048 112.424 44.1735C112.955 43.9421 113.53 43.8237 114.132 43.8237C114.744 43.8237 115.313 43.9421 115.851 44.1735C116.382 44.4048 116.85 44.7223 117.247 45.1258C117.645 45.5293 117.961 45.9974 118.192 46.5301C118.423 47.0628 118.541 47.6385 118.541 48.2519V51.534C118.541 51.6738 118.515 51.8084 118.461 51.9321C118.407 52.0559 118.337 52.1635 118.241 52.2549C118.149 52.3464 118.037 52.4217 117.913 52.4755C117.784 52.5293 117.65 52.5616 117.51 52.5616C117.269 52.5616 117.064 52.4917 116.898 52.3464C116.731 52.2065 116.619 52.0236 116.565 51.8084C116.21 52.072 115.829 52.2872 115.421 52.4379C115.013 52.5939 114.578 52.6692 114.126 52.6692C113.519 52.6692 112.95 52.5509 112.418 52.3195C111.887 52.0881 111.414 51.7707 111.016 51.3672C110.614 50.9636 110.297 50.4955 110.06 49.9575C109.829 49.4302 109.711 48.8545 109.711 48.2519ZM111.72 48.2519C111.72 48.5801 111.785 48.8921 111.908 49.1827C112.037 49.4786 112.209 49.7315 112.429 49.9521C112.649 50.1727 112.902 50.3449 113.192 50.474C113.482 50.6031 113.793 50.6623 114.126 50.6623C114.459 50.6623 114.771 50.5978 115.066 50.474C115.362 50.3449 115.614 50.1727 115.829 49.9521C116.044 49.7315 116.216 49.4732 116.339 49.1827C116.463 48.8868 116.522 48.5801 116.522 48.2519C116.522 47.9183 116.457 47.6062 116.339 47.3103C116.216 47.0144 116.044 46.7615 115.829 46.5463C115.614 46.331 115.356 46.1589 115.066 46.0297C114.771 45.9006 114.459 45.8414 114.126 45.8414C113.799 45.8414 113.487 45.906 113.197 46.0297C112.902 46.1589 112.649 46.331 112.429 46.5463C112.209 46.7615 112.037 47.0197 111.908 47.3103C111.785 47.6008 111.72 47.9129 111.72 48.2519Z" fill="#005E85"/>
<path d="M123.226 50.6624C123.365 50.6624 123.5 50.6893 123.618 50.7485C123.736 50.8023 123.843 50.8776 123.935 50.9744C124.026 51.0713 124.096 51.1789 124.144 51.3026C124.192 51.4264 124.219 51.5555 124.219 51.69C124.219 51.9752 124.128 52.2119 123.94 52.3949C123.752 52.5778 123.516 52.6747 123.226 52.6747C122.807 52.6747 122.415 52.6047 122.044 52.4594C121.679 52.3196 121.356 52.1205 121.077 51.8676C120.798 51.6147 120.578 51.308 120.417 50.9475C120.25 50.587 120.169 50.1943 120.164 49.7585V49.6939V41.7254C120.164 41.5855 120.191 41.451 120.239 41.3272C120.288 41.2035 120.357 41.0959 120.449 41.0098C120.54 40.9237 120.642 40.8484 120.76 40.7946C120.878 40.7408 121.002 40.7139 121.142 40.7139C121.276 40.7139 121.41 40.7408 121.534 40.7946C121.663 40.8484 121.77 40.9183 121.867 41.0098C121.963 41.1013 122.039 41.2089 122.092 41.3272C122.146 41.451 122.173 41.5855 122.173 41.7254V49.6939C122.173 50.0167 122.27 50.2588 122.468 50.4149C122.662 50.5817 122.914 50.6624 123.226 50.6624Z" fill="#005E85"/>
<path d="M95.7469 48.2519C95.7469 47.6385 95.6288 47.0682 95.3978 46.5301C95.1668 45.9974 94.85 45.524 94.4525 45.1258C94.055 44.7223 93.5877 44.4048 93.056 44.1735C92.5242 43.9421 91.9495 43.8237 91.3372 43.8237C90.7303 43.8237 90.1609 43.9421 89.6292 44.1735C89.0974 44.4048 88.6248 44.7223 88.2273 45.1258C87.8245 45.5293 87.5076 45.9974 87.2712 46.5301C87.0349 47.0628 86.9167 47.6385 86.9167 48.2519C86.9167 48.8599 87.0349 49.4302 87.2712 49.9682C87.5076 50.5063 87.8245 50.9744 88.2273 51.3725C88.6301 51.7707 89.0974 52.0881 89.6292 52.3195C90.1609 52.5509 90.7356 52.6692 91.3372 52.6692C91.74 52.6692 92.1214 52.6208 92.492 52.5186C92.8573 52.4217 93.201 52.2765 93.5233 52.0935C93.5985 52.0451 93.6683 52.0021 93.7274 51.9483C93.7274 51.9483 93.9261 53.8906 91.7562 54.4448C90.0159 54.8914 88.7859 53.4817 88.7268 53.4117C88.3831 52.9974 87.7493 52.9275 87.3088 53.2449C86.8684 53.5678 86.7878 54.165 87.1316 54.5847C88.7859 56.597 92.0784 57.0489 94.1732 55.3702C95.1722 54.5685 95.7523 53.4494 95.7523 52.2119C95.7523 52.2119 95.7469 48.2572 95.7469 48.2519ZM93.5501 49.1773C93.4266 49.4679 93.2547 49.7207 93.0399 49.936C92.825 50.1512 92.5672 50.3233 92.2772 50.4525C91.9818 50.5816 91.6702 50.6408 91.3372 50.6408C91.0042 50.6408 90.6927 50.5762 90.4026 50.4525C90.1126 50.3233 89.8601 50.1566 89.6399 49.936C89.4197 49.7207 89.2478 49.4679 89.1189 49.1773C88.99 48.8868 88.9309 48.5747 88.9309 48.2519C88.9309 47.9183 88.9954 47.6062 89.1189 47.3103C89.2478 47.0144 89.4197 46.7615 89.6399 46.5463C89.8601 46.331 90.1126 46.1589 90.408 46.0297C90.7034 45.9006 91.0096 45.8414 91.3372 45.8414C91.6702 45.8414 91.9818 45.906 92.2772 46.0297C92.5726 46.1589 92.825 46.331 93.0399 46.5463C93.2547 46.7615 93.4266 47.0197 93.5501 47.3103C93.6737 47.6008 93.7328 47.9183 93.7328 48.2465V48.2519C93.7381 48.5801 93.6737 48.8868 93.5501 49.1773Z" fill="#005E85"/>
<path d="M131.439 45.745H137.702V41.7903C137.702 41.6558 137.729 41.5267 137.788 41.4029C137.842 41.2792 137.917 41.1716 138.008 41.0855C138.1 40.9994 138.207 40.9294 138.331 40.8756C138.454 40.8218 138.588 40.7949 138.728 40.7949C138.862 40.7949 138.991 40.8218 139.115 40.8756C139.233 40.9294 139.34 40.9994 139.432 41.0855C139.523 41.1716 139.593 41.2792 139.641 41.4029C139.689 41.5267 139.716 41.6558 139.716 41.7903V51.6796C139.716 51.8195 139.689 51.954 139.636 52.0724C139.582 52.1908 139.512 52.2984 139.421 52.3845C139.33 52.4706 139.222 52.5405 139.104 52.5943C138.98 52.6481 138.852 52.675 138.717 52.675C138.578 52.675 138.443 52.6481 138.325 52.5943C138.207 52.5405 138.1 52.4706 138.003 52.3845C137.912 52.2984 137.836 52.1961 137.788 52.0724C137.734 51.954 137.708 51.8195 137.708 51.6796V47.7626H131.445V51.6796C131.445 51.8195 131.418 51.954 131.364 52.0724C131.31 52.1908 131.241 52.2984 131.144 52.3845C131.053 52.4706 130.945 52.5405 130.822 52.5943C130.698 52.6481 130.569 52.675 130.435 52.675C130.295 52.675 130.161 52.6481 130.043 52.5943C129.925 52.5405 129.817 52.4706 129.726 52.3845C129.635 52.2984 129.565 52.1961 129.511 52.0724C129.457 51.954 129.431 51.8195 129.431 51.6796V41.7903C129.431 41.6558 129.457 41.5267 129.511 41.4029C129.565 41.2792 129.635 41.1716 129.726 41.0855C129.817 40.9994 129.919 40.9294 130.043 40.8756C130.161 40.8218 130.295 40.7949 130.435 40.7949C130.569 40.7949 130.698 40.8218 130.822 40.8756C130.945 40.9294 131.053 40.9994 131.144 41.0855C131.235 41.1716 131.31 41.2792 131.364 41.4029C131.418 41.5267 131.445 41.6558 131.445 41.7903V45.745H131.439Z" fill="#005E85"/>
<path d="M141.065 48.2524C141.065 47.639 141.183 47.0686 141.419 46.5306C141.656 45.9979 141.973 45.5245 142.375 45.1263C142.778 44.7228 143.246 44.4053 143.777 44.174C144.309 43.9426 144.884 43.8242 145.485 43.8242C146.098 43.8242 146.667 43.9426 147.204 44.174C147.736 44.4053 148.203 44.7228 148.601 45.1263C148.998 45.5298 149.315 45.9979 149.546 46.5306C149.777 47.0633 149.895 47.639 149.895 48.2524C149.895 48.8603 149.777 49.4307 149.546 49.9687C149.315 50.5068 148.998 50.9749 148.601 51.3784C148.203 51.7819 147.736 52.0994 147.204 52.3308C146.672 52.5621 146.098 52.6805 145.485 52.6805C144.878 52.6805 144.309 52.5621 143.777 52.3308C143.246 52.0994 142.773 51.7819 142.375 51.3784C141.973 50.9749 141.656 50.5068 141.419 49.9687C141.183 49.4307 141.065 48.855 141.065 48.2524ZM143.074 48.2524C143.074 48.5806 143.138 48.8926 143.262 49.1832C143.391 49.4791 143.562 49.732 143.783 49.9526C144.003 50.1732 144.255 50.3454 144.545 50.4745C144.835 50.6036 145.147 50.6628 145.48 50.6628C145.813 50.6628 146.124 50.5982 146.42 50.4745C146.715 50.3454 146.968 50.1732 147.183 49.9526C147.397 49.732 147.569 49.4737 147.693 49.1832C147.816 48.8873 147.875 48.5806 147.875 48.2524C147.875 47.9188 147.811 47.6067 147.693 47.3108C147.569 47.0148 147.397 46.762 147.183 46.5467C146.968 46.3315 146.71 46.1593 146.42 46.0302C146.124 45.9011 145.813 45.8419 145.48 45.8419C145.152 45.8419 144.841 45.9065 144.551 46.0302C144.255 46.1593 144.003 46.3315 143.783 46.5467C143.562 46.762 143.391 47.0202 143.262 47.3108C143.138 47.6013 143.074 47.9134 143.074 48.2524Z" fill="#005E85"/>
<path d="M154.266 50.6624C154.406 50.6624 154.54 50.6893 154.658 50.7485C154.777 50.8023 154.884 50.8776 154.975 50.9744C155.067 51.0713 155.137 51.1789 155.185 51.3026C155.233 51.4264 155.26 51.5555 155.26 51.69C155.26 51.9752 155.169 52.2119 154.981 52.3949C154.793 52.5778 154.556 52.6747 154.266 52.6747C153.847 52.6747 153.455 52.6047 153.085 52.4594C152.72 52.3196 152.397 52.1205 152.118 51.8676C151.839 51.6147 151.618 51.308 151.457 50.9475C151.291 50.587 151.21 50.1943 151.205 49.7585V49.6939V41.7254C151.205 41.5855 151.232 41.451 151.28 41.3272C151.328 41.2035 151.398 41.0959 151.49 41.0098C151.581 40.9183 151.683 40.8484 151.801 40.7946C151.919 40.7408 152.043 40.7139 152.182 40.7139C152.317 40.7139 152.451 40.7408 152.574 40.7946C152.703 40.8484 152.811 40.9183 152.907 41.0098C153.004 41.1013 153.079 41.2089 153.133 41.3272C153.187 41.451 153.214 41.5855 153.214 41.7254V49.6939C153.214 50.0167 153.31 50.2588 153.509 50.4149C153.702 50.5817 153.955 50.6624 154.266 50.6624Z" fill="#005E85"/>
<path d="M164.198 48.2414V48.2898C164.193 48.6933 164.134 49.0807 164.032 49.452C163.924 49.8286 163.779 50.1729 163.581 50.5012C163.387 50.824 163.156 51.1199 162.888 51.3889C162.619 51.658 162.318 51.8839 161.996 52.0776C161.668 52.2713 161.319 52.4166 160.943 52.5242C160.567 52.6264 160.181 52.6802 159.783 52.6802C159.171 52.6802 158.601 52.5619 158.064 52.3305C157.533 52.0992 157.065 51.7817 156.668 51.3782C156.27 50.9746 155.953 50.5065 155.723 49.9685C155.492 49.4304 155.373 48.8601 155.373 48.2521C155.373 47.6387 155.492 47.063 155.723 46.525C155.953 45.9869 156.27 45.5188 156.668 45.1207C157.065 44.7225 157.533 44.4051 158.064 44.1737C158.596 43.9423 159.171 43.824 159.783 43.824C160.229 43.824 160.653 43.8885 161.056 44.0123C161.459 44.1414 161.84 44.319 162.189 44.545V41.6503C162.189 41.4996 162.216 41.3651 162.265 41.236C162.313 41.1068 162.383 40.9992 162.474 40.9024C162.565 40.8055 162.667 40.7302 162.791 40.6818C162.909 40.628 163.043 40.6011 163.194 40.6011C163.333 40.6011 163.468 40.628 163.591 40.6818C163.715 40.7356 163.822 40.8109 163.908 40.9024C163.999 40.9992 164.069 41.1068 164.123 41.236C164.177 41.3651 164.204 41.4996 164.204 41.6503V48.2414H164.198ZM162.189 48.2521C162.189 47.9185 162.125 47.6065 162.001 47.3105C161.873 47.0146 161.701 46.7617 161.48 46.5465C161.26 46.3313 161.008 46.1591 160.718 46.03C160.428 45.9008 160.116 45.8417 159.783 45.8417C159.45 45.8417 159.139 45.9062 158.849 46.03C158.558 46.1591 158.306 46.3313 158.086 46.5465C157.866 46.7617 157.694 47.02 157.57 47.3105C157.447 47.6065 157.382 47.9185 157.382 48.2521C157.382 48.5803 157.447 48.8924 157.57 49.1829C157.694 49.4789 157.866 49.7317 158.08 49.9523C158.295 50.1729 158.553 50.3451 158.843 50.4742C159.139 50.6034 159.45 50.6626 159.783 50.6626C160.116 50.6626 160.428 50.598 160.718 50.4742C161.008 50.3451 161.26 50.1729 161.48 49.9523C161.701 49.7317 161.873 49.4735 162.001 49.1829C162.125 48.887 162.189 48.5803 162.189 48.2521Z" fill="#005E85"/>
<path d="M165.697 41.9946C165.697 41.8386 165.724 41.6933 165.783 41.5588C165.842 41.4243 165.923 41.3059 166.019 41.2037C166.116 41.1015 166.234 41.0261 166.374 40.9669C166.508 40.9078 166.653 40.8809 166.798 40.8809C166.943 40.8809 167.088 40.9078 167.222 40.9669C167.357 41.0261 167.475 41.1068 167.577 41.2037C167.679 41.3005 167.76 41.4189 167.819 41.5588C167.878 41.6933 167.905 41.8386 167.905 41.9946C167.905 42.1453 167.878 42.2852 167.819 42.4143C167.76 42.5488 167.679 42.6618 167.577 42.764C167.475 42.8609 167.357 42.9416 167.222 43.0008C167.088 43.0599 166.943 43.0869 166.798 43.0869C166.653 43.0869 166.508 43.0599 166.374 43.0008C166.24 42.9416 166.121 42.8609 166.019 42.764C165.917 42.6672 165.842 42.5488 165.783 42.4143C165.724 42.2852 165.697 42.1453 165.697 41.9946ZM167.808 51.6741C167.808 51.814 167.781 51.9485 167.727 52.0669C167.674 52.1852 167.604 52.2928 167.512 52.3843C167.421 52.4758 167.314 52.5457 167.19 52.5995C167.067 52.6533 166.938 52.6802 166.803 52.6802C166.669 52.6802 166.54 52.6533 166.417 52.5995C166.293 52.5457 166.186 52.4758 166.094 52.3843C166.003 52.2928 165.928 52.1906 165.874 52.0669C165.821 51.9485 165.794 51.814 165.794 51.6741V45.0507C165.794 44.9162 165.821 44.7871 165.88 44.6633C165.933 44.545 166.009 44.4374 166.1 44.3459C166.191 44.2544 166.299 44.1791 166.422 44.1253C166.546 44.0715 166.68 44.0446 166.82 44.0446C166.954 44.0446 167.083 44.0715 167.206 44.1253C167.324 44.1791 167.432 44.249 167.523 44.3459C167.615 44.4374 167.684 44.545 167.733 44.6633C167.781 44.7817 167.808 44.9108 167.808 45.0507V51.6741Z" fill="#005E85"/>
<path d="M177.734 51.6849C177.734 51.8248 177.707 51.9593 177.653 52.0777C177.599 52.1961 177.53 52.3037 177.444 52.3951C177.358 52.4866 177.256 52.5566 177.132 52.605C177.014 52.6534 176.885 52.6803 176.745 52.6803C176.606 52.6803 176.472 52.6534 176.348 52.605C176.224 52.5566 176.117 52.4866 176.026 52.3951C175.934 52.3037 175.859 52.2015 175.805 52.0777C175.752 51.9593 175.725 51.8248 175.725 51.6849V48.236C175.725 48.1876 175.73 48.15 175.736 48.1231C175.725 47.8217 175.66 47.5366 175.548 47.2676C175.435 47.0039 175.284 46.7672 175.097 46.5735C174.909 46.3744 174.683 46.2184 174.425 46.1054C174.167 45.9924 173.883 45.9332 173.582 45.9332C173.265 45.9332 172.975 45.9924 172.712 46.1054C172.449 46.2184 172.218 46.3798 172.03 46.5842C171.842 46.7887 171.691 47.0308 171.584 47.3052C171.476 47.5796 171.423 47.8756 171.423 48.193V51.6903C171.423 51.8302 171.396 51.9647 171.347 52.0831C171.299 52.2015 171.229 52.3091 171.138 52.4005C171.047 52.492 170.945 52.5619 170.821 52.6104C170.703 52.6588 170.574 52.6857 170.434 52.6857C170.3 52.6857 170.171 52.6588 170.048 52.6104C169.924 52.5619 169.817 52.492 169.72 52.4005C169.623 52.3091 169.548 52.2068 169.494 52.0831C169.441 51.9647 169.414 51.8302 169.414 51.6903V48.2414V48.2038V48.193C169.414 47.6011 169.521 47.047 169.731 46.5251C169.946 46.0085 170.236 45.5566 170.612 45.1692C170.988 44.7818 171.428 44.4805 171.938 44.2545C172.449 44.0339 172.996 43.9209 173.582 43.9209C174.173 43.9209 174.726 44.0339 175.231 44.2545C175.736 44.4751 176.176 44.7818 176.547 45.1692C176.917 45.5566 177.207 46.0085 177.422 46.5251C177.637 47.0416 177.744 47.5958 177.744 48.193V48.2038V48.2414V51.6849H177.734Z" fill="#005E85"/>
<path d="M191.881 48.9357C191.618 48.8227 191.339 48.7043 191.059 48.5698C190.775 48.4353 190.517 48.2739 190.281 48.0802C190.044 47.8865 189.851 47.6497 189.701 47.3807C189.55 47.1063 189.475 46.7835 189.475 46.4068C189.475 46.0195 189.55 45.6643 189.706 45.3469C189.862 45.0294 190.077 44.755 190.35 44.5291C190.624 44.3031 190.952 44.1309 191.328 44.0072C191.704 43.8888 192.118 43.8242 192.569 43.8242C192.827 43.8242 193.095 43.8457 193.374 43.8834C193.654 43.9211 193.917 43.991 194.164 44.0771C194.416 44.1686 194.637 44.2869 194.835 44.4322C195.034 44.5775 195.184 44.7497 195.292 44.9541C195.383 45.1532 195.415 45.3469 195.389 45.546C195.362 45.7397 195.292 45.9011 195.179 46.0248C195.056 46.1647 194.905 46.2616 194.723 46.31C194.545 46.3584 194.363 46.3423 194.185 46.2616C194.057 46.1809 193.938 46.1109 193.831 46.0464C193.724 45.9818 193.611 45.9334 193.498 45.8903C193.385 45.8473 193.262 45.815 193.138 45.7935C193.009 45.772 192.87 45.7612 192.708 45.7612C192.306 45.7612 192.005 45.815 191.795 45.9226C191.591 46.0302 191.484 46.197 191.484 46.4176C191.484 46.536 191.521 46.6328 191.602 46.7082C191.677 46.7835 191.785 46.8534 191.919 46.918C192.053 46.9826 192.214 47.0364 192.402 47.0955C192.59 47.1494 192.794 47.2139 193.02 47.2785C193.385 47.3915 193.729 47.5206 194.062 47.6659C194.39 47.8165 194.685 47.9941 194.932 48.2093C195.184 48.4245 195.383 48.6774 195.528 48.968C195.679 49.2585 195.748 49.6029 195.748 49.9956C195.748 50.3669 195.668 50.7166 195.512 51.0394C195.356 51.3623 195.136 51.6474 194.857 51.8896C194.578 52.1317 194.245 52.32 193.863 52.4599C193.476 52.5998 193.058 52.6697 192.606 52.6697C192.322 52.6697 192.021 52.6428 191.704 52.589C191.387 52.5352 191.076 52.4491 190.78 52.32C190.479 52.1909 190.205 52.0294 189.953 51.8304C189.701 51.6313 189.496 51.3784 189.341 51.0825C189.185 50.7866 189.137 50.5229 189.196 50.2916C189.255 50.0602 189.378 49.8826 189.561 49.7696C189.744 49.6513 189.969 49.6082 190.238 49.6405C190.501 49.6728 190.764 49.8019 191.016 50.0387C191.092 50.1301 191.183 50.2216 191.296 50.3023C191.409 50.3884 191.532 50.4583 191.666 50.5229C191.801 50.5875 191.951 50.6413 192.107 50.6736C192.263 50.7112 192.429 50.7274 192.601 50.7274C192.757 50.7274 192.902 50.7112 193.036 50.6789C193.17 50.6467 193.294 50.5982 193.396 50.5337C193.503 50.4745 193.584 50.3992 193.648 50.3131C193.707 50.227 193.74 50.1301 193.74 50.0171C193.74 49.888 193.67 49.7696 193.536 49.662C193.401 49.5544 193.235 49.4522 193.041 49.3607C192.848 49.2693 192.644 49.1886 192.429 49.1132C192.209 49.0487 192.026 48.9841 191.881 48.9357Z" fill="#005E85"/>
<path d="M187.917 48.2524C187.917 47.639 187.799 47.0686 187.568 46.5306C187.337 45.9979 187.02 45.5245 186.623 45.1263C186.225 44.7228 185.758 44.4053 185.226 44.174C184.694 43.9426 184.12 43.8242 183.507 43.8242C182.9 43.8242 182.331 43.9426 181.799 44.174C181.267 44.4053 180.795 44.7228 180.397 45.1263C179.995 45.5298 179.678 45.9979 179.441 46.5306C179.205 47.0633 179.087 47.639 179.087 48.2524C179.087 48.8603 179.205 49.4307 179.441 49.9687C179.678 50.5068 179.995 50.9749 180.397 51.373C180.8 51.7712 181.267 52.0886 181.799 52.32C182.331 52.5514 182.906 52.6697 183.507 52.6697C183.91 52.6697 184.291 52.6213 184.662 52.5191C185.027 52.4222 185.371 52.2769 185.693 52.094C185.769 52.0456 185.838 52.0025 185.897 51.9487C185.897 51.9487 186.096 53.8911 183.926 54.4453C182.186 54.8919 180.956 53.4822 180.897 53.4122C180.553 52.9979 179.919 52.928 179.479 53.2454C179.038 53.5683 178.958 54.1655 179.302 54.5852C180.956 56.5975 184.248 57.0494 186.343 55.3707C187.342 54.569 187.922 53.4499 187.922 52.2124C187.922 52.2124 187.917 48.2577 187.917 48.2524ZM185.726 49.1778C185.602 49.4683 185.43 49.7212 185.215 49.9364C185 50.1517 184.743 50.3238 184.453 50.453C184.157 50.5821 183.846 50.6413 183.513 50.6413C183.18 50.6413 182.868 50.5767 182.578 50.453C182.288 50.3238 182.036 50.157 181.815 49.9364C181.595 49.7212 181.423 49.4683 181.294 49.1778C181.165 48.8872 181.106 48.5752 181.106 48.2524C181.106 47.9188 181.171 47.6067 181.294 47.3108C181.423 47.0148 181.595 46.762 181.815 46.5467C182.036 46.3315 182.288 46.1593 182.583 46.0302C182.879 45.9011 183.185 45.8419 183.513 45.8419C183.846 45.8419 184.157 45.9065 184.453 46.0302C184.748 46.1593 185 46.3315 185.215 46.5467C185.43 46.762 185.602 47.0202 185.726 47.3108C185.849 47.6013 185.908 47.9188 185.908 48.247V48.2524C185.908 48.5806 185.849 48.8872 185.726 49.1778Z" fill="#005E85"/>
<path d="M17.5161 3.70177C15.8295 1.45273 13.144 0 10.12 0C5.00664 0 0.865479 4.14835 0.865479 9.27056C0.865479 12.2998 2.31569 14.99 4.56084 16.6795C7.49886 11.1753 12.0214 6.64489 17.5161 3.70177Z" fill="#005E85"/>
<path d="M19.3737 9.27045C19.3737 7.17745 18.6808 5.25124 17.5153 3.70166C12.0206 6.64478 7.49808 11.1751 4.56006 16.6794C6.10695 17.8469 8.0352 18.541 10.1192 18.541C15.2326 18.541 19.3737 14.3927 19.3737 9.27045Z" fill="#9ACA3C"/>
<path d="M16.7206 26.2084C19.6371 26.2084 22.0058 28.5758 22.0058 31.5028C22.0058 25.7995 26.6196 21.1776 32.313 21.1776H53.1907C51.5579 21.14 50.1131 20.3544 49.1731 19.1546C49.1516 19.1331 49.1248 19.1115 49.114 19.09C47.4705 16.8571 45.3918 14.9686 43.0124 13.5427C39.8864 11.665 36.2286 10.5889 32.3184 10.5889C30.5191 10.5889 28.7681 10.8148 27.103 11.2453C26.437 11.4175 25.7817 11.6219 25.1425 11.8533C23.225 12.5581 21.4364 13.532 19.8305 14.7372C14.7386 18.552 11.4461 24.6373 11.4461 31.492C11.4353 28.5758 13.804 26.2084 16.7206 26.2084Z" fill="#FDB913"/>
<path d="M41.1602 36.7915C39.3608 39.8046 36.0737 41.8223 32.3085 41.8223C26.6151 41.8223 22.0012 37.2005 22.0012 31.4971C22.0012 28.0267 18.6604 25.3311 15.0241 26.4664C12.8541 27.1443 11.4308 29.2212 11.4308 31.4971C11.4308 43.049 20.7766 52.4111 32.3085 52.4111C41.7027 52.4111 49.6466 46.1966 52.2677 37.647C52.3966 37.222 52.0851 36.7915 51.6393 36.7915H41.1602Z" fill="#F16682"/>
<path d="M63.7558 31.5296C63.7558 28.5972 61.3979 26.2083 58.4706 26.2083H32.4581C29.6114 26.2083 27.1621 28.3982 27.0332 31.2444C26.8882 34.2844 29.3106 36.7917 32.3131 36.7917H51.6385C52.0843 36.7917 52.4012 37.2275 52.2669 37.6526C49.5545 46.4927 41.1433 52.8417 31.3248 52.3843C20.5825 51.8893 11.8865 43.1191 11.4515 32.3582C10.9734 20.4135 20.4965 10.5834 32.3077 10.5834C39.1989 10.5834 45.3059 13.9301 49.1087 19.0845C50.2098 20.5373 52.0413 21.4035 54.0555 21.1291C56.6015 20.7794 58.5458 18.568 58.5995 15.9908C58.6371 14.1614 57.6811 12.8217 56.58 11.4873C55.5917 10.2821 54.5121 9.15219 53.3573 8.103C51.0369 6.00461 48.3997 4.25058 45.5637 2.92698C42.6579 1.5711 39.548 0.667179 36.3683 0.252882C35.0309 0.0860876 33.672 0 32.3131 0C26.9634 0 21.9252 1.33974 17.5155 3.70177C18.7885 5.39662 19.4921 7.53805 19.3525 9.85165C19.0732 14.4789 15.3133 18.2452 10.6941 18.525C8.38455 18.6649 6.24683 17.96 4.55491 16.6849C2.02509 21.4251 0.671561 26.8862 0.881037 32.681C1.48798 49.3121 15.1468 62.7148 31.7598 63C49.3719 63.2959 63.7451 49.0968 63.7558 31.5296Z" fill="#5D62A8"/>
</g>
<defs>
<clipPath id="clip0_344_276">
<rect width="195" height="63" fill="white" transform="translate(0.864014)"/>
</clipPath>
</defs>
</svg>
