<svg width="380" height="122" viewBox="0 0 380 122" fill="none" xmlns="http://www.w3.org/2000/svg">
<g clip-path="url(#clip0_312_757)">
<path d="M184.333 50.8474C184.333 51.6925 184.229 52.5376 183.947 53.3383C183.212 55.4288 180.968 56.8225 179.208 57.9864C177.158 59.3356 174.93 60.4105 172.59 61.1667C168.193 62.5826 163.439 62.8198 158.93 61.8264C156.917 61.3816 154.956 60.6996 153.107 59.7878C143.057 54.8283 137.434 44.2867 138.674 32.8109C139.811 22.3212 147.877 13.0472 158.38 10.5563C167.465 8.39909 175.502 10.6601 182.305 17.0726C184.066 18.7258 184.333 21.0609 183.085 22.7586C181.949 24.3079 179.579 24.6341 177.507 23.4628C176.816 23.0699 176.2 22.551 175.561 22.0691C167.078 15.6789 156.159 17.0726 150.477 25.4199C143.465 35.7169 148.16 50.6547 160.445 53.6274C165.541 54.858 170.465 54.1463 174.937 51.181C175.843 50.5805 176.229 49.8689 176.229 48.7124C176.229 47.0518 176.215 45.8435 176.215 44.0717C176.215 43.2266 175.918 42.9226 175.086 42.9375C173.139 42.9745 168.037 42.93 167.45 42.8411C165.407 42.5297 163.921 40.9729 163.914 39.1864C163.907 37.2144 165.437 35.3463 167.531 35.287C171.877 35.1535 176.222 35.1461 180.567 35.2944C182.773 35.3685 184.37 37.1403 184.37 39.3865C184.37 42.3518 184.333 46.3995 184.333 50.8474Z" fill="#5D62A8"/>
<path d="M285.026 58.0227C280.703 61.7441 275.808 62.9599 270.482 62.2112C260.67 60.8397 253.799 51.8104 254.705 41.6838C255.522 32.61 262.534 25.3821 271.551 24.3146C280.799 23.2248 289.445 28.5846 292.245 37.3026C292.877 39.2671 293.189 41.3947 293.256 43.463C293.404 47.8962 293.308 52.3367 293.293 56.7772C293.293 57.4222 293.248 58.082 293.1 58.7047C292.691 60.4765 291.354 61.6552 289.69 61.7886C287.714 61.9517 286.296 61.1066 285.523 59.3126C285.375 58.9567 285.248 58.5935 285.026 58.0227ZM274.166 54.0862C280.205 54.0566 285.003 49.2231 284.981 43.211C284.951 37.184 280.123 32.3876 274.099 32.3876C268.001 32.395 263.098 37.2581 263.106 43.2925C263.106 49.3195 268.031 54.1233 274.166 54.0862Z" fill="#5D62A8"/>
<path d="M221.376 58.0087C217.068 61.7524 212.173 62.9608 206.847 62.2343C197.288 60.9221 190.461 52.3302 190.996 42.478C191.568 32.0179 200.244 23.8929 210.546 24.182C221.302 24.4786 229.487 32.6925 229.569 43.3157C229.606 48.1046 229.621 52.8936 229.547 57.6826C229.502 60.6404 227.096 62.4715 224.392 61.7154C222.661 61.2113 221.926 59.8102 221.376 58.0087ZM199.457 43.2564C199.442 49.313 204.307 54.1094 210.45 54.0945C216.503 54.0797 221.317 49.2759 221.287 43.2564C221.265 37.1849 216.503 32.4033 210.465 32.3959C204.344 32.3885 199.471 37.1997 199.457 43.2564Z" fill="#5D62A8"/>
<path d="M236.247 15.5083C236.247 14.8485 236.254 14.1888 236.336 13.5364C236.596 11.4607 238.17 9.9558 240.235 9.76305C242.226 9.57772 244.194 10.8454 244.744 12.7951C244.974 13.6105 245.026 14.4927 245.026 15.3452C245.041 25.3754 245.034 47.0666 245.093 47.8746C245.338 51.3588 247.173 53.3382 250.568 53.8126C253.672 54.25 255.24 56.5111 254.415 59.3948C253.843 61.4112 252.261 62.16 250.441 62.3305C243.578 62.9828 236.967 59.8544 236.432 50.7732C236.068 44.6573 236.239 21.135 236.247 15.5083Z" fill="#5D62A8"/>
<path d="M375.223 24.7078C372.801 24.7078 370.996 26.2646 370.788 28.6517C370.729 29.2447 370.818 39.9198 370.759 44.5086C370.692 49.2383 368.553 52.5965 364.891 53.9012C358.376 56.2142 352.167 51.9664 352.048 44.9905C351.951 39.8457 352.003 34.4118 351.973 29.2818C351.966 26.5686 350.198 24.7227 347.673 24.7078C345.103 24.6856 343.238 26.5834 343.216 29.3115C343.194 34.4044 343.186 39.7864 343.275 44.8719C343.402 52.4927 348.534 59.7207 355.985 61.7815C361.221 63.2345 366.978 62.1893 371.449 59.3055C371.449 59.3055 372.274 67.8456 363.249 70.2845C356.007 72.2416 350.874 66.0368 350.629 65.7328C349.203 63.9166 346.566 63.5978 344.739 65.0063C342.904 66.4222 342.57 69.0614 343.989 70.885C350.882 79.7365 364.586 81.7232 373.292 74.347C377.444 70.8257 379.865 65.8885 379.865 60.462L379.828 29.2077C379.821 27.4656 378.476 24.7078 375.223 24.7078Z" fill="#5D62A8"/>
<path d="M335.26 54.91C336.939 56.6521 336.917 59.4395 335.223 61.1519C334.384 62.0044 333.277 62.427 332.185 62.427C331.071 62.427 329.964 61.9896 329.117 61.1223L318.221 49.8467L307.324 61.1223C306.485 61.9896 305.371 62.427 304.249 62.427C303.157 62.427 302.058 62.0044 301.218 61.1519C299.525 59.4395 299.51 56.6521 301.181 54.91L312.152 43.5677L301.181 32.2106C299.502 30.4833 299.525 27.6885 301.218 25.976C302.058 25.1235 303.157 24.7009 304.249 24.7009C305.371 24.7009 306.477 25.1383 307.324 26.0057L318.221 37.2812L329.117 26.0057C329.957 25.1383 331.071 24.7009 332.185 24.7009C333.277 24.7009 334.384 25.1235 335.223 25.976C336.917 27.6885 336.932 30.4759 335.26 32.2106L324.289 43.5677L335.26 54.91Z" fill="#5D62A8"/>
<path d="M140.449 102C140.174 102 139.922 101.948 139.684 101.844C139.454 101.74 139.246 101.607 139.075 101.436C138.904 101.266 138.763 101.066 138.659 100.836C138.555 100.598 138.503 100.346 138.503 100.072V80.9237C138.503 80.6494 138.555 80.3899 138.659 80.1601C138.763 79.9303 138.897 79.7227 139.075 79.5522C139.246 79.3817 139.454 79.2409 139.684 79.1445C139.914 79.0481 140.174 79.0037 140.449 79.0037H140.524H146.77C147.825 79.0037 148.85 79.1445 149.838 79.4188C150.826 79.6931 151.755 80.086 152.616 80.5901C153.478 81.0942 154.273 81.6947 154.993 82.4064C155.714 83.1106 156.33 83.889 156.85 84.7415C157.363 85.594 157.764 86.5059 158.046 87.4918C158.328 88.4704 158.469 89.4934 158.469 90.5461C158.469 92.1251 158.157 93.6152 157.533 95.0015C156.909 96.3877 156.063 97.6035 154.993 98.6488C153.923 99.6941 152.683 100.51 151.264 101.11C149.846 101.71 148.345 102.007 146.763 102.007H140.464H140.449V102ZM142.41 82.903V98.1002H146.86C147.914 98.1002 148.91 97.8926 149.846 97.4775C150.781 97.0624 151.599 96.5138 152.304 95.8243C153.002 95.1349 153.559 94.3343 153.961 93.4224C154.362 92.5106 154.562 91.5617 154.562 90.5683C154.562 89.5601 154.362 88.5964 153.961 87.6772C153.559 86.7579 153.01 85.9425 152.304 85.2308C151.599 84.5265 150.781 83.9557 149.846 83.5332C148.91 83.1106 147.914 82.8956 146.86 82.8956H142.41V82.903Z" fill="#005E85"/>
<path d="M161.262 81.3239C161.262 81.0274 161.321 80.7456 161.433 80.4788C161.544 80.2119 161.7 79.9895 161.893 79.7968C162.086 79.604 162.316 79.4557 162.576 79.3371C162.844 79.2259 163.119 79.1666 163.401 79.1666C163.683 79.1666 163.965 79.2259 164.225 79.3371C164.485 79.4483 164.723 79.604 164.916 79.7968C165.117 79.9895 165.273 80.2193 165.384 80.4788C165.496 80.7456 165.555 81.0199 165.555 81.3239C165.555 81.613 165.496 81.8799 165.384 82.1393C165.273 82.3988 165.117 82.6212 164.916 82.8139C164.716 83.0067 164.485 83.155 164.225 83.2736C163.958 83.3848 163.683 83.4441 163.401 83.4441C163.119 83.4441 162.836 83.3848 162.576 83.2736C162.309 83.1624 162.086 83.0067 161.893 82.8139C161.7 82.6212 161.551 82.3988 161.433 82.1393C161.321 81.8799 161.262 81.6056 161.262 81.3239ZM165.369 100.057C165.369 100.331 165.317 100.584 165.213 100.821C165.109 101.051 164.976 101.258 164.797 101.429C164.627 101.599 164.419 101.74 164.173 101.844C163.936 101.948 163.683 101.999 163.416 101.999C163.148 101.999 162.903 101.948 162.658 101.844C162.42 101.74 162.205 101.607 162.027 101.429C161.849 101.258 161.707 101.051 161.603 100.821C161.499 100.584 161.447 100.331 161.447 100.057V87.2322C161.447 86.9654 161.499 86.7207 161.611 86.4835C161.722 86.2463 161.863 86.0461 162.042 85.8608C162.22 85.6829 162.428 85.542 162.673 85.4382C162.911 85.3345 163.171 85.2826 163.446 85.2826C163.705 85.2826 163.958 85.3345 164.196 85.4382C164.426 85.542 164.634 85.6829 164.805 85.8608C164.976 86.0387 165.117 86.2463 165.213 86.4835C165.31 86.7133 165.354 86.9654 165.354 87.2322V100.057H165.369Z" fill="#005E85"/>
<path d="M188.315 81.3239C188.315 81.0274 188.375 80.7456 188.486 80.4788C188.597 80.2119 188.753 79.9895 188.947 79.7968C189.14 79.604 189.37 79.4557 189.63 79.3371C189.897 79.2259 190.172 79.1666 190.454 79.1666C190.737 79.1666 191.019 79.2259 191.279 79.3371C191.539 79.4483 191.777 79.604 191.97 79.7968C192.17 79.9895 192.326 80.2193 192.438 80.4788C192.549 80.7456 192.609 81.0199 192.609 81.3239C192.609 81.613 192.549 81.8799 192.438 82.1393C192.326 82.3988 192.17 82.6212 191.97 82.8139C191.769 83.0067 191.539 83.155 191.279 83.2736C191.012 83.3848 190.737 83.4441 190.454 83.4441C190.172 83.4441 189.89 83.3848 189.63 83.2736C189.363 83.1624 189.14 83.0067 188.947 82.8139C188.753 82.6212 188.605 82.3988 188.486 82.1393C188.375 81.8799 188.315 81.6056 188.315 81.3239ZM192.415 100.057C192.415 100.331 192.363 100.584 192.259 100.821C192.155 101.051 192.022 101.258 191.843 101.429C191.673 101.599 191.465 101.74 191.219 101.844C190.982 101.948 190.729 101.999 190.462 101.999C190.194 101.999 189.949 101.948 189.704 101.844C189.467 101.74 189.251 101.607 189.073 101.429C188.895 101.258 188.753 101.051 188.649 100.821C188.545 100.584 188.493 100.331 188.493 100.057V87.2322C188.493 86.9654 188.545 86.7207 188.657 86.4835C188.768 86.2537 188.909 86.0461 189.088 85.8608C189.266 85.6829 189.474 85.542 189.719 85.4382C189.957 85.3345 190.217 85.2826 190.492 85.2826C190.752 85.2826 191.004 85.3345 191.242 85.4382C191.472 85.542 191.68 85.6829 191.851 85.8608C192.022 86.0387 192.163 86.2463 192.259 86.4835C192.356 86.7133 192.401 86.9654 192.401 87.2322V100.057H192.415Z" fill="#005E85"/>
<path d="M199.315 85.0749H205.576C205.836 85.0749 206.089 85.1268 206.334 85.238C206.572 85.3492 206.787 85.49 206.965 85.6679C207.144 85.8458 207.292 86.0608 207.396 86.2981C207.508 86.5353 207.56 86.7873 207.56 87.0542C207.56 87.3211 207.508 87.5657 207.404 87.8029C207.3 88.0328 207.158 88.2403 206.98 88.4108C206.802 88.5813 206.587 88.7222 206.349 88.826C206.111 88.9298 205.851 88.9817 205.576 88.9817H199.315V93.526C199.315 94.1635 199.441 94.7566 199.686 95.3126C199.931 95.8686 200.265 96.3578 200.681 96.7656C201.105 97.1807 201.595 97.5069 202.167 97.7441C202.739 97.9814 203.348 98.1 203.994 98.1C204.566 98.1 205.101 98.0184 205.599 97.8553C206.089 97.6922 206.549 97.4254 206.965 97.0547C207.099 96.9361 207.225 96.8323 207.352 96.7433C207.478 96.6544 207.626 96.5802 207.79 96.5209C208.087 96.4097 208.399 96.3801 208.726 96.4246C209.053 96.469 209.357 96.6173 209.647 96.8842C209.862 97.0918 210.018 97.3216 210.107 97.5736C210.197 97.8331 210.234 98.1 210.219 98.3817C210.204 98.6634 210.13 98.9377 210.011 99.1971C209.892 99.464 209.721 99.6938 209.506 99.9014C208.785 100.598 207.961 101.117 207.025 101.473C206.089 101.829 205.079 101.999 204.002 101.999C202.813 101.999 201.699 101.777 200.659 101.332C199.619 100.887 198.713 100.287 197.933 99.5159C197.153 98.7523 196.537 97.8479 196.091 96.8101C195.638 95.7722 195.415 94.6602 195.415 93.4741V81.9391C195.415 81.6648 195.467 81.4053 195.571 81.1681C195.675 80.9309 195.816 80.7159 195.994 80.538C196.173 80.36 196.381 80.2192 196.626 80.1154C196.863 80.0116 197.123 79.9597 197.398 79.9597C197.658 79.9597 197.911 80.0116 198.148 80.1154C198.386 80.2192 198.587 80.36 198.758 80.538C198.928 80.7159 199.07 80.9309 199.174 81.1681C199.278 81.4053 199.33 81.6648 199.33 81.9391V85.0749H199.315Z" fill="#005E85"/>
<path d="M212.656 93.4298C212.656 92.2437 212.886 91.1317 213.339 90.0939C213.792 89.056 214.416 88.1516 215.196 87.3732C215.976 86.5948 216.882 85.9795 217.922 85.5347C218.962 85.0825 220.069 84.8601 221.242 84.8601C222.431 84.8601 223.545 85.0825 224.585 85.5347C225.625 85.9869 226.531 86.5948 227.304 87.3732C228.076 88.1516 228.693 89.056 229.138 90.0939C229.584 91.1317 229.814 92.2437 229.814 93.4298V99.7904C229.814 100.065 229.762 100.324 229.658 100.561C229.554 100.799 229.413 101.014 229.235 101.192C229.057 101.369 228.841 101.518 228.596 101.621C228.351 101.733 228.091 101.785 227.816 101.785C227.348 101.785 226.954 101.644 226.628 101.369C226.301 101.095 226.085 100.747 225.981 100.324C225.298 100.836 224.555 101.243 223.76 101.547C222.966 101.844 222.126 102 221.25 102C220.076 102 218.969 101.777 217.93 101.325C216.89 100.873 215.983 100.265 215.204 99.4865C214.424 98.7081 213.807 97.7962 213.347 96.7584C212.886 95.7131 212.656 94.6085 212.656 93.4298ZM216.563 93.4298C216.563 94.0674 216.689 94.6678 216.934 95.2387C217.179 95.8095 217.514 96.3062 217.944 96.7287C218.368 97.1513 218.865 97.4923 219.43 97.7369C219.995 97.9816 220.604 98.1076 221.25 98.1076C221.896 98.1076 222.505 97.9816 223.077 97.7369C223.649 97.4923 224.139 97.1587 224.563 96.7287C224.986 96.3062 225.313 95.8095 225.551 95.2387C225.788 94.6678 225.907 94.0674 225.907 93.4298C225.907 92.7849 225.788 92.177 225.551 91.6062C225.313 91.0354 224.979 90.5461 224.563 90.1235C224.139 89.701 223.649 89.3748 223.077 89.1227C222.505 88.8781 221.896 88.7521 221.25 88.7521C220.611 88.7521 220.009 88.8781 219.437 89.1227C218.865 89.3674 218.368 89.701 217.944 90.1235C217.521 90.5461 217.179 91.0354 216.934 91.6062C216.689 92.177 216.563 92.7849 216.563 93.4298Z" fill="#005E85"/>
<path d="M238.92 98.0998C239.195 98.0998 239.448 98.1517 239.685 98.2629C239.923 98.3741 240.124 98.515 240.295 98.7003C240.465 98.8856 240.607 99.1006 240.703 99.3378C240.8 99.5751 240.844 99.8271 240.844 100.094C240.844 100.643 240.666 101.102 240.302 101.458C239.938 101.814 239.478 101.999 238.913 101.999C238.096 101.999 237.331 101.858 236.618 101.584C235.905 101.31 235.273 100.924 234.738 100.435C234.196 99.9457 233.773 99.3527 233.453 98.6558C233.134 97.959 232.971 97.1954 232.956 96.3577V96.2317V80.7973C232.956 80.523 233 80.2635 233.097 80.0263C233.194 79.7891 233.327 79.5815 233.505 79.4036C233.684 79.2257 233.884 79.0922 234.107 78.9884C234.337 78.8847 234.583 78.8328 234.842 78.8328C235.11 78.8328 235.362 78.8847 235.608 78.9884C235.853 79.0922 236.068 79.2257 236.254 79.4036C236.439 79.5741 236.588 79.7817 236.692 80.0263C236.803 80.2635 236.855 80.523 236.855 80.7973V96.2317C236.855 96.8544 237.049 97.3214 237.435 97.6328C237.828 97.9441 238.319 98.0998 238.92 98.0998Z" fill="#005E85"/>
<path d="M185.514 93.4289C185.514 92.2427 185.291 91.1307 184.838 90.0929C184.385 89.055 183.775 88.1506 183.003 87.3722C182.231 86.5938 181.324 85.9785 180.284 85.5337C179.244 85.0815 178.13 84.8591 176.942 84.8591C175.768 84.8591 174.661 85.0815 173.622 85.5337C172.582 85.9859 171.675 86.5938 170.896 87.3722C170.116 88.1506 169.499 89.055 169.039 90.0929C168.585 91.1307 168.355 92.2427 168.355 93.4289C168.355 94.6002 168.585 95.7121 169.039 96.75C169.492 97.7953 170.116 98.6997 170.896 99.4707C171.675 100.242 172.582 100.857 173.622 101.302C174.661 101.754 175.768 101.976 176.942 101.976C177.722 101.976 178.472 101.88 179.185 101.687C179.898 101.494 180.567 101.22 181.191 100.864C181.191 100.864 181.191 100.864 181.191 100.872C181.332 100.783 181.473 100.686 181.584 100.59C181.584 100.59 181.971 104.349 177.759 105.424C174.379 106.283 171.98 103.555 171.869 103.422C171.2 102.621 169.975 102.48 169.12 103.103C168.266 103.726 168.103 104.89 168.771 105.69C171.987 109.59 178.39 110.465 182.453 107.218C184.392 105.668 185.521 103.496 185.521 101.102C185.521 101.102 185.514 93.4437 185.514 93.4289ZM181.25 95.2303C181.012 95.7937 180.678 96.283 180.262 96.7055C179.839 97.1281 179.348 97.4543 178.777 97.6989C178.205 97.9435 177.595 98.0696 176.949 98.0696C176.303 98.0696 175.694 97.9435 175.129 97.6989C174.565 97.4543 174.067 97.1207 173.644 96.7055C173.22 96.283 172.879 95.7937 172.634 95.2303C172.389 94.6669 172.262 94.0664 172.262 93.4363C172.262 92.7913 172.389 92.1834 172.634 91.6126C172.879 91.0418 173.213 90.5525 173.644 90.13C174.067 89.7074 174.565 89.3812 175.137 89.1292C175.709 88.8845 176.31 88.7585 176.949 88.7585C177.595 88.7585 178.205 88.8845 178.777 89.1292C179.348 89.3738 179.839 89.7074 180.262 90.13C180.686 90.5525 181.012 91.0418 181.25 91.6126C181.488 92.176 181.607 92.7839 181.607 93.4289C181.607 93.4363 181.607 93.4363 181.607 93.4437C181.607 94.0664 181.488 94.6669 181.25 95.2303Z" fill="#005E85"/>
<path d="M254.883 88.5809H267.05V80.9304C267.05 80.6635 267.102 80.4189 267.213 80.1742C267.325 79.937 267.466 79.7294 267.644 79.5663C267.823 79.3958 268.038 79.2624 268.276 79.1586C268.513 79.0548 268.773 79.0029 269.048 79.0029C269.308 79.0029 269.561 79.0548 269.798 79.1586C270.036 79.2624 270.237 79.3958 270.407 79.5663C270.578 79.7368 270.719 79.937 270.816 80.1742C270.913 80.4115 270.957 80.6635 270.957 80.9304V100.079C270.957 100.353 270.905 100.605 270.801 100.842C270.697 101.072 270.563 101.28 270.385 101.443C270.214 101.613 270.006 101.747 269.761 101.851C269.524 101.954 269.271 102.006 269.004 102.006C268.729 102.006 268.476 101.954 268.239 101.851C268.008 101.747 267.8 101.613 267.615 101.443C267.436 101.272 267.295 101.072 267.191 100.842C267.087 100.605 267.035 100.353 267.035 100.079V92.4951H254.868V100.079C254.868 100.353 254.816 100.605 254.712 100.842C254.608 101.072 254.467 101.28 254.289 101.443C254.111 101.613 253.895 101.747 253.658 101.851C253.42 101.954 253.167 102.006 252.9 102.006C252.625 102.006 252.373 101.954 252.135 101.851C251.905 101.747 251.697 101.613 251.526 101.443C251.355 101.272 251.214 101.072 251.11 100.842C251.006 100.605 250.954 100.353 250.954 100.079V80.9304C250.954 80.6635 251.006 80.4189 251.11 80.1742C251.214 79.937 251.348 79.7294 251.526 79.5663C251.697 79.3958 251.905 79.2624 252.135 79.1586C252.365 79.0548 252.625 79.0029 252.9 79.0029C253.167 79.0029 253.412 79.0548 253.658 79.1586C253.895 79.2624 254.111 79.3958 254.289 79.5663C254.467 79.7368 254.608 79.937 254.712 80.1742C254.816 80.4115 254.868 80.6635 254.868 80.9304V88.5809H254.883Z" fill="#005E85"/>
<path d="M273.594 93.43C273.594 92.2438 273.824 91.1318 274.278 90.094C274.731 89.0561 275.355 88.1517 276.135 87.3733C276.914 86.5949 277.821 85.9796 278.861 85.5348C279.901 85.0826 281.007 84.8602 282.181 84.8602C283.369 84.8602 284.484 85.0826 285.523 85.5348C286.563 85.987 287.47 86.5949 288.242 87.3733C289.015 88.1517 289.631 89.0561 290.077 90.094C290.522 91.1318 290.753 92.2438 290.753 93.43C290.753 94.6013 290.53 95.7132 290.077 96.7511C289.624 97.7964 289.015 98.7008 288.242 99.4792C287.47 100.258 286.563 100.873 285.523 101.318C284.484 101.77 283.369 101.992 282.181 101.992C281.007 101.992 279.901 101.77 278.861 101.318C277.821 100.865 276.914 100.258 276.135 99.4792C275.355 98.7008 274.738 97.7889 274.278 96.7511C273.817 95.7132 273.594 94.6087 273.594 93.43ZM277.501 93.43C277.501 94.0675 277.628 94.668 277.873 95.2388C278.118 95.8096 278.452 96.3063 278.883 96.7289C279.306 97.1514 279.804 97.4924 280.368 97.7371C280.933 97.9817 281.542 98.1077 282.188 98.1077C282.835 98.1077 283.444 97.9817 284.016 97.7371C284.587 97.4924 285.078 97.1588 285.501 96.7289C285.925 96.3063 286.251 95.8096 286.489 95.2388C286.727 94.668 286.846 94.0675 286.846 93.43C286.846 92.785 286.727 92.1771 286.489 91.6063C286.251 91.0355 285.917 90.5462 285.501 90.1236C285.078 89.7011 284.587 89.3749 284.016 89.1229C283.444 88.8782 282.835 88.7522 282.188 88.7522C281.549 88.7522 280.948 88.8782 280.376 89.1229C279.804 89.3675 279.306 89.7011 278.883 90.1236C278.459 90.5462 278.118 91.0355 277.873 91.6063C277.62 92.1771 277.501 92.785 277.501 93.43Z" fill="#005E85"/>
<path d="M299.249 98.0999C299.524 98.0999 299.777 98.1518 300.015 98.263C300.252 98.3742 300.453 98.5151 300.624 98.7004C300.794 98.8858 300.936 99.1007 301.032 99.338C301.129 99.5752 301.173 99.8272 301.173 100.094C301.173 100.643 300.995 101.102 300.631 101.458C300.267 101.814 299.807 101.999 299.242 101.999C298.425 101.999 297.66 101.858 296.947 101.584C296.234 101.31 295.602 100.924 295.068 100.435C294.525 99.9458 294.102 99.3528 293.783 98.6559C293.463 97.9591 293.3 97.1955 293.285 96.3578V96.2318V80.7974C293.285 80.5231 293.329 80.2636 293.426 80.0264C293.523 79.7892 293.656 79.5816 293.835 79.4037C294.013 79.2258 294.213 79.0924 294.436 78.9886C294.667 78.8848 294.912 78.8329 295.172 78.8329C295.439 78.8329 295.692 78.8848 295.937 78.9886C296.182 79.0924 296.397 79.2258 296.583 79.4037C296.769 79.5742 296.917 79.7818 297.021 80.0264C297.133 80.2636 297.185 80.5231 297.185 80.7974V96.2318C297.185 96.8545 297.378 97.3216 297.764 97.6329C298.158 97.9443 298.648 98.0999 299.249 98.0999Z" fill="#005E85"/>
<path d="M318.555 93.4143V93.5033C318.54 94.2817 318.436 95.0304 318.228 95.7569C318.027 96.4834 317.73 97.158 317.359 97.7882C316.98 98.4183 316.534 98.9891 316.007 99.5006C315.479 100.012 314.908 100.457 314.269 100.828C313.63 101.198 312.954 101.487 312.226 101.688C311.498 101.888 310.748 101.991 309.968 101.991C308.78 101.991 307.665 101.769 306.625 101.317C305.586 100.865 304.679 100.257 303.907 99.4784C303.134 98.7 302.518 97.7881 302.072 96.7503C301.619 95.705 301.396 94.6005 301.396 93.4292C301.396 92.243 301.619 91.131 302.072 90.0858C302.525 89.0405 303.134 88.1361 303.907 87.3651C304.679 86.5941 305.586 85.9788 306.625 85.534C307.665 85.0818 308.78 84.8594 309.968 84.8594C310.83 84.8594 311.654 84.9855 312.441 85.2301C313.229 85.4747 313.964 85.8232 314.648 86.2605V80.6561C314.648 80.367 314.692 80.1001 314.789 79.8555C314.885 79.6108 315.019 79.3959 315.197 79.2105C315.368 79.0252 315.576 78.8843 315.806 78.7806C316.044 78.6768 316.304 78.6249 316.586 78.6249C316.861 78.6249 317.121 78.6768 317.359 78.7806C317.596 78.8843 317.804 79.0252 317.983 79.2105C318.154 79.3959 318.295 79.6108 318.399 79.8555C318.503 80.1001 318.555 80.367 318.555 80.6561V93.4143ZM314.648 93.4292C314.648 92.7842 314.521 92.1763 314.276 91.6055C314.031 91.0347 313.697 90.5454 313.266 90.1228C312.843 89.7003 312.345 89.3741 311.78 89.1221C311.216 88.8774 310.607 88.7514 309.961 88.7514C309.314 88.7514 308.705 88.8774 308.141 89.1221C307.576 89.3667 307.079 89.7003 306.655 90.1228C306.232 90.5454 305.898 91.0347 305.66 91.6055C305.422 92.1763 305.296 92.7842 305.296 93.4292C305.296 94.0667 305.415 94.6672 305.66 95.238C305.898 95.8088 306.232 96.3055 306.648 96.7281C307.071 97.1506 307.561 97.4916 308.133 97.7363C308.705 97.9809 309.314 98.1069 309.961 98.1069C310.607 98.1069 311.216 97.9809 311.78 97.7363C312.345 97.4916 312.843 97.158 313.266 96.7281C313.689 96.3055 314.031 95.8088 314.276 95.238C314.529 94.6672 314.648 94.0667 314.648 93.4292Z" fill="#005E85"/>
<path d="M321.467 81.3241C321.467 81.0276 321.526 80.7459 321.638 80.479C321.749 80.2121 321.905 79.9897 322.098 79.797C322.291 79.6043 322.522 79.456 322.782 79.3374C323.049 79.2262 323.324 79.1669 323.606 79.1669C323.888 79.1669 324.171 79.2262 324.431 79.3374C324.69 79.4486 324.928 79.6043 325.121 79.797C325.322 79.9897 325.478 80.2196 325.589 80.479C325.701 80.7459 325.76 81.0202 325.76 81.3241C325.76 81.6132 325.701 81.8801 325.589 82.1396C325.478 82.3991 325.322 82.6214 325.121 82.8142C324.921 83.0069 324.69 83.1552 324.431 83.2738C324.163 83.385 323.888 83.4443 323.606 83.4443C323.324 83.4443 323.042 83.385 322.782 83.2738C322.514 83.1626 322.291 83.0069 322.098 82.8142C321.905 82.6214 321.756 82.3991 321.638 82.1396C321.519 81.8801 321.467 81.6058 321.467 81.3241ZM325.567 100.057C325.567 100.332 325.515 100.584 325.411 100.821C325.307 101.051 325.173 101.258 324.995 101.429C324.824 101.599 324.616 101.74 324.371 101.844C324.133 101.948 323.881 102 323.613 102C323.346 102 323.101 101.948 322.856 101.844C322.618 101.74 322.403 101.607 322.224 101.429C322.046 101.258 321.905 101.051 321.801 100.821C321.697 100.584 321.645 100.332 321.645 100.057V87.2325C321.645 86.9656 321.697 86.721 321.808 86.4838C321.92 86.2539 322.061 86.0464 322.239 85.861C322.418 85.6831 322.626 85.5423 322.871 85.4385C323.108 85.3347 323.368 85.2828 323.643 85.2828C323.903 85.2828 324.156 85.3347 324.393 85.4385C324.624 85.5423 324.832 85.6831 325.002 85.861C325.173 86.039 325.314 86.2465 325.411 86.4838C325.508 86.7136 325.552 86.9656 325.552 87.2325V100.057H325.567Z" fill="#005E85"/>
<path d="M344.858 100.079C344.858 100.354 344.806 100.606 344.702 100.843C344.598 101.08 344.464 101.28 344.293 101.451C344.122 101.621 343.922 101.762 343.691 101.858C343.461 101.955 343.209 101.999 342.941 101.999C342.666 101.999 342.406 101.955 342.169 101.858C341.931 101.762 341.716 101.629 341.537 101.451C341.359 101.28 341.21 101.073 341.106 100.843C340.995 100.613 340.943 100.354 340.943 100.079V93.3925C340.943 93.2961 340.95 93.222 340.958 93.1775C340.936 92.5918 340.809 92.0432 340.587 91.5243C340.364 91.0128 340.074 90.5606 339.703 90.1751C339.339 89.7896 338.9 89.4857 338.395 89.2707C337.89 89.0483 337.348 88.9371 336.761 88.9371C336.152 88.9371 335.588 89.0483 335.068 89.2707C334.555 89.4931 334.109 89.797 333.745 90.1973C333.381 90.5902 333.092 91.0573 332.884 91.591C332.676 92.1248 332.572 92.6956 332.572 93.3035V100.079C332.572 100.354 332.52 100.606 332.431 100.843C332.334 101.08 332.2 101.28 332.022 101.451C331.851 101.621 331.643 101.762 331.413 101.858C331.183 101.955 330.93 101.999 330.663 101.999C330.395 101.999 330.15 101.955 329.905 101.858C329.668 101.762 329.452 101.629 329.266 101.451C329.081 101.28 328.932 101.073 328.828 100.843C328.717 100.613 328.665 100.354 328.665 100.079V93.3925V93.3183V93.3035C328.665 92.1544 328.873 91.0795 329.289 90.0787C329.705 89.0779 330.269 88.2032 330.997 87.4544C331.725 86.7057 332.579 86.1126 333.575 85.6827C334.563 85.2527 335.632 85.0377 336.769 85.0377C337.92 85.0377 338.99 85.2527 339.97 85.6827C340.951 86.1126 341.805 86.7057 342.525 87.4544C343.246 88.2032 343.81 89.0779 344.226 90.0787C344.642 91.0795 344.85 92.1544 344.85 93.3035V93.3183V93.3925V100.079H344.858Z" fill="#005E85"/>
<path d="M372.355 94.7636C371.843 94.5487 371.308 94.3114 370.751 94.052C370.201 93.7925 369.696 93.4811 369.236 93.1031C368.783 92.725 368.404 92.2728 368.107 91.7464C367.81 91.2201 367.668 90.59 367.668 89.8635C367.668 89.1073 367.817 88.4253 368.121 87.8026C368.419 87.1873 368.842 86.6609 369.369 86.2236C369.904 85.7862 370.536 85.4526 371.271 85.2154C372.006 84.9781 372.809 84.8669 373.685 84.8669C374.19 84.8669 374.71 84.904 375.252 84.9856C375.794 85.0671 376.307 85.1857 376.79 85.3636C377.273 85.5341 377.711 85.7639 378.097 86.0456C378.483 86.3274 378.773 86.6684 378.981 87.0613C379.159 87.4468 379.226 87.8248 379.167 88.2029C379.115 88.581 378.981 88.8923 378.758 89.1296C378.521 89.4039 378.223 89.5892 377.874 89.6856C377.525 89.7819 377.176 89.7523 376.827 89.5966C376.574 89.4409 376.344 89.3001 376.136 89.1815C375.928 89.0628 375.713 88.9591 375.49 88.8775C375.267 88.796 375.037 88.7292 374.784 88.6922C374.539 88.6477 374.257 88.6329 373.945 88.6329C373.165 88.6329 372.571 88.7367 372.17 88.9442C371.769 89.1518 371.568 89.478 371.568 89.908C371.568 90.1378 371.642 90.3231 371.791 90.4714C371.939 90.6196 372.147 90.7531 372.4 90.8791C372.66 90.9977 372.972 91.1089 373.336 91.2201C373.7 91.3313 374.101 91.4499 374.532 91.5759C375.237 91.7909 375.913 92.043 376.56 92.3321C377.198 92.6212 377.763 92.9696 378.253 93.3848C378.736 93.7999 379.13 94.2892 379.412 94.8526C379.702 95.416 379.843 96.0832 379.843 96.8468C379.843 97.5659 379.687 98.2405 379.382 98.8706C379.078 99.5007 378.654 100.049 378.112 100.516C377.57 100.983 376.924 101.354 376.181 101.621C375.431 101.888 374.621 102.029 373.744 102.029C373.195 102.029 372.608 101.977 371.991 101.873C371.375 101.769 370.773 101.599 370.194 101.354C369.615 101.109 369.072 100.791 368.582 100.405C368.092 100.02 367.691 99.5378 367.394 98.9596C367.096 98.3813 367 97.8698 367.111 97.425C367.223 96.9728 367.46 96.6392 367.824 96.4094C368.181 96.1796 368.619 96.098 369.139 96.1573C369.652 96.2166 370.157 96.4761 370.654 96.9283C370.796 97.1062 370.981 97.2767 371.197 97.4398C371.412 97.6029 371.65 97.7438 371.917 97.8698C372.185 97.9958 372.467 98.0922 372.771 98.1663C373.076 98.2405 373.395 98.2775 373.737 98.2775C374.034 98.2775 374.316 98.2479 374.584 98.1812C374.851 98.1144 375.081 98.0255 375.289 97.8994C375.49 97.7808 375.653 97.64 375.772 97.4695C375.891 97.299 375.95 97.1137 375.95 96.8987C375.95 96.6466 375.817 96.4168 375.557 96.2092C375.289 96.0017 374.97 95.8015 374.591 95.6236C374.212 95.4457 373.819 95.2826 373.403 95.1491C372.994 94.9712 372.645 94.8526 372.355 94.7636Z" fill="#005E85"/>
<path d="M364.66 93.43C364.66 92.2438 364.437 91.1318 363.984 90.094C363.531 89.0561 362.922 88.1517 362.15 87.3733C361.377 86.5949 360.471 85.9796 359.431 85.5348C358.391 85.0826 357.277 84.8602 356.089 84.8602C354.915 84.8602 353.808 85.0826 352.768 85.5348C351.728 85.987 350.822 86.5949 350.042 87.3733C349.262 88.1517 348.646 89.0561 348.185 90.094C347.732 91.1318 347.502 92.2438 347.502 93.43C347.502 94.6012 347.732 95.7132 348.185 96.7511C348.638 97.7964 349.262 98.7008 350.042 99.4718C350.822 100.243 351.728 100.858 352.768 101.303C353.808 101.755 354.915 101.977 356.089 101.977C356.869 101.977 357.619 101.881 358.332 101.688C359.045 101.496 359.713 101.221 360.337 100.865C360.337 100.865 360.337 100.865 360.337 100.873C360.478 100.784 360.62 100.688 360.731 100.591C360.731 100.591 361.117 104.35 356.906 105.425C353.526 106.285 351.127 103.556 351.015 103.423C350.347 102.622 349.121 102.482 348.267 103.104C347.413 103.727 347.249 104.891 347.918 105.691C351.134 109.591 357.537 110.466 361.6 107.219C363.539 105.669 364.668 103.497 364.668 101.103C364.668 101.103 364.66 93.4448 364.66 93.43ZM360.389 95.2314C360.152 95.7948 359.817 96.2841 359.401 96.7066C358.978 97.1292 358.488 97.4553 357.916 97.7C357.344 97.9446 356.735 98.0707 356.089 98.0707C355.442 98.0707 354.833 97.9446 354.269 97.7C353.704 97.4553 353.207 97.1218 352.783 96.7066C352.36 96.2841 352.018 95.7948 351.773 95.2314C351.528 94.668 351.402 94.0675 351.402 93.4374C351.402 92.7924 351.528 92.1845 351.773 91.6137C352.018 91.0429 352.352 90.5536 352.783 90.1311C353.207 89.7085 353.704 89.3823 354.276 89.1303C354.848 88.8856 355.45 88.7596 356.089 88.7596C356.735 88.7596 357.344 88.8856 357.916 89.1303C358.488 89.3749 358.978 89.7085 359.401 90.1311C359.825 90.5536 360.152 91.0429 360.389 91.6137C360.627 92.1771 360.746 92.785 360.746 93.43C360.746 93.4374 360.746 93.4374 360.746 93.4448C360.753 94.0675 360.634 94.668 360.389 95.2314Z" fill="#005E85"/>
<path d="M33.2273 7.16862C29.9516 2.81704 24.7298 0 18.8543 0C8.91583 0 0.864014 8.03597 0.864014 17.9549C0.864014 23.8188 3.68661 29.0303 8.04677 32.307C13.7514 21.6393 22.546 12.862 33.2273 7.16862Z" fill="#005E85"/>
<path d="M36.8371 17.9552C36.8371 13.9076 35.4926 10.1713 33.2271 7.16895C22.5458 12.8623 13.7512 21.6396 8.04663 32.2999C11.0549 34.5609 14.7986 35.9027 18.8542 35.9027C28.7853 35.9027 36.8371 27.8668 36.8371 17.9552Z" fill="#9ACA3C"/>
<path d="M31.6823 50.7514C37.3572 50.7514 41.9551 55.3402 41.9551 61.0039C41.9551 49.9656 50.9205 41.0104 61.9881 41.0104H102.567C99.3949 40.9362 96.5871 39.4165 94.7524 37.0962C94.7153 37.0591 94.6633 37.0146 94.6336 36.9775C91.4396 32.6556 87.4063 29.0009 82.7713 26.2357C76.6953 22.6032 69.5868 20.5127 61.9881 20.5127C58.4895 20.5127 55.0876 20.9575 51.849 21.7878C50.5491 22.1214 49.279 22.5143 48.0385 22.9665C44.3097 24.3305 40.8409 26.2209 37.7138 28.5561C27.8198 35.9397 21.417 47.7268 21.417 61.0039C21.4096 55.3402 26.0074 50.7514 31.6823 50.7514Z" fill="#FDB913"/>
<path d="M79.183 71.2491C75.6844 77.0833 69.289 80.9901 61.98 80.9901C50.9199 80.9901 41.947 72.0423 41.947 60.9966C41.947 54.2727 35.4625 49.0612 28.3911 51.2555C24.1795 52.5603 21.4089 56.5931 21.4089 60.9966C21.4089 83.3624 39.5775 101.488 61.98 101.488C80.2377 101.488 95.6729 89.4561 100.768 72.9023C101.021 72.0794 100.412 71.2491 99.5502 71.2491H79.183Z" fill="#F16682"/>
<path d="M123.097 61.0482C123.105 55.3696 118.522 50.7438 112.825 50.7438H62.2704C56.7366 50.7438 51.9828 54.9841 51.7228 60.4996C51.448 66.3857 56.1424 71.2488 61.9807 71.2488H99.5435C100.413 71.2488 101.022 72.0865 100.769 72.9168C95.4953 90.0414 79.1466 102.325 60.0718 101.45C39.192 100.494 22.2862 83.5178 21.4468 62.6717C20.5109 39.5423 39.0212 20.5051 61.9882 20.5051C75.3806 20.5051 87.2504 26.9843 94.6485 36.9625C96.7952 39.7721 100.346 41.4549 104.268 40.9212C109.215 40.2466 112.988 35.9543 113.099 30.9726C113.174 27.4291 111.317 24.8418 109.177 22.2546C107.254 19.9194 105.159 17.7325 102.908 15.7087C98.3922 11.6388 93.2744 8.24354 87.7629 5.67856C82.1177 3.05426 76.0714 1.30473 69.8914 0.504102C67.2694 0.170505 64.6251 0 61.9807 0C51.5817 0 41.7992 2.59464 33.2274 7.16862C35.7009 10.4453 37.0751 14.5967 36.8002 19.0743C36.258 28.0295 28.949 35.3242 19.9687 35.8728C15.4822 36.147 11.3226 34.7756 8.03949 32.307C3.12966 41.4846 0.492763 52.0559 0.908724 63.2796C2.08976 95.4902 28.6296 121.437 60.9185 121.993C95.1388 122.571 123.075 95.0676 123.097 61.0482Z" fill="#5D62A8"/>
</g>
<defs>
<clipPath id="clip0_312_757">
<rect width="379" height="122" fill="white" transform="translate(0.864014)"/>
</clipPath>
</defs>
</svg>
