<svg width="161" height="108" viewBox="0 0 161 108" fill="none" xmlns="http://www.w3.org/2000/svg">
<g clip-path="url(#clip0_312_3240)">
<path d="M130.189 76.1567C118.044 103.245 86.2293 115.364 59.1408 103.219C32.0522 91.0739 19.9601 59.2594 32.105 32.1708C44.25 5.08228 76.0381 -7.00988 103.127 5.13509C130.215 17.2801 142.334 49.0682 130.189 76.1567Z" fill="#EE4B96"/>
<path d="M96.6583 19.6033C53.0949 0.0657582 10.5611 0.356182 1.66357 20.237C-7.26034 40.1177 20.8051 72.0643 64.3686 91.6018C107.932 111.139 150.439 110.849 159.363 90.9682C168.261 71.0874 140.195 39.1409 96.6583 19.6033ZM68.3025 82.7835C35.4055 68.0512 14.2046 43.8932 20.9371 28.8704C27.6696 13.8477 59.801 13.6364 92.698 28.3952C125.595 43.154 146.822 67.2855 140.063 82.3083C133.331 97.3311 101.199 97.5423 68.3025 82.7835Z" fill="#EDB81E"/>
<path d="M35.0888 48.8833C51.9597 56.5663 68.3818 66.3086 86.0448 72.0907C82.5862 70.8762 92.3285 73.1204 93.9655 73.3844C98.0842 73.9916 102.229 74.4933 106.348 75.1797C113.688 76.3678 120.922 78.1368 127.945 80.5922C128.763 79.1665 129.503 77.6879 130.189 76.1566C142.334 49.0681 130.216 17.2799 103.153 5.13497C76.0648 -7.01 44.2767 5.08216 32.1054 32.1707C30.0196 36.8439 28.6467 41.6755 27.9602 46.5071C30.31 47.0351 32.7126 47.8008 35.0888 48.8833Z" fill="#EE4B96"/>
<path d="M66.7446 29.2667L71.5762 39.0883L82.4011 40.646L74.586 48.3026L76.4342 59.0747L66.7446 53.9791L57.055 59.0747L58.9032 48.3026L51.0618 40.646L61.913 39.0883L66.7446 29.2667Z" fill="#33C0CC"/>
</g>
<defs>
<clipPath id="clip0_312_3240">
<rect width="161" height="107.536" fill="white" transform="translate(0 0.40918)"/>
</clipPath>
</defs>
</svg>
