<svg width="145" height="149" viewBox="0 0 145 149" fill="none" xmlns="http://www.w3.org/2000/svg">
<path d="M110.771 56.9106C120.198 77.7055 110.981 102.213 90.186 111.641C69.3911 121.068 44.8967 111.836 35.4692 91.0409C26.0417 70.246 35.2608 45.7668 56.0557 36.3393C76.8506 26.9118 101.343 36.1157 110.771 56.9106Z" fill="#FDB913"/>
<path d="M61.1003 47.4355C27.6547 62.5935 6.16126 87.2558 13.0884 102.508C20.0021 117.776 52.7071 117.87 86.1527 102.712C119.598 87.5536 141.078 62.9066 134.165 47.6388C127.237 32.3862 94.5325 32.2926 61.1003 47.4355ZM83.0737 95.9535C57.8295 107.411 33.1093 107.328 27.8795 95.7967C22.6498 84.2659 38.8913 65.6395 64.1507 54.1953C89.41 42.7512 114.128 42.8061 119.345 54.3522C124.575 65.883 108.333 84.5094 83.0737 95.9535Z" fill="#F16682"/>
<path d="M46.6211 97.8319C59.6409 92.021 73.619 87.5175 85.9466 80.282C83.4852 81.6569 89.7401 77.1848 90.7259 76.3758C93.1734 74.3112 95.5734 72.1776 98.0666 70.1534C102.489 66.5282 107.193 63.2596 112.184 60.4624C111.78 59.2646 111.304 58.0856 110.771 56.9101C101.343 36.1152 76.8508 26.9113 56.0694 36.3236C35.2745 45.7511 26.0554 70.2302 35.4694 91.0403C37.1006 94.6223 39.1861 97.8741 41.6212 100.73C43.1222 99.6449 44.7871 98.6501 46.6211 97.8319Z" fill="#FDB913"/>
<path d="M51.4359 69.5974L59.5571 71.8145L65.9676 66.3689L66.4006 74.7723L73.5502 79.1929L65.6788 82.1825L63.6812 90.362L58.4139 83.8111L50.0077 84.4313L54.636 77.3839L51.4359 69.5974Z" fill="#33C0CC"/>
</svg>
