<svg width="294" height="234" viewBox="0 0 294 234" fill="none" xmlns="http://www.w3.org/2000/svg">
<path d="M47.818 65.1341C50.1389 55.3009 44.0489 45.4481 34.2157 43.1273C24.3825 40.8064 14.5297 46.8964 12.2089 56.7296C9.88801 66.5628 15.978 76.4156 25.8112 78.7364C35.6444 81.0573 45.4972 74.9673 47.818 65.1341Z" fill="#EBEBEB"/>
<path d="M27.6377 66.6436C27.6387 67.2347 27.4642 67.8127 27.1364 68.3046C26.8087 68.7964 26.3423 69.1799 25.7964 69.4066C25.2506 69.6332 24.6497 69.6927 24.07 69.5777C23.4902 69.4626 22.9577 69.1781 22.5397 68.7601C22.1218 68.3422 21.8373 67.8096 21.7222 67.2299C21.6071 66.6501 21.6667 66.0493 21.8933 65.5034C22.1199 64.9575 22.5034 64.4912 22.9953 64.1634C23.4871 63.8356 24.0651 63.6612 24.6562 63.6621C25.4466 63.6634 26.2042 63.9779 26.7631 64.5368C27.3219 65.0957 27.6365 65.8533 27.6377 66.6436Z" fill="#F5F5F5"/>
<path d="M23.4045 58.0362C23.4036 58.3789 23.3011 58.7137 23.11 58.9982C22.9188 59.2828 22.6477 59.5043 22.3308 59.6348C22.0138 59.7653 21.6653 59.7989 21.3293 59.7315C20.9933 59.664 20.6847 59.4985 20.4427 59.2558C20.2007 59.0131 20.036 58.7041 19.9695 58.3679C19.903 58.0317 19.9376 57.6833 20.069 57.3667C20.2004 57.0501 20.4226 56.7796 20.7077 56.5893C20.9927 56.3989 21.3278 56.2974 21.6705 56.2974C21.8986 56.2974 22.1245 56.3424 22.3352 56.4298C22.5459 56.5173 22.7373 56.6454 22.8984 56.8069C23.0594 56.9685 23.1871 57.1602 23.2739 57.3711C23.3608 57.5821 23.4052 57.8081 23.4045 58.0362Z" fill="#F5F5F5"/>
<path d="M12.268 65.3815C12.3499 65.6994 -3.39102 80.7949 0.669445 84.0221C4.72991 87.2493 21.7906 78.9839 36.3418 67.2312C50.893 55.4784 64.1823 41.2211 60.5409 37.4351C56.8994 33.6492 38.7213 44.8432 38.7213 44.8432L40.8984 46.2256C40.8984 46.2256 51.8901 39.174 55.3485 41.8906C58.8069 44.6072 48.9134 55.3243 34.9209 65.5357C20.9284 75.7471 7.41762 82.9143 5.31755 80.1206C3.21747 77.3269 13.1206 67.9874 13.1206 67.9874L12.268 65.3815Z" fill="#F5F5F5"/>
<path d="M282.51 191.724C288.856 186.322 289.62 176.797 284.218 170.451C278.815 164.105 269.291 163.341 262.945 168.744C256.599 174.146 255.834 183.671 261.237 190.017C266.639 196.363 276.164 197.127 282.51 191.724Z" fill="#F5F5F5"/>
<path d="M274.807 175.588C274.818 175.101 274.974 174.629 275.253 174.231C275.533 173.833 275.924 173.527 276.378 173.351C276.832 173.175 277.327 173.138 277.802 173.243C278.277 173.349 278.71 173.593 279.046 173.945C279.383 174.297 279.607 174.74 279.691 175.219C279.776 175.699 279.716 176.192 279.52 176.637C279.324 177.083 279.001 177.46 278.59 177.721C278.18 177.983 277.701 178.117 277.215 178.107C276.891 178.101 276.571 178.031 276.274 177.901C275.977 177.771 275.709 177.584 275.485 177.35C275.261 177.115 275.086 176.839 274.969 176.536C274.853 176.234 274.798 175.912 274.807 175.588Z" fill="#EBEBEB"/>
<path d="M278.125 182.769C278.13 182.482 278.22 182.203 278.384 181.968C278.548 181.733 278.778 181.552 279.045 181.447C279.312 181.343 279.605 181.321 279.884 181.384C280.164 181.446 280.419 181.59 280.617 181.798C280.815 182.006 280.946 182.268 280.994 182.551C281.042 182.833 281.006 183.124 280.888 183.386C280.771 183.647 280.578 183.868 280.335 184.02C280.091 184.172 279.808 184.248 279.522 184.238C279.143 184.226 278.784 184.064 278.523 183.79C278.261 183.515 278.118 183.148 278.125 182.769Z" fill="#EBEBEB"/>
<path d="M206.301 174.948C238.508 142.741 238.508 90.5232 206.301 58.3162C174.094 26.1091 121.876 26.1091 89.6686 58.3162C57.4615 90.5232 57.4615 142.741 89.6686 174.948C121.876 207.155 174.094 207.155 206.301 174.948Z" fill="#F5F5F5"/>
<path d="M218.576 88.3088C217.897 87.4852 217.806 84.783 216.168 86.3292C216.279 84.9709 215.735 81.7341 218.148 82.0327C220.778 82.365 219.593 85.2165 220.185 86.6808C220.903 88.3955 223.297 88.5352 224.665 89.5082C225.589 90.1681 226.143 91.1459 226.668 91.9165C223.223 80.9725 217.529 70.8694 209.95 62.2554C209.95 62.318 209.95 62.3854 209.95 62.4528C208.206 62.3324 206.636 64.6589 206.959 66.1183C207.012 66.364 207.72 66.7927 207.806 67.3225C207.893 67.8524 207.435 68.0787 207.421 68.493C207.382 69.4563 207.132 70.3763 208.437 70.6364C209.28 69.0276 211.173 70.935 211.558 72.0043C212.233 73.878 211.414 74.8221 212.743 76.3394C213.259 76.927 214.79 77.6495 214.482 78.6851C214.174 79.7207 213.398 79.5232 212.642 79.2342C211.424 78.7525 210.769 76.9318 209.338 76.8788C208.375 79.2583 209.275 82.341 208.524 84.8745C208.105 86.2858 207.59 86.3436 208.808 87.3888C209.246 87.7645 209.545 87.3455 210.06 87.9524C210.364 88.3136 210.369 89.0891 210.335 89.5323C211.009 89.1228 211.607 88.4919 212.469 88.5689C211.178 89.6816 211.38 91.7576 210.484 93.1737C209.362 94.9462 208.428 94.3538 206.886 95.0618C204.194 96.3045 205.586 98.7225 205.297 100.726C205.133 101.897 204.165 102.884 203.707 104.006C203.039 105.578 202.669 107.26 202.619 108.968C202.585 110.981 203.23 112.821 203.616 114.748C203.924 116.327 203.929 119.357 205.475 120.272C206.438 120.826 209.41 120.72 210.672 120.908C211.934 121.096 213.418 120.426 214.482 120.976C215.547 121.525 215.388 123.196 216.751 122.811C217.517 122.594 217.96 120.797 218.918 120.46C220.455 119.921 221.669 121.327 222.093 122.536C222.632 124.068 221.832 124.126 221.418 125.763C221.091 127.054 221.418 128.422 221.832 129.617C222.69 132.059 221.741 130.989 220.869 133.263C221.511 133.433 222.175 133.507 222.839 133.485C222.887 134.356 223.075 135.642 222.873 136.5C222.309 138.908 219.983 140.213 219.867 142.993C219.756 145.531 220.922 148.594 220.44 151.08C220.089 152.905 218.032 154.09 218.369 156.2C219.52 155.458 220.397 154.273 221.659 153.666C230.819 135.481 232.926 114.549 227.574 94.9029C226.15 94.2645 224.874 93.3379 223.827 92.1814C222.386 90.6835 219.877 89.8743 218.576 88.3088Z" fill="#EBEBEB"/>
<path d="M158.927 36.5151C159.938 36.6981 161.08 36.6837 162.081 36.9293C163.213 37.2039 164.008 37.9794 165.251 37.4881C165.815 37.2307 166.296 36.8201 166.638 36.3032C146.227 31.5551 124.773 34.7658 106.646 45.2815C109.801 45.4789 109.093 49.0192 111.81 46.1051C113.019 44.8046 114.363 43.0273 115.904 41.8905C117.628 40.6141 119.603 41.4763 121.684 41.4088C120.99 41.8905 117.113 44.6938 117.542 45.6042C118.134 46.8613 120.282 45.3393 119.439 47.7621C118.688 49.9199 115.615 48.4508 113.712 48.5953C112.238 48.7109 111.434 49.6984 109.859 49.7754C108.188 49.8573 106.511 49.3853 104.883 49.4335C102.282 49.5105 100.616 51.0085 99.031 52.834C98.1159 53.8937 97.0273 54.6836 96.3578 55.9601C95.6256 57.3569 95.9194 59.1824 95.2355 60.4348C94.6478 61.5137 93.3088 61.6919 92.3455 62.3325C91.0681 63.248 89.9039 64.3119 88.8774 65.5019C87.3313 67.2985 86.6377 70.7184 83.9981 71.3686C83.6224 74.1479 87.8515 70.2752 89.0846 70.8292C89.7252 69.9814 89.9756 68.8591 90.9245 68.2233C91.8734 67.5875 93.2125 67.6983 94.2962 67.0047C96.3626 65.685 95.6979 62.7901 98.2748 62.2988C100.356 61.9039 102.687 61.4992 103.197 63.7872C103.453 64.9239 103.01 64.8179 102.976 65.9161C102.928 67.3612 102.812 66.4845 103.91 67.3612C105.567 68.7243 105.837 70.3668 104.541 72.2886C103.92 73.199 103.578 73.0737 103.197 74.2538C102.817 75.4339 102.952 76.7007 102.995 77.9386C103.039 79.321 102.904 80.6648 102.86 82.0472C102.788 84.3496 103.342 85.207 105.163 86.6568C106.545 87.7598 108.019 88.5835 108.732 90.2934C109.348 91.7866 109.213 93.5736 109.642 95.1101C110.066 96.714 114.059 100.066 113.621 97.2102C113.394 95.7363 111.718 95.4039 111.728 93.6073C111.728 92.88 112.026 91.8107 112.104 91.0448C114.391 90.4186 113.789 94.3201 114.401 95.4858C115.273 97.1379 117.551 98.2024 118.736 99.5125C117.633 100.028 115.774 101.107 116.386 102.634C117.166 104.56 119.627 103.217 120.985 103.25C123.953 103.318 126.9 105.302 129.318 106.887C131.621 108.395 132.55 109.295 135.45 109.078C137.26 108.893 139.085 109.252 140.691 110.109C141.894 110.654 142.865 111.608 143.431 112.802C144.351 114.55 144.765 115.172 146.321 116.361C147.333 117.137 147.863 117.98 148.985 117.922C149.756 117.888 150.314 116.761 151.49 117.127C153.725 117.821 153.074 120.663 152.342 121.944C151.726 123.042 151.148 124.458 150.464 125.547C149.587 126.934 147.294 127.449 147.029 129.28C146.779 131.018 148.715 133.008 149.144 134.65C149.534 136.139 149.491 137.781 149.491 139.303C148.527 140.71 154.384 145.68 155.478 146.634C157.077 148.026 159.408 149.876 160.03 152C160.285 152.872 160.136 154.24 160.222 155.16C160.406 157.105 160.453 159.06 160.362 161.012C160.232 163.859 158.185 165.597 157.703 168.295C157.313 170.458 158.084 172.731 157.756 174.87C157.607 175.833 157.419 177.201 157.178 178.145C156.937 179.089 156.475 179.079 156.094 179.749C155.41 180.943 155.757 182.124 156.335 183.414C158.146 182.109 159.649 184.575 160.502 185.823C161.566 187.383 162.838 188.005 165.044 187.749C164.177 187.037 162.717 184.705 163.016 183.414C163.454 181.531 166.171 180.009 167.086 178.434C168.073 176.734 167.794 175.144 169.836 174.388C170.41 174.176 171.084 174.282 171.657 174.046C172.37 173.752 172.75 173.083 173.444 172.75C175.342 171.85 175.775 172.09 176.565 169.976C177.529 167.418 178.347 164.196 180.78 162.558C181.743 161.918 182.788 161.961 183.829 161.513C184.97 161.031 185.327 160.241 186.237 159.586C187.606 158.655 188.845 157.545 189.922 156.287C191.194 154.773 192.299 153.126 193.217 151.374C193.828 150.271 194.093 149.245 195.018 148.359C195.408 147.983 196.005 147.834 196.463 147.395C198.134 145.729 198.761 143.06 200.21 141.235C201.024 140.204 201.829 139.621 202.277 138.431C202.103 138.031 201.883 137.653 201.622 137.304C201.27 136.664 200.408 136.071 199.979 135.411C199.83 135.18 199.777 134.448 199.628 134.308C198.428 133.027 195.524 132.353 193.905 132.285C191.694 132.199 188.381 131.857 186.936 129.877C185.861 128.389 187.701 126.274 186.993 124.689C186.117 122.71 181.512 121.756 179.744 120.682C178.526 119.94 177.702 118.813 176.493 118.057C174.725 116.954 173.666 116.496 172.914 114.55C172.461 113.385 173.155 113.187 171.744 112.744C170.429 112.335 168.372 113.481 166.898 113.597C165.805 113.683 164.572 113.91 163.526 113.597C162.226 113.206 161.267 111.732 159.914 111.482C158.695 111.251 156.292 111.824 155.174 112.561C154.211 113.177 153.729 114.29 152.689 114.772C151.186 115.47 151.292 114.555 149.837 114.43C148.383 114.305 147.631 115.099 146.519 113.466C145.011 111.232 145.623 106.665 142.073 106.434C141.018 106.367 138.985 107.253 138.335 105.899C137.372 103.905 140.821 101.261 140.324 99.1031C139.804 96.8585 135.614 99.8112 134.67 101.03C134.068 101.825 133.591 103.766 132.324 103.92C131.361 104.021 129.41 102.764 128.832 102.065C127.825 100.847 127.763 98.4818 127.618 96.9452C127.344 94.0552 128.008 93.1545 130.026 90.9966C131.809 89.07 132.175 88.9255 134.458 88.5257C135.859 88.28 135.845 87.7839 137.035 88.4053C137.603 88.7039 137.955 89.5902 138.648 89.8744C139.612 88.911 140.271 88.6316 141.572 88.8869C142.506 89.0748 144.462 90.1585 144.977 91.0352C145.29 91.5698 145.782 96.3721 147.511 93.4435C146.504 92.615 146.774 91.6373 146.365 90.7173C145.955 89.7973 145.021 89.1278 144.847 87.9766C144.64 86.6375 145.811 83.8487 147.338 83.5549L147.174 82.0521C148.864 81.816 150.873 77.717 150.545 75.6988C150.372 74.6922 149.279 74.7692 149.862 73.3194C150.545 71.6239 151.726 72.5102 153.161 72.1971C154.596 71.884 154.389 70.94 155.415 70.1789C156.533 69.3408 157.058 69.9814 158.007 70.0248C159.789 70.1018 162.125 70.5065 162.255 68.0307C163.343 67.8814 164.292 67.549 165.381 68.0018C165.525 66.0751 165.097 64.6686 163.454 63.556C162.009 62.5926 160.083 62.2844 158.57 61.3258C157.607 60.7093 156.908 59.8134 155.988 59.1583C154.505 58.0987 153.484 56.9282 152.135 55.7337C150.425 54.2116 148.763 56.1335 146.514 55.8204C143.513 55.3965 143.706 53.1375 141.851 51.7984C141.639 51.6443 141.028 51.8514 140.753 51.7166C140.264 51.3523 139.818 50.9338 139.424 50.469C138.359 49.3752 137.682 47.9624 137.497 46.4471C140.806 44.5204 141.644 49.077 143.027 50.7243C143.653 51.4709 146.114 51.9381 144.187 53.1327C145.522 53.2242 146.707 53.0267 147.954 53.3253C148.542 53.4602 149.043 53.807 149.683 53.807C149.813 52.781 149.447 51.7744 149.245 50.7869C149.149 50.3342 149.279 49.867 149.091 49.4286C148.816 48.788 148.128 48.4653 147.882 47.9403C147.15 46.4134 148.065 46.4134 146.398 45.4934C145.252 44.8624 143.87 44.4096 142.685 43.875C141.841 43.5806 141.057 43.1386 140.368 42.5697C140.074 42.2759 138.21 40.3155 138.07 39.959C136.75 36.6885 141.885 39.6604 143.06 39.959C144.991 40.4709 146.888 41.1031 148.739 41.852C150.252 42.43 150.276 42.7672 150.859 44.2603C151.909 46.9962 153.383 45.7053 155.054 47.5212C156.061 48.6194 156.846 50.6039 157.713 51.9044C158.806 53.5517 163.103 58.6959 165.501 56.2394C166.787 54.9148 164.302 52.598 164.254 51.3071C164.201 49.9344 165.13 49.0866 166.079 48.3401C167.674 47.0829 168.045 46.5627 166.156 45.0406C163.84 43.1669 161.292 42.8635 158.527 41.9869C155.526 41.0235 154.726 39.2991 153.204 36.8667C154.206 36.6837 155.261 36.6018 156.287 36.5103C157.163 36.3966 158.051 36.3982 158.927 36.5151ZM128.35 57.6603C127.96 58.6863 127.242 58.3684 126.573 58.8934C125.542 59.6978 127.363 61.1284 126.626 61.6534C126.366 61.8412 124.945 61.7642 124.622 61.6534C123.798 61.3788 123.543 60.796 122.58 60.8056C121.313 60.8056 120.041 60.5696 120.321 58.9753C120.451 58.2287 121.207 57.4869 120.851 56.6681C120.502 56.164 120.058 55.7322 119.545 55.3965C119.213 55.1653 118.799 55.199 118.51 55.016C117.85 54.6066 118.1 52.9882 118.828 52.704C118.852 54.9389 122.166 52.9207 122.854 53.9467C123.543 54.9726 122.17 55.3917 123.037 56.0419C123.543 56.4369 124.873 56.4369 125.378 56.2876C126.159 56.0612 127.459 54.8859 128.23 55.7385C128.528 56.1094 128.509 57.2461 128.35 57.6603ZM138.971 53.7299C139.795 53.966 139.65 54.3609 140.079 55.0112C140.56 55.7481 141.384 55.6807 141.967 56.2153C143.07 57.2317 141.326 58.5707 141.967 59.8279C142.531 60.9212 148.831 62.5589 144.717 63.898C143.513 64.2881 142.791 63.4982 141.707 63.1899C140.523 62.9477 139.294 63.0825 138.191 63.5752C136.182 64.7409 140.681 66.9036 137.906 67.7417C137.343 67.9151 135.498 67.8043 135.325 67.1059C135.151 66.4893 136.018 66.499 136.197 65.9065C136.905 63.5752 134.044 65.0154 133.244 64.8131C132.117 64.5241 132.468 62.5011 133.364 62.0435C133.846 61.7979 135.074 61.9279 135.614 61.9183C136.495 61.9183 137.377 62.0387 138.258 61.9617C138.668 60.2662 136.124 59.4088 134.79 59.2258C133.74 59.0861 133.6 58.8742 132.733 58.2624C131.688 57.5014 131.231 57.7133 131.963 56.3358C132.603 55.122 133.649 54.4765 134.689 53.6577C135.171 53.4168 135.561 53.9226 136.038 53.9756C137.015 54.0527 138.008 53.4698 138.971 53.7299Z" fill="#EBEBEB"/>
<path d="M146.224 96.7432C145.285 96.4157 141.938 97.6246 143.31 98.6121C144.24 99.2864 146.446 98.4194 147.583 98.6843C148.72 98.9492 150.131 98.5254 151.243 98.9781C152.067 99.3153 152.515 100.076 153.43 100.303C154.543 100.582 155.131 100.129 154.095 99.2671C153.368 98.6602 152.356 98.4965 151.508 98.1015C150.868 97.8077 150.29 97.2297 149.649 97.0563C148.797 96.8203 146.894 97.6006 146.224 96.7432Z" fill="#EBEBEB"/>
<path d="M157.92 101.757C157.096 102.277 156.311 102.538 156.036 103.597C155.714 104.84 156.229 104.609 157.067 104.127C157.597 103.819 158.329 103.299 158.994 103.332C159.659 103.366 160.174 103.843 160.8 103.954C161.352 104.077 161.923 104.076 162.474 103.95C163.025 103.824 163.541 103.577 163.984 103.226C164.673 102.624 164.726 101.844 163.652 101.671C162.838 101.541 161.532 101.94 160.685 102.027C159.837 102.114 158.377 102.167 157.92 101.757Z" fill="#EBEBEB"/>
<path d="M196.911 180.943C195.023 182.239 193.876 184.012 191.646 184.932C189.238 185.924 186.955 187.297 184.469 188.303C181.984 189.31 179.272 190.866 176.695 191.492C174.542 192.017 172.119 191.01 169.952 191.054C167.698 191.16 165.465 191.527 163.295 192.147C161.797 192.532 161.85 192.258 160.68 191.81C160.117 191.54 159.506 191.386 158.883 191.357C158.145 191.342 157.409 191.288 156.677 191.193C156.639 192.229 158.927 194.329 159.794 194.989C153.05 195.572 145.873 194.719 139.173 194.026C137.198 193.823 136.028 194.681 134.145 194.922C132.406 195.148 130.932 194.209 129.179 194.194C127.069 194.194 126.144 194.613 125.243 195.928C138.186 199.643 151.841 200.13 165.014 197.346C178.188 194.563 190.479 188.593 200.812 179.961C200.809 179.698 200.788 179.436 200.75 179.176C199.661 179.6 197.903 180.26 196.911 180.943Z" fill="#EBEBEB"/>
<path d="M68.0646 117.455C68.4287 116.617 68.5569 115.696 68.4354 114.791C68.2139 113.857 67.7756 113.939 67.3469 113.192C66.1572 111.135 67.9297 110.89 67.9249 109.16C67.9249 108.149 65.8248 105.741 67.2168 104.71C67.843 104.228 70.1068 105.375 71.258 104.898C71.0557 103.236 69.4229 103.742 68.7582 102.615C67.7659 100.924 69.4132 100.572 69.9238 99.8209C71.5807 97.4125 69.235 96.1554 68.6377 94.1613C66.5643 101.471 65.5123 109.033 65.5117 116.631C65.5117 116.925 65.5117 117.219 65.5358 117.517C66.1379 116.988 66.923 116.838 68.0646 117.455Z" fill="#EBEBEB"/>
<path d="M70.781 94.0456C71.6095 93.7855 71.2868 91.7624 71.4409 91.2133C72.0142 89.503 72.8249 87.8816 73.8493 86.3967C75.2124 84.364 74.6055 83.6078 74.302 81.1272C74.249 80.7081 74.2201 80.2506 74.1864 79.8026C72.1561 83.8462 70.4645 88.0511 69.1289 92.3742C69.6058 93.063 70.2078 94.2286 70.781 94.0456Z" fill="#EBEBEB"/>
<path d="M68.9363 107.605C67.6551 111.381 71.6963 111.94 71.7782 115.042C71.8071 116.193 71.2146 120.157 73.623 119.858C74.5863 117.662 73.0353 117.359 73.3147 115.321C73.5025 113.943 74.4948 113.549 72.9534 112.431C72.5296 112.113 71.7733 112.104 71.4314 111.771C70.9497 111.314 71.046 110.687 70.757 110.23C70.2416 109.397 69.4517 108.862 68.9363 107.605Z" fill="#EBEBEB"/>
<path d="M68.9364 120.639C67.9152 122.888 66.0464 130.99 69.6782 131.139C70.0828 131.139 70.8245 130.417 71.2388 130.691C71.5663 130.908 71.2821 131.751 71.4314 131.837C72.3707 132.367 72.6115 132.497 72.9872 130.874C73.2858 129.588 72.6308 129.535 72.4429 128.658C72.3239 127.891 72.3158 127.111 72.4188 126.342C70.0635 125.764 74.8272 125.263 74.6345 124.314C74.4948 123.591 70.9738 123.798 70.4681 123.957C70.3964 123.304 70.4322 122.643 70.5741 122.002C69.7889 121.65 69.5481 120.822 68.9364 120.639Z" fill="#EBEBEB"/>
<path d="M80.8002 127.994C78.7483 128.114 77.6741 126.245 75.2658 126.977C75.2658 127.459 75.1357 128.018 75.1357 128.475C75.68 128.311 78.204 127.719 77.7994 129.174C77.4622 130.387 75.2658 128.851 75.6463 130.643C76.2725 130.57 77.2599 130.103 77.8764 130.161C78.7723 130.277 79.124 130.758 79.9669 130.946C81.0843 131.187 80.9302 130.633 82.1248 131.476C83.0496 132.131 84.0081 133.138 84.3115 134.154C84.9618 136.312 83.9984 137.165 86.768 137.502C88.213 137.68 91.2716 139.255 91.1801 136.88C92.5577 137.362 94.6674 141.447 96.5122 141.032C98.8242 140.517 94.3495 136.919 94.364 136.519C95.2743 136.437 97.2973 135.556 97.9957 135.151C98.6942 134.747 99.4407 134.804 99.1614 133.345C98.068 133.215 97.5863 133.745 96.753 133.961C95.7485 134.177 94.7159 134.231 93.6944 134.12C91.175 133.933 88.7809 132.948 86.8596 131.307C85.7565 130.402 84.8125 129.651 83.6613 128.798C82.9099 128.244 82.934 127.892 82.0718 127.642C81.8475 127.586 81.6125 127.589 81.3897 127.65C81.1668 127.712 80.9637 127.83 80.8002 127.994Z" fill="#EBEBEB"/>
<path d="M69.2686 133.34C70.7425 133.34 72.3175 133.518 73.7818 133.34C74.2635 133.277 74.8655 132.468 75.4291 133.037C75.6314 133.244 75.4724 134.544 75.2894 134.747C74.3983 135.739 69.4853 135.421 69.7695 133.504" fill="#EBEBEB"/>
<path d="M91.8252 144.89C91.6855 142.294 90.6836 142.651 89.4843 140.989C89.07 142.063 88.6076 144.216 87.1578 144.361C85.0144 144.592 84.6724 141.389 83.3912 140.507C81.556 139.255 77.3848 140.474 76.9561 142.179C75.251 142.848 75.1402 143.653 74.4514 145.069C73.9527 146.09 73.3796 147.074 72.7367 148.012C72.5303 148.307 72.3068 148.59 72.0671 148.859C73.6485 152.569 75.4999 156.157 77.6063 159.596C77.7997 159.659 78.0005 159.696 78.2036 159.707C80.0195 159.851 80.9876 157.847 82.4375 158.035C83.4923 158.17 84.263 159.962 85.13 160.665C87.5383 162.65 91.5651 164.123 92.4995 167.057C93.0679 168.834 93.7711 169.605 94.8838 171.132C95.6641 172.196 95.5051 174.084 96.6515 174.735C96.6858 173.059 96.9039 171.392 97.3018 169.764C97.8653 167.726 97.268 166.041 98.2121 164.229C99.1562 162.418 100.664 160.925 100.495 158.666C100.38 157.13 99.2381 155.189 98.1447 154.086C95.0187 150.964 92.0901 149.803 91.8252 144.89Z" fill="#EBEBEB"/>
<path d="M112.72 162.419C111.381 162.674 111.844 165.28 111.463 166.344C110.929 167.842 110.394 167.688 108.824 168.097C107.819 168.297 106.832 168.576 105.871 168.931C104.426 169.605 104.301 170.809 103.877 172.254C105.678 172.404 106.714 170.299 108.332 169.962C109.724 169.677 110.866 170.303 112.311 169.673C115.938 168.093 115.037 164.519 115.533 161.609C114.459 161.417 113.722 162.062 112.72 162.419Z" fill="#EBEBEB"/>
<path d="M114.247 147.212C113.765 148.286 114.247 150.854 115.832 149.298C116.564 148.576 116.506 146.803 115.109 146.89C115.109 147.111 115.003 147.174 114.916 147.371" fill="#EBEBEB"/>
<path d="M126.087 149.886C124.781 150.912 127.594 152.65 128.057 151.017C128.399 149.837 126.515 149.447 126.087 149.886Z" fill="#EBEBEB"/>
<path d="M105.033 121.477C105.414 122.44 107.88 123.211 108.337 124.81C108.756 126.284 108.337 127.57 110.524 127.633C110.471 126.578 111.049 125.195 110.558 124.261C110.336 123.842 109.595 123.779 109.33 123.298C109.065 122.816 109.257 122.243 109.041 121.79C108.578 120.846 104.532 118.621 105.033 121.477Z" fill="#EBEBEB"/>
<g style="mix-blend-mode:multiply">
<g style="mix-blend-mode:multiply">
<path d="M167.615 195.277C148.963 195.277 130.833 189.112 116.048 177.741C101.262 166.37 90.6489 150.431 85.8603 132.403C81.0717 114.376 82.3759 95.2712 89.5698 78.0617C96.7638 60.8522 109.444 46.503 125.638 37.2467C115.145 40.2771 105.358 45.3617 96.8455 52.2053C88.3332 59.0488 81.2651 67.5151 76.0514 77.1125C70.8378 86.71 67.5824 97.2475 66.4743 108.113C65.3663 118.979 66.4276 129.957 69.5966 140.409C72.7657 150.861 77.9794 160.58 84.935 169.001C91.8907 177.422 100.45 184.377 110.115 189.464C119.781 194.55 130.361 197.665 141.24 198.629C152.12 199.594 163.082 198.387 173.492 195.08C171.565 195.191 169.6 195.277 167.615 195.277Z" fill="#FAFAFA"/>
</g>
</g>
<path d="M162.414 216.163L162.684 216.645C162.985 217.192 163.439 217.64 163.989 217.936L164.471 218.201L163.989 218.47C163.437 218.763 162.983 219.212 162.684 219.761L162.414 220.243L162.144 219.761C161.846 219.213 161.394 218.765 160.844 218.47L160.362 218.201L160.844 217.936C161.392 217.639 161.843 217.191 162.144 216.645L162.414 216.163Z" fill="#EBEBEB"/>
<path d="M65.5116 197.055L65.7814 197.537C66.0828 198.084 66.5361 198.533 67.0867 198.828L67.5683 199.098L67.0867 199.362C66.5361 199.658 66.0828 200.106 65.7814 200.653L65.5116 201.135L65.2467 200.653C64.9425 200.108 64.4898 199.661 63.9414 199.362L63.4597 199.098L63.9414 198.828C64.4898 198.53 64.9425 198.082 65.2467 197.537L65.5116 197.055Z" fill="#EBEBEB"/>
<path d="M80.0489 47.6177L80.3138 48.0993C80.6166 48.6456 81.0696 49.0936 81.6192 49.3902L82.1008 49.6599L81.6192 49.9249C81.0707 50.223 80.6181 50.6706 80.3138 51.2157L80.0489 51.6974L79.7792 51.2157C79.4778 50.6685 79.0244 50.2202 78.4739 49.9249L77.9922 49.6599L78.4739 49.3902C79.0254 49.0963 79.4791 48.6476 79.7792 48.0993L80.0489 47.6177Z" fill="#EBEBEB"/>
<path d="M284.276 129.313L284.758 130.151C285.271 131.094 286.046 131.868 286.988 132.382L287.826 132.839L286.988 133.321C286.046 133.833 285.272 134.605 284.758 135.546L284.276 136.389L283.818 135.546C283.303 134.606 282.529 133.834 281.588 133.321L280.75 132.839L281.588 132.382C282.53 131.867 283.304 131.093 283.818 130.151L284.276 129.313Z" fill="#EBEBEB"/>
<path d="M233.917 45.5752L234.182 46.0569C234.486 46.602 234.939 47.0496 235.487 47.3477L235.969 47.6127L235.487 47.8824C234.939 48.1805 234.486 48.6281 234.182 49.1733L233.917 49.6549L233.647 49.1733C233.343 48.6281 232.89 48.1805 232.342 47.8824L231.86 47.6127L232.342 47.3477C232.89 47.0496 233.343 46.602 233.647 46.0569L233.917 45.5752Z" fill="#EBEBEB"/>
<path d="M182.788 23.4521L183.053 23.9338C183.357 24.4789 183.81 24.9265 184.358 25.2247L184.84 25.4896L184.358 25.7593C183.81 26.0575 183.357 26.5051 183.053 27.0502L182.788 27.5319L182.518 27.0502C182.211 26.5039 181.753 26.0575 181.198 25.7642L180.717 25.4944L181.198 25.2295C181.748 24.9327 182.201 24.4847 182.504 23.9386L182.788 23.4521Z" fill="#EBEBEB"/>
<path d="M18.1446 155.959L18.6263 156.797C19.1399 157.739 19.9141 158.514 20.8564 159.027L21.6945 159.509L20.8564 159.966C19.9151 160.481 19.1412 161.255 18.6263 162.197L18.1446 163.035L17.663 162.197C17.1481 161.255 16.3741 160.481 15.4328 159.966L14.5947 159.509L15.4328 159.027C16.3751 158.514 17.1494 157.739 17.663 156.797L18.1446 155.959Z" fill="#EBEBEB"/>
</svg>
