<svg width="450" height="519" viewBox="0 0 450 519" fill="none" xmlns="http://www.w3.org/2000/svg">
<path d="M401.892 320.572L400.496 320.158L401.892 320.572ZM340.62 171.95L349.067 186.49L357.436 171.904L340.62 171.95ZM195.24 374.277C194.488 373.991 193.647 374.369 193.361 375.121C193.076 375.873 193.454 376.714 194.206 377L195.24 374.277ZM197.994 378.41C198.75 378.685 199.585 378.296 199.861 377.54C200.137 376.785 199.748 375.949 198.992 375.673L197.994 378.41ZM214.007 380.695C213.238 380.461 212.424 380.895 212.19 381.665C211.956 382.434 212.391 383.248 213.16 383.482L214.007 380.695ZM220.87 385.703C221.647 385.914 222.447 385.456 222.658 384.68C222.869 383.904 222.411 383.103 221.635 382.892L220.87 385.703ZM237.023 386.578C236.236 386.416 235.465 386.923 235.302 387.71C235.14 388.498 235.647 389.268 236.434 389.431L237.023 386.578ZM244.287 390.918C245.08 391.055 245.833 390.523 245.969 389.73C246.106 388.938 245.574 388.185 244.781 388.048L244.287 390.918ZM260.487 390.191C259.687 390.111 258.973 390.695 258.893 391.496C258.813 392.296 259.397 393.009 260.198 393.089L260.487 390.191ZM268.195 393.738C268.998 393.788 269.689 393.177 269.739 392.374C269.789 391.572 269.178 390.881 268.375 390.831L268.195 393.738ZM284.18 391.18C283.376 391.195 282.736 391.859 282.751 392.664C282.767 393.468 283.431 394.107 284.235 394.092L284.18 391.18ZM292.255 393.769C293.057 393.719 293.668 393.028 293.618 392.225C293.568 391.422 292.877 390.812 292.074 390.862L292.255 393.769ZM307.773 389.168C306.978 389.292 306.434 390.036 306.558 390.831C306.681 391.626 307.426 392.17 308.22 392.046L307.773 389.168ZM316.129 390.617C316.917 390.454 317.423 389.684 317.261 388.896C317.098 388.109 316.328 387.602 315.54 387.765L316.129 390.617ZM330.796 383.776C330.03 384.021 329.607 384.84 329.852 385.606C330.097 386.373 330.917 386.795 331.683 386.55L330.796 383.776ZM339.272 383.886C340.023 383.598 340.399 382.756 340.111 382.005C339.823 381.254 338.981 380.879 338.23 381.167L339.272 383.886ZM352.556 374.666C351.845 375.043 351.575 375.924 351.952 376.635C352.329 377.345 353.211 377.615 353.921 377.238L352.556 374.666ZM360.923 373.225C361.607 372.802 361.819 371.905 361.396 371.22C360.973 370.536 360.076 370.324 359.392 370.747L360.923 373.225ZM372.147 361.579C371.53 362.094 371.447 363.012 371.962 363.63C372.477 364.247 373.396 364.33 374.013 363.815L372.147 361.579ZM380.011 358.41C380.587 357.849 380.599 356.927 380.038 356.35C379.477 355.774 378.555 355.762 377.978 356.323L380.011 358.41ZM388.269 344.506C387.794 345.156 387.936 346.067 388.585 346.541C389.234 347.016 390.146 346.874 390.62 346.225L388.269 344.506ZM395.1 339.475C395.513 338.786 395.289 337.891 394.599 337.478C393.909 337.064 393.015 337.288 392.601 337.978L395.1 339.475ZM399.287 323.867C399.018 324.625 399.414 325.457 400.172 325.727C400.93 325.996 401.763 325.6 402.032 324.842L399.287 323.867ZM404.429 316.937C404.635 316.16 404.173 315.362 403.396 315.155C402.619 314.948 401.821 315.411 401.614 316.188L404.429 316.937ZM404.889 300.118C404.777 300.914 405.331 301.651 406.128 301.763C406.924 301.876 407.661 301.321 407.773 300.525L404.889 300.118ZM408.682 292.185C408.743 291.384 408.143 290.684 407.341 290.622C406.539 290.561 405.839 291.161 405.778 291.963L408.682 292.185ZM405.951 275.581C405.996 276.384 406.684 276.998 407.487 276.952C408.29 276.907 408.904 276.219 408.859 275.416L405.951 275.581ZM408.1 267.064C408 266.266 407.272 265.7 406.474 265.8C405.676 265.9 405.11 266.628 405.21 267.426L408.1 267.064ZM402.059 251.355C402.268 252.132 403.067 252.592 403.843 252.384C404.62 252.175 405.081 251.376 404.872 250.599L402.059 251.355ZM402.414 242.57C402.153 241.809 401.324 241.405 400.563 241.667C399.803 241.928 399.398 242.757 399.66 243.517L402.414 242.57ZM393.294 228.424C393.655 229.142 394.531 229.432 395.249 229.07C395.968 228.708 396.257 227.833 395.895 227.114L393.294 228.424ZM391.878 219.751C391.47 219.058 390.577 218.827 389.884 219.235C389.191 219.643 388.961 220.536 389.369 221.229L391.878 219.751ZM380.154 207.67C380.648 208.305 381.563 208.419 382.198 207.926C382.833 207.432 382.947 206.517 382.454 205.882L380.154 207.67ZM377.102 199.428C376.57 198.825 375.65 198.768 375.047 199.301C374.444 199.833 374.387 200.753 374.919 201.356L377.102 199.428ZM363.321 189.76C363.923 190.292 364.844 190.235 365.376 189.633C365.909 189.03 365.852 188.11 365.249 187.577L363.321 189.76ZM358.797 182.222C358.163 181.728 357.248 181.841 356.753 182.476C356.259 183.11 356.373 184.025 357.007 184.52L358.797 182.222ZM343.47 175.264C344.162 175.675 345.055 175.449 345.467 174.757C345.878 174.066 345.651 173.173 344.96 172.761L343.47 175.264ZM194.206 377C195.473 377.481 196.735 377.951 197.994 378.41L198.992 375.673C197.745 375.219 196.495 374.753 195.24 374.277L194.206 377ZM213.16 383.482C215.749 384.268 218.32 385.008 220.87 385.703L221.635 382.892C219.112 382.205 216.569 381.473 214.007 380.695L213.16 383.482ZM236.434 389.431C239.075 389.976 241.693 390.472 244.287 390.918L244.781 388.048C242.219 387.607 239.633 387.117 237.023 386.578L236.434 389.431ZM260.198 393.089C262.893 393.359 265.559 393.575 268.195 393.738L268.375 390.831C265.776 390.67 263.147 390.457 260.487 390.191L260.198 393.089ZM284.235 394.092C286.945 394.041 289.619 393.932 292.255 393.769L292.074 390.862C289.48 391.023 286.849 391.13 284.18 391.18L284.235 394.092ZM308.22 392.046C310.903 391.629 313.54 391.152 316.129 390.617L315.54 387.765C312.998 388.29 310.409 388.758 307.773 389.168L308.22 392.046ZM331.683 386.55C334.271 385.723 336.802 384.833 339.272 383.886L338.23 381.167C335.811 382.094 333.333 382.965 330.796 383.776L331.683 386.55ZM353.921 377.238C356.33 375.96 358.664 374.621 360.923 373.225L359.392 370.747C357.188 372.109 354.909 373.417 352.556 374.666L353.921 377.238ZM374.013 363.815C376.107 362.068 378.107 360.264 380.011 358.41L377.978 356.323C376.129 358.125 374.184 359.879 372.147 361.579L374.013 363.815ZM390.62 346.225C392.232 344.02 393.726 341.768 395.1 339.475L392.601 337.978C391.274 340.193 389.829 342.372 388.269 344.506L390.62 346.225ZM402.032 324.842C402.486 323.564 402.905 322.278 403.289 320.987L400.496 320.158C400.128 321.4 399.725 322.637 399.287 323.867L402.032 324.842ZM403.289 320.987C403.691 319.632 404.071 318.282 404.429 316.937L401.614 316.188C401.263 317.506 400.891 318.83 400.496 320.158L403.289 320.987ZM407.773 300.525C408.169 297.72 408.471 294.939 408.682 292.185L405.778 291.963C405.571 294.655 405.276 297.374 404.889 300.118L407.773 300.525ZM408.859 275.416C408.699 272.598 408.445 269.813 408.1 267.064L405.21 267.426C405.547 270.11 405.795 272.828 405.951 275.581L408.859 275.416ZM404.872 250.599C404.14 247.878 403.319 245.201 402.414 242.57L399.66 243.517C400.544 246.086 401.345 248.7 402.059 251.355L404.872 250.599ZM395.895 227.114C394.633 224.606 393.292 222.151 391.878 219.751L389.369 221.229C390.75 223.575 392.06 225.974 393.294 228.424L395.895 227.114ZM382.454 205.882C380.732 203.668 378.946 201.515 377.102 199.428L374.919 201.356C376.723 203.398 378.47 205.504 380.154 207.67L382.454 205.882ZM365.249 187.577C363.145 185.718 360.992 183.932 358.797 182.222L357.007 184.52C359.155 186.193 361.261 187.941 363.321 189.76L365.249 187.577Z" fill="#E28C24"/>
<circle opacity="0.5" r="55.2163" transform="matrix(-0.995624 0.0934458 0.0934458 0.995624 5.15834 457.919)" fill="url(#paint0_radial_615_2858)"/>
<path d="M-55.7249 308.307L-54.9976 309.569L-55.7249 308.307ZM-33.1037 412.71L-44.2526 400.121L-49.5803 416.071L-33.1037 412.71ZM127.268 355.854C127.991 356.206 128.863 355.905 129.215 355.182C129.567 354.458 129.266 353.587 128.543 353.235L127.268 355.854ZM124.875 351.441C124.153 351.086 123.281 351.384 122.926 352.106C122.571 352.828 122.869 353.7 123.591 354.055L124.875 351.441ZM108.914 346.755C109.633 347.116 110.508 346.825 110.869 346.106C111.229 345.387 110.939 344.512 110.22 344.152L108.914 346.755ZM102.904 340.478C102.185 340.117 101.31 340.407 100.949 341.126C100.588 341.845 100.878 342.72 101.597 343.081L102.904 340.478ZM86.9543 335.763C87.675 336.12 88.5487 335.825 88.9057 335.105C89.2628 334.384 88.968 333.51 88.2473 333.153L86.9543 335.763ZM80.8918 329.536C80.1689 329.183 79.297 329.483 78.9444 330.206C78.5919 330.929 78.892 331.801 79.6149 332.154L80.8918 329.536ZM64.8597 325.121C65.5894 325.459 66.4551 325.142 66.7933 324.412C67.1315 323.682 66.8141 322.817 66.0844 322.479L64.8597 325.121ZM58.6099 319.076C57.8755 318.748 57.0143 319.078 56.6865 319.812C56.3586 320.547 56.6881 321.408 57.4226 321.736L58.6099 319.076ZM42.4062 315.35C43.1526 315.65 44.0006 315.288 44.3004 314.541C44.6001 313.795 44.238 312.947 43.4917 312.647L42.4062 315.35ZM35.8274 309.676C35.0738 309.395 34.2351 309.778 33.954 310.532C33.6729 311.285 34.0559 312.124 34.8095 312.405L35.8274 309.676ZM19.3834 307.182C20.1536 307.414 20.9658 306.977 21.1974 306.207C21.429 305.437 20.9924 304.625 20.2222 304.393L19.3834 307.182ZM12.2859 302.181C11.5067 301.982 10.7135 302.452 10.5143 303.232C10.3151 304.011 10.7852 304.804 11.5645 305.003L12.2859 302.181ZM-4.32811 301.797C-3.53186 301.911 -2.7944 301.357 -2.68095 300.561C-2.56751 299.765 -3.12103 299.027 -3.91727 298.914L-4.32811 301.797ZM-12.1634 298.024C-12.9657 297.967 -13.6626 298.57 -13.7201 299.373C-13.7775 300.175 -13.1738 300.872 -12.3715 300.929L-12.1634 298.024ZM-28.4622 301.139C-27.6625 301.053 -27.0835 300.336 -27.1691 299.536C-27.2547 298.736 -27.9724 298.157 -28.7721 298.243L-28.4622 301.139ZM-37.0013 299.57C-37.787 299.742 -38.2847 300.518 -38.1128 301.304C-37.941 302.09 -37.1648 302.588 -36.379 302.416L-37.0013 299.57ZM-51.4634 307.677C-50.7427 307.32 -50.4479 306.447 -50.8049 305.726C-51.1619 305.005 -52.0356 304.71 -52.7563 305.067L-51.4634 307.677ZM-59.7634 309.082C-60.436 309.523 -60.6237 310.425 -60.1827 311.098C-59.7417 311.771 -58.839 311.958 -58.1664 311.517L-59.7634 309.082ZM-69.2648 321.078C-68.7367 320.472 -68.8004 319.552 -69.407 319.024C-70.0136 318.496 -70.9335 318.559 -71.4616 319.166L-69.2648 321.078ZM-76.0927 325.433C-76.5161 326.117 -76.3051 327.015 -75.6213 327.438C-74.9375 327.862 -74.0399 327.65 -73.6164 326.967L-76.0927 325.433ZM-79.0754 340.447C-78.9033 339.662 -79.4008 338.885 -80.1865 338.713C-80.9722 338.541 -81.7486 339.039 -81.9206 339.825L-79.0754 340.447ZM-82.9621 347.535C-83.0062 348.338 -82.3909 349.025 -81.5879 349.069C-80.7848 349.113 -80.098 348.498 -80.0539 347.694L-82.9621 347.535ZM-78.7205 362.287C-78.9022 361.504 -79.6847 361.016 -80.4682 361.198C-81.2517 361.379 -81.7395 362.162 -81.5577 362.945L-78.7205 362.287ZM-79.3439 370.355C-79.0674 371.11 -78.231 371.499 -77.4757 371.222C-76.7205 370.946 -76.3323 370.109 -76.6089 369.354L-79.3439 370.355ZM-70.0078 382.554C-70.4432 381.878 -71.3444 381.683 -72.0206 382.118C-72.6968 382.554 -72.892 383.455 -72.4565 384.131L-70.0078 382.554ZM-67.953 390.383C-67.4498 391.011 -66.5332 391.112 -65.9058 390.608C-65.2783 390.105 -65.1776 389.189 -65.6808 388.561L-67.953 390.383ZM-55.2934 399.088C-55.9145 398.577 -56.8322 398.666 -57.3432 399.287C-57.8542 399.908 -57.765 400.826 -57.1439 401.337L-55.2934 399.088ZM-50.9395 405.912C-50.2674 406.354 -49.3644 406.167 -48.9226 405.495C-48.4807 404.823 -48.6673 403.92 -49.3393 403.478L-50.9395 405.912ZM-36.1846 410.146C-36.9394 409.868 -37.7765 410.255 -38.0544 411.01C-38.3322 411.764 -37.9456 412.602 -37.1908 412.879L-36.1846 410.146ZM128.543 353.235C127.322 352.64 126.1 352.042 124.875 351.441L123.591 354.055C124.818 354.658 126.044 355.257 127.268 355.854L128.543 353.235ZM110.22 344.152C107.784 342.93 105.345 341.705 102.904 340.478L101.597 343.081C104.037 344.307 106.477 345.533 108.914 346.755L110.22 344.152ZM88.2473 333.153C85.7947 331.938 83.3423 330.731 80.8918 329.536L79.6149 332.154C82.0591 333.346 84.506 334.55 86.9543 335.763L88.2473 333.153ZM66.0844 322.479C63.5879 321.322 61.0959 320.186 58.6099 319.076L57.4226 321.736C59.8949 322.839 62.3743 323.969 64.8597 325.121L66.0844 322.479ZM43.4917 312.647C40.927 311.617 38.3716 310.625 35.8274 309.676L34.8095 312.405C37.3294 313.345 39.8621 314.328 42.4062 315.35L43.4917 312.647ZM20.2222 304.393C17.5601 303.593 14.914 302.853 12.2859 302.181L11.5645 305.003C14.1504 305.664 16.7573 306.393 19.3834 307.182L20.2222 304.393ZM-3.91727 298.914C-6.69252 298.518 -9.44219 298.219 -12.1634 298.024L-12.3715 300.929C-9.72271 301.119 -7.04078 301.411 -4.32811 301.797L-3.91727 298.914ZM-28.7721 298.243C-31.5557 298.541 -34.3 298.98 -37.0013 299.57L-36.379 302.416C-33.7859 301.849 -31.146 301.426 -28.4622 301.139L-28.7721 298.243ZM-52.7563 305.067C-54.0014 305.684 -55.2336 306.343 -56.4522 307.046L-54.9976 309.569C-53.8321 308.897 -52.6539 308.267 -51.4634 307.677L-52.7563 305.067ZM-56.4522 307.046C-57.5957 307.705 -58.6992 308.384 -59.7634 309.082L-58.1664 311.517C-57.1498 310.851 -56.0938 310.201 -54.9976 309.569L-56.4522 307.046ZM-71.4616 319.166C-73.2146 321.18 -74.7554 323.274 -76.0927 325.433L-73.6164 326.967C-72.3629 324.942 -70.9158 322.975 -69.2648 321.078L-71.4616 319.166ZM-81.9206 339.825C-82.4771 342.367 -82.8199 344.943 -82.9621 347.535L-80.0539 347.694C-79.9199 345.253 -79.5973 342.832 -79.0754 340.447L-81.9206 339.825ZM-81.5577 362.945C-80.9789 365.44 -80.237 367.916 -79.3439 370.355L-76.6089 369.354C-77.4623 367.023 -78.1695 364.662 -78.7205 362.287L-81.5577 362.945ZM-72.4565 384.131C-71.0716 386.282 -69.567 388.371 -67.953 390.383L-65.6808 388.561C-67.2322 386.627 -68.6777 384.619 -70.0078 382.554L-72.4565 384.131ZM-57.1439 401.337C-55.1611 402.968 -53.0898 404.498 -50.9395 405.912L-49.3393 403.478C-51.4013 402.122 -53.3891 400.654 -55.2934 399.088L-57.1439 401.337Z" fill="#E28C24"/>
<g filter="url(#filter0_dii_615_2858)">
<rect x="269.139" y="21" width="114.627" height="114.627" rx="32.9043" fill="white"/>
</g>
<g filter="url(#filter1_ii_615_2858)">
<path fill-rule="evenodd" clip-rule="evenodd" d="M291.993 96.942C292.426 93.8248 293.41 90.4365 292.56 87.4061C291.72 84.4086 291.27 81.248 291.267 77.9825C291.251 58.6848 306.882 43.028 326.18 43.0122C345.477 42.9963 361.134 58.6273 361.15 77.925C361.166 97.2227 345.535 112.879 326.237 112.895C319.022 112.901 312.316 110.72 306.746 106.978C306.105 106.547 305.279 106.529 304.563 106.819L302.132 107.805C296.645 110.031 290.81 105.447 291.63 99.5527L291.993 96.942Z" fill="#FDE04A"/>
</g>
<g filter="url(#filter2_dii_615_2858)">
<circle cx="306.09" cy="79.0295" r="4.23534" transform="rotate(-0.0471484 306.09 79.0295)" fill="#F3FAFF"/>
</g>
<g filter="url(#filter3_dii_615_2858)">
<circle cx="325.149" cy="79.0141" r="4.23534" transform="rotate(-0.0471484 325.149 79.0141)" fill="#F3FAFF"/>
</g>
<g filter="url(#filter4_dii_615_2858)">
<circle cx="344.208" cy="78.9977" r="4.23534" transform="rotate(-0.0471484 344.208 78.9977)" fill="#F3FAFF"/>
</g>
<defs>
<filter id="filter0_dii_615_2858" x="252.687" y="0.434805" width="196.887" height="196.887" filterUnits="userSpaceOnUse" color-interpolation-filters="sRGB">
<feFlood flood-opacity="0" result="BackgroundImageFix"/>
<feColorMatrix in="SourceAlpha" type="matrix" values="0 0 0 0 0 0 0 0 0 0 0 0 0 0 0 0 0 0 127 0" result="hardAlpha"/>
<feOffset dx="24.6782" dy="20.5652"/>
<feGaussianBlur stdDeviation="20.5652"/>
<feComposite in2="hardAlpha" operator="out"/>
<feColorMatrix type="matrix" values="0 0 0 0 0.75434 0 0 0 0 0.663395 0 0 0 0 0.536071 0 0 0 0.2 0"/>
<feBlend mode="normal" in2="BackgroundImageFix" result="effect1_dropShadow_615_2858"/>
<feBlend mode="normal" in="SourceGraphic" in2="effect1_dropShadow_615_2858" result="shape"/>
<feColorMatrix in="SourceAlpha" type="matrix" values="0 0 0 0 0 0 0 0 0 0 0 0 0 0 0 0 0 0 127 0" result="hardAlpha"/>
<feOffset dx="-4.11304" dy="-4.11304"/>
<feGaussianBlur stdDeviation="4.11304"/>
<feComposite in2="hardAlpha" operator="arithmetic" k2="-1" k3="1"/>
<feColorMatrix type="matrix" values="0 0 0 0 0 0 0 0 0 0 0 0 0 0 0 0 0 0 0.15 0"/>
<feBlend mode="normal" in2="shape" result="effect2_innerShadow_615_2858"/>
<feColorMatrix in="SourceAlpha" type="matrix" values="0 0 0 0 0 0 0 0 0 0 0 0 0 0 0 0 0 0 127 0" result="hardAlpha"/>
<feOffset dx="4.11304" dy="4.11304"/>
<feGaussianBlur stdDeviation="4.11304"/>
<feComposite in2="hardAlpha" operator="arithmetic" k2="-1" k3="1"/>
<feColorMatrix type="matrix" values="0 0 0 0 1 0 0 0 0 1 0 0 0 0 1 0 0 0 0.25 0"/>
<feBlend mode="normal" in2="effect2_innerShadow_615_2858" result="effect3_innerShadow_615_2858"/>
</filter>
<filter id="filter1_ii_615_2858" x="279.616" y="31.3618" width="89.2452" height="89.2451" filterUnits="userSpaceOnUse" color-interpolation-filters="sRGB">
<feFlood flood-opacity="0" result="BackgroundImageFix"/>
<feBlend mode="normal" in="SourceGraphic" in2="BackgroundImageFix" result="shape"/>
<feColorMatrix in="SourceAlpha" type="matrix" values="0 0 0 0 0 0 0 0 0 0 0 0 0 0 0 0 0 0 127 0" result="hardAlpha"/>
<feOffset dx="-11.6504" dy="-11.6504"/>
<feGaussianBlur stdDeviation="9.70869"/>
<feComposite in2="hardAlpha" operator="arithmetic" k2="-1" k3="1"/>
<feColorMatrix type="matrix" values="0 0 0 0 0.870588 0 0 0 0 0.666667 0 0 0 0 0.360784 0 0 0 0.82 0"/>
<feBlend mode="normal" in2="shape" result="effect1_innerShadow_615_2858"/>
<feColorMatrix in="SourceAlpha" type="matrix" values="0 0 0 0 0 0 0 0 0 0 0 0 0 0 0 0 0 0 127 0" result="hardAlpha"/>
<feOffset dx="7.71164" dy="7.71164"/>
<feGaussianBlur stdDeviation="7.71164"/>
<feComposite in2="hardAlpha" operator="arithmetic" k2="-1" k3="1"/>
<feColorMatrix type="matrix" values="0 0 0 0 1 0 0 0 0 0.941176 0 0 0 0 0.643137 0 0 0 0.65 0"/>
<feBlend mode="normal" in2="effect1_innerShadow_615_2858" result="effect2_innerShadow_615_2858"/>
</filter>
<filter id="filter2_dii_615_2858" x="297.677" y="71.1808" width="16.8251" height="17.6537" filterUnits="userSpaceOnUse" color-interpolation-filters="sRGB">
<feFlood flood-opacity="0" result="BackgroundImageFix"/>
<feColorMatrix in="SourceAlpha" type="matrix" values="0 0 0 0 0 0 0 0 0 0 0 0 0 0 0 0 0 0 127 0" result="hardAlpha"/>
<feOffset dy="1.39242"/>
<feGaussianBlur stdDeviation="2.08862"/>
<feComposite in2="hardAlpha" operator="out"/>
<feColorMatrix type="matrix" values="0 0 0 0 0.710026 0 0 0 0 0.71778 0 0 0 0 0.758485 0 0 0 0.25 0"/>
<feBlend mode="normal" in2="BackgroundImageFix" result="effect1_dropShadow_615_2858"/>
<feBlend mode="normal" in="SourceGraphic" in2="effect1_dropShadow_615_2858" result="shape"/>
<feColorMatrix in="SourceAlpha" type="matrix" values="0 0 0 0 0 0 0 0 0 0 0 0 0 0 0 0 0 0 127 0" result="hardAlpha"/>
<feOffset dx="-3.61338" dy="-3.61338"/>
<feGaussianBlur stdDeviation="1.80669"/>
<feComposite in2="hardAlpha" operator="arithmetic" k2="-1" k3="1"/>
<feColorMatrix type="matrix" values="0 0 0 0 0.359191 0 0 0 0 0.655925 0 0 0 0 0.870801 0 0 0 0.17 0"/>
<feBlend mode="normal" in2="shape" result="effect2_innerShadow_615_2858"/>
<feColorMatrix in="SourceAlpha" type="matrix" values="0 0 0 0 0 0 0 0 0 0 0 0 0 0 0 0 0 0 127 0" result="hardAlpha"/>
<feOffset dx="1.80669" dy="1.80669"/>
<feGaussianBlur stdDeviation="1.35502"/>
<feComposite in2="hardAlpha" operator="arithmetic" k2="-1" k3="1"/>
<feColorMatrix type="matrix" values="0 0 0 0 0.979145 0 0 0 0 0.99749 0 0 0 0 1 0 0 0 0.65 0"/>
<feBlend mode="normal" in2="effect2_innerShadow_615_2858" result="effect3_innerShadow_615_2858"/>
</filter>
<filter id="filter3_dii_615_2858" x="316.736" y="71.1654" width="16.8251" height="17.6537" filterUnits="userSpaceOnUse" color-interpolation-filters="sRGB">
<feFlood flood-opacity="0" result="BackgroundImageFix"/>
<feColorMatrix in="SourceAlpha" type="matrix" values="0 0 0 0 0 0 0 0 0 0 0 0 0 0 0 0 0 0 127 0" result="hardAlpha"/>
<feOffset dy="1.39242"/>
<feGaussianBlur stdDeviation="2.08862"/>
<feComposite in2="hardAlpha" operator="out"/>
<feColorMatrix type="matrix" values="0 0 0 0 0.710026 0 0 0 0 0.71778 0 0 0 0 0.758485 0 0 0 0.25 0"/>
<feBlend mode="normal" in2="BackgroundImageFix" result="effect1_dropShadow_615_2858"/>
<feBlend mode="normal" in="SourceGraphic" in2="effect1_dropShadow_615_2858" result="shape"/>
<feColorMatrix in="SourceAlpha" type="matrix" values="0 0 0 0 0 0 0 0 0 0 0 0 0 0 0 0 0 0 127 0" result="hardAlpha"/>
<feOffset dx="-3.61338" dy="-3.61338"/>
<feGaussianBlur stdDeviation="1.80669"/>
<feComposite in2="hardAlpha" operator="arithmetic" k2="-1" k3="1"/>
<feColorMatrix type="matrix" values="0 0 0 0 0.359191 0 0 0 0 0.655925 0 0 0 0 0.870801 0 0 0 0.17 0"/>
<feBlend mode="normal" in2="shape" result="effect2_innerShadow_615_2858"/>
<feColorMatrix in="SourceAlpha" type="matrix" values="0 0 0 0 0 0 0 0 0 0 0 0 0 0 0 0 0 0 127 0" result="hardAlpha"/>
<feOffset dx="1.80669" dy="1.80669"/>
<feGaussianBlur stdDeviation="1.35502"/>
<feComposite in2="hardAlpha" operator="arithmetic" k2="-1" k3="1"/>
<feColorMatrix type="matrix" values="0 0 0 0 0.979145 0 0 0 0 0.99749 0 0 0 0 1 0 0 0 0.65 0"/>
<feBlend mode="normal" in2="effect2_innerShadow_615_2858" result="effect3_innerShadow_615_2858"/>
</filter>
<filter id="filter4_dii_615_2858" x="335.796" y="71.1491" width="16.8251" height="17.6537" filterUnits="userSpaceOnUse" color-interpolation-filters="sRGB">
<feFlood flood-opacity="0" result="BackgroundImageFix"/>
<feColorMatrix in="SourceAlpha" type="matrix" values="0 0 0 0 0 0 0 0 0 0 0 0 0 0 0 0 0 0 127 0" result="hardAlpha"/>
<feOffset dy="1.39242"/>
<feGaussianBlur stdDeviation="2.08862"/>
<feComposite in2="hardAlpha" operator="out"/>
<feColorMatrix type="matrix" values="0 0 0 0 0.710026 0 0 0 0 0.71778 0 0 0 0 0.758485 0 0 0 0.25 0"/>
<feBlend mode="normal" in2="BackgroundImageFix" result="effect1_dropShadow_615_2858"/>
<feBlend mode="normal" in="SourceGraphic" in2="effect1_dropShadow_615_2858" result="shape"/>
<feColorMatrix in="SourceAlpha" type="matrix" values="0 0 0 0 0 0 0 0 0 0 0 0 0 0 0 0 0 0 127 0" result="hardAlpha"/>
<feOffset dx="-3.61338" dy="-3.61338"/>
<feGaussianBlur stdDeviation="1.80669"/>
<feComposite in2="hardAlpha" operator="arithmetic" k2="-1" k3="1"/>
<feColorMatrix type="matrix" values="0 0 0 0 0.359191 0 0 0 0 0.655925 0 0 0 0 0.870801 0 0 0 0.17 0"/>
<feBlend mode="normal" in2="shape" result="effect2_innerShadow_615_2858"/>
<feColorMatrix in="SourceAlpha" type="matrix" values="0 0 0 0 0 0 0 0 0 0 0 0 0 0 0 0 0 0 127 0" result="hardAlpha"/>
<feOffset dx="1.80669" dy="1.80669"/>
<feGaussianBlur stdDeviation="1.35502"/>
<feComposite in2="hardAlpha" operator="arithmetic" k2="-1" k3="1"/>
<feColorMatrix type="matrix" values="0 0 0 0 0.979145 0 0 0 0 0.99749 0 0 0 0 1 0 0 0 0.65 0"/>
<feBlend mode="normal" in2="effect2_innerShadow_615_2858" result="effect3_innerShadow_615_2858"/>
</filter>
<radialGradient id="paint0_radial_615_2858" cx="0" cy="0" r="1" gradientUnits="userSpaceOnUse" gradientTransform="translate(30.6757 26.5856) rotate(59.144) scale(93.2047)">
<stop stop-color="#FCB7C5"/>
<stop offset="0.378125" stop-color="#E06B82"/>
<stop offset="0.675" stop-color="#C13854"/>
<stop offset="1" stop-color="#96293F"/>
</radialGradient>
</defs>
</svg>
