<svg width="131" height="130" viewBox="0 0 131 130" fill="none" xmlns="http://www.w3.org/2000/svg">
<g filter="url(#filter0_d_733_1519)">
<circle cx="65.5" cy="51" r="45" fill="white"/>
</g>
<rect x="35.5" y="21" width="60" height="60" rx="24" fill="url(#paint0_radial_733_1519)"/>
<g filter="url(#filter1_d_733_1519)">
<path d="M73.7737 59.6693C78.5616 54.8814 78.5616 47.1186 73.7737 42.3307C68.9857 37.5427 61.2229 37.5427 56.435 42.3307C51.647 47.1186 51.647 54.8814 56.435 59.6693C61.2229 64.4573 68.9857 64.4573 73.7737 59.6693Z" fill="white"/>
<path d="M57.774 58.6554C63.6389 62.0415 71.1384 60.032 74.5244 54.1671C76.2044 51.2573 76.5556 47.9452 75.7674 44.9326C77.8459 48.5913 77.9857 53.2239 75.7297 57.1313C72.3436 62.9962 64.8442 65.0057 58.9793 61.6196C56.0242 59.9135 54.0486 57.163 53.248 54.1037C54.2893 55.9365 55.8165 57.5252 57.774 58.6554Z" fill="#E7E9F9"/>
<path d="M61.6855 39.2274C60.3183 39.625 59.0197 40.2602 57.8554 41.1138C52.25 38.7535 48.0946 37.9155 47.3238 39.2505C46.1367 41.3066 53.4248 47.7366 63.6021 53.6126C73.7794 59.4885 82.9921 62.585 84.1791 60.529C84.95 59.1939 82.1465 56.0143 77.2997 52.34C77.4567 50.9048 77.3575 49.4626 77.0182 48.0798C85.557 54.2917 90.5681 60.683 88.7863 63.7695C86.5339 67.6708 74.2824 64.8141 61.4218 57.3891C48.5611 49.964 39.9615 40.7821 42.2138 36.8808C43.9958 33.7944 52.0364 34.9385 61.6855 39.2274Z" fill="#5D62A8"/>
<g filter="url(#filter2_f_733_1519)">
<path d="M60.865 40.0417C59.5545 40.4102 58.3098 40.9988 57.1938 41.7897C51.8208 39.6026 47.8378 38.8261 47.099 40.0631C45.9611 41.9684 52.9469 47.9266 62.7021 53.3714C72.4574 58.8161 81.2879 61.6855 82.4258 59.7803C83.1646 58.5432 80.4774 55.5969 75.8316 52.1921C75.9821 50.8623 75.8871 49.5259 75.5618 48.2445C83.7465 54.0006 88.5498 59.923 86.8418 62.783C84.6829 66.398 72.9395 63.751 60.6122 56.8707C48.285 49.9905 40.042 41.4824 42.2009 37.8673C43.909 35.0075 51.6162 36.0676 60.865 40.0417Z" fill="#7C7C80"/>
</g>
<path d="M61.6855 39.2274C60.3183 39.625 59.0197 40.2602 57.8554 41.1138C52.25 38.7535 48.0946 37.9155 47.3238 39.2505C46.1367 41.3066 53.4248 47.7366 63.6021 53.6126C73.7794 59.4885 82.9921 62.585 84.1791 60.529C84.95 59.1939 82.1465 56.0143 77.2997 52.34C77.4567 50.9048 77.3575 49.4626 77.0182 48.0798C85.557 54.2917 90.5681 60.683 88.7863 63.7695C86.5339 67.6708 74.2824 64.8141 61.4218 57.3891C48.5611 49.964 39.9615 40.7821 42.2138 36.8808C43.9958 33.7944 52.0364 34.9385 61.6855 39.2274Z" fill="#5D62A8"/>
<path d="M81.5104 36.7634C81.9045 36.7634 82.2239 36.444 82.2239 36.0499V35.1345C82.2239 34.7405 81.9045 34.421 81.5104 34.421C81.1163 34.421 80.7969 34.7404 80.7969 35.1345V36.0499C80.7969 36.4439 81.1163 36.7634 81.5104 36.7634Z" fill="white"/>
<path d="M83.3815 38.6333H84.2968C84.6909 38.6333 85.0103 38.3139 85.0103 37.9198C85.0103 37.5257 84.6909 37.2063 84.2968 37.2063H83.3815C82.9874 37.2063 82.668 37.5257 82.668 37.9198C82.668 38.3139 82.9874 38.6333 83.3815 38.6333Z" fill="white"/>
<path d="M81.5104 41.4187C81.9045 41.4187 82.2239 41.0993 82.2239 40.7052V39.7898C82.2239 39.3958 81.9045 39.0763 81.5104 39.0763C81.1163 39.0763 80.7969 39.3957 80.7969 39.7898V40.7052C80.7969 41.0992 81.1163 41.4187 81.5104 41.4187Z" fill="white"/>
<path d="M78.7252 38.6333H79.6406C80.0347 38.6333 80.3541 38.3139 80.3541 37.9198C80.3541 37.5257 80.0347 37.2063 79.6406 37.2063H78.7252C78.3311 37.2063 78.0117 37.5257 78.0117 37.9198C78.0117 38.3139 78.3311 38.6333 78.7252 38.6333Z" fill="white"/>
<path d="M48.6569 58.6091C49.051 58.6091 49.3704 58.2897 49.3704 57.8956V56.9802C49.3704 56.5862 49.051 56.2667 48.6569 56.2667C48.2628 56.2667 47.9434 56.5861 47.9434 56.9802V57.8956C47.9434 58.2896 48.2628 58.6091 48.6569 58.6091Z" fill="white"/>
<path d="M50.528 60.479H51.4433C51.8374 60.479 52.1568 60.1596 52.1568 59.7655C52.1568 59.3714 51.8374 59.052 51.4433 59.052H50.528C50.1339 59.052 49.8145 59.3714 49.8145 59.7655C49.8145 60.1596 50.1339 60.479 50.528 60.479Z" fill="white"/>
<path d="M48.6569 63.2644C49.051 63.2644 49.3704 62.945 49.3704 62.5509V61.6355C49.3704 61.2415 49.051 60.922 48.6569 60.922C48.2628 60.922 47.9434 61.2414 47.9434 61.6355V62.5509C47.9434 62.9449 48.2628 63.2644 48.6569 63.2644Z" fill="white"/>
<path d="M45.8717 60.479H46.7871C47.1812 60.479 47.5006 60.1596 47.5006 59.7655C47.5006 59.3714 47.1812 59.052 46.7871 59.052H45.8717C45.4776 59.052 45.1582 59.3714 45.1582 59.7655C45.1582 60.1596 45.4776 60.479 45.8717 60.479Z" fill="white"/>
</g>
<defs>
<filter id="filter0_d_733_1519" x="0.5" y="0" width="130" height="130" filterUnits="userSpaceOnUse" color-interpolation-filters="sRGB">
<feFlood flood-opacity="0" result="BackgroundImageFix"/>
<feColorMatrix in="SourceAlpha" type="matrix" values="0 0 0 0 0 0 0 0 0 0 0 0 0 0 0 0 0 0 127 0" result="hardAlpha"/>
<feOffset dy="14"/>
<feGaussianBlur stdDeviation="10"/>
<feComposite in2="hardAlpha" operator="out"/>
<feColorMatrix type="matrix" values="0 0 0 0 0 0 0 0 0 0 0 0 0 0 0 0 0 0 0.14 0"/>
<feBlend mode="normal" in2="BackgroundImageFix" result="effect1_dropShadow_733_1519"/>
<feBlend mode="normal" in="SourceGraphic" in2="effect1_dropShadow_733_1519" result="shape"/>
</filter>
<filter id="filter1_d_733_1519" x="35.36" y="34.421" width="60.2801" height="44.0854" filterUnits="userSpaceOnUse" color-interpolation-filters="sRGB">
<feFlood flood-opacity="0" result="BackgroundImageFix"/>
<feColorMatrix in="SourceAlpha" type="matrix" values="0 0 0 0 0 0 0 0 0 0 0 0 0 0 0 0 0 0 127 0" result="hardAlpha"/>
<feOffset dy="6.49551"/>
<feGaussianBlur stdDeviation="3.24776"/>
<feComposite in2="hardAlpha" operator="out"/>
<feColorMatrix type="matrix" values="0 0 0 0 0.364706 0 0 0 0 0.384314 0 0 0 0 0.658824 0 0 0 0.56 0"/>
<feBlend mode="normal" in2="BackgroundImageFix" result="effect1_dropShadow_733_1519"/>
<feBlend mode="normal" in="SourceGraphic" in2="effect1_dropShadow_733_1519" result="shape"/>
</filter>
<filter id="filter2_f_733_1519" x="38.6097" y="33.0021" width="51.8236" height="34.6464" filterUnits="userSpaceOnUse" color-interpolation-filters="sRGB">
<feFlood flood-opacity="0" result="BackgroundImageFix"/>
<feBlend mode="normal" in="SourceGraphic" in2="BackgroundImageFix" result="shape"/>
<feGaussianBlur stdDeviation="1.62388" result="effect1_foregroundBlur_733_1519"/>
</filter>
<radialGradient id="paint0_radial_733_1519" cx="0" cy="0" r="1" gradientUnits="userSpaceOnUse" gradientTransform="translate(52.1667 35.4444) rotate(59.144) scale(50.6398)">
<stop stop-color="#B0B3DE"/>
<stop offset="0.466667" stop-color="#5D62A8"/>
<stop offset="0.796202" stop-color="#3B42A0"/>
<stop offset="1" stop-color="#282C6B"/>
</radialGradient>
</defs>
</svg>
