<svg width="131" height="130" viewBox="0 0 131 130" fill="none" xmlns="http://www.w3.org/2000/svg">
<g filter="url(#filter0_d_733_1568)">
<circle cx="65.5" cy="51" r="45" fill="white"/>
</g>
<rect x="35.5" y="21" width="60" height="60" rx="24" fill="url(#paint0_radial_733_1568)"/>
<path d="M50.0657 35.0437C50.2382 34.7658 50.1527 34.4007 49.8747 34.2283L49.2292 33.8278C48.9513 33.6554 48.5862 33.7408 48.4138 34.0188C48.2413 34.2967 48.3268 34.6617 48.6048 34.8342L49.2503 35.2347C49.5282 35.4071 49.8933 35.3216 50.0657 35.0437Z" fill="white"/>
<path d="M52.2034 34.5432L52.6039 33.8977C52.7764 33.6197 52.6909 33.2547 52.4129 33.0822C52.135 32.9098 51.7699 32.9953 51.5975 33.2732L51.197 33.9188C51.0245 34.1967 51.11 34.5618 51.388 34.7342C51.6659 34.9067 52.031 34.8212 52.2034 34.5432Z" fill="white"/>
<path d="M53.3489 37.0807C53.5214 36.8027 53.4359 36.4377 53.1579 36.2653L52.5124 35.8647C52.2345 35.6923 51.8694 35.7778 51.697 36.0557C51.5245 36.3337 51.61 36.6987 51.888 36.8712L52.5335 37.2717C52.8114 37.4441 53.1765 37.3586 53.3489 37.0807Z" fill="white"/>
<path d="M50.1663 37.8263L50.5668 37.1807C50.7393 36.9028 50.6538 36.5378 50.3758 36.3653C50.0979 36.1929 49.7328 36.2784 49.5604 36.5563L49.1599 37.2019C48.9874 37.4798 49.0729 37.8448 49.3509 38.0173C49.6288 38.1897 49.9938 38.1042 50.1663 37.8263Z" fill="white"/>
<path d="M56.6611 57.682C56.7098 57.6917 56.7586 57.6917 56.8073 57.6917H57.6456V53.1787C57.6456 51.892 58.6495 50.8295 59.9167 50.7516C60.1604 47.8859 62.5777 45.6245 65.502 45.6245C68.4262 45.6245 70.8435 47.8859 71.0872 50.7516C72.3544 50.8295 73.3584 51.892 73.3584 53.1787V57.6917H74.1966C74.2453 57.6917 74.2941 57.6917 74.3429 57.682C77.6375 57.1946 80.123 54.2996 80.123 50.9465C80.123 47.3497 77.3158 44.3963 73.7775 44.1428C73.5728 42.2909 72.7443 40.5656 71.3894 39.2107C69.8103 37.6316 67.7146 36.7738 65.502 36.7738C61.2326 36.7738 57.704 40.0002 57.2264 44.1428C53.6881 44.3963 50.8809 47.3497 50.8809 50.9465C50.8809 54.2996 53.3664 57.1946 56.6611 57.682Z" fill="white"/>
<path d="M65.5017 47.0865C63.2208 47.0865 61.3591 48.9483 61.3591 51.2292V52.2039H60.0822C59.5461 52.2039 59.1074 52.6426 59.1074 53.1787V60.6939C59.1074 61.2397 59.5461 61.6686 60.0822 61.6686H70.9213C71.4574 61.6686 71.896 61.2397 71.896 60.6939V53.1787C71.896 52.6426 71.4574 52.2039 70.9213 52.2039H69.6444V51.2292C69.6444 48.9483 67.7826 47.0865 65.5017 47.0865ZM67.6949 52.2039H63.3085V51.2292C63.3085 50.0205 64.293 49.036 65.5017 49.036C66.7104 49.036 67.6949 50.0205 67.6949 51.2292V52.2039Z" fill="white"/>
<g filter="url(#filter1_d_733_1568)">
<path d="M45.9053 56.7225C55.5801 61.392 72.0064 64.5471 82.7367 63.7883C86.2402 63.5409 91.7742 62.7289 92.4388 59.2649C93.2825 54.8584 85.1752 51.3054 81.002 49.7307C81.304 50.795 81.4975 51.8973 81.5725 53.0235C84.534 54.2475 89.9576 57.0573 89.6347 58.727C89.5008 59.4247 87.5002 60.5905 82.5363 60.9412C72.397 61.6619 56.433 58.6386 47.1453 54.1517C42.6635 51.989 41.2355 50.1661 41.3702 49.4679C41.4513 49.0416 42.2838 48.3621 44.3586 47.8484C46.0769 47.4224 48.3327 47.1873 50.9697 47.1534C51.4562 46.1349 52.0447 45.1819 52.7191 44.3049C49.1004 44.2388 45.9851 44.5051 43.6721 45.078C40.6298 45.8315 38.9125 47.127 38.566 48.93C38.0707 51.5121 40.5402 54.1334 45.9053 56.7225Z" fill="white"/>
</g>
<path d="M64.6829 69.4395C64.8554 69.1615 64.7699 68.7965 64.4919 68.624L63.8464 68.2235C63.5685 68.0511 63.2034 68.1366 63.031 68.4145C62.8585 68.6925 62.944 69.0575 63.222 69.2299L63.8675 69.6305C64.1454 69.8029 64.5105 69.7174 64.6829 69.4395Z" fill="white"/>
<path d="M66.8206 68.939L67.2211 68.2934C67.3936 68.0155 67.3081 67.6504 67.0301 67.478C66.7522 67.3055 66.3871 67.3911 66.2147 67.669L65.8142 68.3145C65.6417 68.5925 65.7272 68.9575 66.0052 69.13C66.2831 69.3024 66.6481 69.2169 66.8206 68.939Z" fill="white"/>
<path d="M67.9661 71.4764C68.1386 71.1985 68.0531 70.8335 67.7751 70.661L67.1296 70.2605C66.8517 70.0881 66.4866 70.1736 66.3142 70.4515C66.1417 70.7294 66.2272 71.0945 66.5052 71.2669L67.1507 71.6674C67.4286 71.8398 67.7937 71.7544 67.9661 71.4764Z" fill="white"/>
<path d="M64.7835 72.222L65.184 71.5765C65.3564 71.2986 65.2709 70.9335 64.993 70.7611C64.7151 70.5886 64.35 70.6741 64.1776 70.9521L63.7771 71.5976C63.6046 71.8756 63.6901 72.2406 63.9681 72.413C64.246 72.5855 64.611 72.5 64.7835 72.222Z" fill="white"/>
<path d="M81.2986 43.2889C81.4018 43.1226 81.3506 42.9041 81.1843 42.8009L80.7979 42.5612C80.6316 42.458 80.4131 42.5092 80.3099 42.6755C80.2067 42.8419 80.2579 43.0603 80.4242 43.1635L80.8106 43.4032C80.9769 43.5064 81.1954 43.4553 81.2986 43.2889Z" fill="white"/>
<path d="M82.5782 42.9894L82.8179 42.6031C82.9211 42.4367 82.87 42.2183 82.7036 42.1151C82.5373 42.0118 82.3188 42.063 82.2156 42.2294L81.9759 42.6157C81.8727 42.7821 81.9239 43.0005 82.0902 43.1037C82.2566 43.2069 82.475 43.1558 82.5782 42.9894Z" fill="white"/>
<path d="M83.2634 44.508C83.3666 44.3417 83.3154 44.1232 83.1491 44.02L82.7628 43.7803C82.5965 43.6771 82.3779 43.7283 82.2747 43.8946C82.1715 44.061 82.2227 44.2794 82.3891 44.3827L82.7754 44.6224C82.9417 44.7255 83.1602 44.6744 83.2634 44.508Z" fill="white"/>
<path d="M81.3595 44.9543L81.5992 44.5679C81.7024 44.4016 81.6512 44.1831 81.4849 44.0799C81.3185 43.9767 81.1001 44.0279 80.9969 44.1942L80.7572 44.5806C80.654 44.7469 80.7051 44.9654 80.8715 45.0686C81.0378 45.1718 81.2563 45.1206 81.3595 44.9543Z" fill="white"/>
<defs>
<filter id="filter0_d_733_1568" x="0.5" y="0" width="130" height="130" filterUnits="userSpaceOnUse" color-interpolation-filters="sRGB">
<feFlood flood-opacity="0" result="BackgroundImageFix"/>
<feColorMatrix in="SourceAlpha" type="matrix" values="0 0 0 0 0 0 0 0 0 0 0 0 0 0 0 0 0 0 127 0" result="hardAlpha"/>
<feOffset dy="14"/>
<feGaussianBlur stdDeviation="10"/>
<feComposite in2="hardAlpha" operator="out"/>
<feColorMatrix type="matrix" values="0 0 0 0 0 0 0 0 0 0 0 0 0 0 0 0 0 0 0.14 0"/>
<feBlend mode="normal" in2="BackgroundImageFix" result="effect1_dropShadow_733_1568"/>
<feBlend mode="normal" in="SourceGraphic" in2="effect1_dropShadow_733_1568" result="shape"/>
</filter>
<filter id="filter1_d_733_1568" x="32.2325" y="39.5915" width="66.5389" height="32.1486" filterUnits="userSpaceOnUse" color-interpolation-filters="sRGB">
<feFlood flood-opacity="0" result="BackgroundImageFix"/>
<feColorMatrix in="SourceAlpha" type="matrix" values="0 0 0 0 0 0 0 0 0 0 0 0 0 0 0 0 0 0 127 0" result="hardAlpha"/>
<feOffset dy="1.56785"/>
<feGaussianBlur stdDeviation="3.13569"/>
<feComposite in2="hardAlpha" operator="out"/>
<feColorMatrix type="matrix" values="0 0 0 0 0.184314 0 0 0 0 0.207843 0 0 0 0 0.501961 0 0 0 1 0"/>
<feBlend mode="normal" in2="BackgroundImageFix" result="effect1_dropShadow_733_1568"/>
<feBlend mode="normal" in="SourceGraphic" in2="effect1_dropShadow_733_1568" result="shape"/>
</filter>
<radialGradient id="paint0_radial_733_1568" cx="0" cy="0" r="1" gradientUnits="userSpaceOnUse" gradientTransform="translate(52.1667 35.4444) rotate(59.144) scale(50.6398)">
<stop stop-color="#B0B3DE"/>
<stop offset="0.466667" stop-color="#5D62A8"/>
<stop offset="0.796202" stop-color="#3B42A0"/>
<stop offset="1" stop-color="#282C6B"/>
</radialGradient>
</defs>
</svg>
