<svg width="131" height="130" viewBox="0 0 131 130" fill="none" xmlns="http://www.w3.org/2000/svg">
<g filter="url(#filter0_d_733_1598)">
<circle cx="65.5" cy="51" r="45" fill="white"/>
</g>
<rect x="35.5" y="21" width="60" height="60" rx="24" fill="url(#paint0_radial_733_1598)"/>
<path d="M69.0931 33.2515C69.2655 32.9735 69.18 32.6085 68.9021 32.436L68.2565 32.0355C67.9787 31.8631 67.6136 31.9486 67.4411 32.2265C67.2687 32.5045 67.3542 32.8695 67.6321 33.0419L68.2777 33.4425C68.5555 33.6149 68.9206 33.5294 69.0931 33.2515Z" fill="white"/>
<path d="M71.2307 32.751L71.6313 32.1054C71.8037 31.8275 71.7182 31.4625 71.4403 31.29C71.1623 31.1176 70.7973 31.2031 70.6248 31.481L70.2243 32.1265C70.0519 32.4045 70.1374 32.7695 70.4153 32.942C70.6933 33.1144 71.0583 33.0289 71.2307 32.751Z" fill="white"/>
<path d="M72.3763 35.2885C72.5487 35.0105 72.4632 34.6455 72.1853 34.473L71.5397 34.0725C71.2619 33.9001 70.8968 33.9856 70.7243 34.2635C70.5519 34.5415 70.6374 34.9065 70.9153 35.0789L71.5609 35.4795C71.8387 35.6519 72.2038 35.5664 72.3763 35.2885Z" fill="white"/>
<path d="M69.1936 36.034L69.5942 35.3885C69.7666 35.1106 69.6811 34.7455 69.4032 34.5731C69.1252 34.4006 68.7602 34.4861 68.5877 34.7641L68.1872 35.4096C68.0148 35.6876 68.1003 36.0526 68.3782 36.2251C68.6562 36.3975 69.0212 36.312 69.1936 36.034Z" fill="white"/>
<g filter="url(#filter1_d_733_1598)">
<path fill-rule="evenodd" clip-rule="evenodd" d="M72.4512 39.4219C75.4857 40.1311 76.6465 41.9184 78.1018 44.3783H72.4512V39.4219ZM54.7173 44.5849C55.3114 44.5849 55.7426 44.8738 55.7426 45.5489C55.7426 46.1183 55.2852 46.5801 54.7202 46.5817H48.5254C47.959 46.5817 47.5 47.0443 47.5 47.6145C47.5 48.185 47.959 48.6473 48.5254 48.6473H57.7539C58.3256 48.6473 58.7833 49.1094 58.7833 49.6802C58.7833 50.2506 58.3243 50.713 57.7579 50.713H48.5254C47.959 50.713 47.5 51.1753 47.5 51.7458C47.5 52.3163 47.959 52.7786 48.5254 52.7786H50.7812V55.8771C50.7812 56.4475 51.2403 56.9099 51.8066 56.9099H53.8678C54.2353 58.7329 55.8345 60.0772 57.7197 60.0772C59.6049 60.0772 61.2042 58.7329 61.5716 56.9099H71.9831C72.3505 58.7329 73.9497 60.0772 75.835 60.0772C77.7202 60.0772 79.3194 58.7329 79.6868 56.9099H81.4746C82.041 56.9099 82.5 56.4475 82.5 55.8771V49.6802C82.5 46.6497 79.3266 46.4486 79.3237 46.444H71.4258C70.8594 46.444 70.4004 45.9816 70.4004 45.4112V39.2142H51.8066C51.2403 39.2142 50.7812 39.6766 50.7812 40.2471V42.5193H49.5508C48.9844 42.5193 48.5254 42.9816 48.5254 43.5521C48.5254 44.1226 48.9844 44.5849 49.5508 44.5849H54.7173ZM77.1642 54.7792C77.8983 55.5185 77.8983 56.7179 77.1642 57.4572C75.9834 58.6466 73.9551 57.8004 73.9551 56.1181C73.9551 54.436 75.9834 53.5898 77.1642 54.7792ZM59.049 54.7792C59.7831 55.5185 59.7831 56.7179 59.049 57.4572C57.8682 58.6466 55.8398 57.8004 55.8398 56.1181C55.8398 54.436 57.8682 53.5898 59.049 54.7792Z" fill="white"/>
</g>
<g filter="url(#filter2_d_733_1598)">
<path d="M82.7922 42.1206C77.3738 51.4695 65.4796 63.3691 56.1181 68.7947C53.0617 70.5666 47.9961 73.0146 45.4874 70.5059C42.2974 67.3137 47.0412 59.7791 49.6265 56.1122C49.9759 57.1688 50.4371 58.1957 51.0104 59.1757C49.2359 61.8665 46.3068 67.2674 47.5182 68.4751C48.0235 68.9804 50.3472 68.8216 54.6777 66.3113C63.5257 61.1876 75.1094 49.6587 80.3087 40.6803C82.819 36.3497 82.9788 34.0261 82.4725 33.5208C82.1644 33.2116 81.0877 33.116 79.0704 33.8596C77.3994 34.4749 75.3887 35.5526 73.1741 37.013C72.1941 36.4397 71.1663 35.9785 70.1097 35.6291C73.0851 33.5313 75.8289 31.9943 78.078 31.1656C81.0361 30.0755 83.1971 30.1846 84.5034 31.49C86.3734 33.36 85.7972 36.9364 82.7922 42.1206Z" fill="white"/>
</g>
<path d="M40.8275 47.4982C40.9999 47.2202 40.9144 46.8552 40.6365 46.6827L39.9909 46.2822C39.713 46.1098 39.3479 46.1953 39.1755 46.4732C39.003 46.7512 39.0885 47.1162 39.3665 47.2887L40.012 47.6892C40.2899 47.8616 40.655 47.7761 40.8275 47.4982Z" fill="white"/>
<path d="M42.9651 46.9977L43.3656 46.3521C43.5381 46.0742 43.4526 45.7092 43.1746 45.5367C42.8967 45.3643 42.5317 45.4498 42.3592 45.7277L41.9587 46.3733C41.7862 46.6512 41.8718 47.0162 42.1497 47.1887C42.4276 47.3611 42.7927 47.2756 42.9651 46.9977Z" fill="white"/>
<path d="M44.1107 49.5352C44.2831 49.2572 44.1976 48.8922 43.9197 48.7197L43.2741 48.3192C42.9962 48.1468 42.6311 48.2323 42.4587 48.5102C42.2862 48.7882 42.3718 49.1532 42.6497 49.3256L43.2952 49.7262C43.5731 49.8986 43.9382 49.8131 44.1107 49.5352Z" fill="white"/>
<path d="M40.928 50.2808L41.3285 49.6352C41.501 49.3573 41.4155 48.9922 41.1375 48.8198C40.8596 48.6473 40.4946 48.7328 40.3221 49.0108L39.9216 49.6563C39.7491 49.9343 39.8346 50.2993 40.1126 50.4718C40.3905 50.6442 40.7556 50.5587 40.928 50.2808Z" fill="white"/>
<defs>
<filter id="filter0_d_733_1598" x="0.5" y="0" width="130" height="130" filterUnits="userSpaceOnUse" color-interpolation-filters="sRGB">
<feFlood flood-opacity="0" result="BackgroundImageFix"/>
<feColorMatrix in="SourceAlpha" type="matrix" values="0 0 0 0 0 0 0 0 0 0 0 0 0 0 0 0 0 0 127 0" result="hardAlpha"/>
<feOffset dy="14"/>
<feGaussianBlur stdDeviation="10"/>
<feComposite in2="hardAlpha" operator="out"/>
<feColorMatrix type="matrix" values="0 0 0 0 0 0 0 0 0 0 0 0 0 0 0 0 0 0 0.14 0"/>
<feBlend mode="normal" in2="BackgroundImageFix" result="effect1_dropShadow_733_1598"/>
<feBlend mode="normal" in="SourceGraphic" in2="effect1_dropShadow_733_1598" result="shape"/>
</filter>
<filter id="filter1_d_733_1598" x="43.5" y="39.2142" width="43" height="28.863" filterUnits="userSpaceOnUse" color-interpolation-filters="sRGB">
<feFlood flood-opacity="0" result="BackgroundImageFix"/>
<feColorMatrix in="SourceAlpha" type="matrix" values="0 0 0 0 0 0 0 0 0 0 0 0 0 0 0 0 0 0 127 0" result="hardAlpha"/>
<feOffset dy="4"/>
<feGaussianBlur stdDeviation="2"/>
<feComposite in2="hardAlpha" operator="out"/>
<feColorMatrix type="matrix" values="0 0 0 0 0.364706 0 0 0 0 0.384314 0 0 0 0 0.658824 0 0 0 0.56 0"/>
<feBlend mode="normal" in2="BackgroundImageFix" result="effect1_dropShadow_733_1598"/>
<feBlend mode="normal" in="SourceGraphic" in2="effect1_dropShadow_733_1598" result="shape"/>
</filter>
<filter id="filter2_d_733_1598" x="38.1505" y="25.7186" width="53.6971" height="53.6985" filterUnits="userSpaceOnUse" color-interpolation-filters="sRGB">
<feFlood flood-opacity="0" result="BackgroundImageFix"/>
<feColorMatrix in="SourceAlpha" type="matrix" values="0 0 0 0 0 0 0 0 0 0 0 0 0 0 0 0 0 0 127 0" result="hardAlpha"/>
<feOffset dy="1.56785"/>
<feGaussianBlur stdDeviation="3.13569"/>
<feComposite in2="hardAlpha" operator="out"/>
<feColorMatrix type="matrix" values="0 0 0 0 0.184314 0 0 0 0 0.207843 0 0 0 0 0.501961 0 0 0 1 0"/>
<feBlend mode="normal" in2="BackgroundImageFix" result="effect1_dropShadow_733_1598"/>
<feBlend mode="normal" in="SourceGraphic" in2="effect1_dropShadow_733_1598" result="shape"/>
</filter>
<radialGradient id="paint0_radial_733_1598" cx="0" cy="0" r="1" gradientUnits="userSpaceOnUse" gradientTransform="translate(52.1667 35.4444) rotate(59.144) scale(50.6398)">
<stop stop-color="#B0B3DE"/>
<stop offset="0.466667" stop-color="#5D62A8"/>
<stop offset="0.796202" stop-color="#3B42A0"/>
<stop offset="1" stop-color="#282C6B"/>
</radialGradient>
</defs>
</svg>
