<svg width="131" height="130" viewBox="0 0 131 130" fill="none" xmlns="http://www.w3.org/2000/svg">
<g filter="url(#filter0_d_733_1620)">
<circle cx="65.5" cy="51" r="45" fill="white"/>
</g>
<rect x="35.5" y="21" width="60" height="60" rx="24" fill="url(#paint0_radial_733_1620)"/>
<path d="M82.47 61.0581C82.6425 60.7802 82.557 60.4151 82.279 60.2427L81.6335 59.8422C81.3556 59.6698 80.9905 59.7552 80.8181 60.0332C80.6456 60.3111 80.7311 60.6761 81.0091 60.8486L81.6546 61.2491C81.9325 61.4215 82.2976 61.336 82.47 61.0581Z" fill="white"/>
<path d="M84.6077 60.5576L85.0082 59.9121C85.1807 59.6341 85.0952 59.2691 84.8172 59.0966C84.5393 58.9242 84.1742 59.0097 84.0018 59.2876L83.6013 59.9332C83.4288 60.2111 83.5143 60.5762 83.7923 60.7486C84.0702 60.9211 84.4353 60.8356 84.6077 60.5576Z" fill="white"/>
<path d="M85.7532 63.0951C85.9257 62.8171 85.8402 62.4521 85.5622 62.2797L84.9167 61.8792C84.6388 61.7067 84.2737 61.7922 84.1013 62.0702C83.9288 62.3481 84.0143 62.7131 84.2923 62.8856L84.9378 63.2861C85.2157 63.4585 85.5808 63.373 85.7532 63.0951Z" fill="white"/>
<path d="M82.5706 63.8407L82.9711 63.1951C83.1436 62.9172 83.0581 62.5522 82.7801 62.3797C82.5022 62.2073 82.1371 62.2928 81.9647 62.5707L81.5642 63.2163C81.3917 63.4942 81.4772 63.8592 81.7552 64.0317C82.0331 64.2041 82.3981 64.1186 82.5706 63.8407Z" fill="white"/>
<path d="M78.5054 35.3588C78.5054 35.0934 78.4 34.839 78.2124 34.6514C78.0248 34.4638 77.7703 34.3584 77.505 34.3584H53.4965C53.2311 34.3584 52.9767 34.4638 52.7891 34.6514C52.6015 34.839 52.4961 35.0934 52.4961 35.3588V51.3645H78.5054V35.3588ZM64.7505 41.8611H66.251C66.8936 41.8568 67.5131 42.1007 67.9802 42.542C68.4474 42.9833 68.7262 43.5879 68.7584 44.2297C68.7907 44.8716 68.5739 45.5011 68.1534 45.987C67.7328 46.4729 67.1409 46.7777 66.5011 46.8378V47.363C66.5011 47.6283 66.3957 47.8828 66.2081 48.0704C66.0205 48.258 65.766 48.3634 65.5007 48.3634C65.2354 48.3634 64.981 48.258 64.7934 48.0704C64.6058 47.8828 64.5004 47.6283 64.5004 47.363V46.8629H63.2499C62.9846 46.8629 62.7302 46.7575 62.5426 46.5699C62.355 46.3823 62.2496 46.1278 62.2496 45.8625C62.2496 45.5972 62.355 45.3427 62.5426 45.1551C62.7302 44.9675 62.9846 44.8621 63.2499 44.8621H66.251C66.3837 44.8621 66.5109 44.8094 66.6047 44.7156C66.6985 44.6218 66.7512 44.4946 66.7512 44.362C66.7512 44.2293 66.6985 44.1021 66.6047 44.0083C66.5109 43.9145 66.3837 43.8618 66.251 43.8618H64.7505C64.1078 43.8661 63.4884 43.6221 63.0212 43.1808C62.5541 42.7395 62.2753 42.1349 62.2431 41.4931C62.2108 40.8513 62.4276 40.2218 62.8481 39.7359C63.2687 39.25 63.8606 38.9452 64.5004 38.885V38.3598C64.5004 38.0945 64.6058 37.8401 64.7934 37.6525C64.981 37.4649 65.2354 37.3595 65.5007 37.3595C65.766 37.3595 66.0205 37.4649 66.2081 37.6525C66.3957 37.8401 66.5011 38.0945 66.5011 38.3598V38.86H67.7515C68.0168 38.86 68.2713 38.9654 68.4589 39.153C68.6465 39.3406 68.7519 39.595 68.7519 39.8604C68.7519 40.1257 68.6465 40.3801 68.4589 40.5677C68.2713 40.7553 68.0168 40.8607 67.7515 40.8607H64.7505C64.6178 40.8607 64.4906 40.9134 64.3968 41.0072C64.303 41.101 64.2503 41.2282 64.2503 41.3609C64.2503 41.4936 64.303 41.6208 64.3968 41.7146C64.4906 41.8084 64.6178 41.8611 64.7505 41.8611Z" fill="white"/>
<path d="M79.5045 53.3651H51.4945C51.2292 53.3651 50.9747 53.4705 50.7871 53.6581C50.5995 53.8457 50.4941 54.1002 50.4941 54.3655V54.5805C50.4952 55.5844 50.8945 56.5469 51.6043 57.2567C52.3142 57.9666 53.2766 58.3658 54.2805 58.3669H76.7185C77.7224 58.3658 78.6848 57.9666 79.3947 57.2567C80.1045 56.5469 80.5038 55.5844 80.5048 54.5805V54.3655C80.5048 54.1002 80.3995 53.8457 80.2118 53.6581C80.0242 53.4705 79.7698 53.3651 79.5045 53.3651Z" fill="white"/>
<g filter="url(#filter1_d_733_1620)">
<path d="M56.1181 68.7947C65.4796 63.3691 77.3738 51.4695 82.7922 42.1206C85.7972 36.9364 86.3734 33.36 84.5034 31.49C83.1971 30.1846 81.0361 30.0755 78.078 31.1656L76.1115 32.145L79.0704 33.8596C81.0877 33.116 82.1644 33.2116 82.4725 33.5208C82.9788 34.0261 82.819 36.3497 80.3087 40.6803C75.1094 49.6587 63.5257 61.1876 54.6777 66.3113C50.3472 68.8216 48.0235 68.9804 47.5182 68.4751C46.3068 67.2674 49.2359 61.8665 51.0104 59.1757C50.4371 58.1957 49.9759 57.1688 49.6265 56.1122C47.0412 59.7791 42.2974 67.3137 45.4874 70.5059C47.9961 73.0146 53.0617 70.5666 56.1181 68.7947Z" fill="white"/>
</g>
<path d="M40.8275 47.4982C40.9999 47.2202 40.9144 46.8552 40.6365 46.6827L39.9909 46.2822C39.713 46.1098 39.3479 46.1953 39.1755 46.4732C39.003 46.7512 39.0885 47.1162 39.3665 47.2887L40.012 47.6892C40.2899 47.8616 40.655 47.7761 40.8275 47.4982Z" fill="white"/>
<path d="M42.9651 46.9977L43.3656 46.3521C43.5381 46.0742 43.4526 45.7092 43.1746 45.5367C42.8967 45.3643 42.5317 45.4498 42.3592 45.7277L41.9587 46.3733C41.7862 46.6512 41.8718 47.0162 42.1497 47.1887C42.4276 47.3611 42.7927 47.2756 42.9651 46.9977Z" fill="white"/>
<path d="M44.1107 49.5352C44.2831 49.2572 44.1976 48.8922 43.9197 48.7197L43.2741 48.3192C42.9962 48.1468 42.6311 48.2323 42.4587 48.5102C42.2862 48.7882 42.3718 49.1532 42.6497 49.3256L43.2952 49.7262C43.5731 49.8986 43.9382 49.8131 44.1107 49.5352Z" fill="white"/>
<path d="M40.928 50.2808L41.3285 49.6352C41.501 49.3573 41.4155 48.9922 41.1375 48.8198C40.8596 48.6473 40.4946 48.7328 40.3221 49.0108L39.9216 49.6563C39.7491 49.9343 39.8346 50.2993 40.1126 50.4718C40.3905 50.6442 40.7556 50.5587 40.928 50.2808Z" fill="white"/>
<defs>
<filter id="filter0_d_733_1620" x="0.5" y="0" width="130" height="130" filterUnits="userSpaceOnUse" color-interpolation-filters="sRGB">
<feFlood flood-opacity="0" result="BackgroundImageFix"/>
<feColorMatrix in="SourceAlpha" type="matrix" values="0 0 0 0 0 0 0 0 0 0 0 0 0 0 0 0 0 0 127 0" result="hardAlpha"/>
<feOffset dy="14"/>
<feGaussianBlur stdDeviation="10"/>
<feComposite in2="hardAlpha" operator="out"/>
<feColorMatrix type="matrix" values="0 0 0 0 0 0 0 0 0 0 0 0 0 0 0 0 0 0 0.14 0"/>
<feBlend mode="normal" in2="BackgroundImageFix" result="effect1_dropShadow_733_1620"/>
<feBlend mode="normal" in="SourceGraphic" in2="effect1_dropShadow_733_1620" result="shape"/>
</filter>
<filter id="filter1_d_733_1620" x="38.1505" y="25.7186" width="53.6971" height="53.6985" filterUnits="userSpaceOnUse" color-interpolation-filters="sRGB">
<feFlood flood-opacity="0" result="BackgroundImageFix"/>
<feColorMatrix in="SourceAlpha" type="matrix" values="0 0 0 0 0 0 0 0 0 0 0 0 0 0 0 0 0 0 127 0" result="hardAlpha"/>
<feOffset dy="1.56785"/>
<feGaussianBlur stdDeviation="3.13569"/>
<feComposite in2="hardAlpha" operator="out"/>
<feColorMatrix type="matrix" values="0 0 0 0 0.184314 0 0 0 0 0.207843 0 0 0 0 0.501961 0 0 0 1 0"/>
<feBlend mode="normal" in2="BackgroundImageFix" result="effect1_dropShadow_733_1620"/>
<feBlend mode="normal" in="SourceGraphic" in2="effect1_dropShadow_733_1620" result="shape"/>
</filter>
<radialGradient id="paint0_radial_733_1620" cx="0" cy="0" r="1" gradientUnits="userSpaceOnUse" gradientTransform="translate(52.1667 35.4444) rotate(59.144) scale(50.6398)">
<stop stop-color="#B0B3DE"/>
<stop offset="0.466667" stop-color="#5D62A8"/>
<stop offset="0.796202" stop-color="#3B42A0"/>
<stop offset="1" stop-color="#282C6B"/>
</radialGradient>
</defs>
</svg>
