<svg width="131" height="130" viewBox="0 0 131 130" fill="none" xmlns="http://www.w3.org/2000/svg">
<g filter="url(#filter0_d_733_1643)">
<circle cx="65.5" cy="51" r="45" fill="white"/>
</g>
<rect x="35.5" y="21" width="60" height="60" rx="24" fill="url(#paint0_radial_733_1643)"/>
<g clip-path="url(#clip0_733_1643)">
<path d="M77.5003 33.4272L64.0464 28.5533C63.8748 28.4915 63.6877 28.4915 63.5161 28.5533L50.0622 33.4272C49.7446 33.5422 49.5312 33.8508 49.5312 34.1975V43.9452C49.5312 56.5621 51.3544 61.1734 63.4226 67.4189C63.5354 67.4776 63.6583 67.507 63.7812 67.507C63.9042 67.507 64.027 67.4776 64.1399 67.4189C76.2081 61.1735 78.0312 56.5622 78.0312 43.9452V34.1975C78.0312 33.8508 77.8179 33.5422 77.5003 33.4272ZM71.6979 50.4445C71.6979 50.8936 71.3438 51.257 70.9062 51.257H66.9479V55.3195C66.9479 55.7686 66.5938 56.132 66.1562 56.132H61.4062C60.9687 56.132 60.6146 55.7686 60.6146 55.3195V51.257H56.6562C56.2187 51.257 55.8646 50.8936 55.8646 50.4445V45.5695C55.8646 45.1203 56.2187 44.7569 56.6562 44.7569H60.6146V40.6945C60.6146 40.2453 60.9687 39.8819 61.4062 39.8819H66.1562C66.5938 39.8819 66.9479 40.2453 66.9479 40.6945V44.7569H70.9062C71.3438 44.7569 71.6979 45.1203 71.6979 45.5695V50.4445Z" fill="white"/>
</g>
<path d="M82.47 61.0581C82.6425 60.7802 82.557 60.4151 82.279 60.2427L81.6335 59.8422C81.3556 59.6698 80.9905 59.7552 80.8181 60.0332C80.6456 60.3111 80.7311 60.6761 81.0091 60.8486L81.6546 61.2491C81.9325 61.4215 82.2976 61.336 82.47 61.0581Z" fill="white"/>
<path d="M84.6077 60.5576L85.0082 59.9121C85.1807 59.6341 85.0952 59.2691 84.8172 59.0966C84.5393 58.9242 84.1742 59.0097 84.0018 59.2876L83.6013 59.9332C83.4288 60.2111 83.5143 60.5762 83.7923 60.7486C84.0702 60.9211 84.4353 60.8356 84.6077 60.5576Z" fill="white"/>
<path d="M85.7532 63.0951C85.9257 62.8171 85.8402 62.4521 85.5622 62.2797L84.9167 61.8792C84.6388 61.7067 84.2737 61.7922 84.1013 62.0702C83.9288 62.3481 84.0143 62.7131 84.2923 62.8856L84.9378 63.2861C85.2157 63.4585 85.5808 63.373 85.7532 63.0951Z" fill="white"/>
<path d="M82.5706 63.8407L82.9711 63.1951C83.1436 62.9172 83.0581 62.5522 82.7801 62.3797C82.5022 62.2073 82.1371 62.2928 81.9647 62.5707L81.5642 63.2163C81.3917 63.4942 81.4772 63.8592 81.7552 64.0317C82.0331 64.2041 82.3981 64.1186 82.5706 63.8407Z" fill="white"/>
<g filter="url(#filter1_d_733_1643)">
<path d="M56.1181 68.7947C65.4796 63.3691 77.3738 51.4695 82.7922 42.1206C85.7972 36.9364 86.3734 33.36 84.5034 31.49C83.1971 30.1846 81.0361 30.0755 78.078 31.1656L76.1115 32.145L79.0704 32.6551V33.8596C81.0877 33.116 82.1644 33.2116 82.4725 33.5208C82.9788 34.0261 82.819 36.3497 80.3087 40.6803C75.1094 49.6587 63.5257 61.1876 54.6777 66.3113C50.3472 68.8216 48.0235 68.9804 47.5182 68.4751C46.3068 67.2674 49.2359 61.8665 51.0104 59.1757C50.4371 58.1957 49.9759 57.1688 49.6265 56.1122C47.0412 59.7791 42.2974 67.3137 45.4874 70.5059C47.9961 73.0146 53.0617 70.5666 56.1181 68.7947Z" fill="white"/>
</g>
<path d="M40.8275 47.4982C40.9999 47.2202 40.9144 46.8552 40.6365 46.6827L39.9909 46.2822C39.713 46.1098 39.3479 46.1953 39.1755 46.4732C39.003 46.7512 39.0885 47.1162 39.3665 47.2887L40.012 47.6892C40.2899 47.8616 40.655 47.7761 40.8275 47.4982Z" fill="white"/>
<path d="M42.9651 46.9977L43.3656 46.3521C43.5381 46.0742 43.4526 45.7092 43.1746 45.5367C42.8967 45.3643 42.5317 45.4498 42.3592 45.7277L41.9587 46.3733C41.7862 46.6512 41.8718 47.0162 42.1497 47.1887C42.4276 47.3611 42.7927 47.2756 42.9651 46.9977Z" fill="white"/>
<path d="M44.1107 49.5352C44.2831 49.2572 44.1976 48.8922 43.9197 48.7197L43.2741 48.3192C42.9962 48.1468 42.6311 48.2323 42.4587 48.5102C42.2862 48.7882 42.3718 49.1532 42.6497 49.3256L43.2952 49.7262C43.5731 49.8986 43.9382 49.8131 44.1107 49.5352Z" fill="white"/>
<path d="M40.928 50.2808L41.3285 49.6352C41.501 49.3573 41.4155 48.9922 41.1375 48.8198C40.8596 48.6473 40.4946 48.7328 40.3221 49.0108L39.9216 49.6563C39.7491 49.9343 39.8346 50.2993 40.1126 50.4718C40.3905 50.6442 40.7556 50.5587 40.928 50.2808Z" fill="white"/>
<defs>
<filter id="filter0_d_733_1643" x="0.5" y="0" width="130" height="130" filterUnits="userSpaceOnUse" color-interpolation-filters="sRGB">
<feFlood flood-opacity="0" result="BackgroundImageFix"/>
<feColorMatrix in="SourceAlpha" type="matrix" values="0 0 0 0 0 0 0 0 0 0 0 0 0 0 0 0 0 0 127 0" result="hardAlpha"/>
<feOffset dy="14"/>
<feGaussianBlur stdDeviation="10"/>
<feComposite in2="hardAlpha" operator="out"/>
<feColorMatrix type="matrix" values="0 0 0 0 0 0 0 0 0 0 0 0 0 0 0 0 0 0 0.14 0"/>
<feBlend mode="normal" in2="BackgroundImageFix" result="effect1_dropShadow_733_1643"/>
<feBlend mode="normal" in="SourceGraphic" in2="effect1_dropShadow_733_1643" result="shape"/>
</filter>
<filter id="filter1_d_733_1643" x="38.1505" y="25.7186" width="53.6971" height="53.6985" filterUnits="userSpaceOnUse" color-interpolation-filters="sRGB">
<feFlood flood-opacity="0" result="BackgroundImageFix"/>
<feColorMatrix in="SourceAlpha" type="matrix" values="0 0 0 0 0 0 0 0 0 0 0 0 0 0 0 0 0 0 127 0" result="hardAlpha"/>
<feOffset dy="1.56785"/>
<feGaussianBlur stdDeviation="3.13569"/>
<feComposite in2="hardAlpha" operator="out"/>
<feColorMatrix type="matrix" values="0 0 0 0 0.184314 0 0 0 0 0.207843 0 0 0 0 0.501961 0 0 0 1 0"/>
<feBlend mode="normal" in2="BackgroundImageFix" result="effect1_dropShadow_733_1643"/>
<feBlend mode="normal" in="SourceGraphic" in2="effect1_dropShadow_733_1643" result="shape"/>
</filter>
<radialGradient id="paint0_radial_733_1643" cx="0" cy="0" r="1" gradientUnits="userSpaceOnUse" gradientTransform="translate(52.1667 35.4444) rotate(59.144) scale(50.6398)">
<stop stop-color="#B0B3DE"/>
<stop offset="0.466667" stop-color="#5D62A8"/>
<stop offset="0.796202" stop-color="#3B42A0"/>
<stop offset="1" stop-color="#282C6B"/>
</radialGradient>
<clipPath id="clip0_733_1643">
<rect width="38" height="39" fill="white" transform="translate(44.7812 28.507)"/>
</clipPath>
</defs>
</svg>
