<svg width="379" height="123" viewBox="0 0 379 123" fill="none" xmlns="http://www.w3.org/2000/svg">
<path d="M183.469 51.2568C183.469 52.1019 183.365 52.9471 183.083 53.7477C182.348 55.8382 180.105 57.2319 178.344 58.3958C176.294 59.745 174.066 60.8199 171.726 61.5761C167.329 62.992 162.575 63.2292 158.066 62.2359C156.053 61.7911 154.092 61.1091 152.243 60.1972C142.193 55.2378 136.57 44.6961 137.81 33.2204C138.947 22.7306 147.013 13.4566 157.516 10.9658C166.601 8.80851 174.638 11.0696 181.442 17.482C183.202 19.1352 183.469 21.4704 182.221 23.168C181.085 24.7174 178.716 25.0435 176.643 23.8723C175.952 23.4794 175.336 22.9604 174.697 22.4786C166.214 16.0883 155.295 17.482 149.613 25.8294C142.601 36.1264 147.296 51.0641 159.581 54.0368C164.677 55.2674 169.602 54.5557 174.073 51.5904C174.979 50.99 175.366 50.2783 175.366 49.1218C175.366 47.4612 175.351 46.2529 175.351 44.4811C175.351 43.636 175.054 43.3321 174.222 43.3469C172.276 43.384 167.173 43.3395 166.586 43.2505C164.543 42.9392 163.058 41.3824 163.05 39.5958C163.043 37.6239 164.573 35.7557 166.667 35.6964C171.013 35.563 175.358 35.5556 179.703 35.7038C181.909 35.778 183.506 37.5497 183.506 39.7959C183.506 42.7612 183.469 46.8089 183.469 51.2568Z" fill="#5D62A8"/>
<path d="M284.161 58.4321C279.838 62.1535 274.943 63.3693 269.618 62.6206C259.805 61.2491 252.935 52.2198 253.841 42.0933C254.658 33.0194 261.67 25.7915 270.687 24.724C279.935 23.6343 288.581 28.994 291.381 37.712C292.013 39.6765 292.325 41.8042 292.392 43.8725C292.54 48.3056 292.443 52.7461 292.429 57.1867C292.429 57.8316 292.384 58.4914 292.236 59.1141C291.827 60.8859 290.49 62.0646 288.826 62.198C286.85 62.3611 285.432 61.516 284.659 59.722C284.511 59.3662 284.384 59.0029 284.161 58.4321ZM273.302 54.4956C279.341 54.466 284.139 49.6326 284.117 43.6204C284.087 37.5934 279.259 32.797 273.235 32.797C267.137 32.8045 262.234 37.6676 262.242 43.7019C262.242 49.7289 267.166 54.5327 273.302 54.4956Z" fill="#5D62A8"/>
<path d="M220.512 58.4182C216.204 62.1619 211.309 63.3702 205.983 62.6437C196.423 61.3316 189.597 52.7396 190.132 42.8874C190.704 32.4273 199.38 24.3023 209.682 24.5915C220.438 24.888 228.623 33.1019 228.705 43.7251C228.742 48.5141 228.757 53.303 228.683 58.092C228.638 61.0499 226.232 62.8809 223.528 62.1248C221.797 61.6207 221.062 60.2196 220.512 58.4182ZM198.592 43.6658C198.578 49.7224 203.443 54.5188 209.586 54.504C215.639 54.4891 220.453 49.6853 220.423 43.6658C220.401 37.5943 215.639 32.8128 209.6 32.8054C203.48 32.7979 198.607 37.6091 198.592 43.6658Z" fill="#5D62A8"/>
<path d="M235.383 15.9175C235.383 15.2577 235.39 14.5979 235.472 13.9456C235.732 11.8699 237.306 10.365 239.371 10.1722C241.362 9.9869 243.33 11.2546 243.88 13.2043C244.11 14.0197 244.162 14.9019 244.162 15.7544C244.177 25.7846 244.17 47.4757 244.229 48.2838C244.474 51.768 246.309 53.7474 249.704 54.2218C252.808 54.6592 254.376 56.9202 253.551 59.804C252.979 61.8204 251.397 62.5691 249.577 62.7397C242.714 63.392 236.103 60.2636 235.568 51.1824C235.204 45.0664 235.375 21.5442 235.383 15.9175Z" fill="#5D62A8"/>
<path d="M374.359 25.1174C371.937 25.1174 370.132 26.6742 369.924 29.0612C369.865 29.6543 369.954 40.3294 369.894 44.9182C369.828 49.6479 367.688 53.0061 364.026 54.3108C357.512 56.6237 351.302 52.3759 351.184 45.4001C351.087 40.2553 351.139 34.8213 351.109 29.6914C351.102 26.9781 349.334 25.1322 346.809 25.1174C344.239 25.0951 342.374 26.9929 342.352 29.721C342.33 34.8139 342.322 40.1959 342.411 45.2814C342.538 52.9023 347.67 60.1302 355.12 62.1911C360.357 63.6441 366.114 62.5988 370.585 59.7151C370.585 59.7151 371.41 68.2551 362.385 70.6941C355.143 72.6512 350.01 66.4463 349.765 66.1424C348.339 64.3261 345.702 64.0073 343.875 65.4159C342.04 66.8318 341.706 69.4709 343.124 71.2946C350.017 80.146 363.722 82.1328 372.427 74.7566C376.58 71.2353 379.001 66.298 379.001 60.8715L378.964 29.6172C378.956 27.8751 377.612 25.1174 374.359 25.1174Z" fill="#5D62A8"/>
<path d="M334.396 55.3194C336.075 57.0615 336.053 59.8489 334.359 61.5613C333.52 62.4139 332.413 62.8364 331.321 62.8364C330.207 62.8364 329.1 62.399 328.253 61.5317L317.357 50.2561L306.46 61.5317C305.621 62.399 304.507 62.8364 303.385 62.8364C302.293 62.8364 301.194 62.4139 300.354 61.5613C298.661 59.8489 298.646 57.0615 300.317 55.3194L311.288 43.9771L300.317 32.62C298.638 30.8927 298.661 28.0979 300.354 26.3854C301.194 25.5329 302.293 25.1104 303.385 25.1104C304.507 25.1104 305.613 25.5477 306.46 26.4151L317.357 37.6907L328.253 26.4151C329.093 25.5477 330.207 25.1104 331.321 25.1104C332.413 25.1104 333.52 25.5329 334.359 26.3854C336.053 28.0979 336.068 30.8853 334.396 32.62L323.425 43.9771L334.396 55.3194Z" fill="#5D62A8"/>
<path d="M139.585 102.409C139.31 102.409 139.058 102.357 138.82 102.253C138.59 102.15 138.382 102.016 138.211 101.846C138.04 101.675 137.899 101.475 137.795 101.245C137.691 101.008 137.639 100.756 137.639 100.482V81.3331C137.639 81.0588 137.691 80.7994 137.795 80.5696C137.899 80.3397 138.033 80.1322 138.211 79.9617C138.382 79.7912 138.59 79.6503 138.82 79.5539C139.051 79.4576 139.31 79.4131 139.585 79.4131H139.66H145.906C146.961 79.4131 147.986 79.5539 148.974 79.8282C149.962 80.1025 150.891 80.4954 151.752 80.9995C152.614 81.5036 153.409 82.1041 154.129 82.8158C154.85 83.52 155.466 84.2984 155.986 85.1509C156.499 86.0035 156.9 86.9153 157.182 87.9013C157.464 88.8798 157.605 89.9028 157.605 90.9555C157.605 92.5346 157.293 94.0246 156.669 95.4109C156.045 96.7972 155.199 98.013 154.129 99.0582C153.059 100.103 151.819 100.919 150.4 101.519C148.982 102.12 147.481 102.416 145.899 102.416H139.6H139.585V102.409ZM141.546 83.3125V98.5096H145.996C147.05 98.5096 148.046 98.3021 148.982 97.8869C149.918 97.4718 150.735 96.9232 151.44 96.2338C152.138 95.5443 152.696 94.7437 153.097 93.8319C153.498 92.92 153.698 91.9711 153.698 90.9778C153.698 89.9696 153.498 89.0058 153.097 88.0866C152.696 87.1674 152.146 86.3519 151.44 85.6402C150.735 84.936 149.918 84.3651 148.982 83.9426C148.046 83.52 147.05 83.305 145.996 83.305H141.546V83.3125Z" fill="#005E85"/>
<path d="M160.398 81.7334C160.398 81.4369 160.457 81.1552 160.569 80.8883C160.68 80.6214 160.836 80.399 161.029 80.2063C161.222 80.0136 161.453 79.8653 161.713 79.7467C161.98 79.6355 162.255 79.5762 162.537 79.5762C162.819 79.5762 163.102 79.6355 163.362 79.7467C163.622 79.8579 163.859 80.0136 164.052 80.2063C164.253 80.399 164.409 80.6289 164.52 80.8883C164.632 81.1552 164.691 81.4295 164.691 81.7334C164.691 82.0225 164.632 82.2894 164.52 82.5489C164.409 82.8084 164.253 83.0307 164.052 83.2235C163.852 83.4162 163.622 83.5645 163.362 83.6831C163.094 83.7943 162.819 83.8536 162.537 83.8536C162.255 83.8536 161.973 83.7943 161.713 83.6831C161.445 83.5719 161.222 83.4162 161.029 83.2235C160.836 83.0307 160.688 82.8084 160.569 82.5489C160.457 82.2894 160.398 82.0151 160.398 81.7334ZM164.505 100.467C164.505 100.741 164.453 100.993 164.349 101.23C164.245 101.46 164.112 101.668 163.933 101.838C163.763 102.009 163.555 102.15 163.31 102.253C163.072 102.357 162.819 102.409 162.552 102.409C162.285 102.409 162.039 102.357 161.794 102.253C161.557 102.15 161.341 102.016 161.163 101.838C160.985 101.668 160.843 101.46 160.74 101.23C160.636 100.993 160.584 100.741 160.584 100.467V87.6418C160.584 87.3749 160.636 87.1303 160.747 86.8931C160.858 86.6558 160.999 86.4557 161.178 86.2703C161.356 86.0924 161.564 85.9516 161.809 85.8478C162.047 85.744 162.307 85.6921 162.582 85.6921C162.842 85.6921 163.094 85.744 163.332 85.8478C163.562 85.9516 163.77 86.0924 163.941 86.2703C164.112 86.4483 164.253 86.6558 164.349 86.8931C164.446 87.1229 164.491 87.3749 164.491 87.6418V100.467H164.505Z" fill="#005E85"/>
<path d="M187.451 81.7334C187.451 81.4369 187.511 81.1552 187.622 80.8883C187.733 80.6214 187.889 80.399 188.083 80.2063C188.276 80.0136 188.506 79.8653 188.766 79.7467C189.033 79.6355 189.308 79.5762 189.59 79.5762C189.873 79.5762 190.155 79.6355 190.415 79.7467C190.675 79.8579 190.913 80.0136 191.106 80.2063C191.306 80.399 191.462 80.6289 191.574 80.8883C191.685 81.1552 191.744 81.4295 191.744 81.7334C191.744 82.0225 191.685 82.2894 191.574 82.5489C191.462 82.8084 191.306 83.0307 191.106 83.2235C190.905 83.4162 190.675 83.5645 190.415 83.6831C190.147 83.7943 189.873 83.8536 189.59 83.8536C189.308 83.8536 189.026 83.7943 188.766 83.6831C188.499 83.5719 188.276 83.4162 188.083 83.2235C187.889 83.0307 187.741 82.8084 187.622 82.5489C187.511 82.2894 187.451 82.0151 187.451 81.7334ZM191.551 100.467C191.551 100.741 191.499 100.993 191.395 101.23C191.291 101.46 191.158 101.668 190.979 101.838C190.809 102.009 190.601 102.15 190.355 102.253C190.118 102.357 189.865 102.409 189.598 102.409C189.33 102.409 189.085 102.357 188.84 102.253C188.602 102.15 188.387 102.016 188.209 101.838C188.031 101.668 187.889 101.46 187.785 101.23C187.681 100.993 187.629 100.741 187.629 100.467V87.6418C187.629 87.3749 187.681 87.1303 187.793 86.8931C187.904 86.6632 188.045 86.4557 188.224 86.2703C188.402 86.0924 188.61 85.9516 188.855 85.8478C189.093 85.744 189.353 85.6921 189.628 85.6921C189.888 85.6921 190.14 85.744 190.378 85.8478C190.608 85.9516 190.816 86.0924 190.987 86.2703C191.158 86.4483 191.299 86.6558 191.395 86.8931C191.492 87.1229 191.536 87.3749 191.536 87.6418V100.467H191.551Z" fill="#005E85"/>
<path d="M198.451 85.4843H204.713C204.973 85.4843 205.225 85.5362 205.47 85.6474C205.708 85.7586 205.923 85.8994 206.102 86.0773C206.28 86.2553 206.428 86.4703 206.532 86.7075C206.644 86.9447 206.696 87.1968 206.696 87.4636C206.696 87.7305 206.644 87.9751 206.54 88.2124C206.436 88.4422 206.295 88.6498 206.116 88.8203C205.938 88.9908 205.723 89.1316 205.485 89.2354C205.247 89.3392 204.987 89.3911 204.713 89.3911H198.451V93.9354C198.451 94.5729 198.577 95.166 198.822 95.722C199.067 96.278 199.402 96.7673 199.818 97.175C200.241 97.5901 200.731 97.9163 201.303 98.1536C201.875 98.3908 202.484 98.5094 203.13 98.5094C203.702 98.5094 204.237 98.4278 204.735 98.2647C205.225 98.1017 205.686 97.8348 206.102 97.4641C206.235 97.3455 206.362 97.2417 206.488 97.1528C206.614 97.0638 206.763 96.9897 206.926 96.9304C207.223 96.8192 207.535 96.7895 207.862 96.834C208.189 96.8785 208.493 97.0267 208.783 97.2936C208.998 97.5012 209.154 97.731 209.244 97.983C209.333 98.2425 209.37 98.5094 209.355 98.7911C209.34 99.0728 209.266 99.3471 209.147 99.6065C209.028 99.8734 208.857 100.103 208.642 100.311C207.921 101.008 207.097 101.527 206.161 101.882C205.225 102.238 204.215 102.409 203.138 102.409C201.949 102.409 200.835 102.186 199.795 101.742C198.755 101.297 197.849 100.696 197.069 99.9253C196.289 99.1618 195.673 98.2573 195.227 97.2195C194.774 96.1816 194.551 95.0696 194.551 93.8835V82.3485C194.551 82.0742 194.603 81.8147 194.707 81.5775C194.811 81.3403 194.952 81.1253 195.131 80.9474C195.309 80.7695 195.517 80.6286 195.762 80.5248C196 80.421 196.26 80.3691 196.534 80.3691C196.794 80.3691 197.047 80.421 197.285 80.5248C197.522 80.6286 197.723 80.7695 197.894 80.9474C198.065 81.1253 198.206 81.3403 198.31 81.5775C198.414 81.8147 198.466 82.0742 198.466 82.3485V85.4843H198.451Z" fill="#005E85"/>
<path d="M211.792 93.8393C211.792 92.6531 212.022 91.5411 212.475 90.5033C212.928 89.4654 213.552 88.561 214.332 87.7826C215.112 87.0042 216.018 86.3889 217.058 85.9441C218.098 85.4919 219.205 85.2695 220.378 85.2695C221.567 85.2695 222.681 85.4919 223.721 85.9441C224.761 86.3963 225.667 87.0042 226.44 87.7826C227.212 88.561 227.829 89.4654 228.274 90.5033C228.72 91.5411 228.95 92.6531 228.95 93.8393V100.2C228.95 100.474 228.898 100.734 228.794 100.971C228.69 101.208 228.549 101.423 228.371 101.601C228.193 101.779 227.977 101.927 227.732 102.031C227.487 102.142 227.227 102.194 226.952 102.194C226.484 102.194 226.09 102.053 225.764 101.779C225.437 101.505 225.221 101.156 225.117 100.734C224.434 101.245 223.691 101.653 222.896 101.957C222.102 102.253 221.262 102.409 220.386 102.409C219.212 102.409 218.105 102.187 217.066 101.734C216.026 101.282 215.119 100.674 214.34 99.8959C213.56 99.1175 212.943 98.2057 212.483 97.1678C212.022 96.1225 211.792 95.018 211.792 93.8393ZM215.699 93.8393C215.699 94.4768 215.825 95.0773 216.07 95.6481C216.315 96.2189 216.65 96.7156 217.08 97.1382C217.504 97.5607 218.001 97.9017 218.566 98.1464C219.13 98.391 219.74 98.517 220.386 98.517C221.032 98.517 221.641 98.391 222.213 98.1464C222.785 97.9017 223.275 97.5681 223.699 97.1382C224.122 96.7156 224.449 96.2189 224.687 95.6481C224.924 95.0773 225.043 94.4768 225.043 93.8393C225.043 93.1943 224.924 92.5864 224.687 92.0156C224.449 91.4448 224.115 90.9555 223.699 90.5329C223.275 90.1104 222.785 89.7842 222.213 89.5322C221.641 89.2875 221.032 89.1615 220.386 89.1615C219.747 89.1615 219.145 89.2875 218.573 89.5322C218.001 89.7768 217.504 90.1104 217.08 90.5329C216.657 90.9555 216.315 91.4448 216.07 92.0156C215.825 92.5864 215.699 93.1943 215.699 93.8393Z" fill="#005E85"/>
<path d="M238.056 98.5092C238.331 98.5092 238.584 98.5611 238.821 98.6723C239.059 98.7835 239.26 98.9244 239.43 99.1097C239.601 99.2951 239.742 99.51 239.839 99.7473C239.936 99.9845 239.98 100.237 239.98 100.503C239.98 101.052 239.802 101.512 239.438 101.867C239.074 102.223 238.613 102.409 238.049 102.409C237.232 102.409 236.467 102.268 235.754 101.993C235.041 101.719 234.409 101.334 233.874 100.844C233.332 100.355 232.909 99.7621 232.589 99.0652C232.27 98.3684 232.107 97.6048 232.092 96.7671V96.6411V81.2067C232.092 80.9324 232.136 80.6729 232.233 80.4357C232.329 80.1985 232.463 79.9909 232.641 79.813C232.82 79.6351 233.02 79.5017 233.243 79.3979C233.473 79.2941 233.718 79.2422 233.978 79.2422C234.246 79.2422 234.498 79.2941 234.743 79.3979C234.989 79.5017 235.204 79.6351 235.39 79.813C235.575 79.9835 235.724 80.1911 235.828 80.4357C235.939 80.6729 235.991 80.9324 235.991 81.2067V96.6411C235.991 97.2638 236.184 97.7309 236.571 98.0422C236.964 98.3536 237.455 98.5092 238.056 98.5092Z" fill="#005E85"/>
<path d="M184.65 93.8383C184.65 92.6522 184.427 91.5402 183.974 90.5023C183.521 89.4645 182.912 88.56 182.139 87.7816C181.367 87.0033 180.46 86.388 179.42 85.9432C178.381 85.4909 177.266 85.2686 176.078 85.2686C174.904 85.2686 173.798 85.4909 172.758 85.9432C171.718 86.3954 170.812 87.0033 170.032 87.7816C169.252 88.56 168.635 89.4645 168.175 90.5023C167.722 91.5402 167.491 92.6522 167.491 93.8383C167.491 95.0096 167.722 96.1216 168.175 97.1594C168.628 98.2047 169.252 99.1091 170.032 99.8801C170.812 100.651 171.718 101.266 172.758 101.711C173.798 102.163 174.904 102.386 176.078 102.386C176.858 102.386 177.608 102.289 178.321 102.097C179.034 101.904 179.703 101.63 180.327 101.274C180.327 101.274 180.327 101.274 180.327 101.281C180.468 101.192 180.609 101.096 180.72 100.999C180.72 100.999 181.107 104.758 176.895 105.833C173.515 106.693 171.116 103.965 171.005 103.831C170.336 103.031 169.111 102.89 168.256 103.513C167.402 104.135 167.239 105.299 167.907 106.1C171.124 109.999 177.526 110.874 181.589 107.627C183.528 106.078 184.657 103.905 184.657 101.511C184.657 101.511 184.65 93.8531 184.65 93.8383ZM180.386 95.6397C180.148 96.2031 179.814 96.6924 179.398 97.1149C178.975 97.5375 178.485 97.8637 177.913 98.1083C177.341 98.353 176.732 98.479 176.085 98.479C175.439 98.479 174.83 98.353 174.265 98.1083C173.701 97.8637 173.203 97.5301 172.78 97.1149C172.357 96.6924 172.015 96.2031 171.77 95.6397C171.525 95.0763 171.398 94.4758 171.398 93.8457C171.398 93.2007 171.525 92.5929 171.77 92.022C172.015 91.4512 172.349 90.9619 172.78 90.5394C173.203 90.1168 173.701 89.7906 174.273 89.5386C174.845 89.294 175.447 89.1679 176.085 89.1679C176.732 89.1679 177.341 89.294 177.913 89.5386C178.485 89.7832 178.975 90.1168 179.398 90.5394C179.822 90.9619 180.148 91.4512 180.386 92.022C180.624 92.5854 180.743 93.1933 180.743 93.8383C180.743 93.8457 180.743 93.8457 180.743 93.8531C180.743 94.4758 180.624 95.0763 180.386 95.6397Z" fill="#005E85"/>
<path d="M254.019 88.99H266.186V81.3396C266.186 81.0727 266.238 80.828 266.349 80.5834C266.461 80.3462 266.602 80.1386 266.78 79.9755C266.958 79.805 267.174 79.6716 267.412 79.5678C267.649 79.464 267.909 79.4121 268.184 79.4121C268.444 79.4121 268.697 79.464 268.934 79.5678C269.172 79.6716 269.373 79.805 269.543 79.9755C269.714 80.146 269.855 80.3462 269.952 80.5834C270.048 80.8206 270.093 81.0727 270.093 81.3396V100.488C270.093 100.762 270.041 101.014 269.937 101.252C269.833 101.481 269.699 101.689 269.521 101.852C269.35 102.023 269.142 102.156 268.897 102.26C268.659 102.364 268.407 102.415 268.14 102.415C267.865 102.415 267.612 102.364 267.374 102.26C267.144 102.156 266.936 102.023 266.751 101.852C266.572 101.682 266.431 101.481 266.327 101.252C266.223 101.014 266.171 100.762 266.171 100.488V92.9042H254.004V100.488C254.004 100.762 253.952 101.014 253.848 101.252C253.744 101.481 253.603 101.689 253.425 101.852C253.247 102.023 253.031 102.156 252.794 102.26C252.556 102.364 252.303 102.415 252.036 102.415C251.761 102.415 251.509 102.364 251.271 102.26C251.041 102.156 250.833 102.023 250.662 101.852C250.491 101.682 250.35 101.481 250.246 101.252C250.142 101.014 250.09 100.762 250.09 100.488V81.3396C250.09 81.0727 250.142 80.828 250.246 80.5834C250.35 80.3462 250.483 80.1386 250.662 79.9755C250.833 79.805 251.041 79.6716 251.271 79.5678C251.501 79.464 251.761 79.4121 252.036 79.4121C252.303 79.4121 252.548 79.464 252.794 79.5678C253.031 79.6716 253.247 79.805 253.425 79.9755C253.603 80.146 253.744 80.3462 253.848 80.5834C253.952 80.8206 254.004 81.0727 254.004 81.3396V88.99H254.019Z" fill="#005E85"/>
<path d="M272.73 93.8393C272.73 92.6531 272.96 91.5411 273.414 90.5033C273.867 89.4654 274.491 88.561 275.271 87.7826C276.05 87.0042 276.957 86.3889 277.997 85.9441C279.036 85.4919 280.143 85.2695 281.317 85.2695C282.505 85.2695 283.619 85.4919 284.659 85.9441C285.699 86.3963 286.606 87.0042 287.378 87.7826C288.15 88.561 288.767 89.4654 289.213 90.5033C289.658 91.5411 289.889 92.6531 289.889 93.8393C289.889 95.0106 289.666 96.1225 289.213 97.1604C288.76 98.2057 288.15 99.1101 287.378 99.8885C286.606 100.667 285.699 101.282 284.659 101.727C283.619 102.179 282.505 102.402 281.317 102.402C280.143 102.402 279.036 102.179 277.997 101.727C276.957 101.275 276.05 100.667 275.271 99.8885C274.491 99.1101 273.874 98.1982 273.414 97.1604C272.953 96.1225 272.73 95.018 272.73 93.8393ZM276.637 93.8393C276.637 94.4768 276.764 95.0773 277.009 95.6481C277.254 96.2189 277.588 96.7156 278.019 97.1382C278.442 97.5607 278.94 97.9017 279.504 98.1464C280.069 98.391 280.678 98.517 281.324 98.517C281.97 98.517 282.58 98.391 283.152 98.1464C283.723 97.9017 284.214 97.5681 284.637 97.1382C285.061 96.7156 285.387 96.2189 285.625 95.6481C285.863 95.0773 285.982 94.4768 285.982 93.8393C285.982 93.1943 285.863 92.5864 285.625 92.0156C285.387 91.4448 285.053 90.9555 284.637 90.5329C284.214 90.1104 283.723 89.7842 283.152 89.5322C282.58 89.2875 281.97 89.1615 281.324 89.1615C280.685 89.1615 280.084 89.2875 279.512 89.5322C278.94 89.7768 278.442 90.1104 278.019 90.5329C277.595 90.9555 277.254 91.4448 277.009 92.0156C276.756 92.5864 276.637 93.1943 276.637 93.8393Z" fill="#005E85"/>
<path d="M298.385 98.5092C298.66 98.5092 298.913 98.5611 299.15 98.6723C299.388 98.7835 299.589 98.9244 299.759 99.1097C299.93 99.2951 300.071 99.51 300.168 99.7473C300.265 99.9845 300.309 100.237 300.309 100.503C300.309 101.052 300.131 101.512 299.767 101.867C299.403 102.223 298.942 102.409 298.378 102.409C297.561 102.409 296.796 102.268 296.083 101.993C295.37 101.719 294.738 101.334 294.203 100.844C293.661 100.355 293.238 99.7621 292.918 99.0652C292.599 98.3684 292.436 97.6048 292.421 96.7671V96.6411V81.2067C292.421 80.9324 292.465 80.6729 292.562 80.4357C292.658 80.1985 292.792 79.9909 292.97 79.813C293.149 79.6351 293.349 79.5017 293.572 79.3979C293.802 79.2941 294.047 79.2422 294.307 79.2422C294.575 79.2422 294.827 79.2941 295.072 79.3979C295.318 79.5017 295.533 79.6351 295.719 79.813C295.904 79.9835 296.053 80.1911 296.157 80.4357C296.268 80.6729 296.32 80.9324 296.32 81.2067V96.6411C296.32 97.2638 296.513 97.7309 296.9 98.0422C297.293 98.3536 297.784 98.5092 298.385 98.5092Z" fill="#005E85"/>
<path d="M317.69 93.8236V93.9126C317.676 94.691 317.572 95.4397 317.364 96.1662C317.163 96.8927 316.866 97.5673 316.495 98.1975C316.116 98.8276 315.67 99.3984 315.143 99.9099C314.615 100.421 314.043 100.866 313.405 101.237C312.766 101.608 312.09 101.897 311.362 102.097C310.634 102.297 309.884 102.401 309.104 102.401C307.915 102.401 306.801 102.178 305.761 101.726C304.721 101.274 303.815 100.666 303.043 99.8877C302.27 99.1093 301.654 98.1975 301.208 97.1596C300.755 96.1143 300.532 95.0098 300.532 93.8385C300.532 92.6523 300.755 91.5403 301.208 90.4951C301.661 89.4498 302.27 88.5454 303.043 87.7744C303.815 87.0034 304.721 86.3881 305.761 85.9433C306.801 85.4911 307.915 85.2687 309.104 85.2687C309.965 85.2687 310.79 85.3948 311.577 85.6394C312.365 85.884 313.1 86.2325 313.783 86.6698V81.0654C313.783 80.7763 313.828 80.5094 313.925 80.2648C314.021 80.0201 314.155 79.8052 314.333 79.6198C314.504 79.4345 314.712 79.2936 314.942 79.1899C315.18 79.0861 315.44 79.0342 315.722 79.0342C315.997 79.0342 316.257 79.0861 316.495 79.1899C316.732 79.2936 316.94 79.4345 317.118 79.6198C317.289 79.8052 317.43 80.0201 317.534 80.2648C317.638 80.5094 317.69 80.7763 317.69 81.0654V93.8236ZM313.783 93.8385C313.783 93.1935 313.657 92.5856 313.412 92.0148C313.167 91.444 312.833 90.9547 312.402 90.5321C311.978 90.1096 311.481 89.7834 310.916 89.5314C310.352 89.2867 309.743 89.1607 309.096 89.1607C308.45 89.1607 307.841 89.2867 307.277 89.5314C306.712 89.776 306.214 90.1096 305.791 90.5321C305.368 90.9547 305.033 91.444 304.796 92.0148C304.558 92.5856 304.432 93.1935 304.432 93.8385C304.432 94.476 304.551 95.0765 304.796 95.6473C305.033 96.2181 305.368 96.7148 305.784 97.1374C306.207 97.5599 306.697 97.9009 307.269 98.1456C307.841 98.3902 308.45 98.5162 309.096 98.5162C309.743 98.5162 310.352 98.3902 310.916 98.1456C311.481 97.9009 311.978 97.5673 312.402 97.1374C312.825 96.7148 313.167 96.2181 313.412 95.6473C313.665 95.0765 313.783 94.476 313.783 93.8385Z" fill="#005E85"/>
<path d="M320.603 81.7334C320.603 81.4369 320.662 81.1552 320.773 80.8883C320.885 80.6214 321.041 80.399 321.234 80.2063C321.427 80.0136 321.657 79.8653 321.917 79.7467C322.185 79.6355 322.46 79.5762 322.742 79.5762C323.024 79.5762 323.306 79.6355 323.566 79.7467C323.826 79.8579 324.064 80.0136 324.257 80.2063C324.458 80.399 324.614 80.6289 324.725 80.8883C324.836 81.1552 324.896 81.4295 324.896 81.7334C324.896 82.0225 324.836 82.2894 324.725 82.5489C324.614 82.8084 324.458 83.0307 324.257 83.2235C324.057 83.4162 323.826 83.5645 323.566 83.6831C323.299 83.7943 323.024 83.8536 322.742 83.8536C322.46 83.8536 322.177 83.7943 321.917 83.6831C321.65 83.5719 321.427 83.4162 321.234 83.2235C321.041 83.0307 320.892 82.8084 320.773 82.5489C320.655 82.2894 320.603 82.0151 320.603 81.7334ZM324.703 100.467C324.703 100.741 324.651 100.993 324.547 101.23C324.443 101.46 324.309 101.668 324.131 101.838C323.96 102.009 323.752 102.15 323.507 102.253C323.269 102.357 323.017 102.409 322.749 102.409C322.482 102.409 322.237 102.357 321.992 102.253C321.754 102.15 321.538 102.016 321.36 101.838C321.182 101.668 321.041 101.46 320.937 101.23C320.833 100.993 320.781 100.741 320.781 100.467V87.6418C320.781 87.3749 320.833 87.1303 320.944 86.8931C321.056 86.6632 321.197 86.4557 321.375 86.2703C321.553 86.0924 321.761 85.9516 322.006 85.8478C322.244 85.744 322.504 85.6921 322.779 85.6921C323.039 85.6921 323.291 85.744 323.529 85.8478C323.759 85.9516 323.967 86.0924 324.138 86.2703C324.309 86.4483 324.45 86.6558 324.547 86.8931C324.643 87.1229 324.688 87.3749 324.688 87.6418V100.467H324.703Z" fill="#005E85"/>
<path d="M343.993 100.489C343.993 100.763 343.941 101.015 343.837 101.252C343.733 101.49 343.6 101.69 343.429 101.86C343.258 102.031 343.058 102.172 342.827 102.268C342.597 102.364 342.344 102.409 342.077 102.409C341.802 102.409 341.542 102.364 341.305 102.268C341.067 102.172 340.851 102.038 340.673 101.86C340.495 101.69 340.346 101.482 340.242 101.252C340.131 101.023 340.079 100.763 340.079 100.489V93.802C340.079 93.7056 340.086 93.6315 340.094 93.587C340.072 93.0014 339.945 92.4528 339.722 91.9339C339.5 91.4224 339.21 90.9701 338.838 90.5847C338.475 90.1992 338.036 89.8952 337.531 89.6802C337.026 89.4578 336.484 89.3466 335.897 89.3466C335.288 89.3466 334.723 89.4578 334.203 89.6802C333.691 89.9026 333.245 90.2066 332.881 90.6069C332.517 90.9998 332.228 91.4668 332.02 92.0006C331.812 92.5343 331.708 93.1052 331.708 93.713V100.489C331.708 100.763 331.656 101.015 331.567 101.252C331.47 101.49 331.336 101.69 331.158 101.86C330.987 102.031 330.779 102.172 330.549 102.268C330.319 102.364 330.066 102.409 329.799 102.409C329.531 102.409 329.286 102.364 329.041 102.268C328.803 102.172 328.588 102.038 328.402 101.86C328.217 101.69 328.068 101.482 327.964 101.252C327.853 101.023 327.801 100.763 327.801 100.489V93.802V93.7279V93.713C327.801 92.564 328.009 91.4891 328.425 90.4883C328.841 89.4875 329.405 88.6127 330.133 87.864C330.861 87.1153 331.715 86.5222 332.71 86.0922C333.698 85.6623 334.768 85.4473 335.904 85.4473C337.056 85.4473 338.125 85.6623 339.106 86.0922C340.086 86.5222 340.941 87.1153 341.661 87.864C342.382 88.6127 342.946 89.4875 343.362 90.4883C343.778 91.4891 343.986 92.564 343.986 93.713V93.7279V93.802V100.489H343.993Z" fill="#005E85"/>
<path d="M371.491 95.1731C370.979 94.9581 370.444 94.7209 369.887 94.4614C369.337 94.2019 368.832 93.8906 368.372 93.5125C367.919 93.1344 367.54 92.6822 367.243 92.1559C366.945 91.6295 366.804 90.9994 366.804 90.2729C366.804 89.5167 366.953 88.8347 367.257 88.212C367.555 87.5967 367.978 87.0704 368.505 86.633C369.04 86.1956 369.671 85.862 370.407 85.6248C371.142 85.3876 371.944 85.2764 372.821 85.2764C373.326 85.2764 373.846 85.3134 374.388 85.395C374.93 85.4765 375.443 85.5951 375.926 85.7731C376.409 85.9436 376.847 86.1734 377.233 86.4551C377.619 86.7368 377.909 87.0778 378.117 87.4707C378.295 87.8562 378.362 88.2343 378.303 88.6123C378.251 88.9904 378.117 89.3018 377.894 89.539C377.656 89.8133 377.359 89.9986 377.01 90.095C376.661 90.1914 376.312 90.1617 375.963 90.006C375.71 89.8503 375.48 89.7095 375.272 89.5909C375.064 89.4723 374.849 89.3685 374.626 89.2869C374.403 89.2054 374.173 89.1387 373.92 89.1016C373.675 89.0571 373.393 89.0423 373.081 89.0423C372.301 89.0423 371.707 89.1461 371.306 89.3537C370.905 89.5612 370.704 89.8874 370.704 90.3174C370.704 90.5472 370.778 90.7325 370.927 90.8808C371.075 91.0291 371.283 91.1625 371.536 91.2885C371.796 91.4071 372.108 91.5183 372.472 91.6295C372.836 91.7407 373.237 91.8593 373.668 91.9854C374.373 92.2003 375.049 92.4524 375.696 92.7415C376.334 93.0306 376.899 93.3791 377.389 93.7942C377.872 94.2093 378.266 94.6986 378.548 95.262C378.837 95.8254 378.979 96.4926 378.979 97.2562C378.979 97.9753 378.823 98.6499 378.518 99.28C378.214 99.9101 377.79 100.459 377.248 100.926C376.706 101.393 376.059 101.763 375.317 102.03C374.566 102.297 373.757 102.438 372.88 102.438C372.331 102.438 371.744 102.386 371.127 102.282C370.511 102.179 369.909 102.008 369.33 101.763C368.75 101.519 368.208 101.2 367.718 100.815C367.228 100.429 366.827 99.9472 366.53 99.369C366.232 98.7907 366.136 98.2792 366.247 97.8344C366.359 97.3822 366.596 97.0486 366.96 96.8188C367.317 96.589 367.755 96.5075 368.275 96.5668C368.788 96.6261 369.293 96.8855 369.79 97.3377C369.931 97.5157 370.117 97.6862 370.333 97.8493C370.548 98.0123 370.786 98.1532 371.053 98.2792C371.32 98.4052 371.603 98.5016 371.907 98.5758C372.212 98.6499 372.531 98.687 372.873 98.687C373.17 98.687 373.452 98.6573 373.72 98.5906C373.987 98.5239 374.217 98.4349 374.425 98.3089C374.626 98.1903 374.789 98.0494 374.908 97.8789C375.027 97.7084 375.086 97.5231 375.086 97.3081C375.086 97.056 374.953 96.8262 374.693 96.6187C374.425 96.4111 374.106 96.2109 373.727 96.033C373.348 95.8551 372.955 95.692 372.539 95.5586C372.13 95.3806 371.781 95.262 371.491 95.1731Z" fill="#005E85"/>
<path d="M363.796 93.8393C363.796 92.6531 363.573 91.5411 363.12 90.5033C362.667 89.4654 362.058 88.561 361.285 87.7826C360.513 87.0042 359.607 86.3889 358.567 85.9441C357.527 85.4919 356.413 85.2695 355.224 85.2695C354.051 85.2695 352.944 85.4919 351.904 85.9441C350.864 86.3963 349.958 87.0042 349.178 87.7826C348.398 88.561 347.782 89.4654 347.321 90.5033C346.868 91.5411 346.638 92.6531 346.638 93.8393C346.638 95.0106 346.868 96.1225 347.321 97.1604C347.774 98.2057 348.398 99.1101 349.178 99.8811C349.958 100.652 350.864 101.267 351.904 101.712C352.944 102.164 354.051 102.387 355.224 102.387C356.004 102.387 356.754 102.29 357.468 102.098C358.181 101.905 358.849 101.631 359.473 101.275C359.473 101.275 359.473 101.275 359.473 101.282C359.614 101.193 359.755 101.097 359.867 101C359.867 101 360.253 104.759 356.041 105.834C352.662 106.694 350.262 103.966 350.151 103.832C349.483 103.032 348.257 102.891 347.403 103.514C346.549 104.136 346.385 105.3 347.054 106.101C350.27 110 356.673 110.875 360.736 107.628C362.674 106.079 363.804 103.906 363.804 101.512C363.804 101.512 363.796 93.8541 363.796 93.8393ZM359.525 95.6407C359.287 96.2041 358.953 96.6934 358.537 97.1159C358.114 97.5385 357.624 97.8647 357.052 98.1093C356.48 98.3539 355.871 98.48 355.224 98.48C354.578 98.48 353.969 98.3539 353.404 98.1093C352.84 97.8647 352.342 97.5311 351.919 97.1159C351.496 96.6934 351.154 96.2041 350.909 95.6407C350.664 95.0773 350.537 94.4768 350.537 93.8467C350.537 93.2017 350.664 92.5938 350.909 92.023C351.154 91.4522 351.488 90.9629 351.919 90.5404C352.342 90.1178 352.84 89.7916 353.412 89.5396C353.984 89.2949 354.586 89.1689 355.224 89.1689C355.871 89.1689 356.48 89.2949 357.052 89.5396C357.624 89.7842 358.114 90.1178 358.537 90.5404C358.961 90.9629 359.287 91.4522 359.525 92.023C359.763 92.5864 359.882 93.1943 359.882 93.8393C359.882 93.8467 359.882 93.8467 359.882 93.8541C359.889 94.4768 359.77 95.0773 359.525 95.6407Z" fill="#005E85"/>
<path d="M32.3633 7.5778C29.0876 3.22622 23.8658 0.40918 17.9903 0.40918C8.05182 0.40918 0 8.44515 0 18.3641C0 24.228 2.82259 29.4395 7.18276 32.7162C12.8874 22.0485 21.682 13.2712 32.3633 7.5778Z" fill="#005E85"/>
<path d="M35.9731 18.3644C35.9731 14.3168 34.6287 10.5805 32.3632 7.57812C21.6819 13.2715 12.8873 22.0488 7.18268 32.7091C10.191 34.9701 13.9346 36.3119 17.9902 36.3119C27.9213 36.3119 35.9731 28.2759 35.9731 18.3644Z" fill="#9ACA3C"/>
<path d="M30.8182 51.1606C36.4931 51.1606 41.0909 55.7494 41.0909 61.4131C41.0909 50.3748 50.0564 41.4195 61.1239 41.4195H101.702C98.5307 41.3454 95.723 39.8257 93.8883 37.5053C93.8512 37.4683 93.7992 37.4238 93.7694 37.3867C90.5755 33.0648 86.5421 29.4101 81.9071 26.6449C75.8311 23.0124 68.7226 20.9219 61.1239 20.9219C57.6254 20.9219 54.2234 21.3667 50.9849 22.197C49.685 22.5306 48.4148 22.9235 47.1744 23.3757C43.4456 24.7397 39.9768 26.6301 36.8496 28.9653C26.9557 36.3489 20.5529 48.136 20.5529 61.4131C20.5454 55.7494 25.1433 51.1606 30.8182 51.1606Z" fill="#FDB913"/>
<path d="M78.3191 71.6585C74.8205 77.4928 68.4251 81.3995 61.1161 81.3995C50.056 81.3995 41.0831 72.4517 41.0831 61.406C41.0831 54.6822 34.5986 49.4706 27.5272 51.665C23.3156 52.9697 20.545 57.0025 20.545 61.406C20.545 83.7718 38.7136 101.897 61.1161 101.897C79.3738 101.897 94.809 89.8655 99.9045 73.3117C100.157 72.4888 99.5479 71.6585 98.6863 71.6585H78.3191Z" fill="#F16682"/>
<path d="M122.233 61.4574C122.241 55.7788 117.658 51.1529 111.96 51.1529H61.4063C55.8725 51.1529 51.1187 55.3933 50.8587 60.9088C50.5839 66.7949 55.2783 71.658 61.1166 71.658H98.6794C99.5484 71.658 100.158 72.4957 99.905 73.326C94.6312 90.4506 78.2824 102.734 59.2076 101.86C38.3279 100.903 21.422 83.9269 20.5827 63.0809C19.6468 39.9515 38.157 20.9143 61.124 20.9143C74.5165 20.9143 86.3862 27.3934 93.7844 37.3717C95.9311 40.1813 99.4816 41.8641 103.404 41.3304C108.35 40.6558 112.124 36.3635 112.235 31.3818C112.31 27.8382 110.453 25.251 108.313 22.6638C106.39 20.3286 104.295 18.1417 102.044 16.1179C97.528 12.048 92.4102 8.65272 86.8988 6.08774C81.2536 3.46344 75.2073 1.71391 69.0273 0.913281C66.4052 0.579685 63.7609 0.40918 61.1166 0.40918C50.7176 0.40918 40.9351 3.00382 32.3633 7.5778C34.8368 10.8545 36.2109 15.0059 35.9361 19.4835C35.3939 28.4387 28.0848 35.7334 19.1045 36.2819C14.6181 36.5562 10.4585 35.1848 7.17535 32.7162C2.26552 41.8938 -0.371373 52.4651 0.0445879 63.6888C1.22562 95.8994 27.7654 121.846 60.0544 122.402C94.2746 122.98 122.211 95.4768 122.233 61.4574Z" fill="#5D62A8"/>
</svg>
