<svg width="1673" height="847" viewBox="0 0 1673 847" fill="none" xmlns="http://www.w3.org/2000/svg">
<g filter="url(#filter0_f_312_3757)">
<ellipse cx="838.142" cy="349.972" rx="410.002" ry="234.864" transform="rotate(-4.68271 838.142 349.972)" fill="url(#paint0_radial_312_3757)" fill-opacity="0.9"/>
</g>
<path d="M794.841 10.5574C851.102 4.96959 906.746 2.2002 961.205 2.2002C1122.36 2.2002 1272.95 26.3894 1396.58 72.9542C1561.66 135.376 1658.83 230.221 1669.94 340.506C1681.04 450.791 1604.96 562.963 1455.41 656.657C1305.86 750.35 1100.91 814.119 878.159 836.25C655.411 858.38 441.575 836.323 276.421 773.878C111.267 711.432 14.1744 616.586 3.06538 506.301C-8.04363 396.016 68.0161 283.844 217.593 190.151C367.169 96.4572 572.168 32.6144 794.841 10.5574Z" stroke="#FDB913" stroke-width="3.14126" stroke-linecap="round" stroke-linejoin="round" stroke-dasharray="12 12"/>
<path d="M771.214 660.75C662.535 660.75 560.839 643.339 477.504 609.778C367.391 565.449 302.483 498.258 294.771 420.574C287.058 342.89 337.428 264.061 436.644 198.633C535.859 133.206 671.771 89.1979 819.605 74.1926C967.438 59.1874 1109.47 75.4755 1219.47 119.758C1329.47 164.041 1394.49 231.278 1402.23 308.985C1409.96 386.692 1359.55 465.475 1260.33 530.903C1161.11 596.33 1025.2 640.453 877.369 655.344C841.514 658.963 806 660.75 771.214 660.75ZM925.759 69.9316C891.019 69.9316 855.551 71.7185 819.719 75.3381C672.067 90.2059 536.246 134.351 437.281 199.596C338.315 264.84 288.219 343.211 295.886 420.459C303.553 497.708 368.21 564.556 477.891 608.724C587.571 652.892 729.535 669.089 877.209 654.221C1024.88 639.353 1160.7 595.208 1259.65 529.941C1358.59 464.673 1408.75 386.325 1401.09 309.123C1393.42 231.92 1328.76 165.003 1219.08 120.835C1135.84 87.3194 1034.3 69.9316 925.759 69.9316V69.9316Z" fill="white"/>
<path d="M793.685 573.75C711.592 573.75 634.756 560.157 571.816 533.917C489.254 499.611 440.531 447.803 434.607 388.029C428.684 328.255 466.25 267.733 540.445 217.618C614.64 167.504 716.232 133.845 826.759 122.692C937.286 111.538 1043.74 124.235 1126.16 158.491C1208.57 192.748 1257.44 244.605 1263.39 304.38C1269.34 364.154 1231.72 424.675 1157.55 474.79C1083.38 524.905 981.764 558.539 871.237 569.717C845.049 572.455 819.058 573.75 793.685 573.75ZM903.743 120.127C878.74 120.127 853.07 121.397 826.981 124.036C716.553 135.164 615.035 168.848 541.136 218.639C467.237 268.43 429.942 328.603 435.817 387.929C441.691 447.255 490.118 498.665 572.285 532.797C654.452 566.929 760.66 579.65 871.089 568.497C1098.93 545.494 1274.42 427.09 1262.25 304.604C1251.49 196.059 1097.15 120.127 903.743 120.127Z" fill="white"/>
<path d="M813.268 476.75C685.548 476.75 582.932 425.181 575.446 352.109C571.345 312.324 595.656 272.178 643.882 239.148C692.108 206.118 758.164 184.124 830.225 177.085C979.162 162.543 1107.12 217.438 1115.56 299.432C1119.63 339.191 1095.32 379.363 1047.12 412.393C998.923 445.422 932.815 467.39 860.753 474.429C844.643 476.002 828.77 476.75 813.268 476.75ZM877.764 176.054C862.279 176.054 846.477 176.827 830.358 178.375C758.508 185.388 692.558 207.33 644.623 240.257C596.688 273.183 572.721 312.762 576.742 352.057C585.101 433.329 712.452 487.683 860.621 473.243C932.471 466.256 998.421 444.288 1046.36 411.361C1094.29 378.435 1118.26 338.882 1114.24 299.561C1106.8 227.107 1004.8 176.054 877.764 176.054Z" fill="white"/>
<defs>
<filter id="filter0_f_312_3757" x="329.051" y="13.4812" width="1018.18" height="672.982" filterUnits="userSpaceOnUse" color-interpolation-filters="sRGB">
<feFlood flood-opacity="0" result="BackgroundImageFix"/>
<feBlend mode="normal" in="SourceGraphic" in2="BackgroundImageFix" result="shape"/>
<feGaussianBlur stdDeviation="50" result="effect1_foregroundBlur_312_3757"/>
</filter>
<radialGradient id="paint0_radial_312_3757" cx="0" cy="0" r="1" gradientUnits="userSpaceOnUse" gradientTransform="translate(722.88 238.53) rotate(48.888) scale(437.993 542.505)">
<stop stop-color="#D8DAF8"/>
<stop offset="0.789517" stop-color="#8187E2"/>
<stop offset="1" stop-color="#383E99"/>
</radialGradient>
</defs>
</svg>
