<svg width="201" height="201" viewBox="0 0 201 201" fill="none" xmlns="http://www.w3.org/2000/svg">
<path d="M52.9618 12.5153C47.5906 5.38024 39.0532 0.767578 29.431 0.767578C13.1765 0.767578 0 13.9441 0 30.1986C0 39.8208 4.61266 48.3582 11.7477 53.7293C21.0965 36.2312 35.4725 21.8553 52.9618 12.5153Z" fill="#005E85"/>
<path d="M58.8621 30.1987C58.8621 23.5663 56.666 17.4455 52.9618 12.5154C35.4725 21.8553 21.0965 36.2401 11.7566 53.7206C16.6779 57.4248 22.7987 59.6209 29.4399 59.6209C45.6856 59.6209 58.8621 46.4444 58.8621 30.1987Z" fill="#9ACA3C"/>
<path d="M50.4217 83.963C59.6999 83.963 67.2231 91.4861 67.2231 100.764C67.2231 82.6665 81.8989 67.9907 99.9967 67.9907H166.391C161.196 67.8672 156.61 65.3801 153.611 61.57C153.549 61.5083 153.461 61.4377 153.417 61.376C148.187 54.2938 141.59 48.2965 134.014 43.7632C124.065 37.81 112.441 34.3792 100.006 34.3792C94.2728 34.3792 88.7165 35.1024 83.4159 36.4694C81.2992 37.0162 79.2177 37.6601 77.1804 38.4097C71.0772 40.6411 65.3974 43.7456 60.2909 47.5733C44.1069 59.6826 33.6292 78.9976 33.6292 100.773C33.6204 91.4861 41.1435 83.963 50.4217 83.963Z" fill="#FDB913"/>
<path d="M128.149 117.566C122.425 127.135 111.965 133.538 100.006 133.538C81.9077 133.538 67.2319 118.862 67.2319 100.764C67.2319 89.7398 56.6131 81.1936 45.0506 84.792C38.1624 86.9352 33.6292 93.5411 33.6292 100.764C33.6292 137.427 63.3513 167.15 100.014 167.15C129.886 167.15 155.146 147.42 163.48 120.282C163.895 118.933 162.898 117.566 161.487 117.566H128.149Z" fill="#F16682"/>
<path d="M200.003 100.853C200.011 91.5391 192.515 83.963 183.201 83.963H100.482C91.4333 83.963 83.6455 90.9128 83.2222 99.9529C82.7636 109.602 90.4543 117.566 100.006 117.566H161.461C162.881 117.566 163.878 118.942 163.463 120.3C154.829 148.373 128.088 168.508 96.875 167.07C62.7166 165.5 35.0583 137.666 33.6824 103.498C32.1567 65.5829 62.4344 34.3703 100.015 34.3703C121.931 34.3703 141.343 44.998 153.453 61.3496C156.963 65.9534 162.775 68.7139 169.187 67.8408C177.283 66.7383 183.457 59.7003 183.642 51.5333C183.766 45.7212 180.723 41.4789 177.23 37.2367C174.082 33.409 170.651 29.8194 166.973 26.5033C159.591 19.8356 151.213 14.2705 142.19 10.0635C132.956 5.75954 123.06 2.88435 112.953 1.57905C108.667 1.02341 104.345 0.75 100.024 0.75C83.0105 0.75 67.0029 5.00988 52.9798 12.4977C57.028 17.8689 59.2769 24.6776 58.8271 32.0155C57.9364 46.7002 45.977 58.6595 31.2923 59.5503C23.9544 60.0001 17.1457 57.7511 11.7745 53.7029C3.73988 68.7492 -0.581727 86.0797 0.0885628 104.486C2.02006 157.289 45.4478 199.835 98.2773 200.735C154.255 201.705 199.959 156.619 200.003 100.853Z" fill="#5D62A8"/>
</svg>
