<svg width="303" height="563" viewBox="0 0 303 563" fill="none" xmlns="http://www.w3.org/2000/svg">
<g filter="url(#filter0_i_312_3493)">
<rect y="0.40918" width="303" height="562" rx="24" fill="#5D62A8"/>
</g>
<path d="M52.8181 201.543C55.139 191.71 49.049 181.857 39.2158 179.536C29.3826 177.216 19.5298 183.306 17.2089 193.139C14.8881 202.972 20.9781 212.825 30.8113 215.146C40.6445 217.466 50.4973 211.377 52.8181 201.543Z" fill="#EBEBEB"/>
<path d="M32.6377 203.053C32.6387 203.644 32.4642 204.222 32.1364 204.714C31.8087 205.206 31.3423 205.589 30.7964 205.816C30.2506 206.042 29.6497 206.102 29.07 205.987C28.4902 205.872 27.9577 205.587 27.5397 205.169C27.1218 204.751 26.8373 204.219 26.7222 203.639C26.6071 203.059 26.6667 202.458 26.8933 201.913C27.1199 201.367 27.5034 200.9 27.9953 200.573C28.4871 200.245 29.0651 200.07 29.6562 200.071C30.4466 200.073 31.2042 200.387 31.7631 200.946C32.3219 201.505 32.6365 202.262 32.6377 203.053V203.053Z" fill="#F5F5F5"/>
<path d="M28.4045 194.445C28.4036 194.788 28.3011 195.123 28.11 195.407C27.9188 195.692 27.6477 195.913 27.3308 196.044C27.0138 196.174 26.6653 196.208 26.3293 196.141C25.9933 196.073 25.6847 195.908 25.4427 195.665C25.2007 195.422 25.036 195.113 24.9695 194.777C24.903 194.441 24.9376 194.092 25.069 193.776C25.2004 193.459 25.4226 193.189 25.7077 192.998C25.9927 192.808 26.3278 192.707 26.6705 192.707C26.8986 192.707 27.1245 192.752 27.3352 192.839C27.5459 192.926 27.7373 193.055 27.8984 193.216C28.0594 193.378 28.1871 193.569 28.2739 193.78C28.3608 193.991 28.4052 194.217 28.4045 194.445Z" fill="#F5F5F5"/>
<path d="M17.268 201.791C17.3499 202.109 1.60898 217.204 5.66945 220.431C9.72991 223.658 26.7906 215.393 41.3418 203.64C55.893 191.888 69.1823 177.63 65.5409 173.844C61.8994 170.058 43.7213 181.252 43.7213 181.252L45.8984 182.635C45.8984 182.635 56.8901 175.583 60.3485 178.3C63.8069 181.016 53.9134 191.733 39.9209 201.945C25.9284 212.156 12.4176 219.323 10.3175 216.53C8.21747 213.736 18.1206 204.397 18.1206 204.397L17.268 201.791Z" fill="#F5F5F5"/>
<path d="M287.51 328.134C293.856 322.731 294.62 313.207 289.217 306.861C283.815 300.515 274.291 299.75 267.945 305.153C261.599 310.556 260.834 320.08 266.237 326.426C271.639 332.772 281.164 333.537 287.51 328.134Z" fill="#F5F5F5"/>
<path d="M279.807 311.997C279.818 311.51 279.974 311.038 280.253 310.64C280.533 310.242 280.924 309.936 281.378 309.76C281.832 309.584 282.327 309.547 282.802 309.653C283.277 309.758 283.71 310.003 284.046 310.354C284.383 310.706 284.607 311.149 284.691 311.629C284.776 312.108 284.716 312.601 284.52 313.046C284.324 313.492 284.001 313.869 283.59 314.131C283.18 314.392 282.701 314.526 282.215 314.516C281.891 314.51 281.571 314.44 281.274 314.31C280.977 314.181 280.709 313.993 280.485 313.759C280.261 313.524 280.086 313.248 279.969 312.946C279.853 312.643 279.798 312.321 279.807 311.997V311.997Z" fill="#EBEBEB"/>
<path d="M283.125 319.178C283.13 318.892 283.22 318.613 283.384 318.378C283.548 318.142 283.778 317.961 284.045 317.857C284.313 317.753 284.605 317.731 284.885 317.793C285.164 317.855 285.419 318 285.617 318.208C285.815 318.415 285.946 318.677 285.994 318.96C286.043 319.243 286.006 319.533 285.888 319.795C285.771 320.057 285.578 320.277 285.335 320.429C285.091 320.581 284.809 320.657 284.522 320.648C284.143 320.635 283.784 320.474 283.523 320.199C283.261 319.924 283.119 319.558 283.125 319.178V319.178Z" fill="#EBEBEB"/>
<path d="M211.301 311.358C243.508 279.15 243.508 226.933 211.301 194.725C179.094 162.518 126.876 162.518 94.6686 194.725C62.4615 226.933 62.4615 279.15 94.6686 311.358C126.876 343.565 179.094 343.565 211.301 311.358Z" fill="#F5F5F5"/>
<path d="M223.576 224.718C222.897 223.894 222.806 221.192 221.168 222.738C221.279 221.38 220.735 218.143 223.148 218.442C225.778 218.774 224.593 221.626 225.185 223.09C225.903 224.805 228.297 224.944 229.665 225.917C230.589 226.577 231.143 227.555 231.668 228.326C228.223 217.382 222.529 207.279 214.95 198.665C214.95 198.727 214.95 198.795 214.95 198.862C213.206 198.742 211.636 201.068 211.959 202.528C212.011 202.773 212.72 203.202 212.806 203.732C212.893 204.262 212.435 204.488 212.421 204.902C212.382 205.865 212.132 206.785 213.437 207.046C214.28 205.437 216.173 207.344 216.558 208.414C217.233 210.287 216.414 211.231 217.743 212.749C218.259 213.336 219.79 214.059 219.482 215.094C219.174 216.13 218.398 215.932 217.642 215.643C216.424 215.162 215.769 213.341 214.338 213.288C213.375 215.667 214.275 218.75 213.524 221.284C213.105 222.695 212.589 222.753 213.808 223.798C214.246 224.174 214.545 223.755 215.06 224.362C215.364 224.723 215.369 225.498 215.335 225.941C216.009 225.532 216.607 224.901 217.469 224.978C216.178 226.091 216.38 228.167 215.484 229.583C214.362 231.355 213.428 230.763 211.886 231.471C209.194 232.714 210.586 235.132 210.297 237.135C210.133 238.306 209.165 239.293 208.707 240.416C208.039 241.987 207.669 243.67 207.619 245.377C207.585 247.39 208.23 249.23 208.616 251.157C208.924 252.737 208.929 255.766 210.475 256.682C211.438 257.235 214.41 257.129 215.672 257.317C216.934 257.505 218.418 256.836 219.482 257.385C220.547 257.934 220.388 259.605 221.751 259.22C222.517 259.003 222.96 257.207 223.918 256.869C225.455 256.33 226.669 257.736 227.093 258.945C227.632 260.477 226.832 260.535 226.418 262.173C226.091 263.463 226.418 264.831 226.832 266.026C227.69 268.468 226.741 267.399 225.869 269.672C226.511 269.842 227.175 269.916 227.839 269.894C227.887 270.766 228.075 272.052 227.873 272.909C227.309 275.317 224.983 276.623 224.867 279.402C224.756 281.94 225.922 285.004 225.44 287.489C225.089 289.315 223.032 290.499 223.369 292.609C224.52 291.867 225.397 290.683 226.659 290.076C235.819 271.89 237.926 250.958 232.574 231.312C231.15 230.674 229.874 229.747 228.827 228.591C227.386 227.093 224.877 226.283 223.576 224.718Z" fill="#EBEBEB"/>
<path d="M163.927 172.924C164.938 173.107 166.08 173.093 167.081 173.339C168.213 173.613 169.008 174.389 170.251 173.897C170.815 173.64 171.296 173.229 171.638 172.712C151.227 167.964 129.773 171.175 111.646 181.691C114.801 181.888 114.093 185.429 116.81 182.514C118.019 181.214 119.363 179.437 120.904 178.3C122.628 177.023 124.603 177.886 126.684 177.818C125.99 178.3 122.113 181.103 122.542 182.013C123.134 183.271 125.282 181.749 124.439 184.171C123.688 186.329 120.615 184.86 118.712 185.005C117.238 185.12 116.434 186.108 114.859 186.185C113.188 186.267 111.511 185.795 109.883 185.843C107.282 185.92 105.616 187.418 104.031 189.243C103.116 190.303 102.027 191.093 101.358 192.369C100.626 193.766 100.919 195.592 100.235 196.844C99.6479 197.923 98.3088 198.101 97.3455 198.742C96.0681 199.657 94.9039 200.721 93.8775 201.911C92.3313 203.708 91.6377 207.128 88.9982 207.778C88.6225 210.557 92.8515 206.685 94.0846 207.238C94.7252 206.391 94.9757 205.268 95.9245 204.633C96.8734 203.997 98.2125 204.108 99.2962 203.414C101.363 202.094 100.698 199.199 103.275 198.708C105.356 198.313 107.687 197.909 108.197 200.196C108.453 201.333 108.01 201.227 107.976 202.325C107.928 203.77 107.812 202.894 108.91 203.77C110.567 205.134 110.837 206.776 109.541 208.698C108.92 209.608 108.578 209.483 108.197 210.663C107.817 211.843 107.952 213.11 107.995 214.348C108.039 215.73 107.904 217.074 107.86 218.457C107.788 220.759 108.342 221.616 110.163 223.066C111.545 224.169 113.019 224.993 113.732 226.703C114.348 228.196 114.214 229.983 114.642 231.519C115.066 233.123 119.059 236.476 118.621 233.619C118.394 232.146 116.718 231.813 116.728 230.017C116.728 229.289 117.026 228.22 117.104 227.454C119.391 226.828 118.789 230.729 119.401 231.895C120.273 233.547 122.551 234.612 123.736 235.922C122.633 236.437 120.774 237.516 121.386 239.043C122.166 240.97 124.627 239.626 125.985 239.66C128.953 239.727 131.9 241.711 134.318 243.296C136.621 244.804 137.55 245.705 140.45 245.488C142.26 245.303 144.085 245.662 145.691 246.519C146.894 247.064 147.865 248.018 148.431 249.211C149.351 250.96 149.765 251.581 151.321 252.771C152.333 253.546 152.863 254.389 153.985 254.331C154.756 254.297 155.314 253.17 156.49 253.536C158.725 254.23 158.074 257.072 157.342 258.353C156.726 259.451 156.148 260.867 155.464 261.956C154.587 263.343 152.294 263.859 152.029 265.689C151.779 267.428 153.715 269.417 154.144 271.06C154.534 272.548 154.491 274.19 154.491 275.712C153.527 277.119 159.384 282.09 160.478 283.043C162.077 284.436 164.408 286.285 165.03 288.409C165.285 289.281 165.136 290.649 165.222 291.569C165.406 293.514 165.453 295.47 165.362 297.421C165.232 300.268 163.185 302.007 162.703 304.704C162.313 306.867 163.084 309.14 162.756 311.279C162.607 312.242 162.419 313.61 162.178 314.554C161.937 315.498 161.475 315.489 161.094 316.158C160.41 317.353 160.757 318.533 161.335 319.824C163.146 318.518 164.649 320.985 165.502 322.232C166.566 323.793 167.838 324.414 170.044 324.159C169.177 323.446 167.717 321.115 168.016 319.824C168.454 317.94 171.171 316.418 172.086 314.843C173.073 313.143 172.794 311.553 174.836 310.797C175.41 310.585 176.084 310.691 176.657 310.455C177.37 310.161 177.75 309.492 178.444 309.16C180.342 308.259 180.775 308.5 181.565 306.385C182.529 303.827 183.347 300.605 185.78 298.967C186.743 298.327 187.788 298.37 188.829 297.922C189.97 297.441 190.327 296.651 191.237 295.996C192.606 295.064 193.845 293.954 194.922 292.696C196.194 291.182 197.299 289.535 198.217 287.783C198.828 286.68 199.093 285.654 200.018 284.768C200.408 284.392 201.005 284.243 201.463 283.805C203.134 282.138 203.761 279.47 205.21 277.644C206.024 276.613 206.829 276.03 207.277 274.841C207.103 274.441 206.883 274.062 206.622 273.714C206.27 273.073 205.408 272.48 204.979 271.821C204.83 271.589 204.777 270.857 204.628 270.718C203.428 269.436 200.524 268.762 198.905 268.695C196.694 268.608 193.381 268.266 191.936 266.286C190.861 264.798 192.701 262.683 191.993 261.099C191.117 259.119 186.512 258.165 184.744 257.091C183.526 256.349 182.702 255.222 181.493 254.466C179.725 253.363 178.666 252.905 177.914 250.96C177.461 249.794 178.155 249.596 176.744 249.153C175.429 248.744 173.372 249.89 171.898 250.006C170.805 250.093 169.572 250.319 168.526 250.006C167.226 249.616 166.267 248.142 164.914 247.891C163.695 247.66 161.292 248.233 160.174 248.97C159.211 249.587 158.729 250.699 157.689 251.181C156.186 251.88 156.292 250.964 154.837 250.839C153.383 250.714 152.631 251.509 151.519 249.876C150.011 247.641 150.623 243.075 147.073 242.843C146.018 242.776 143.985 243.662 143.335 242.309C142.372 240.315 145.821 237.67 145.324 235.512C144.804 233.268 140.614 236.22 139.67 237.439C139.068 238.234 138.591 240.175 137.324 240.329C136.361 240.43 134.41 239.173 133.832 238.475C132.825 237.256 132.763 234.891 132.618 233.355C132.344 230.465 133.008 229.564 135.026 227.406C136.809 225.479 137.175 225.335 139.458 224.935C140.859 224.689 140.845 224.193 142.035 224.815C142.603 225.113 142.955 225.999 143.648 226.284C144.612 225.32 145.272 225.041 146.572 225.296C147.506 225.484 149.462 226.568 149.977 227.444C150.29 227.979 150.782 232.781 152.511 229.853C151.504 229.024 151.774 228.047 151.365 227.127C150.955 226.207 150.021 225.537 149.847 224.386C149.64 223.047 150.811 220.258 152.338 219.964L152.174 218.461C153.864 218.225 155.873 214.126 155.545 212.108C155.372 211.101 154.279 211.179 154.862 209.729C155.546 208.033 156.726 208.919 158.161 208.606C159.596 208.293 159.389 207.349 160.415 206.588C161.533 205.75 162.058 206.391 163.007 206.434C164.789 206.511 167.125 206.916 167.255 204.44C168.343 204.291 169.292 203.958 170.381 204.411C170.525 202.484 170.097 201.078 168.454 199.965C167.009 199.002 165.083 198.694 163.57 197.735C162.607 197.119 161.908 196.223 160.988 195.568C159.505 194.508 158.484 193.338 157.135 192.143C155.425 190.621 153.763 192.543 151.514 192.23C148.513 191.806 148.706 189.547 146.851 188.208C146.639 188.054 146.028 188.261 145.753 188.126C145.264 187.762 144.818 187.343 144.424 186.878C143.359 185.784 142.682 184.372 142.497 182.856C145.806 180.93 146.644 185.486 148.027 187.134C148.653 187.88 151.114 188.347 149.187 189.542C150.522 189.633 151.707 189.436 152.954 189.735C153.542 189.869 154.043 190.216 154.683 190.216C154.813 189.19 154.447 188.184 154.245 187.196C154.149 186.743 154.279 186.276 154.091 185.838C153.816 185.197 153.128 184.875 152.882 184.35C152.15 182.823 153.065 182.823 151.398 181.903C150.252 181.272 148.87 180.819 147.685 180.284C146.841 179.99 146.057 179.548 145.368 178.979C145.074 178.685 143.21 176.725 143.07 176.368C141.751 173.098 146.885 176.07 148.06 176.368C149.991 176.88 151.888 177.512 153.739 178.261C155.252 178.839 155.276 179.176 155.859 180.67C156.909 183.406 158.383 182.115 160.054 183.931C161.061 185.029 161.846 187.013 162.713 188.314C163.806 189.961 168.103 195.105 170.501 192.649C171.787 191.324 169.302 189.007 169.254 187.716C169.201 186.344 170.13 185.496 171.079 184.749C172.674 183.492 173.045 182.972 171.156 181.45C168.84 179.576 166.292 179.273 163.527 178.396C160.526 177.433 159.726 175.708 158.204 173.276C159.206 173.093 160.261 173.011 161.287 172.92C162.163 172.806 163.051 172.808 163.927 172.924V172.924ZM133.35 194.07C132.96 195.096 132.242 194.778 131.573 195.303C130.542 196.107 132.363 197.538 131.626 198.063C131.366 198.251 129.945 198.173 129.622 198.063C128.798 197.788 128.543 197.205 127.58 197.215C126.313 197.215 125.041 196.979 125.321 195.385C125.451 194.638 126.207 193.896 125.851 193.077C125.502 192.573 125.058 192.142 124.545 191.806C124.213 191.575 123.799 191.608 123.51 191.425C122.85 191.016 123.1 189.397 123.828 189.113C123.852 191.348 127.166 189.33 127.854 190.356C128.543 191.382 127.17 191.801 128.037 192.451C128.543 192.846 129.873 192.846 130.378 192.697C131.159 192.471 132.459 191.295 133.23 192.148C133.528 192.519 133.509 193.655 133.35 194.07ZM143.971 190.139C144.795 190.375 144.65 190.77 145.079 191.42C145.561 192.157 146.384 192.09 146.967 192.625C148.07 193.641 146.326 194.98 146.967 196.237C147.531 197.331 153.831 198.968 149.717 200.307C148.513 200.697 147.791 199.907 146.707 199.599C145.523 199.357 144.294 199.492 143.191 199.985C141.182 201.15 145.681 203.313 142.907 204.151C142.343 204.324 140.498 204.214 140.325 203.515C140.151 202.899 141.018 202.908 141.197 202.316C141.905 199.985 139.044 201.425 138.244 201.222C137.117 200.933 137.468 198.91 138.364 198.453C138.846 198.207 140.074 198.337 140.614 198.328C141.495 198.328 142.377 198.448 143.258 198.371C143.668 196.675 141.124 195.818 139.79 195.635C138.74 195.495 138.6 195.283 137.733 194.672C136.688 193.911 136.231 194.123 136.963 192.745C137.603 191.531 138.649 190.886 139.689 190.067C140.171 189.826 140.561 190.332 141.038 190.385C142.015 190.462 143.008 189.879 143.971 190.139V190.139Z" fill="#EBEBEB"/>
<path d="M151.224 233.152C150.285 232.825 146.938 234.034 148.31 235.021C149.24 235.696 151.446 234.829 152.583 235.093C153.72 235.358 155.131 234.935 156.243 235.387C157.067 235.724 157.515 236.486 158.43 236.712C159.543 236.991 160.131 236.539 159.095 235.676C158.368 235.069 157.356 234.906 156.508 234.511C155.868 234.217 155.29 233.639 154.649 233.465C153.797 233.229 151.894 234.01 151.224 233.152Z" fill="#EBEBEB"/>
<path d="M162.92 238.166C162.096 238.687 161.311 238.947 161.037 240.006C160.714 241.249 161.229 241.018 162.067 240.536C162.597 240.228 163.329 239.708 163.994 239.741C164.659 239.775 165.174 240.252 165.8 240.363C166.352 240.486 166.924 240.485 167.474 240.359C168.025 240.233 168.541 239.986 168.984 239.636C169.673 239.033 169.726 238.253 168.652 238.08C167.838 237.95 166.532 238.349 165.685 238.436C164.837 238.523 163.377 238.576 162.92 238.166Z" fill="#EBEBEB"/>
<path d="M201.911 317.353C200.023 318.648 198.876 320.421 196.646 321.341C194.238 322.333 191.955 323.706 189.469 324.713C186.984 325.719 184.272 327.275 181.695 327.901C179.542 328.426 177.119 327.42 174.952 327.463C172.698 327.57 170.465 327.936 168.295 328.556C166.797 328.942 166.85 328.667 165.68 328.219C165.117 327.949 164.506 327.795 163.883 327.766C163.145 327.751 162.409 327.697 161.677 327.603C161.639 328.638 163.926 330.738 164.793 331.398C158.05 331.981 150.873 331.128 144.173 330.435C142.198 330.232 141.028 331.09 139.145 331.331C137.406 331.557 135.932 330.618 134.179 330.603C132.069 330.603 131.144 331.022 130.243 332.337C143.185 336.052 156.841 336.539 170.014 333.755C183.188 330.972 195.479 325.003 205.812 316.37C205.809 316.107 205.788 315.845 205.75 315.585C204.661 316.009 202.903 316.669 201.911 317.353Z" fill="#EBEBEB"/>
<path d="M73.0645 253.864C73.4286 253.027 73.5568 252.106 73.4354 251.2C73.2138 250.266 72.7755 250.348 72.3468 249.601C71.1571 247.545 72.9296 247.299 72.9248 245.57C72.9248 244.558 70.8247 242.15 72.2167 241.119C72.8429 240.637 75.1068 241.784 76.2579 241.307C76.0556 239.645 74.4228 240.151 73.7581 239.024C72.7658 237.333 74.4132 236.982 74.9237 236.23C76.5807 233.822 74.2349 232.565 73.6377 230.571C71.5642 237.88 70.5122 245.442 70.5116 253.04C70.5116 253.334 70.5116 253.628 70.5357 253.927C71.1378 253.397 71.9229 253.248 73.0645 253.864Z" fill="#EBEBEB"/>
<path d="M75.7811 230.455C76.6096 230.195 76.2869 228.172 76.441 227.623C77.0143 225.912 77.825 224.291 78.8493 222.806C80.2125 220.773 79.6056 220.017 79.3021 217.537C79.2491 217.117 79.2202 216.66 79.1865 216.212C77.1562 220.256 75.4646 224.46 74.129 228.783C74.6058 229.472 75.2079 230.638 75.7811 230.455Z" fill="#EBEBEB"/>
<path d="M73.9363 244.014C72.6551 247.79 76.6963 248.349 76.7781 251.451C76.807 252.602 76.2146 256.566 78.6229 256.268C79.5863 254.071 78.0353 253.768 78.3147 251.73C78.5025 250.353 79.4948 249.958 77.9534 248.84C77.5295 248.522 76.7733 248.513 76.4313 248.18C75.9497 247.723 76.046 247.097 75.757 246.639C75.2416 245.806 74.4517 245.271 73.9363 244.014Z" fill="#EBEBEB"/>
<path d="M73.9363 257.048C72.9152 259.297 71.0463 267.399 74.6781 267.548C75.0827 267.548 75.8245 266.826 76.2387 267.1C76.5662 267.317 76.2821 268.16 76.4314 268.247C77.3706 268.776 77.6115 268.907 77.9872 267.283C78.2858 265.997 77.6307 265.944 77.4429 265.068C77.3239 264.3 77.3158 263.52 77.4188 262.751C75.0634 262.173 79.8271 261.672 79.6345 260.723C79.4948 260 75.9738 260.208 75.468 260.367C75.3963 259.713 75.4321 259.053 75.574 258.411C74.7889 258.059 74.548 257.231 73.9363 257.048Z" fill="#EBEBEB"/>
<path d="M85.8002 264.403C83.7483 264.523 82.6741 262.654 80.2658 263.386C80.2658 263.868 80.1357 264.427 80.1357 264.884C80.68 264.721 83.204 264.128 82.7994 265.583C82.4622 266.797 80.2658 265.26 80.6463 267.052C81.2725 266.98 82.2599 266.512 82.8764 266.57C83.7723 266.686 84.124 267.168 84.9669 267.355C86.0843 267.596 85.9302 267.042 87.1248 267.885C88.0496 268.54 89.0081 269.547 89.3115 270.563C89.9618 272.721 88.9984 273.574 91.768 273.911C93.213 274.089 96.2716 275.664 96.1801 273.29C97.5577 273.771 99.6674 277.856 101.512 277.442C103.824 276.926 99.3495 273.328 99.364 272.928C100.274 272.846 102.297 271.965 102.996 271.56C103.694 271.156 104.441 271.214 104.161 269.754C103.068 269.624 102.586 270.154 101.753 270.371C100.748 270.586 99.7159 270.64 98.6944 270.53C96.175 270.342 93.7809 269.357 91.8596 267.717C90.7565 266.811 89.8125 266.06 88.6613 265.207C87.9099 264.653 87.934 264.302 87.0718 264.051C86.8475 263.995 86.6125 263.998 86.3897 264.059C86.1668 264.121 85.9637 264.239 85.8002 264.403V264.403Z" fill="#EBEBEB"/>
<path d="M74.2687 269.749C75.7426 269.749 77.3176 269.928 78.7819 269.749C79.2636 269.687 79.8657 268.878 80.4292 269.446C80.6315 269.653 80.4726 270.954 80.2895 271.156C79.3984 272.148 74.4854 271.83 74.7696 269.913" fill="#EBEBEB"/>
<path d="M96.8253 281.3C96.6856 278.703 95.6837 279.06 94.4843 277.398C94.0701 278.472 93.6077 280.625 92.1579 280.77C90.0145 281.001 89.6725 277.798 88.3912 276.916C86.5561 275.664 82.3848 276.883 81.9561 278.588C80.251 279.257 80.1403 280.062 79.4515 281.478C78.9528 282.5 78.3797 283.483 77.7367 284.421C77.5304 284.716 77.3068 284.999 77.0672 285.269C78.6486 288.978 80.5 292.566 82.6064 296.005C82.7998 296.068 83.0006 296.105 83.2037 296.116C85.0196 296.26 85.9877 294.257 87.4375 294.444C88.4924 294.579 89.2631 296.371 90.1301 297.074C92.5384 299.059 96.5652 300.533 97.4996 303.466C98.068 305.243 98.7712 306.014 99.8838 307.541C100.664 308.605 100.505 310.494 101.652 311.144C101.686 309.468 101.904 307.801 102.302 306.173C102.865 304.136 102.268 302.45 103.212 300.639C104.156 298.828 105.664 297.334 105.495 295.075C105.38 293.539 104.238 291.598 103.145 290.495C100.019 287.373 97.0902 286.213 96.8253 281.3Z" fill="#EBEBEB"/>
<path d="M117.72 298.828C116.381 299.083 116.844 301.689 116.463 302.753C115.929 304.251 115.394 304.097 113.824 304.507C112.819 304.707 111.832 304.985 110.871 305.34C109.426 306.014 109.301 307.218 108.877 308.663C110.678 308.813 111.714 306.708 113.332 306.371C114.724 306.087 115.866 306.713 117.311 306.082C120.938 304.502 120.037 300.928 120.533 298.019C119.459 297.826 118.722 298.471 117.72 298.828Z" fill="#EBEBEB"/>
<path d="M119.247 283.622C118.765 284.696 119.247 287.263 120.832 285.707C121.564 284.985 121.506 283.212 120.109 283.299C120.109 283.521 120.003 283.583 119.916 283.781" fill="#EBEBEB"/>
<path d="M131.087 286.295C129.781 287.321 132.594 289.06 133.057 287.427C133.399 286.247 131.515 285.856 131.087 286.295Z" fill="#EBEBEB"/>
<path d="M110.033 257.886C110.414 258.849 112.88 259.62 113.337 261.219C113.756 262.693 113.337 263.979 115.524 264.042C115.471 262.987 116.049 261.605 115.558 260.67C115.336 260.251 114.595 260.188 114.33 259.707C114.065 259.225 114.257 258.652 114.041 258.199C113.578 257.255 109.532 255.03 110.033 257.886Z" fill="#EBEBEB"/>
<g style="mix-blend-mode:multiply">
<g style="mix-blend-mode:multiply">
<path d="M172.615 331.686C153.963 331.686 135.833 325.521 121.048 314.15C106.262 302.779 95.6489 286.84 90.8603 268.812C86.0717 250.785 87.3759 231.68 94.5698 214.471C101.764 197.261 114.444 182.912 130.638 173.656C120.145 176.686 110.358 181.771 101.846 188.614C93.3332 195.458 86.2651 203.924 81.0514 213.522C75.8378 223.119 72.5824 233.657 71.4743 244.522C70.3663 255.388 71.4276 266.366 74.5966 276.818C77.7657 287.27 82.9794 296.989 89.935 305.41C96.8907 313.831 105.45 320.786 115.115 325.873C124.781 330.959 135.361 334.074 146.24 335.038C157.12 336.003 168.082 334.796 178.492 331.489C176.565 331.6 174.6 331.686 172.615 331.686Z" fill="#FAFAFA"/>
</g>
</g>
<path d="M167.414 352.572L167.684 353.054C167.985 353.601 168.439 354.05 168.989 354.345L169.471 354.61L168.989 354.879C168.437 355.172 167.983 355.621 167.684 356.17L167.414 356.652L167.144 356.17C166.846 355.622 166.394 355.174 165.844 354.879L165.362 354.61L165.844 354.345C166.392 354.048 166.843 353.6 167.144 353.054L167.414 352.572Z" fill="#EBEBEB"/>
<path d="M70.5116 333.465L70.7814 333.947C71.0828 334.494 71.5361 334.942 72.0867 335.237L72.5684 335.507L72.0867 335.772C71.5361 336.067 71.0828 336.516 70.7814 337.063L70.5116 337.545L70.2467 337.063C69.9425 336.518 69.4899 336.07 68.9414 335.772L68.4597 335.507L68.9414 335.237C69.4899 334.939 69.9425 334.492 70.2467 333.947L70.5116 333.465Z" fill="#EBEBEB"/>
<path d="M85.0489 184.027L85.3138 184.509C85.6166 185.055 86.0696 185.503 86.6192 185.799L87.1008 186.069L86.6192 186.334C86.0707 186.632 85.6181 187.08 85.3138 187.625L85.0489 188.107L84.7792 187.625C84.4778 187.078 84.0244 186.629 83.4739 186.334L82.9922 186.069L83.4739 185.799C84.0254 185.505 84.4791 185.057 84.7792 184.509L85.0489 184.027Z" fill="#EBEBEB"/>
<path d="M289.276 265.723L289.758 266.561C290.271 267.503 291.045 268.277 291.988 268.791L292.826 269.248L291.988 269.73C291.046 270.242 290.272 271.015 289.758 271.955L289.276 272.798L288.818 271.955C288.303 271.016 287.529 270.243 286.588 269.73L285.75 269.248L286.588 268.791C287.53 268.276 288.303 267.502 288.818 266.561L289.276 265.723Z" fill="#EBEBEB"/>
<path d="M238.917 181.984L239.182 182.466C239.486 183.011 239.939 183.459 240.487 183.757L240.969 184.022L240.487 184.292C239.939 184.59 239.486 185.037 239.182 185.582L238.917 186.064L238.647 185.582C238.343 185.037 237.89 184.59 237.342 184.292L236.86 184.022L237.342 183.757C237.89 183.459 238.343 183.011 238.647 182.466L238.917 181.984Z" fill="#EBEBEB"/>
<path d="M187.788 159.861L188.053 160.343C188.357 160.888 188.81 161.336 189.358 161.634L189.84 161.899L189.358 162.169C188.81 162.467 188.357 162.914 188.053 163.459L187.788 163.941L187.518 163.459C187.211 162.913 186.753 162.467 186.198 162.173L185.717 161.904L186.198 161.639C186.748 161.342 187.201 160.894 187.504 160.348L187.788 159.861Z" fill="#EBEBEB"/>
<path d="M23.1446 292.368L23.6263 293.206C24.1399 294.149 24.9141 294.923 25.8564 295.436L26.6945 295.918L25.8564 296.376C24.9151 296.891 24.1412 297.664 23.6263 298.606L23.1446 299.444L22.663 298.606C22.1481 297.664 21.3741 296.891 20.4328 296.376L19.5947 295.918L20.4328 295.436C21.3751 294.923 22.1494 294.149 22.663 293.206L23.1446 292.368Z" fill="#EBEBEB"/>
<g clip-path="url(#clip0_312_3493)">
<path d="M253.156 75.3127C249.342 89.7959 234.507 98.4426 220.038 94.6329C205.555 90.8196 196.908 75.9842 200.721 61.501C204.517 47.0284 219.352 38.3817 233.835 42.195C248.319 46.0082 256.965 60.8437 253.156 75.3127Z" fill="#FDB913"/>
<path d="M231.796 49.9278C208.51 43.804 187.378 47.4491 184.572 58.0858C181.769 68.7083 198.374 82.2975 221.656 88.4355C244.942 94.5593 266.074 90.9142 268.877 80.2917C271.684 69.655 255.078 56.0658 231.796 49.9278ZM222.899 83.722C205.311 79.0903 192.769 68.8266 194.884 60.7947C196.999 52.7627 212.967 50.0097 230.554 54.6413C248.142 59.273 260.698 69.5403 258.583 77.5723C256.472 85.5899 240.486 88.3537 222.899 83.722Z" fill="#9ACA3C"/>
<path d="M203.564 69.5762C212.591 72.0197 221.568 75.4988 230.839 76.9252C229.022 76.6008 234.046 76.919 234.885 76.9042C236.993 76.8618 239.097 76.773 241.193 76.7734C244.933 76.7655 248.692 77.0363 252.383 77.6996C252.672 76.9221 252.917 76.1336 253.142 75.3094C256.966 60.8441 248.319 46.0086 233.836 42.1954C219.353 38.3821 204.517 47.0288 200.718 61.5156C200.052 64.0205 199.778 66.5339 199.823 68.9913C201.051 69.06 202.297 69.2395 203.564 69.5762Z" fill="#FDB913"/>
</g>
<defs>
<filter id="filter0_i_312_3493" x="0" y="0.40918" width="303" height="566" filterUnits="userSpaceOnUse" color-interpolation-filters="sRGB">
<feFlood flood-opacity="0" result="BackgroundImageFix"/>
<feBlend mode="normal" in="SourceGraphic" in2="BackgroundImageFix" result="shape"/>
<feColorMatrix in="SourceAlpha" type="matrix" values="0 0 0 0 0 0 0 0 0 0 0 0 0 0 0 0 0 0 127 0" result="hardAlpha"/>
<feOffset dy="4"/>
<feGaussianBlur stdDeviation="17"/>
<feComposite in2="hardAlpha" operator="arithmetic" k2="-1" k3="1"/>
<feColorMatrix type="matrix" values="0 0 0 0 0 0 0 0 0 0 0 0 0 0 0 0 0 0 0.25 0"/>
<feBlend mode="normal" in2="shape" result="effect1_innerShadow_312_3493"/>
</filter>
<clipPath id="clip0_312_3493">
<rect width="87.1773" height="54.2354" fill="white" transform="translate(191.344 31.4092) rotate(14.2435)"/>
</clipPath>
</defs>
</svg>
