<svg width="201" height="200" viewBox="0 0 201 200" fill="none" xmlns="http://www.w3.org/2000/svg">
<path d="M52.9618 11.7653C47.5906 4.63024 39.0532 0.0175781 29.431 0.0175781C13.1765 0.0175781 0 13.1941 0 29.4486C0 39.0708 4.61266 47.6082 11.7477 52.9793C21.0965 35.4812 35.4725 21.1053 52.9618 11.7653Z" fill="#005E85"/>
<path d="M58.8621 29.4487C58.8621 22.8163 56.666 16.6955 52.9618 11.7654C35.4725 21.1053 21.0965 35.4901 11.7566 52.9706C16.6779 56.6748 22.7987 58.8709 29.4399 58.8709C45.6856 58.8709 58.8621 45.6944 58.8621 29.4487Z" fill="#9ACA3C"/>
<path d="M50.4217 83.213C59.6999 83.213 67.2231 90.7361 67.2231 100.014C67.2231 81.9165 81.8989 67.2407 99.9967 67.2407H166.391C161.196 67.1172 156.61 64.6301 153.611 60.82C153.549 60.7583 153.461 60.6877 153.417 60.626C148.187 53.5438 141.59 47.5465 134.014 43.0132C124.065 37.06 112.441 33.6292 100.006 33.6292C94.2728 33.6292 88.7165 34.3524 83.4159 35.7194C81.2992 36.2662 79.2177 36.9101 77.1804 37.6597C71.0772 39.8911 65.3974 42.9956 60.2909 46.8233C44.1069 58.9326 33.6292 78.2476 33.6292 100.023C33.6204 90.7361 41.1435 83.213 50.4217 83.213Z" fill="#FDB913"/>
<path d="M128.149 116.816C122.425 126.385 111.965 132.788 100.006 132.788C81.9077 132.788 67.2319 118.112 67.2319 100.014C67.2319 88.9898 56.6131 80.4436 45.0506 84.042C38.1624 86.1852 33.6292 92.7911 33.6292 100.014C33.6292 136.677 63.3513 166.4 100.014 166.4C129.886 166.4 155.146 146.67 163.48 119.532C163.895 118.183 162.898 116.816 161.487 116.816H128.149Z" fill="#F16682"/>
<path d="M200.003 100.103C200.011 90.7891 192.515 83.213 183.201 83.213H100.482C91.4333 83.213 83.6455 90.1628 83.2222 99.2029C82.7636 108.852 90.4543 116.816 100.006 116.816H161.461C162.881 116.816 163.878 118.192 163.463 119.55C154.829 147.623 128.088 167.758 96.875 166.32C62.7166 164.75 35.0583 136.916 33.6824 102.748C32.1567 64.8329 62.4344 33.6203 100.015 33.6203C121.931 33.6203 141.343 44.248 153.453 60.5996C156.963 65.2034 162.775 67.9639 169.187 67.0908C177.283 65.9883 183.457 58.9503 183.642 50.7833C183.766 44.9712 180.723 40.7289 177.23 36.4867C174.082 32.659 170.651 29.0694 166.973 25.7533C159.591 19.0856 151.213 13.5205 142.19 9.3135C132.956 5.00954 123.06 2.13435 112.953 0.829045C108.667 0.27341 104.345 0 100.024 0C83.0105 0 67.0029 4.25988 52.9798 11.7477C57.028 17.1189 59.2769 23.9276 58.8271 31.2655C57.9364 45.9502 45.977 57.9095 31.2923 58.8003C23.9544 59.2501 17.1457 57.0011 11.7745 52.9529C3.73988 67.9992 -0.581727 85.3297 0.0885628 103.736C2.02006 156.539 45.4478 199.085 98.2773 199.985C154.255 200.955 199.959 155.869 200.003 100.103Z" fill="#5D62A8"/>
</svg>
