<svg width="1017" height="577" viewBox="0 0 1017 577" fill="none" xmlns="http://www.w3.org/2000/svg">
<circle r="287.863" transform="matrix(-1 0 0 1 494.412 288.363)" fill="url(#paint0_radial_312_3728)" fill-opacity="0.3"/>
<circle opacity="0.8" r="258.737" transform="matrix(-1 0 0 1 494.412 288.362)" fill="url(#paint1_radial_312_3728)"/>
<path d="M974.088 411.065L972.692 410.651L974.088 411.065ZM896.045 221.764L904.562 236.264L912.861 221.638L896.045 221.764ZM710.733 479.841C709.981 479.556 709.14 479.934 708.855 480.686C708.569 481.438 708.947 482.279 709.699 482.564L710.733 479.841ZM713.41 483.951C714.164 484.229 715.001 483.843 715.279 483.088C715.557 482.333 715.171 481.496 714.416 481.218L713.41 483.951ZM729.12 486.291C728.354 486.045 727.534 486.466 727.288 487.231C727.041 487.997 727.462 488.817 728.228 489.064L729.12 486.291ZM735.668 491.369C736.439 491.598 737.25 491.16 737.48 490.389C737.709 489.618 737.271 488.807 736.5 488.577L735.668 491.369ZM751.514 492.682C750.734 492.488 749.943 492.963 749.749 493.744C749.555 494.524 750.031 495.314 750.811 495.509L751.514 492.682ZM758.446 497.31C759.231 497.485 760.01 496.991 760.185 496.206C760.36 495.421 759.866 494.643 759.081 494.468L758.446 497.31ZM774.296 497.468C773.503 497.333 772.751 497.866 772.615 498.659C772.48 499.451 773.013 500.204 773.806 500.339L774.296 497.468ZM781.585 501.563C782.381 501.677 783.119 501.124 783.233 500.328C783.348 499.532 782.795 498.794 781.999 498.68L781.585 501.563ZM797.387 500.458C796.586 500.388 795.88 500.981 795.81 501.782C795.74 502.584 796.333 503.29 797.135 503.36L797.387 500.458ZM804.993 503.928C805.796 503.974 806.484 503.361 806.53 502.558C806.576 501.755 805.963 501.067 805.16 501.02L804.993 503.928ZM820.653 501.437C819.849 501.441 819.2 502.096 819.203 502.9C819.207 503.704 819.861 504.353 820.666 504.35L820.653 501.437ZM828.52 504.189C829.324 504.16 829.952 503.484 829.922 502.68C829.892 501.876 829.217 501.249 828.413 501.278L828.52 504.189ZM843.892 500.182C843.093 500.267 842.513 500.984 842.597 501.784C842.682 502.584 843.399 503.163 844.199 503.079L843.892 500.182ZM851.979 502.115C852.775 502.002 853.329 501.265 853.215 500.468C853.102 499.672 852.365 499.119 851.569 499.232L851.979 502.115ZM866.829 496.473C866.043 496.646 865.547 497.423 865.721 498.209C865.894 498.994 866.671 499.49 867.457 499.317L866.829 496.473ZM875.103 497.468C875.881 497.263 876.346 496.467 876.141 495.689C875.936 494.911 875.14 494.447 874.362 494.651L875.103 497.468ZM889.148 490.093C888.39 490.362 887.994 491.195 888.264 491.953C888.533 492.711 889.366 493.106 890.124 492.837L889.148 490.093ZM897.469 490.039C898.214 489.736 898.572 488.887 898.269 488.142C897.966 487.397 897.117 487.038 896.372 487.341L897.469 490.039ZM910.411 480.855C909.697 481.226 909.421 482.106 909.792 482.819C910.164 483.532 911.044 483.809 911.757 483.437L910.411 480.855ZM918.653 479.622C919.347 479.215 919.58 478.323 919.173 477.629C918.766 476.935 917.874 476.703 917.18 477.11L918.653 479.622ZM930.082 468.607C929.435 469.085 929.298 469.997 929.776 470.644C930.254 471.29 931.166 471.427 931.813 470.949L930.082 468.607ZM938.022 466.088C938.641 465.574 938.726 464.656 938.213 464.037C937.699 463.418 936.781 463.333 936.162 463.846L938.022 466.088ZM947.43 453.315C946.877 453.899 946.902 454.821 947.486 455.374C948.07 455.927 948.991 455.902 949.545 455.318L947.43 453.315ZM954.79 449.418C955.304 448.801 955.221 447.882 954.603 447.367C953.985 446.853 953.066 446.936 952.552 447.554L954.79 449.418ZM961.587 435.09C961.161 435.773 961.369 436.671 962.051 437.097C962.733 437.523 963.632 437.315 964.058 436.632L961.587 435.09ZM968.001 429.771C968.376 429.059 968.103 428.178 967.392 427.803C966.68 427.429 965.799 427.701 965.424 428.413L968.001 429.771ZM971.526 414.304C971.266 415.065 971.672 415.893 972.433 416.153C973.194 416.413 974.022 416.007 974.282 415.246L971.526 414.304ZM976.516 407.873C976.73 407.097 976.274 406.296 975.499 406.082C974.723 405.869 973.922 406.324 973.708 407.1L976.516 407.873ZM977.022 392.818C976.873 393.609 977.393 394.37 978.183 394.519C978.974 394.668 979.735 394.149 979.884 393.358L977.022 392.818ZM981.108 386.005C981.223 385.209 980.671 384.471 979.875 384.356C979.079 384.241 978.34 384.793 978.226 385.589L981.108 386.005ZM979.672 371.009C979.629 371.812 980.245 372.498 981.048 372.541C981.851 372.584 982.537 371.968 982.581 371.165L979.672 371.009ZM982.81 363.707C982.816 362.903 982.169 362.246 981.364 362.24C980.56 362.234 979.903 362.881 979.897 363.685L982.81 363.707ZM979.318 349.047C979.388 349.848 980.094 350.441 980.895 350.371C981.697 350.301 982.29 349.595 982.22 348.794L979.318 349.047ZM981.393 341.374C981.284 340.577 980.55 340.018 979.753 340.127C978.957 340.235 978.398 340.969 978.506 341.766L981.393 341.374ZM975.837 327.364C976.021 328.146 976.806 328.631 977.588 328.447C978.371 328.262 978.856 327.478 978.672 326.695L975.837 327.364ZM976.783 319.472C976.561 318.699 975.754 318.252 974.981 318.474C974.208 318.696 973.761 319.503 973.984 320.276L976.783 319.472ZM969.267 306.409C969.562 307.157 970.408 307.524 971.156 307.229C971.904 306.934 972.271 306.089 971.976 305.34L969.267 306.409ZM969.075 298.463C968.745 297.73 967.882 297.403 967.149 297.733C966.416 298.063 966.089 298.925 966.419 299.659L969.075 298.463ZM959.789 286.594C960.186 287.294 961.075 287.539 961.774 287.142C962.474 286.746 962.72 285.857 962.323 285.157L959.789 286.594ZM958.495 278.753C958.066 278.072 957.167 277.868 956.486 278.296C955.806 278.724 955.601 279.623 956.029 280.304L958.495 278.753ZM947.674 268.263C948.162 268.903 949.076 269.026 949.715 268.539C950.355 268.051 950.478 267.137 949.991 266.498L947.674 268.263ZM945.338 260.665C944.823 260.047 943.904 259.965 943.287 260.48C942.669 260.995 942.586 261.913 943.102 262.531L945.338 260.665ZM933.225 251.694C933.792 252.264 934.714 252.267 935.284 251.7C935.855 251.133 935.857 250.211 935.29 249.64L933.225 251.694ZM929.919 244.466C929.327 243.92 928.406 243.957 927.861 244.549C927.315 245.14 927.352 246.061 927.944 246.606L929.919 244.466ZM916.75 237.14C917.386 237.632 918.301 237.516 918.793 236.88C919.285 236.244 919.169 235.329 918.533 234.837L916.75 237.14ZM912.538 230.399C911.882 229.935 910.973 230.091 910.509 230.748C910.044 231.404 910.2 232.313 910.857 232.778L912.538 230.399ZM898.524 224.845C899.219 225.25 900.111 225.014 900.515 224.319C900.92 223.624 900.685 222.733 899.989 222.328L898.524 224.845ZM709.699 482.564C710.939 483.035 712.176 483.497 713.41 483.951L714.416 481.218C713.191 480.767 711.964 480.308 710.733 479.841L709.699 482.564ZM728.228 489.064C730.722 489.866 733.202 490.634 735.668 491.369L736.5 488.577C734.054 487.849 731.594 487.087 729.12 486.291L728.228 489.064ZM750.811 495.509C753.372 496.145 755.917 496.746 758.446 497.31L759.081 494.468C756.575 493.908 754.053 493.313 751.514 492.682L750.811 495.509ZM773.806 500.339C776.418 500.786 779.011 501.193 781.585 501.563L781.999 498.68C779.451 498.314 776.883 497.91 774.296 497.468L773.806 500.339ZM797.135 503.36C799.777 503.59 802.396 503.779 804.993 503.928L805.16 501.02C802.592 500.873 800.001 500.686 797.387 500.458L797.135 503.36ZM820.666 504.35C823.311 504.339 825.929 504.285 828.52 504.189L828.413 501.278C825.854 501.373 823.267 501.426 820.653 501.437L820.666 504.35ZM844.199 503.079C846.824 502.801 849.418 502.48 851.979 502.115L851.569 499.232C849.042 499.591 846.483 499.909 843.892 500.182L844.199 503.079ZM867.457 499.317C870.044 498.746 872.593 498.129 875.103 497.468L874.362 494.651C871.89 495.302 869.378 495.91 866.829 496.473L867.457 499.317ZM890.124 492.837C892.618 491.95 895.067 491.016 897.469 490.039L896.372 487.341C894.01 488.302 891.601 489.22 889.148 490.093L890.124 492.837ZM911.757 483.437C914.111 482.21 916.41 480.938 918.653 479.622L917.18 477.11C914.979 478.4 912.722 479.65 910.411 480.855L911.757 483.437ZM931.813 470.949C933.949 469.371 936.019 467.75 938.022 466.088L936.162 463.846C934.201 465.473 932.174 467.061 930.082 468.607L931.813 470.949ZM949.545 455.318C951.372 453.39 953.121 451.422 954.79 449.418L952.552 447.554C950.923 449.51 949.215 451.431 947.43 453.315L949.545 455.318ZM964.058 436.632C965.466 434.376 966.781 432.087 968.001 429.771L965.424 428.413C964.238 430.666 962.958 432.893 961.587 435.09L964.058 436.632ZM974.282 415.246C974.709 413.996 975.11 412.74 975.484 411.479L972.692 410.651C972.329 411.873 971.941 413.091 971.526 414.304L974.282 415.246ZM975.484 411.479C975.842 410.274 976.186 409.072 976.516 407.873L973.708 407.1C973.383 408.28 973.044 409.464 972.692 410.651L975.484 411.479ZM979.884 393.358C980.349 390.893 980.757 388.442 981.108 386.005L978.226 385.589C977.88 387.984 977.479 390.394 977.022 392.818L979.884 393.358ZM982.581 371.165C982.715 368.661 982.791 366.175 982.81 363.707L979.897 363.685C979.879 366.108 979.805 368.549 979.672 371.009L982.581 371.165ZM982.22 348.794C982.002 346.298 981.726 343.825 981.393 341.374L978.506 341.766C978.833 344.171 979.104 346.598 979.318 349.047L982.22 348.794ZM978.672 326.695C978.097 324.261 977.467 321.853 976.783 319.472L973.984 320.276C974.655 322.612 975.273 324.975 975.837 327.364L978.672 326.695ZM971.976 305.34C971.06 303.017 970.092 300.725 969.075 298.463L966.419 299.659C967.418 301.879 968.368 304.129 969.267 306.409L971.976 305.34ZM962.323 285.157C961.092 282.988 959.816 280.853 958.495 278.753L956.029 280.304C957.327 282.367 958.581 284.464 959.789 286.594L962.323 285.157ZM949.991 266.498C948.479 264.515 946.927 262.57 945.338 260.665L943.102 262.531C944.664 264.403 946.189 266.314 947.674 268.263L949.991 266.498ZM935.29 249.64C933.532 247.872 931.741 246.147 929.919 244.466L927.944 246.606C929.735 248.259 931.497 249.955 933.225 251.694L935.29 249.64ZM918.533 234.837C916.56 233.309 914.561 231.83 912.538 230.399L910.857 232.778C912.845 234.184 914.811 235.638 916.75 237.14L918.533 234.837Z" fill="#E28C24"/>
<path d="M36.014 357.232L35.2867 355.971L36.014 357.232ZM64.8267 490.21L53.6233 477.67L48.3648 493.642L64.8267 490.21ZM269.267 417.433C269.99 417.786 270.861 417.485 271.214 416.762C271.566 416.038 271.265 415.167 270.542 414.815L269.267 417.433ZM267.145 413.155C266.422 412.801 265.55 413.1 265.196 413.822C264.842 414.544 265.14 415.416 265.863 415.77L267.145 413.155ZM252.256 409.032C252.976 409.391 253.85 409.099 254.209 408.379C254.569 407.66 254.277 406.785 253.557 406.426L252.256 409.032ZM246.776 403.031C246.057 402.671 245.182 402.961 244.821 403.68C244.46 404.399 244.751 405.274 245.47 405.635L246.776 403.031ZM231.914 398.829C232.633 399.189 233.508 398.899 233.869 398.18C234.23 397.461 233.939 396.586 233.22 396.225L231.914 398.829ZM226.435 392.828C225.715 392.469 224.841 392.761 224.481 393.48C224.122 394.2 224.414 395.075 225.133 395.434L226.435 392.828ZM211.549 388.703C212.271 389.058 213.143 388.759 213.498 388.037C213.852 387.315 213.553 386.443 212.831 386.088L211.549 388.703ZM206.006 382.763C205.282 382.413 204.412 382.716 204.061 383.44C203.711 384.164 204.014 385.034 204.738 385.385L206.006 382.763ZM191.06 378.885C191.789 379.225 192.655 378.909 192.994 378.18C193.334 377.45 193.018 376.584 192.289 376.245L191.06 378.885ZM185.382 373.069C184.649 372.737 183.786 373.061 183.454 373.793C183.122 374.526 183.446 375.389 184.178 375.721L185.382 373.069ZM170.321 369.624C171.061 369.939 171.916 369.594 172.231 368.853C172.545 368.113 172.2 367.258 171.46 366.944L170.321 369.624ZM164.437 364.019C163.692 363.716 162.842 364.074 162.539 364.818C162.235 365.563 162.593 366.413 163.338 366.717L164.437 364.019ZM149.243 361.256C149.998 361.532 150.834 361.144 151.111 360.389C151.387 359.633 150.999 358.797 150.243 358.521L149.243 361.256ZM143.063 355.981C142.302 355.721 141.475 356.128 141.215 356.889C140.955 357.65 141.362 358.478 142.123 358.738L143.063 355.981ZM127.723 354.229C128.497 354.448 129.302 353.998 129.521 353.225C129.74 352.451 129.291 351.646 128.517 351.427L127.723 354.229ZM121.143 349.463C120.363 349.269 119.572 349.744 119.378 350.525C119.184 351.305 119.659 352.095 120.44 352.29L121.143 349.463ZM105.706 349.195C106.5 349.328 107.251 348.794 107.384 348.001C107.518 347.208 106.983 346.456 106.19 346.323L105.706 349.195ZM98.617 345.223C97.8185 345.127 97.0929 345.696 96.9962 346.494C96.8996 347.293 97.4685 348.018 98.267 348.115L98.617 345.223ZM83.3019 347.111C84.1062 347.119 84.764 346.472 84.7712 345.668C84.7785 344.864 84.1324 344.206 83.3281 344.199L83.3019 347.111ZM75.6535 344.379C74.8505 344.425 74.2367 345.113 74.2826 345.916C74.3285 346.719 75.0166 347.333 75.8196 347.287L75.6535 344.379ZM61.0247 349.24C61.8113 349.073 62.313 348.299 62.1452 347.512C61.9775 346.726 61.2038 346.224 60.4172 346.392L61.0247 349.24ZM52.9551 348.318C52.1858 348.552 51.7521 349.366 51.9866 350.135C52.2211 350.904 53.0348 351.338 53.8042 351.104L52.9551 348.318ZM40.0217 356.702C40.7362 356.333 41.016 355.454 40.6467 354.739C40.2773 354.025 39.3987 353.745 38.6843 354.114L40.0217 356.702ZM31.6699 358.174C30.9937 358.609 30.7984 359.511 31.2337 360.187C31.6691 360.863 32.5703 361.058 33.2465 360.623L31.6699 358.174ZM20.7275 370.779C21.2876 370.202 21.2737 369.28 20.6964 368.72C20.1192 368.16 19.1972 368.174 18.6371 368.751L20.7275 370.779ZM13.1794 375.172C12.7011 375.819 12.8375 376.731 13.4841 377.209C14.1307 377.687 15.0426 377.551 15.5209 376.904L13.1794 375.172ZM7.92984 391.007C8.20421 390.251 7.81374 389.415 7.0577 389.141C6.30165 388.867 5.46632 389.257 5.19195 390.013L7.92984 391.007ZM2.89132 398.15C2.72862 398.938 3.23525 399.708 4.02291 399.871C4.81057 400.034 5.58099 399.527 5.74369 398.739L2.89132 398.15ZM4.66224 414.766C4.61188 413.963 3.92032 413.353 3.11763 413.404C2.3149 413.454 1.705 414.146 1.75536 414.948L4.66224 414.766ZM2.7858 423.3C2.93083 424.091 3.68969 424.615 4.48081 424.47C5.27193 424.325 5.79569 423.566 5.6507 422.775L2.7858 423.3ZM10.2648 438.266C9.95724 437.523 9.10543 437.17 8.36228 437.477C7.61913 437.785 7.26604 438.637 7.57365 439.38L10.2648 438.266ZM11.1521 446.967C11.5293 447.677 12.411 447.947 13.1213 447.57C13.8317 447.193 14.1017 446.311 13.7245 445.601L11.1521 446.967ZM22.6011 459.172C22.1026 458.541 21.1868 458.433 20.5556 458.932C19.9245 459.43 19.817 460.346 20.3156 460.977L22.6011 459.172ZM25.7919 467.315C26.344 467.9 27.2657 467.927 27.8506 467.375C28.4354 466.823 28.462 465.901 27.9099 465.316L25.7919 467.315ZM40.0449 476.078C39.3977 475.6 38.4859 475.738 38.0085 476.385C37.531 477.032 37.6687 477.944 38.316 478.422L40.0449 476.078ZM45.2852 483.08C45.974 483.496 46.869 483.274 47.2842 482.585C47.6993 481.896 47.4775 481.001 46.7886 480.586L45.2852 483.08ZM61.3986 487.549C60.6415 487.277 59.8077 487.671 59.5364 488.428C59.265 489.185 59.6588 490.019 60.416 490.291L61.3986 487.549ZM270.542 414.815C269.41 414.264 268.278 413.711 267.145 413.155L265.863 415.77C266.998 416.327 268.133 416.881 269.267 417.433L270.542 414.815ZM253.557 406.426C251.299 405.298 249.039 404.166 246.776 403.031L245.47 405.635C247.734 406.77 249.996 407.903 252.256 409.032L253.557 406.426ZM233.22 396.225C230.959 395.091 228.697 393.958 226.435 392.828L225.133 395.434C227.394 396.563 229.654 397.695 231.914 398.829L233.22 396.225ZM212.831 386.088C210.555 384.972 208.28 383.863 206.006 382.763L204.738 385.385C207.006 386.482 209.277 387.589 211.549 388.703L212.831 386.088ZM192.289 376.245C189.983 375.171 187.681 374.112 185.382 373.069L184.178 375.721C186.468 376.76 188.762 377.816 191.06 378.885L192.289 376.245ZM171.46 366.944C169.114 365.946 166.772 364.971 164.437 364.019L163.338 366.717C165.659 367.662 167.987 368.632 170.321 369.624L171.46 366.944ZM150.243 358.521C147.842 357.642 145.448 356.795 143.063 355.981L142.123 358.738C144.486 359.544 146.86 360.384 149.243 361.256L150.243 358.521ZM128.517 351.427C126.047 350.727 123.589 350.072 121.143 349.463L120.44 352.29C122.853 352.89 125.282 353.538 127.723 354.229L128.517 351.427ZM106.19 346.323C103.649 345.895 101.124 345.527 98.617 345.223L98.267 348.115C100.727 348.413 103.207 348.774 105.706 349.195L106.19 346.323ZM83.3281 344.199C80.7467 344.176 78.188 344.234 75.6535 344.379L75.8196 347.287C78.2872 347.146 80.7818 347.089 83.3019 347.111L83.3281 344.199ZM60.4172 346.392C57.8994 346.929 55.4114 347.569 52.9551 348.318L53.8042 351.104C56.1786 350.38 58.586 349.761 61.0247 349.24L60.4172 346.392ZM38.6843 354.114C37.5429 354.704 36.4103 355.323 35.2867 355.971L36.7413 358.494C37.8263 357.869 38.9198 357.271 40.0217 356.702L38.6843 354.114ZM35.2867 355.971C34.0438 356.687 32.8384 357.422 31.6699 358.174L33.2465 360.623C34.3742 359.897 35.5389 359.187 36.7413 358.494L35.2867 355.971ZM18.6371 368.751C16.6299 370.82 14.8129 372.964 13.1794 375.172L15.5209 376.904C17.0761 374.802 18.8091 372.757 20.7275 370.779L18.6371 368.751ZM5.19195 390.013C4.22265 392.684 3.45913 395.401 2.89132 398.15L5.74369 398.739C6.28375 396.125 7.00943 393.543 7.92984 391.007L5.19195 390.013ZM1.75536 414.948C1.93024 417.736 2.2771 420.525 2.7858 423.3L5.6507 422.775C5.16202 420.109 4.82967 417.435 4.66224 414.766L1.75536 414.948ZM7.57365 439.38C8.6373 441.95 9.83301 444.483 11.1521 446.967L13.7245 445.601C12.4481 443.197 11.2922 440.748 10.2648 438.266L7.57365 439.38ZM20.3156 460.977C22.0419 463.163 23.87 465.279 25.7919 467.315L27.9099 465.316C26.0467 463.342 24.2746 461.29 22.6011 459.172L20.3156 460.977ZM38.316 478.422C40.5636 480.08 42.8892 481.636 45.2852 483.08L46.7886 480.586C44.4716 479.189 42.2212 477.683 40.0449 476.078L38.316 478.422Z" fill="#E28C24"/>
<g filter="url(#filter0_dii_312_3728)">
<rect x="805" y="29.5" width="146" height="146" rx="32.9043" fill="white"/>
</g>
<g filter="url(#filter1_ii_312_3728)">
<path fill-rule="evenodd" clip-rule="evenodd" d="M834.612 122.598C834.985 119.92 835.698 117.073 834.944 114.477C833.801 110.542 833.187 106.382 833.184 102.078C833.163 77.4989 853.073 57.5568 877.652 57.5366C902.232 57.5164 922.174 77.4256 922.194 102.005C922.214 126.585 902.305 146.527 877.725 146.547C871.054 146.552 864.725 145.09 859.043 142.464C854.226 140.239 848.708 139.38 843.792 141.375L843.643 141.435C838.156 143.661 832.321 139.077 833.141 133.182L834.612 122.598V122.598Z" fill="#FDE04A"/>
</g>
<g filter="url(#filter2_dii_312_3728)">
<circle cx="852.064" cy="103.412" r="5.39456" transform="rotate(-0.0471484 852.064 103.412)" fill="#F3FAFF"/>
</g>
<g filter="url(#filter3_dii_312_3728)">
<circle cx="876.34" cy="103.392" r="5.39456" transform="rotate(-0.0471484 876.34 103.392)" fill="#F3FAFF"/>
</g>
<g filter="url(#filter4_dii_312_3728)">
<circle cx="900.616" cy="103.371" r="5.39456" transform="rotate(-0.0471484 900.616 103.371)" fill="#F3FAFF"/>
</g>
<defs>
<filter id="filter0_dii_312_3728" x="788.548" y="8.9348" width="228.261" height="228.261" filterUnits="userSpaceOnUse" color-interpolation-filters="sRGB">
<feFlood flood-opacity="0" result="BackgroundImageFix"/>
<feColorMatrix in="SourceAlpha" type="matrix" values="0 0 0 0 0 0 0 0 0 0 0 0 0 0 0 0 0 0 127 0" result="hardAlpha"/>
<feOffset dx="24.6782" dy="20.5652"/>
<feGaussianBlur stdDeviation="20.5652"/>
<feComposite in2="hardAlpha" operator="out"/>
<feColorMatrix type="matrix" values="0 0 0 0 0.75434 0 0 0 0 0.663395 0 0 0 0 0.536071 0 0 0 0.2 0"/>
<feBlend mode="normal" in2="BackgroundImageFix" result="effect1_dropShadow_312_3728"/>
<feBlend mode="normal" in="SourceGraphic" in2="effect1_dropShadow_312_3728" result="shape"/>
<feColorMatrix in="SourceAlpha" type="matrix" values="0 0 0 0 0 0 0 0 0 0 0 0 0 0 0 0 0 0 127 0" result="hardAlpha"/>
<feOffset dx="-4.11304" dy="-4.11304"/>
<feGaussianBlur stdDeviation="4.11304"/>
<feComposite in2="hardAlpha" operator="arithmetic" k2="-1" k3="1"/>
<feColorMatrix type="matrix" values="0 0 0 0 0 0 0 0 0 0 0 0 0 0 0 0 0 0 0.15 0"/>
<feBlend mode="normal" in2="shape" result="effect2_innerShadow_312_3728"/>
<feColorMatrix in="SourceAlpha" type="matrix" values="0 0 0 0 0 0 0 0 0 0 0 0 0 0 0 0 0 0 127 0" result="hardAlpha"/>
<feOffset dx="4.11304" dy="4.11304"/>
<feGaussianBlur stdDeviation="4.11304"/>
<feComposite in2="hardAlpha" operator="arithmetic" k2="-1" k3="1"/>
<feColorMatrix type="matrix" values="0 0 0 0 1 0 0 0 0 1 0 0 0 0 1 0 0 0 0.25 0"/>
<feBlend mode="normal" in2="effect2_innerShadow_312_3728" result="effect3_innerShadow_312_3728"/>
</filter>
<filter id="filter1_ii_312_3728" x="821.413" y="45.8862" width="108.493" height="108.372" filterUnits="userSpaceOnUse" color-interpolation-filters="sRGB">
<feFlood flood-opacity="0" result="BackgroundImageFix"/>
<feBlend mode="normal" in="SourceGraphic" in2="BackgroundImageFix" result="shape"/>
<feColorMatrix in="SourceAlpha" type="matrix" values="0 0 0 0 0 0 0 0 0 0 0 0 0 0 0 0 0 0 127 0" result="hardAlpha"/>
<feOffset dx="-11.6504" dy="-11.6504"/>
<feGaussianBlur stdDeviation="9.70869"/>
<feComposite in2="hardAlpha" operator="arithmetic" k2="-1" k3="1"/>
<feColorMatrix type="matrix" values="0 0 0 0 0.870588 0 0 0 0 0.666667 0 0 0 0 0.360784 0 0 0 0.82 0"/>
<feBlend mode="normal" in2="shape" result="effect1_innerShadow_312_3728"/>
<feColorMatrix in="SourceAlpha" type="matrix" values="0 0 0 0 0 0 0 0 0 0 0 0 0 0 0 0 0 0 127 0" result="hardAlpha"/>
<feOffset dx="7.71164" dy="7.71164"/>
<feGaussianBlur stdDeviation="7.71164"/>
<feComposite in2="hardAlpha" operator="arithmetic" k2="-1" k3="1"/>
<feColorMatrix type="matrix" values="0 0 0 0 1 0 0 0 0 0.941176 0 0 0 0 0.643137 0 0 0 0.65 0"/>
<feBlend mode="normal" in2="effect1_innerShadow_312_3728" result="effect2_innerShadow_312_3728"/>
</filter>
<filter id="filter2_dii_312_3728" x="842.492" y="94.4037" width="19.1436" height="19.9721" filterUnits="userSpaceOnUse" color-interpolation-filters="sRGB">
<feFlood flood-opacity="0" result="BackgroundImageFix"/>
<feColorMatrix in="SourceAlpha" type="matrix" values="0 0 0 0 0 0 0 0 0 0 0 0 0 0 0 0 0 0 127 0" result="hardAlpha"/>
<feOffset dy="1.39242"/>
<feGaussianBlur stdDeviation="2.08862"/>
<feComposite in2="hardAlpha" operator="out"/>
<feColorMatrix type="matrix" values="0 0 0 0 0.710026 0 0 0 0 0.71778 0 0 0 0 0.758485 0 0 0 0.25 0"/>
<feBlend mode="normal" in2="BackgroundImageFix" result="effect1_dropShadow_312_3728"/>
<feBlend mode="normal" in="SourceGraphic" in2="effect1_dropShadow_312_3728" result="shape"/>
<feColorMatrix in="SourceAlpha" type="matrix" values="0 0 0 0 0 0 0 0 0 0 0 0 0 0 0 0 0 0 127 0" result="hardAlpha"/>
<feOffset dx="-3.61338" dy="-3.61338"/>
<feGaussianBlur stdDeviation="1.80669"/>
<feComposite in2="hardAlpha" operator="arithmetic" k2="-1" k3="1"/>
<feColorMatrix type="matrix" values="0 0 0 0 0.359191 0 0 0 0 0.655925 0 0 0 0 0.870801 0 0 0 0.17 0"/>
<feBlend mode="normal" in2="shape" result="effect2_innerShadow_312_3728"/>
<feColorMatrix in="SourceAlpha" type="matrix" values="0 0 0 0 0 0 0 0 0 0 0 0 0 0 0 0 0 0 127 0" result="hardAlpha"/>
<feOffset dx="1.80669" dy="1.80669"/>
<feGaussianBlur stdDeviation="1.35502"/>
<feComposite in2="hardAlpha" operator="arithmetic" k2="-1" k3="1"/>
<feColorMatrix type="matrix" values="0 0 0 0 0.979145 0 0 0 0 0.99749 0 0 0 0 1 0 0 0 0.65 0"/>
<feBlend mode="normal" in2="effect2_innerShadow_312_3728" result="effect3_innerShadow_312_3728"/>
</filter>
<filter id="filter3_dii_312_3728" x="866.768" y="94.3842" width="19.1436" height="19.9721" filterUnits="userSpaceOnUse" color-interpolation-filters="sRGB">
<feFlood flood-opacity="0" result="BackgroundImageFix"/>
<feColorMatrix in="SourceAlpha" type="matrix" values="0 0 0 0 0 0 0 0 0 0 0 0 0 0 0 0 0 0 127 0" result="hardAlpha"/>
<feOffset dy="1.39242"/>
<feGaussianBlur stdDeviation="2.08862"/>
<feComposite in2="hardAlpha" operator="out"/>
<feColorMatrix type="matrix" values="0 0 0 0 0.710026 0 0 0 0 0.71778 0 0 0 0 0.758485 0 0 0 0.25 0"/>
<feBlend mode="normal" in2="BackgroundImageFix" result="effect1_dropShadow_312_3728"/>
<feBlend mode="normal" in="SourceGraphic" in2="effect1_dropShadow_312_3728" result="shape"/>
<feColorMatrix in="SourceAlpha" type="matrix" values="0 0 0 0 0 0 0 0 0 0 0 0 0 0 0 0 0 0 127 0" result="hardAlpha"/>
<feOffset dx="-3.61338" dy="-3.61338"/>
<feGaussianBlur stdDeviation="1.80669"/>
<feComposite in2="hardAlpha" operator="arithmetic" k2="-1" k3="1"/>
<feColorMatrix type="matrix" values="0 0 0 0 0.359191 0 0 0 0 0.655925 0 0 0 0 0.870801 0 0 0 0.17 0"/>
<feBlend mode="normal" in2="shape" result="effect2_innerShadow_312_3728"/>
<feColorMatrix in="SourceAlpha" type="matrix" values="0 0 0 0 0 0 0 0 0 0 0 0 0 0 0 0 0 0 127 0" result="hardAlpha"/>
<feOffset dx="1.80669" dy="1.80669"/>
<feGaussianBlur stdDeviation="1.35502"/>
<feComposite in2="hardAlpha" operator="arithmetic" k2="-1" k3="1"/>
<feColorMatrix type="matrix" values="0 0 0 0 0.979145 0 0 0 0 0.99749 0 0 0 0 1 0 0 0 0.65 0"/>
<feBlend mode="normal" in2="effect2_innerShadow_312_3728" result="effect3_innerShadow_312_3728"/>
</filter>
<filter id="filter4_dii_312_3728" x="891.044" y="94.3634" width="19.1436" height="19.9721" filterUnits="userSpaceOnUse" color-interpolation-filters="sRGB">
<feFlood flood-opacity="0" result="BackgroundImageFix"/>
<feColorMatrix in="SourceAlpha" type="matrix" values="0 0 0 0 0 0 0 0 0 0 0 0 0 0 0 0 0 0 127 0" result="hardAlpha"/>
<feOffset dy="1.39242"/>
<feGaussianBlur stdDeviation="2.08862"/>
<feComposite in2="hardAlpha" operator="out"/>
<feColorMatrix type="matrix" values="0 0 0 0 0.710026 0 0 0 0 0.71778 0 0 0 0 0.758485 0 0 0 0.25 0"/>
<feBlend mode="normal" in2="BackgroundImageFix" result="effect1_dropShadow_312_3728"/>
<feBlend mode="normal" in="SourceGraphic" in2="effect1_dropShadow_312_3728" result="shape"/>
<feColorMatrix in="SourceAlpha" type="matrix" values="0 0 0 0 0 0 0 0 0 0 0 0 0 0 0 0 0 0 127 0" result="hardAlpha"/>
<feOffset dx="-3.61338" dy="-3.61338"/>
<feGaussianBlur stdDeviation="1.80669"/>
<feComposite in2="hardAlpha" operator="arithmetic" k2="-1" k3="1"/>
<feColorMatrix type="matrix" values="0 0 0 0 0.359191 0 0 0 0 0.655925 0 0 0 0 0.870801 0 0 0 0.17 0"/>
<feBlend mode="normal" in2="shape" result="effect2_innerShadow_312_3728"/>
<feColorMatrix in="SourceAlpha" type="matrix" values="0 0 0 0 0 0 0 0 0 0 0 0 0 0 0 0 0 0 127 0" result="hardAlpha"/>
<feOffset dx="1.80669" dy="1.80669"/>
<feGaussianBlur stdDeviation="1.35502"/>
<feComposite in2="hardAlpha" operator="arithmetic" k2="-1" k3="1"/>
<feColorMatrix type="matrix" values="0 0 0 0 0.979145 0 0 0 0 0.99749 0 0 0 0 1 0 0 0 0.65 0"/>
<feBlend mode="normal" in2="effect2_innerShadow_312_3728" result="effect3_innerShadow_312_3728"/>
</filter>
<radialGradient id="paint0_radial_312_3728" cx="0" cy="0" r="1" gradientUnits="userSpaceOnUse" gradientTransform="translate(159.924 138.6) rotate(59.144) scale(485.91)">
<stop stop-color="#FEFEFE"/>
<stop offset="0.4875" stop-color="#E6E5E5"/>
<stop offset="0.919898" stop-color="#CCCCCC"/>
<stop offset="1" stop-color="#ABABAB"/>
</radialGradient>
<radialGradient id="paint1_radial_312_3728" cx="0" cy="0" r="1" gradientUnits="userSpaceOnUse" gradientTransform="translate(143.743 124.577) rotate(59.144) scale(436.746)">
<stop stop-color="#B0B3DE"/>
<stop offset="0.466667" stop-color="#5D62A8"/>
<stop offset="0.796202" stop-color="#3B42A0"/>
<stop offset="1" stop-color="#282C6B"/>
</radialGradient>
</defs>
</svg>
