<svg width="20" height="23" viewBox="0 0 20 23" fill="none" xmlns="http://www.w3.org/2000/svg">
<path fill-rule="evenodd" clip-rule="evenodd" d="M0.852969 7.99546C0.735357 8.09038 0.666992 8.23341 0.666992 8.38455V19.9827C0.666992 20.5535 0.88551 21.1009 1.27447 21.5045C1.66344 21.9081 2.19099 22.1349 2.74107 22.1349H7.33366V13.8029C7.33366 13.2506 7.78137 12.8029 8.33366 12.8029H11.667C12.2193 12.8029 12.667 13.2506 12.667 13.8029V22.1349H17.2596C17.8097 22.1349 18.3372 21.9081 18.7262 21.5045C19.1151 21.1009 19.3337 20.5535 19.3337 19.9827V8.38455C19.3337 8.23341 19.2653 8.09038 19.1477 7.99546L10.3143 0.866283C10.1311 0.7184 9.86953 0.718401 9.6863 0.866284L0.852969 7.99546Z" fill="white"/>
</svg>
