<svg width="20" height="21" viewBox="0 0 20 21" fill="none" xmlns="http://www.w3.org/2000/svg">
<path d="M8.15275 4.07024C8.20368 4.1739 8.23732 4.28492 8.25239 4.39905L8.53082 8.53897L8.66903 10.6198C8.67046 10.8338 8.70403 11.0464 8.76867 11.2507C8.9356 11.6473 9.33716 11.8993 9.77405 11.8817L16.4313 11.4463C16.7196 11.4415 16.998 11.5493 17.2052 11.746C17.3779 11.9099 17.4894 12.1243 17.5246 12.3549L17.5364 12.4949C17.2609 16.3096 14.4592 19.4914 10.6524 20.3127C6.84555 21.134 2.94186 19.399 1.06071 16.0496C0.518387 15.0765 0.17965 14.007 0.0643819 12.9037C0.0162286 12.5771 -0.00497451 12.2472 0.000979226 11.9173C-0.00496595 7.82744 2.90747 4.29167 6.98433 3.43928C7.47501 3.36287 7.95603 3.62263 8.15275 4.07024Z" fill="#FDB913"/>
<path opacity="0.4" d="M10.8701 0.515468C15.43 0.631475 19.2624 3.91044 20.0001 8.32694L19.993 8.35952L19.9729 8.40692L19.9757 8.53701C19.9652 8.70936 19.8987 8.87519 19.784 9.00913C19.6646 9.14866 19.5014 9.24368 19.3217 9.28056L19.2121 9.2956L11.5313 9.79326C11.2758 9.81845 11.0214 9.73607 10.8314 9.5666C10.6731 9.42538 10.5719 9.23474 10.5433 9.02933L10.0277 1.35971C10.0188 1.33378 10.0188 1.30566 10.0277 1.27973C10.0348 1.06832 10.1278 0.868488 10.2861 0.724878C10.4444 0.581268 10.6547 0.505848 10.8701 0.515468Z" fill="#FDB913"/>
</svg>
