<svg width="73" height="73" viewBox="0 0 73 73" fill="none" xmlns="http://www.w3.org/2000/svg">
<path d="M12.9092 18.5977H6.90918V60.5977C6.90918 63.8977 9.60918 66.5977 12.9092 66.5977H54.9092V60.5977H12.9092V18.5977ZM60.9092 6.59766H24.9092C21.6092 6.59766 18.9092 9.29766 18.9092 12.5977V48.5977C18.9092 51.8977 21.6092 54.5977 24.9092 54.5977H60.9092C64.2092 54.5977 66.9092 51.8977 66.9092 48.5977V12.5977C66.9092 9.29766 64.2092 6.59766 60.9092 6.59766ZM57.9092 33.5977H27.9092V27.5977H57.9092V33.5977ZM45.9092 45.5977H27.9092V39.5977H45.9092V45.5977ZM57.9092 21.5977H27.9092V15.5977H57.9092V21.5977Z" fill="white"/>
</svg>
