<svg width="16" height="14" viewBox="0 0 16 14" fill="none" xmlns="http://www.w3.org/2000/svg">
<path fill-rule="evenodd" clip-rule="evenodd" d="M15.7877 12.2244C15.7877 11.5059 15.3276 10.9232 14.7604 10.9232L1.20011 10.9232C0.632841 10.9232 0.17282 11.5059 0.17282 12.2244C0.17282 12.943 0.632841 13.5257 1.20011 13.5257L14.7604 13.5257C15.3276 13.5257 15.7877 12.943 15.7877 12.2244Z" fill="white"/>
<path fill-rule="evenodd" clip-rule="evenodd" d="M14.7604 8.3207L1.20011 8.3207C0.632841 8.3207 0.17282 7.73801 0.17282 7.01947C0.17282 6.30092 0.632841 5.71823 1.20011 5.71823L14.7604 5.71823C15.3276 5.71823 15.7877 6.30093 15.7877 7.01947C15.7877 7.73801 15.3276 8.3207 14.7604 8.3207Z" fill="white"/>
<path fill-rule="evenodd" clip-rule="evenodd" d="M14.7604 3.11578L1.20011 3.11578C0.632841 3.11578 0.17282 2.53308 0.17282 1.81454C0.17282 1.096 0.632841 0.513305 1.20011 0.513305L14.7604 0.513306C15.3276 0.513306 15.7877 1.096 15.7877 1.81454C15.7877 2.53308 15.3276 3.11578 14.7604 3.11578Z" fill="white"/>
</svg>
