<svg width="1673" height="847" viewBox="0 0 1673 847" fill="none" xmlns="http://www.w3.org/2000/svg">
<g filter="url(#filter0_f_165_672)">
<ellipse cx="838.142" cy="350.222" rx="410.002" ry="234.864" transform="rotate(-4.68271 838.142 350.222)" fill="url(#paint0_radial_165_672)" fill-opacity="0.9"/>
</g>
<path d="M794.841 10.8074C851.102 5.21959 906.746 2.4502 961.205 2.4502C1122.36 2.4502 1272.95 26.6394 1396.58 73.2042C1561.66 135.626 1658.83 230.471 1669.94 340.756C1681.04 451.041 1604.96 563.213 1455.41 656.907C1305.86 750.6 1100.91 814.369 878.159 836.5C655.411 858.63 441.575 836.573 276.421 774.128C111.267 711.682 14.1744 616.836 3.06538 506.551C-8.04363 396.266 68.0161 284.094 217.593 190.401C367.169 96.7072 572.168 32.8644 794.841 10.8074Z" stroke="#FDB913" stroke-width="3.14126" stroke-linecap="round" stroke-linejoin="round" stroke-dasharray="12 12"/>
<path d="M771.214 661C662.535 661 560.839 643.589 477.504 610.028C367.391 565.699 302.483 498.508 294.771 420.824C287.058 343.14 337.428 264.311 436.644 198.883C535.859 133.456 671.771 89.4479 819.605 74.4426C967.438 59.4374 1109.47 75.7255 1219.47 120.008C1329.47 164.291 1394.49 231.528 1402.23 309.235C1409.96 386.942 1359.55 465.725 1260.33 531.153C1161.11 596.58 1025.2 640.703 877.369 655.594C841.514 659.213 806 661 771.214 661ZM925.759 70.1816C891.019 70.1816 855.551 71.9685 819.719 75.5881C672.067 90.4559 536.246 134.601 437.281 199.846C338.315 265.09 288.219 343.461 295.886 420.709C303.553 497.958 368.21 564.806 477.891 608.974C587.571 653.142 729.535 669.339 877.209 654.471C1024.88 639.603 1160.7 595.458 1259.65 530.191C1358.59 464.923 1408.75 386.575 1401.09 309.373C1393.42 232.17 1328.76 165.253 1219.08 121.085C1135.84 87.5694 1034.3 70.1816 925.759 70.1816V70.1816Z" fill="white"/>
<path d="M793.685 574C711.592 574 634.756 560.407 571.816 534.167C489.254 499.861 440.531 448.053 434.607 388.279C428.684 328.505 466.25 267.983 540.445 217.868C614.64 167.754 716.232 134.095 826.759 122.942C937.286 111.788 1043.74 124.485 1126.16 158.741C1208.57 192.998 1257.44 244.855 1263.39 304.63C1269.34 364.404 1231.72 424.925 1157.55 475.04C1083.38 525.155 981.764 558.789 871.237 569.967C845.049 572.705 819.058 574 793.685 574ZM903.743 120.377C878.74 120.377 853.07 121.647 826.981 124.286C716.553 135.414 615.035 169.098 541.136 218.889C467.237 268.68 429.942 328.853 435.817 388.179C441.691 447.505 490.118 498.915 572.285 533.047C654.452 567.179 760.66 579.9 871.089 568.747C1098.93 545.744 1274.42 427.34 1262.25 304.854C1251.49 196.309 1097.15 120.377 903.743 120.377Z" fill="white"/>
<path d="M813.268 477C685.548 477 582.932 425.431 575.446 352.359C571.345 312.574 595.656 272.428 643.882 239.398C692.108 206.368 758.164 184.374 830.225 177.335C979.162 162.793 1107.12 217.688 1115.56 299.682C1119.63 339.441 1095.32 379.613 1047.12 412.643C998.923 445.672 932.815 467.64 860.753 474.679C844.643 476.252 828.77 477 813.268 477ZM877.764 176.304C862.279 176.304 846.477 177.077 830.358 178.625C758.508 185.638 692.558 207.58 644.623 240.507C596.688 273.433 572.721 313.012 576.742 352.307C585.101 433.579 712.452 487.933 860.621 473.493C932.471 466.506 998.421 444.538 1046.36 411.611C1094.29 378.685 1118.26 339.132 1114.24 299.811C1106.8 227.357 1004.8 176.304 877.764 176.304Z" fill="white"/>
<defs>
<filter id="filter0_f_165_672" x="329.051" y="13.7312" width="1018.18" height="672.982" filterUnits="userSpaceOnUse" color-interpolation-filters="sRGB">
<feFlood flood-opacity="0" result="BackgroundImageFix"/>
<feBlend mode="normal" in="SourceGraphic" in2="BackgroundImageFix" result="shape"/>
<feGaussianBlur stdDeviation="50" result="effect1_foregroundBlur_165_672"/>
</filter>
<radialGradient id="paint0_radial_165_672" cx="0" cy="0" r="1" gradientUnits="userSpaceOnUse" gradientTransform="translate(722.88 238.78) rotate(48.888) scale(437.993 542.505)">
<stop stop-color="#D8DAF8"/>
<stop offset="0.789517" stop-color="#8187E2"/>
<stop offset="1" stop-color="#383E99"/>
</radialGradient>
</defs>
</svg>
