<svg width="20" height="21" viewBox="0 0 20 21" fill="none" xmlns="http://www.w3.org/2000/svg">
<path d="M19.1663 8.85176C19.1663 8.84288 19.1638 8.83446 19.1632 8.82566C19.1626 8.81583 19.1612 8.80659 19.1598 8.79678C19.1533 8.75037 19.1406 8.70559 19.1189 8.66474C19.1182 8.6635 19.1184 8.66209 19.1177 8.66085C19.1159 8.65766 19.1128 8.65596 19.111 8.65282C19.0886 8.61422 19.0595 8.58002 19.0249 8.55051C19.0196 8.54601 19.0153 8.54078 19.0098 8.53657C19.0068 8.53431 19.0047 8.53129 19.0017 8.5291L15.8133 6.21759C15.6343 6.08837 15.3856 6.12787 15.2567 6.30633C15.1275 6.48458 15.1672 6.73368 15.3455 6.8629L18.023 8.80408L9.99967 13.1805L1.97636 8.80408L4.65388 6.8629C4.83214 6.73368 4.87184 6.48458 4.74262 6.30633C4.61379 6.12826 4.3647 6.08856 4.18605 6.21759L0.997643 8.5291C0.994627 8.53129 0.992511 8.53431 0.989567 8.53657C0.98407 8.54078 0.97974 8.54601 0.974461 8.55051C0.939894 8.58002 0.910777 8.61422 0.888397 8.65282C0.886573 8.65596 0.88341 8.65766 0.881659 8.66085C0.880978 8.66209 0.881124 8.6635 0.880467 8.66474C0.85872 8.70559 0.846071 8.75037 0.839551 8.79678C0.838189 8.80659 0.83673 8.81583 0.836121 8.82566C0.835538 8.83446 0.833008 8.84288 0.833008 8.85176V18.417C0.833008 18.6371 1.01127 18.8155 1.23156 18.8155H18.7678C18.7681 18.8155 18.7683 18.8154 18.7685 18.8154C18.8156 18.8153 18.861 18.804 18.9048 18.7879C18.9163 18.7836 18.9271 18.7793 18.9381 18.774C18.9768 18.7556 19.0131 18.7327 19.0445 18.7023C19.0463 18.7005 19.0486 18.6995 19.0504 18.6977C19.0763 18.6716 19.0992 18.6417 19.1177 18.6079C19.1209 18.602 19.1205 18.5954 19.1234 18.5893C19.135 18.5657 19.1401 18.54 19.1468 18.5139C19.1535 18.4876 19.1614 18.4624 19.1625 18.4358C19.1629 18.4292 19.1663 18.4236 19.1663 18.417V8.85176Z" fill="#5D62A8"/>
<path d="M11.4716 2.07617C10.9096 2.07617 10.3881 2.28401 10 2.6487C9.612 2.28401 9.09046 2.07617 8.52844 2.07617C7.34213 2.07617 6.41309 3.03227 6.41309 4.25283C6.41309 6.10371 9.40494 8.63144 9.74589 8.91342C9.81984 8.97433 9.90975 9.00488 10 9.00488C10.0903 9.00488 10.1802 8.97433 10.2542 8.91342C10.5951 8.63144 13.587 6.10371 13.587 4.25283C13.587 3.03227 12.658 2.07617 11.4716 2.07617Z" fill="#5D62A8"/>
</svg>
