<svg width="32" height="33" viewBox="0 0 32 33" fill="none" xmlns="http://www.w3.org/2000/svg">
<path fill-rule="evenodd" clip-rule="evenodd" d="M6.85297 12.9955C6.73536 13.0904 6.66699 13.2334 6.66699 13.3845V24.9827C6.66699 25.5535 6.88551 26.1009 7.27447 26.5045C7.66344 26.9081 8.19099 27.1349 8.74107 27.1349H13.3337V18.8029C13.3337 18.2506 13.7814 17.8029 14.3337 17.8029H17.667C18.2193 17.8029 18.667 18.2506 18.667 18.8029V27.1349H23.2596C23.8097 27.1349 24.3372 26.9081 24.7262 26.5045C25.1151 26.1009 25.3337 25.5535 25.3337 24.9827V13.3845C25.3337 13.2334 25.2653 13.0904 25.1477 12.9955L16.3143 5.86628C16.1311 5.7184 15.8695 5.7184 15.6863 5.86628L6.85297 12.9955Z" fill="white"/>
</svg>
