<svg width="20" height="17" viewBox="0 0 20 17" fill="none" xmlns="http://www.w3.org/2000/svg">
<path d="M19.1663 6.85176C19.1663 6.84288 19.1638 6.83446 19.1632 6.82566C19.1626 6.81583 19.1612 6.80659 19.1598 6.79678C19.1533 6.75037 19.1406 6.70559 19.1189 6.66474C19.1182 6.6635 19.1184 6.66209 19.1177 6.66085C19.1159 6.65766 19.1128 6.65596 19.111 6.65282C19.0886 6.61422 19.0595 6.58002 19.0249 6.55051C19.0196 6.54601 19.0153 6.54078 19.0098 6.53657C19.0068 6.53431 19.0047 6.53129 19.0017 6.5291L15.8133 4.21759C15.6343 4.08837 15.3856 4.12787 15.2567 4.30633C15.1275 4.48458 15.1672 4.73368 15.3455 4.8629L18.023 6.80408L9.99967 11.1805L1.97636 6.80408L4.65388 4.8629C4.83214 4.73368 4.87184 4.48458 4.74262 4.30633C4.61379 4.12826 4.3647 4.08856 4.18605 4.21759L0.997643 6.5291C0.994627 6.53129 0.992511 6.53431 0.989567 6.53657C0.98407 6.54078 0.97974 6.54601 0.974461 6.55051C0.939894 6.58002 0.910777 6.61422 0.888397 6.65282C0.886573 6.65596 0.88341 6.65766 0.881659 6.66085C0.880978 6.66209 0.881124 6.6635 0.880467 6.66474C0.85872 6.70559 0.846071 6.75037 0.839551 6.79678C0.838189 6.80659 0.83673 6.81583 0.836121 6.82566C0.835538 6.83446 0.833008 6.84288 0.833008 6.85176V16.417C0.833008 16.6371 1.01127 16.8155 1.23156 16.8155H18.7678C18.7681 16.8155 18.7683 16.8154 18.7685 16.8154C18.8156 16.8153 18.861 16.804 18.9048 16.7879C18.9163 16.7836 18.9271 16.7793 18.9381 16.774C18.9768 16.7556 19.0131 16.7327 19.0445 16.7023C19.0463 16.7005 19.0486 16.6995 19.0504 16.6977C19.0763 16.6716 19.0992 16.6417 19.1177 16.6079C19.1209 16.602 19.1205 16.5954 19.1234 16.5893C19.135 16.5657 19.1401 16.54 19.1468 16.5139C19.1535 16.4876 19.1614 16.4624 19.1625 16.4358C19.1629 16.4292 19.1663 16.4236 19.1663 16.417V6.85176Z" fill="#5D62A8"/>
<path d="M11.4716 0.0761719C10.9096 0.0761719 10.3881 0.28401 10 0.648699C9.612 0.28401 9.09046 0.0761719 8.52844 0.0761719C7.34213 0.0761719 6.41309 1.03227 6.41309 2.25283C6.41309 4.10371 9.40494 6.63144 9.74589 6.91342C9.81984 6.97433 9.90975 7.00488 10 7.00488C10.0903 7.00488 10.1802 6.97433 10.2542 6.91342C10.5951 6.63144 13.587 4.10371 13.587 2.25283C13.587 1.03227 12.658 0.0761719 11.4716 0.0761719Z" fill="#5D62A8"/>
</svg>
