<svg width="32" height="33" viewBox="0 0 32 33" fill="none" xmlns="http://www.w3.org/2000/svg">
<path d="M25.3331 20.948V23.9588C25.3341 24.2383 25.2806 24.5149 25.1759 24.771C25.0712 25.0271 24.9176 25.257 24.725 25.446C24.5324 25.6349 24.305 25.7788 24.0574 25.8683C23.8097 25.9579 23.5474 25.9911 23.287 25.966C20.3989 25.6304 17.6247 24.5751 15.1873 22.8849C12.9196 21.344 10.997 19.2882 9.55597 16.8633C7.9698 14.2451 6.98268 11.2642 6.67461 8.16207C6.65116 7.88454 6.682 7.60483 6.76518 7.34075C6.84836 7.07666 6.98205 6.83399 7.15775 6.62819C7.33344 6.42238 7.54728 6.25795 7.78566 6.14535C8.02404 6.03276 8.28174 5.97448 8.54233 5.97422H11.358C11.8135 5.96942 12.2551 6.1419 12.6004 6.45949C12.9458 6.77709 13.1714 7.21813 13.2351 7.70041C13.354 8.66394 13.5743 9.60999 13.8921 10.5205C14.0184 10.8797 14.0457 11.2701 13.9708 11.6455C13.896 12.0208 13.7221 12.3653 13.4697 12.6381L12.2778 13.9127C13.6139 16.4253 15.5594 18.5056 17.9091 19.9343L19.1011 18.6597C19.3563 18.3899 19.6784 18.204 20.0294 18.1239C20.3804 18.0439 20.7455 18.0731 21.0814 18.2081C21.933 18.5479 22.8177 18.7836 23.7188 18.9107C24.1747 18.9794 24.5911 19.225 24.8887 19.6006C25.1864 19.9763 25.3445 20.4558 25.3331 20.948Z" fill="white"/>
</svg>
