<svg width="380" height="272" viewBox="0 0 380 272" fill="none" xmlns="http://www.w3.org/2000/svg">
<rect x="3" y="3" width="374" height="266" rx="40" fill="#D24438" stroke="white" stroke-width="6"/>
<path d="M268.84 155.061C266.446 155.06 264.05 155.108 261.658 155.038C260.669 155.008 260.158 155.399 259.725 156.234C257.843 159.87 255.89 163.468 254.009 167.104C253.626 167.843 253.178 168.186 252.325 168.177C248.96 168.142 245.594 168.17 242.228 168.159C241.055 168.154 240.98 168.021 241.569 166.995C248.47 154.956 255.378 142.921 262.283 130.884C266.254 123.963 270.235 117.048 274.178 110.111C274.611 109.347 275.111 109.028 275.984 109.036C279.488 109.071 282.993 109.073 286.497 109.038C287.474 109.027 287.813 109.364 287.845 110.362C288.093 118.264 288.391 126.164 288.68 134.064C288.881 139.538 289.089 145.013 289.298 150.486C289.501 155.822 289.719 161.157 289.907 166.493C289.962 168.066 289.927 168.13 288.408 168.14C285.079 168.161 281.748 168.103 278.418 168.1C277.556 168.098 277.304 167.7 277.318 166.877C277.377 163.235 277.365 159.591 277.44 155.949C277.455 155.206 277.175 155.053 276.544 155.056C273.976 155.069 271.408 155.062 268.84 155.061ZM277.714 122.921C277.479 123.248 277.409 123.325 277.361 123.414C273.422 130.742 269.491 138.074 265.539 145.395C265.083 146.242 265.481 146.302 266.181 146.299C269.509 146.284 272.839 146.257 276.166 146.313C277.196 146.33 277.537 146.048 277.541 144.974C277.563 139.463 277.449 133.95 277.702 128.44C277.782 126.687 277.714 124.927 277.714 122.921Z" fill="white" stroke="white" stroke-width="0.624938" stroke-miterlimit="10"/>
<path d="M53.7964 148.263C54.3567 147.847 54.4471 147.347 54.6367 146.915C60.0366 134.621 65.4352 122.327 70.8084 110.021C71.1253 109.296 71.5654 109.04 72.3139 109.044C75.9235 109.062 79.5332 109.043 83.1426 109.057C84.2298 109.061 84.295 109.196 83.804 110.211C78.3206 121.551 72.8324 132.889 67.3515 144.23C63.6975 151.791 60.0391 159.35 56.4222 166.928C55.9878 167.838 55.4579 168.208 54.4382 168.185C51.5935 168.122 48.7465 168.18 45.9007 168.151C44.3438 168.135 44.2577 168.066 44.1132 166.537C43.7178 162.362 43.3739 158.182 42.9916 154.004C42.5431 149.103 42.069 144.204 41.6182 139.303C41.237 135.16 40.8791 131.016 40.5002 126.874C40.0488 121.938 39.5851 117.003 39.1295 112.067C39.0881 111.618 39.062 111.168 39.0349 110.718C38.9347 109.053 38.9356 109.051 40.6608 109.05C43.854 109.049 47.0475 109.079 50.2401 109.035C51.2727 109.021 51.5941 109.389 51.6478 110.421C52.0007 117.172 52.4307 123.919 52.819 130.668C53.0619 134.891 53.2733 139.116 53.5041 143.34C53.5906 144.926 53.6918 146.511 53.7964 148.263Z" fill="white" stroke="white" stroke-width="0.624938" stroke-miterlimit="10"/>
<path d="M206.986 136.322C203.099 136.323 199.212 136.346 195.325 136.306C194.373 136.295 194.018 136.601 194.079 137.563C194.135 138.432 194.221 139.294 194.407 140.138C195.265 144.039 197.874 146.166 201.971 146.253C205.805 146.335 209.479 145.525 213.031 144.117C214.22 143.645 214.238 143.637 214.437 144.906C214.758 146.961 215.028 149.025 215.364 151.077C215.48 151.783 215.248 152.146 214.608 152.443C210.938 154.143 207.044 154.909 203.053 155.313C199.992 155.624 196.947 155.563 193.963 154.773C187.206 152.98 183.208 148.458 182.447 141.656C181.241 130.87 184.022 121.18 192.017 113.462C195.744 109.863 200.373 108.089 205.585 107.927C208.027 107.85 210.441 107.964 212.767 108.823C217.744 110.659 220.393 114.404 221.373 119.451C222.432 124.908 221.375 130.214 220.086 135.494C219.902 136.245 219.391 136.329 218.749 136.327C214.828 136.315 210.907 136.321 206.986 136.322ZM202.294 127.551C204.478 127.551 206.662 127.545 208.846 127.555C209.376 127.558 209.806 127.48 209.925 126.851C210.384 124.421 210.73 121.99 210.025 119.547C209.291 117.004 207.323 115.572 204.757 115.77C202.984 115.907 201.392 116.533 200.046 117.737C197.445 120.065 195.974 123.039 195.087 126.35C194.805 127.402 194.917 127.543 196.053 127.549C198.133 127.559 200.213 127.552 202.294 127.551Z" fill="white" stroke="white" stroke-width="0.624938" stroke-miterlimit="10"/>
<path d="M122.995 136.322C119.177 136.323 115.359 136.321 111.54 136.324C110.162 136.325 110.07 136.437 110.242 137.836C110.326 138.524 110.367 139.22 110.504 139.898C111.321 143.934 113.965 146.17 118.081 146.253C121.986 146.333 125.743 145.555 129.33 144.034C130.242 143.647 130.465 143.887 130.575 144.764C130.838 146.862 131.129 148.96 131.497 151.042C131.635 151.827 131.373 152.177 130.703 152.475C127.147 154.063 123.404 154.9 119.551 155.294C116.638 155.592 113.733 155.585 110.855 154.947C103.774 153.379 99.1143 148.299 98.445 141.085C97.5707 131.661 99.8901 123.048 105.955 115.722C111.311 109.251 118.424 106.882 126.659 108.246C132.722 109.25 136.683 113.687 137.62 120.157C138.375 125.372 137.488 130.454 136.21 135.494C136 136.322 135.413 136.325 134.763 136.325C130.84 136.319 126.918 136.322 122.995 136.322ZM118.456 127.552C120.607 127.552 122.758 127.552 124.909 127.552C125.408 127.552 125.932 127.559 126.055 126.922C126.561 124.316 126.905 121.695 126.009 119.111C125.399 117.351 124.191 116.201 122.279 115.878C120.275 115.539 118.469 116.056 116.879 117.221C113.625 119.607 112.09 123.062 111.109 126.833C110.918 127.565 111.436 127.547 111.898 127.548C114.084 127.555 116.27 127.551 118.456 127.552Z" fill="white" stroke="white" stroke-width="0.624938" stroke-miterlimit="10"/>
<path d="M151.505 174.511C146.52 174.454 141.99 173.08 138.488 169.208C136.145 166.617 135.139 163.507 135.108 160.052C135.104 159.711 135.047 159.243 135.371 159.1C135.763 158.928 135.909 159.434 136.131 159.659C143.604 167.196 157.007 164.213 160.523 154.907C162.018 150.949 162.733 146.821 163.565 142.713C165.754 131.906 167.917 121.095 170.07 110.282C170.238 109.435 170.577 109.027 171.502 109.037C174.936 109.074 178.372 109.067 181.806 109.041C182.667 109.034 182.995 109.279 182.809 110.197C179.901 124.536 177.068 138.891 174.091 153.216C172.967 158.626 170.662 163.54 166.865 167.656C162.749 172.119 157.697 174.496 151.505 174.511Z" fill="white" stroke="white" stroke-width="0.624938" stroke-miterlimit="10"/>
<path d="M160.127 117.816C159.503 117.817 158.871 117.878 158.255 117.803C157.148 117.67 156.68 118.075 156.467 119.212C155.386 124.972 154.215 130.716 153.075 136.464C152.752 138.098 152.41 139.727 152.101 141.363C151.337 145.401 153.068 147.148 157.088 146.433C157.545 146.351 158.13 145.911 158.438 146.321C158.746 146.732 158.322 147.311 158.132 147.78C156.408 152.044 153.55 154.954 148.746 155.402C143.794 155.863 139.826 153.339 139.015 147.926C138.561 144.892 139.261 141.992 139.846 139.073C142.256 127.035 144.686 115.001 147.092 102.962C147.208 102.386 147.418 101.917 147.86 101.537C151.378 98.5123 155.465 97.5547 159.992 98.1842C160.822 98.3004 160.599 98.892 160.502 99.3807C159.95 102.171 159.377 104.956 158.815 107.744C158.582 108.902 158.681 109.036 159.833 109.046C161.221 109.057 162.61 109.066 163.997 109.034C164.888 109.014 165.267 109.27 165.047 110.258C164.558 112.458 164.136 114.674 163.734 116.892C163.611 117.57 163.307 117.849 162.625 117.822C161.794 117.79 160.96 117.815 160.127 117.816Z" fill="white" stroke="white" stroke-width="0.624938" stroke-miterlimit="10"/>
<path d="M243.93 117.816C243.201 117.818 242.466 117.877 241.745 117.802C240.846 117.709 240.545 118.121 240.385 118.939C238.89 126.598 237.361 134.251 235.851 141.908C235.681 142.768 235.688 143.633 235.954 144.482C236.326 145.669 237.15 146.34 238.364 146.475C239.436 146.594 240.513 146.571 241.568 146.283C242.204 146.11 242.51 146.234 242.27 146.985C240.235 153.374 234.913 156.538 229.001 155.131C226.168 154.457 224.311 152.683 223.382 149.941C222.4 147.045 222.696 144.127 223.281 141.204C225.823 128.518 228.356 115.83 230.88 103.14C231.03 102.389 231.343 101.808 231.952 101.317C235.394 98.5364 239.315 97.5975 243.657 98.1525C244.417 98.2495 244.551 98.6145 244.408 99.2911C243.797 102.176 243.241 105.072 242.602 107.95C242.41 108.81 242.632 109.082 243.487 109.059C245.013 109.02 246.542 109.053 248.068 109.04C248.811 109.033 249.148 109.25 248.963 110.096C248.473 112.332 248.042 114.581 247.618 116.831C247.487 117.527 247.164 117.859 246.429 117.824C245.597 117.784 244.763 117.815 243.93 117.816Z" fill="white" stroke="white" stroke-width="0.624938" stroke-miterlimit="10"/>
<path d="M335.631 107.788C337.128 107.917 338.577 108.057 340.028 108.162C340.976 108.23 341.171 108.629 340.868 109.526C340.021 112.022 339.229 114.538 338.461 117.059C338.252 117.746 337.982 117.93 337.272 117.694C335.271 117.027 333.226 116.778 331.122 117.194C330.279 117.36 329.809 117.7 329.629 118.623C327.382 130.162 325.091 141.692 322.816 153.226C322.454 155.065 322.465 155.068 320.57 155.068C317.447 155.068 314.324 155.071 311.2 155.067C309.914 155.065 309.837 154.989 310.076 153.79C312.817 140.051 315.57 126.314 318.292 112.572C318.435 111.855 318.811 111.498 319.407 111.213C322.888 109.549 326.575 108.616 330.388 108.172C332.14 107.967 333.911 107.909 335.631 107.788Z" fill="white" stroke="white" stroke-width="0.624938" stroke-miterlimit="10"/>
<path d="M297.871 155.06C296.206 155.06 294.54 155.064 292.875 155.058C291.527 155.054 291.483 155.002 291.741 153.713C293.205 146.405 294.669 139.096 296.138 131.789C297.566 124.685 299.022 117.588 300.41 110.476C300.616 109.416 301.053 109.021 302.121 109.035C305.45 109.078 308.782 109.045 312.112 109.053C313.299 109.057 313.384 109.172 313.154 110.317C310.253 124.763 307.343 139.207 304.467 153.658C304.262 154.689 303.866 155.14 302.762 155.082C301.135 154.996 299.501 155.06 297.871 155.06Z" fill="white" stroke="white" stroke-width="0.624938" stroke-miterlimit="10"/>
<path d="M83.4735 155.059C81.8422 155.06 80.2111 155.064 78.5798 155.058C77.1716 155.054 77.126 155.006 77.3945 153.662C79.1477 144.888 80.9046 136.115 82.6625 127.341C83.8006 121.663 84.96 115.988 86.0622 110.303C86.2255 109.46 86.5724 109.113 87.415 109.112C90.954 109.11 94.4932 109.08 98.0319 109.056C98.913 109.05 98.9299 109.535 98.788 110.231C97.5692 116.212 96.3712 122.198 95.1698 128.182C93.45 136.752 91.7179 145.319 90.036 153.895C89.8548 154.82 89.4473 155.093 88.5751 155.071C86.8755 155.029 85.1742 155.059 83.4735 155.059Z" fill="white" stroke="white" stroke-width="0.624938" stroke-miterlimit="10"/>
</svg>
