<svg width="30" height="30" viewBox="0 0 30 30" fill="none" xmlns="http://www.w3.org/2000/svg">
<circle cx="15" cy="15" r="15" fill="#5D62A8"/>
<path fill-rule="evenodd" clip-rule="evenodd" d="M21.7539 9.7871C22.2036 10.2423 22.3502 11.276 22.3502 11.276C22.3502 11.276 22.5 12.4898 22.5 13.7037V14.8417C22.5 16.0555 22.3502 17.2694 22.3502 17.2694C22.3502 17.2694 22.2036 18.303 21.7539 18.7582C21.2397 19.2968 20.6694 19.3523 20.3473 19.3836C20.3121 19.387 20.2798 19.3901 20.251 19.3936C18.1519 19.5453 15 19.5501 15 19.5501C15 19.5501 11.1001 19.5145 9.90006 19.3994C9.843 19.3887 9.7738 19.3804 9.69542 19.3709C9.31524 19.3252 8.71918 19.2535 8.2461 18.7582C7.79636 18.303 7.65001 17.2694 7.65001 17.2694C7.65001 17.2694 7.5 16.0555 7.5 14.8417V13.7037C7.5 12.4898 7.65001 11.276 7.65001 11.276C7.65001 11.276 7.79636 10.2423 8.24609 9.7871C8.76052 9.24848 9.33065 9.19305 9.65278 9.16173C9.68796 9.15831 9.72018 9.15517 9.74904 9.15173C11.8482 9 14.9967 9 14.9967 9H15.0033C15.0033 9 18.1519 9 20.251 9.15173C20.2798 9.15518 20.3121 9.15831 20.3472 9.16173C20.6694 9.19305 21.2397 9.24849 21.7539 9.7871ZM13.4512 12.0059L13.4519 16.2205L17.5042 14.1205L13.4512 12.0059Z" fill="white"/>
</svg>
