<svg width="30" height="30" viewBox="0 0 30 30" fill="none" xmlns="http://www.w3.org/2000/svg">
<circle cx="15" cy="15" r="15" fill="#5D62A8"/>
<path d="M18.2728 7.50312L16.3355 7.5C14.159 7.5 12.7525 8.94892 12.7525 11.1915V12.8936H10.8046C10.6363 12.8936 10.5 13.0306 10.5 13.1996V15.6656C10.5 15.8346 10.6365 15.9715 10.8046 15.9715H12.7525V22.1941C12.7525 22.3631 12.8888 22.5 13.0571 22.5H15.5985C15.7668 22.5 15.9031 22.363 15.9031 22.1941V15.9715H18.1806C18.3489 15.9715 18.4852 15.8346 18.4852 15.6656L18.4862 13.1996C18.4862 13.1184 18.454 13.0407 18.3969 12.9833C18.3399 12.9259 18.2622 12.8936 18.1814 12.8936H15.9031V11.4507C15.9031 10.7572 16.0677 10.4052 16.9674 10.4052L18.2725 10.4047C18.4406 10.4047 18.5769 10.2677 18.5769 10.0989V7.80898C18.5769 7.64029 18.4408 7.50343 18.2728 7.50312Z" fill="white"/>
</svg>
