<svg width="30" height="30" viewBox="0 0 30 30" fill="none" xmlns="http://www.w3.org/2000/svg">
<circle cx="15" cy="15" r="15" fill="#5D62A8"/>
<path d="M22.5 10.443C21.9481 10.6878 21.355 10.8533 20.7325 10.9276C21.3679 10.5468 21.8559 9.94367 22.0856 9.22504C21.491 9.57771 20.8324 9.83382 20.1314 9.97185C19.57 9.37372 18.7702 9 17.8851 9C16.1855 9 14.8076 10.3779 14.8076 12.0774C14.8076 12.3186 14.8348 12.5534 14.8873 12.7787C12.3297 12.6504 10.0621 11.4252 8.54423 9.5633C8.27933 10.0178 8.12759 10.5464 8.12759 11.1104C8.12759 12.1781 8.6709 13.12 9.49663 13.6719C8.99217 13.656 8.51766 13.5175 8.10273 13.287C8.10251 13.2999 8.10247 13.3127 8.10247 13.3257C8.10247 14.8168 9.16325 16.0606 10.5711 16.3433C10.3128 16.4136 10.041 16.4512 9.76031 16.4512C9.562 16.4512 9.36922 16.4319 9.18131 16.396C9.57293 17.6186 10.7094 18.5084 12.0561 18.5332C11.0029 19.3586 9.67592 19.8506 8.23411 19.8506C7.98571 19.8506 7.74074 19.836 7.5 19.8076C8.86192 20.6807 10.4795 21.1902 12.2174 21.1902C17.878 21.1902 20.9733 16.5009 20.9733 12.4342C20.9733 12.3008 20.9703 12.1681 20.9644 12.0361C21.5657 11.6022 22.0874 11.0602 22.5 10.443Z" fill="white"/>
</svg>
