<svg width="133" height="132" viewBox="0 0 133 132" fill="none" xmlns="http://www.w3.org/2000/svg">
<g filter="url(#filter0_dddd_767_465)">
<g filter="url(#filter1_bd_767_465)">
<path fill-rule="evenodd" clip-rule="evenodd" d="M74.0069 12.6659L63.0255 9.30963C62.0056 8.9979 60.9598 9.07005 60.0435 9.44344C60.6519 9.75321 61.2463 10.1022 61.8033 10.4921C64.0307 12.0513 65.7436 14.3357 65.1831 17.4249C64.8641 19.1829 64.7355 20.7563 64.8424 22.0555C64.9498 23.3613 65.2906 24.3373 65.8579 24.9607C66.4076 25.5647 67.2272 25.8993 68.4501 25.809C68.9212 25.7742 69.4482 25.6761 70.035 25.5071L69.9506 25.3943L69.9504 25.3941C69.8569 25.2693 69.7628 25.1437 69.6684 25.0152C69.3435 24.5731 69.0252 24.1097 68.7752 23.5859C68.2633 22.5134 68.0637 21.2428 68.5089 19.4067C69.3966 15.745 71.5439 14.0729 73.6746 12.8529C73.7853 12.7895 73.8962 12.7272 74.0069 12.6659ZM59.0941 9.97269C58.3417 10.5214 57.7543 11.3098 57.4611 12.269L53.892 23.9468C53.1727 26.3005 54.4976 28.7918 56.8514 29.5112L70.1453 33.5742C70.61 33.7162 71.0801 33.7786 71.5408 33.7691C71.861 32.2427 71.9464 31.0215 71.8804 30.0178C71.7717 28.3653 71.2508 27.2751 70.6407 26.3546C70.6223 26.3268 70.6039 26.2992 70.5854 26.2718C69.8276 26.5114 69.139 26.6518 68.5158 26.6978C67.0833 26.8037 65.9718 26.4101 65.1987 25.5606C64.4432 24.7304 64.0692 23.5277 63.9541 22.1286C63.8385 20.7231 63.9795 19.0656 64.3061 17.2658C64.7785 14.6626 63.3772 12.6819 61.2922 11.2223C60.6071 10.7427 59.8574 10.327 59.0941 9.97269ZM72.4744 33.6497C73.9631 33.2959 75.2302 32.184 75.7097 30.6149L77.9837 23.1747C76.8431 23.455 75.4709 23.9881 73.8198 24.8662C72.971 25.3176 72.1826 25.683 71.4518 25.9661C72.0979 26.9648 72.6527 28.1801 72.7698 29.9593C72.8374 30.9877 72.7583 32.1955 72.4744 33.6497ZM78.2827 22.1962L79.2788 18.9371C79.9982 16.5833 78.6733 14.092 76.3195 13.3726L75.2042 13.0318C74.8419 13.2247 74.4795 13.4191 74.1175 13.6264C72.0983 14.7826 70.1825 16.2864 69.3751 19.6167C68.9726 21.2767 69.1657 22.3349 69.5796 23.202C69.7925 23.6481 70.0704 24.0571 70.3866 24.4874C70.471 24.6023 70.5591 24.7198 70.6492 24.8402C70.74 24.9613 70.8329 25.0853 70.9262 25.2121C71.6678 24.9372 72.4908 24.5635 73.4013 24.0793C75.318 23.0599 76.9288 22.4618 78.2827 22.1962Z" fill="url(#paint0_radial_767_465)"/>
</g>
</g>
<g filter="url(#filter2_bd_767_465)">
<mask id="path-2-outside-1_767_465" maskUnits="userSpaceOnUse" x="60.8838" y="3.68701" width="27" height="25" fill="black">
<rect fill="white" x="60.8838" y="3.68701" width="27" height="25"/>
<path fill-rule="evenodd" clip-rule="evenodd" d="M81.1727 4.68701H66.3403C64.4066 4.68701 62.7606 5.91851 62.1438 7.63998C62.7514 7.85489 63.553 7.98873 64.4857 8.10996C64.7418 8.14324 65.0067 8.17549 65.2774 8.20843L65.2775 8.20845C66.1521 8.31488 67.0867 8.42863 67.9755 8.60832C69.1406 8.84389 70.2884 9.20307 71.1911 9.85128C72.1125 10.5129 72.7621 11.4645 72.9297 12.8248C73.1163 14.3397 73.4172 15.6524 73.8457 16.6807C74.2761 17.7135 74.8163 18.4146 75.4534 18.7759C76.0721 19.1266 76.8537 19.1969 77.8724 18.8192C78.2389 18.6833 78.633 18.4902 79.0557 18.2339L79.0424 18.2246C78.9292 18.1456 78.8152 18.066 78.6997 17.9838C78.3048 17.7028 77.9072 17.4008 77.552 17.0308C76.8213 16.2697 76.31 15.2629 76.2094 13.63C76.009 10.3771 77.4293 8.45166 78.9407 6.91538C79.2397 6.61152 79.5453 6.3197 79.8398 6.0386L79.8405 6.03785C79.9132 5.96851 79.9851 5.89983 80.0561 5.83177C80.4185 5.48431 80.7587 5.15092 81.0633 4.81119C81.1004 4.7698 81.1369 4.72841 81.1727 4.68701ZM61.9287 8.50825C61.8991 8.71573 61.8838 8.92782 61.8838 9.14349V22.9849C61.8838 25.4461 63.879 27.4413 66.3403 27.4413H82.002C82.2243 27.4413 82.4429 27.425 82.6565 27.3936C82.719 24.6137 82.3942 22.7772 81.8865 21.4981C81.3661 20.1872 80.6424 19.4332 79.8826 18.8357L79.8332 18.7971C79.2513 19.1779 78.7016 19.4623 78.1822 19.6549C76.9755 20.1023 75.9104 20.0595 75.0139 19.5512C74.1358 19.0534 73.4922 18.1496 73.023 17.0236C72.5519 15.8931 72.2372 14.4931 72.0451 12.9338C71.9096 11.8346 71.4025 11.1003 70.6713 10.5753C69.9215 10.0369 68.9206 9.70873 67.7989 9.48194C66.9478 9.30986 66.0624 9.20205 65.195 9.09641L65.1947 9.09638C64.9177 9.06265 64.6425 9.02914 64.3708 8.99382C63.492 8.87959 62.6346 8.74508 61.9287 8.50825ZM83.5522 27.1643C85.2492 26.5346 86.4585 24.901 86.4585 22.9849V13.8824C85.3318 14.3156 83.95 15.2097 82.2651 16.8184C81.6808 17.3763 81.123 17.8561 80.5903 18.2609C81.386 18.9134 82.159 19.7689 82.7149 21.1692C83.2648 22.5547 83.5921 24.4474 83.5522 27.1643ZM86.4585 12.9356V9.14349C86.4585 6.78292 84.6231 4.85102 82.3016 4.69692C82.1247 4.94352 81.9308 5.17878 81.7269 5.40616C81.3982 5.77285 81.037 6.1261 80.6729 6.47516C80.5988 6.5462 80.5247 6.61698 80.4506 6.68773L80.4505 6.68778C80.1571 6.96794 79.8643 7.24757 79.5761 7.54047C78.1519 8.9881 76.9206 10.6795 77.099 13.5752C77.1878 15.0167 77.6234 15.8183 78.1949 16.4135C78.4907 16.7216 78.833 16.9848 79.2164 17.2576C79.3182 17.33 79.424 17.4039 79.5325 17.4796L79.5326 17.4797L79.5327 17.4797C79.6362 17.552 79.7421 17.6259 79.8492 17.7018C80.4053 17.2951 81.0048 16.7895 81.6496 16.1738C83.5129 14.3947 85.1006 13.3843 86.4585 12.9356Z"/>
</mask>
<path fill-rule="evenodd" clip-rule="evenodd" d="M81.1727 4.68701H66.3403C64.4066 4.68701 62.7606 5.91851 62.1438 7.63998C62.7514 7.85489 63.553 7.98873 64.4857 8.10996C64.7418 8.14324 65.0067 8.17549 65.2774 8.20843L65.2775 8.20845C66.1521 8.31488 67.0867 8.42863 67.9755 8.60832C69.1406 8.84389 70.2884 9.20307 71.1911 9.85128C72.1125 10.5129 72.7621 11.4645 72.9297 12.8248C73.1163 14.3397 73.4172 15.6524 73.8457 16.6807C74.2761 17.7135 74.8163 18.4146 75.4534 18.7759C76.0721 19.1266 76.8537 19.1969 77.8724 18.8192C78.2389 18.6833 78.633 18.4902 79.0557 18.2339L79.0424 18.2246C78.9292 18.1456 78.8152 18.066 78.6997 17.9838C78.3048 17.7028 77.9072 17.4008 77.552 17.0308C76.8213 16.2697 76.31 15.2629 76.2094 13.63C76.009 10.3771 77.4293 8.45166 78.9407 6.91538C79.2397 6.61152 79.5453 6.3197 79.8398 6.0386L79.8405 6.03785C79.9132 5.96851 79.9851 5.89983 80.0561 5.83177C80.4185 5.48431 80.7587 5.15092 81.0633 4.81119C81.1004 4.7698 81.1369 4.72841 81.1727 4.68701ZM61.9287 8.50825C61.8991 8.71573 61.8838 8.92782 61.8838 9.14349V22.9849C61.8838 25.4461 63.879 27.4413 66.3403 27.4413H82.002C82.2243 27.4413 82.4429 27.425 82.6565 27.3936C82.719 24.6137 82.3942 22.7772 81.8865 21.4981C81.3661 20.1872 80.6424 19.4332 79.8826 18.8357L79.8332 18.7971C79.2513 19.1779 78.7016 19.4623 78.1822 19.6549C76.9755 20.1023 75.9104 20.0595 75.0139 19.5512C74.1358 19.0534 73.4922 18.1496 73.023 17.0236C72.5519 15.8931 72.2372 14.4931 72.0451 12.9338C71.9096 11.8346 71.4025 11.1003 70.6713 10.5753C69.9215 10.0369 68.9206 9.70873 67.7989 9.48194C66.9478 9.30986 66.0624 9.20205 65.195 9.09641L65.1947 9.09638C64.9177 9.06265 64.6425 9.02914 64.3708 8.99382C63.492 8.87959 62.6346 8.74508 61.9287 8.50825ZM83.5522 27.1643C85.2492 26.5346 86.4585 24.901 86.4585 22.9849V13.8824C85.3318 14.3156 83.95 15.2097 82.2651 16.8184C81.6808 17.3763 81.123 17.8561 80.5903 18.2609C81.386 18.9134 82.159 19.7689 82.7149 21.1692C83.2648 22.5547 83.5921 24.4474 83.5522 27.1643ZM86.4585 12.9356V9.14349C86.4585 6.78292 84.6231 4.85102 82.3016 4.69692C82.1247 4.94352 81.9308 5.17878 81.7269 5.40616C81.3982 5.77285 81.037 6.1261 80.6729 6.47516C80.5988 6.5462 80.5247 6.61698 80.4506 6.68773L80.4505 6.68778C80.1571 6.96794 79.8643 7.24757 79.5761 7.54047C78.1519 8.9881 76.9206 10.6795 77.099 13.5752C77.1878 15.0167 77.6234 15.8183 78.1949 16.4135C78.4907 16.7216 78.833 16.9848 79.2164 17.2576C79.3182 17.33 79.424 17.4039 79.5325 17.4796L79.5326 17.4797L79.5327 17.4797C79.6362 17.552 79.7421 17.6259 79.8492 17.7018C80.4053 17.2951 81.0048 16.7895 81.6496 16.1738C83.5129 14.3947 85.1006 13.3843 86.4585 12.9356Z" fill="#E1DBD4" fill-opacity="0.5" shape-rendering="crispEdges"/>
<path d="M81.1727 4.68701L81.8466 5.2703L83.1229 3.79572H81.1727V4.68701ZM62.1438 7.63998L61.3047 7.33933L61.0028 8.18183L61.8466 8.48027L62.1438 7.63998ZM64.4857 8.10996L64.3708 8.99382L64.4857 8.10996ZM65.2774 8.20843L65.1697 9.0932L65.1708 9.09333L65.2774 8.20843ZM65.2775 8.20845L65.3852 7.32368L65.3841 7.32354L65.2775 8.20845ZM67.9755 8.60832L67.7989 9.48194H67.7989L67.9755 8.60832ZM71.1911 9.85128L70.6713 10.5753L71.1911 9.85128ZM72.9297 12.8248L73.8143 12.7158L72.9297 12.8248ZM73.8457 16.6807L73.023 17.0236L73.8457 16.6807ZM75.4534 18.7759L75.0139 19.5512L75.0139 19.5512L75.4534 18.7759ZM77.8724 18.8192L78.1822 19.6549V19.6549L77.8724 18.8192ZM79.0557 18.2339L79.5178 18.996L80.6882 18.2864L79.5658 17.503L79.0557 18.2339ZM79.0424 18.2246L79.5526 17.4937L79.5525 17.4937L79.0424 18.2246ZM78.6997 17.9838L79.2164 17.2576L79.2164 17.2576L78.6997 17.9838ZM77.552 17.0308L78.1949 16.4135L77.552 17.0308ZM76.2094 13.63L75.3198 13.6848L76.2094 13.63ZM78.9407 6.91538L78.3054 6.29029L78.3054 6.29029L78.9407 6.91538ZM79.8398 6.0386L80.4553 6.68324L80.4561 6.68245L79.8398 6.0386ZM79.8405 6.03785L79.225 5.3932L79.2242 5.394L79.8405 6.03785ZM80.0561 5.83177L80.6729 6.47516L80.6729 6.47516L80.0561 5.83177ZM81.0633 4.81119L81.7269 5.40616L81.7269 5.40615L81.0633 4.81119ZM61.9287 8.50825L62.2122 7.66324L61.1976 7.32283L61.0464 8.38232L61.9287 8.50825ZM82.6565 27.3936L82.7863 28.2754L83.5307 28.1658L83.5476 27.4136L82.6565 27.3936ZM81.8865 21.4981L81.058 21.8269L81.8865 21.4981ZM79.8826 18.8357L80.4335 18.1351L80.4313 18.1333L79.8826 18.8357ZM79.8332 18.7971L80.3819 18.0948L79.8791 17.702L79.3452 18.0513L79.8332 18.7971ZM78.1822 19.6549L78.4921 20.4906L78.1822 19.6549ZM75.0139 19.5512L74.5743 20.3266L75.0139 19.5512ZM73.023 17.0236L73.8457 16.6807L73.8457 16.6807L73.023 17.0236ZM72.0451 12.9338L72.9297 12.8248L72.0451 12.9338ZM70.6713 10.5753L71.1911 9.85128L70.6713 10.5753ZM67.7989 9.48194L67.6223 10.3556H67.6223L67.7989 9.48194ZM65.195 9.09641L65.3027 8.21165L65.3012 8.21147L65.195 9.09641ZM65.1947 9.09638L65.087 9.98114L65.0885 9.98133L65.1947 9.09638ZM64.3708 8.99382L64.4857 8.10996L64.4857 8.10996L64.3708 8.99382ZM83.5522 27.1643L82.661 27.1512L82.6419 28.4527L83.8623 27.9999L83.5522 27.1643ZM86.4585 13.8824H87.3498V12.5848L86.1386 13.0505L86.4585 13.8824ZM82.2651 16.8184L81.6496 16.1738L82.2651 16.8184ZM80.5903 18.2609L80.0511 17.5513L79.1523 18.2343L80.0252 18.9501L80.5903 18.2609ZM82.7149 21.1692L81.8865 21.4981V21.4981L82.7149 21.1692ZM86.4585 12.9356L86.7381 13.7819L87.3498 13.5798V12.9356H86.4585ZM82.3016 4.69692L82.3606 3.80758L81.8661 3.77476L81.5773 4.17743L82.3016 4.69692ZM81.7269 5.40616L82.3906 6.00112V6.00112L81.7269 5.40616ZM80.6729 6.47516L81.2897 7.11855V7.11854L80.6729 6.47516ZM80.4506 6.68773L79.8351 6.0431L79.8276 6.05021L79.8203 6.05749L80.4506 6.68773ZM80.4505 6.68778L81.066 7.33241L81.0735 7.3253L81.0808 7.31802L80.4505 6.68778ZM79.5761 7.54047L80.2114 8.16556V8.16556L79.5761 7.54047ZM77.099 13.5752L77.9886 13.5204L77.099 13.5752ZM78.1949 16.4135L78.8379 15.7963L78.8379 15.7963L78.1949 16.4135ZM79.2164 17.2576L78.6997 17.9838L78.6997 17.9838L79.2164 17.2576ZM79.5325 17.4796L80.0465 16.7515L80.0426 16.7487L79.5325 17.4796ZM79.5326 17.4797L80.1032 16.795L80.0758 16.7721L80.0466 16.7516L79.5326 17.4797ZM79.5327 17.4797L78.9621 18.1644L78.9913 18.1888L79.0226 18.2106L79.5327 17.4797ZM79.8492 17.7018L79.3336 18.4289L79.8572 18.8002L80.3753 18.4213L79.8492 17.7018ZM81.6496 16.1738L81.0341 15.5292L81.6496 16.1738ZM66.3403 5.57831H81.1727V3.79572H66.3403V5.57831ZM62.9828 7.94063C63.4768 6.56221 64.7948 5.57831 66.3403 5.57831V3.79572C64.0185 3.79572 62.0445 5.27482 61.3047 7.33933L62.9828 7.94063ZM61.8466 8.48027C62.553 8.73015 63.4404 8.87288 64.3708 8.99382L64.6006 7.2261C63.6657 7.10457 62.9497 6.97964 62.441 6.7997L61.8466 8.48027ZM64.3708 8.99382C64.6311 9.02766 64.8997 9.06034 65.1697 9.0932L65.3851 7.32366C65.1137 7.29063 64.8524 7.25883 64.6006 7.2261L64.3708 8.99382ZM65.1708 9.09333L65.171 9.09335L65.3841 7.32354L65.3839 7.32353L65.1708 9.09333ZM65.1698 9.09321C66.0507 9.20041 66.9502 9.31035 67.7989 9.48194L68.1521 7.7347C67.2233 7.5469 66.2536 7.42936 65.3852 7.32368L65.1698 9.09321ZM67.7989 9.48194C68.9205 9.70871 69.9214 10.0368 70.6713 10.5753L71.711 9.12729C70.6553 8.3693 69.3608 7.97906 68.1521 7.7347L67.7989 9.48194ZM70.6713 10.5753C71.4026 11.1004 71.9096 11.8347 72.0451 12.9338L73.8143 12.7158C73.6145 11.0943 72.8225 9.92536 71.711 9.12729L70.6713 10.5753ZM72.0451 12.9338C72.2372 14.4931 72.5519 15.8931 73.023 17.0236L74.6684 16.3379C74.2825 15.4117 73.9955 14.1863 73.8143 12.7158L72.0451 12.9338ZM73.023 17.0236C73.4923 18.1498 74.1359 19.0535 75.0139 19.5512L75.893 18.0005C75.4966 17.7758 75.0599 17.2773 74.6684 16.3379L73.023 17.0236ZM75.0139 19.5512C75.9099 20.0592 76.9748 20.1025 78.1822 19.6549L77.5626 17.9834C76.7325 18.2912 76.2343 18.194 75.893 18.0005L75.0139 19.5512ZM78.1822 19.6549C78.6106 19.496 79.0556 19.2763 79.5178 18.996L78.5936 17.4718C78.2103 17.7042 77.8672 17.8705 77.5626 17.9834L78.1822 19.6549ZM79.5658 17.503L79.5526 17.4937L78.5323 18.9555L78.5456 18.9648L79.5658 17.503ZM79.5525 17.4937C79.4388 17.4144 79.3281 17.3371 79.2164 17.2576L78.1829 18.71C78.3023 18.795 78.4197 18.8769 78.5324 18.9555L79.5525 17.4937ZM79.2164 17.2576C78.8331 16.9849 78.4908 16.7217 78.1949 16.4135L76.909 17.6481C77.3237 18.08 77.7765 18.4208 78.1829 18.71L79.2164 17.2576ZM78.1949 16.4135C77.6235 15.8183 77.1878 15.0168 77.099 13.5752L75.3198 13.6848C75.4321 15.509 76.0191 16.7211 76.909 17.6481L78.1949 16.4135ZM77.099 13.5752C76.9206 10.6797 78.1516 8.98833 79.5761 7.54047L78.3054 6.29029C76.7069 7.91499 75.0973 10.0744 75.3198 13.6848L77.099 13.5752ZM79.5761 7.54047C79.8637 7.24814 80.1593 6.9658 80.4553 6.68324L79.2243 5.39395C78.9314 5.6736 78.6157 5.97489 78.3054 6.29029L79.5761 7.54047ZM80.4561 6.68245L80.4569 6.6817L79.2242 5.394L79.2234 5.39475L80.4561 6.68245ZM80.456 6.6825C80.5285 6.61327 80.6011 6.54395 80.6729 6.47516L79.4393 5.18838C79.369 5.2557 79.2978 5.32376 79.225 5.3932L80.456 6.6825ZM80.6729 6.47516C81.037 6.12612 81.3982 5.77286 81.7269 5.40616L80.3996 4.21623C80.1192 4.52897 79.8001 4.8425 79.4393 5.18839L80.6729 6.47516ZM81.7269 5.40615C81.7673 5.36111 81.8072 5.31584 81.8466 5.2703L80.4988 4.10372C80.4665 4.14099 80.4335 4.17848 80.3996 4.21623L81.7269 5.40615ZM62.7751 9.14349C62.7751 8.97008 62.7874 8.80007 62.8111 8.63417L61.0464 8.38232C61.0108 8.63139 60.9925 8.88556 60.9925 9.14349H62.7751ZM62.7751 22.9849V9.14349H60.9925V22.9849H62.7751ZM66.3403 26.55C64.3713 26.55 62.7751 24.9538 62.7751 22.9849H60.9925C60.9925 25.9384 63.3868 28.3326 66.3403 28.3326V26.55ZM82.002 26.55H66.3403V28.3326H82.002V26.55ZM82.5267 26.5118C82.3559 26.5369 82.1807 26.55 82.002 26.55V28.3326C82.2679 28.3326 82.5299 28.3131 82.7863 28.2754L82.5267 26.5118ZM83.5476 27.4136C83.6117 24.5634 83.2817 22.5972 82.7149 21.1692L81.058 21.8269C81.5067 22.9572 81.8264 24.6639 81.7654 27.3736L83.5476 27.4136ZM82.7149 21.1692C82.1225 19.6771 81.2836 18.8035 80.4335 18.1351L79.3317 19.5363C80.0012 20.0628 80.6096 20.6973 81.058 21.8269L82.7149 21.1692ZM80.4313 18.1333L80.3819 18.0948L79.2845 19.4995L79.3339 19.5381L80.4313 18.1333ZM79.3452 18.0513C78.8071 18.4034 78.317 18.6543 77.8724 18.8192L78.4921 20.4906C79.0863 20.2703 79.6956 19.9523 80.3213 19.543L79.3452 18.0513ZM77.8724 18.8192C76.8531 19.197 76.0717 19.1264 75.4534 18.7759L74.5743 20.3266C75.7491 20.9926 77.0979 21.0075 78.4921 20.4906L77.8724 18.8192ZM75.4534 18.7759C74.8164 18.4147 74.2762 17.7137 73.8457 16.6807L72.2003 17.3664C72.7083 18.5855 73.4553 19.6922 74.5743 20.3266L75.4534 18.7759ZM73.8457 16.6807C73.4172 15.6524 73.1163 14.3397 72.9297 12.8248L71.1604 13.0428C71.3581 14.6465 71.6866 16.1338 72.2003 17.3664L73.8457 16.6807ZM72.9297 12.8248C72.7621 11.4646 72.1126 10.5129 71.1911 9.85128L70.1514 11.2993C70.6924 11.6877 71.0572 12.2046 71.1604 13.0428L72.9297 12.8248ZM71.1911 9.85128C70.2883 9.20303 69.1405 8.84386 67.9755 8.60832L67.6223 10.3556C68.7007 10.5736 69.5546 10.8707 70.1514 11.2993L71.1911 9.85128ZM67.9755 8.60832C67.0843 8.42814 66.1639 8.31652 65.3027 8.21165L65.0872 9.98117C65.961 10.0876 66.8113 10.1916 67.6223 10.3556L67.9755 8.60832ZM65.3012 8.21147L65.3009 8.21144L65.0885 9.98133L65.0888 9.98136L65.3012 8.21147ZM65.3025 8.21162C65.0248 8.17781 64.7532 8.14473 64.4857 8.10996L64.256 9.87768C64.5318 9.91354 64.8106 9.94749 65.087 9.98114L65.3025 8.21162ZM64.4857 8.10996C63.606 7.99561 62.8269 7.86945 62.2122 7.66324L61.6452 9.35325C62.4424 9.62071 63.378 9.76357 64.256 9.87768L64.4857 8.10996ZM85.5672 22.9849C85.5672 24.5163 84.6011 25.8244 83.2422 26.3287L83.8623 27.9999C85.8973 27.2448 87.3498 25.2856 87.3498 22.9849H85.5672ZM85.5672 13.8824V22.9849H87.3498V13.8824H85.5672ZM86.1386 13.0505C84.8638 13.5406 83.384 14.5178 81.6496 16.1738L82.8806 17.4631C84.516 15.9016 85.7999 15.0905 86.7783 14.7143L86.1386 13.0505ZM81.6496 16.1738C81.0852 16.7127 80.5528 17.17 80.0511 17.5513L81.1296 18.9706C81.6932 18.5423 82.2765 18.0399 82.8806 17.4631L81.6496 16.1738ZM80.0252 18.9501C80.7289 19.5273 81.3972 20.2656 81.8865 21.4981L83.5433 20.8404C82.9208 19.2723 82.043 18.2995 81.1555 17.5718L80.0252 18.9501ZM81.8865 21.4981C82.379 22.7388 82.6998 24.5052 82.661 27.1512L84.4434 27.1774C84.4843 24.3897 84.1507 22.3705 83.5433 20.8404L81.8865 21.4981ZM85.5672 9.14349V12.9356H87.3498V9.14349H85.5672ZM82.2425 5.58626C84.0989 5.70948 85.5672 7.25539 85.5672 9.14349H87.3498C87.3498 6.31045 85.1473 3.99256 82.3606 3.80758L82.2425 5.58626ZM81.5773 4.17743C81.4235 4.39189 81.251 4.60176 81.0633 4.81119L82.3906 6.00112C82.6105 5.7558 82.8259 5.49515 83.0258 5.21641L81.5773 4.17743ZM81.0633 4.81119C80.7587 5.15093 80.4185 5.48434 80.0561 5.83177L81.2897 7.11854C81.6555 6.76786 82.0377 6.39477 82.3906 6.00112L81.0633 4.81119ZM80.0561 5.83177C79.9827 5.90209 79.9092 5.97226 79.8351 6.0431L81.0661 7.33236C81.1401 7.2617 81.2149 7.19031 81.2897 7.11855L80.0561 5.83177ZM79.8203 6.05749L79.8203 6.05754L81.0808 7.31802L81.0808 7.31797L79.8203 6.05749ZM79.835 6.04316C79.5432 6.32181 79.2403 6.61094 78.9407 6.91538L80.2114 8.16556C80.4883 7.8842 80.7711 7.61406 81.066 7.33241L79.835 6.04316ZM78.9407 6.91538C77.429 8.45192 76.009 10.3773 76.2094 13.63L77.9886 13.5204C77.8322 10.9817 78.8747 9.52428 80.2114 8.16556L78.9407 6.91538ZM76.2094 13.63C76.31 15.263 76.8214 16.2698 77.552 17.0308L78.8379 15.7963C78.4255 15.3668 78.0656 14.7704 77.9886 13.5204L76.2094 13.63ZM77.5519 17.0308C77.9073 17.4009 78.3049 17.7029 78.6997 17.9838L79.7332 16.5314C79.3611 16.2666 79.0742 16.0424 78.8379 15.7963L77.5519 17.0308ZM78.6997 17.9838C78.8053 18.059 78.9146 18.1352 79.0225 18.2105L80.0426 16.7487C79.9335 16.6726 79.831 16.601 79.7332 16.5314L78.6997 17.9838ZM79.0186 18.2078L79.0186 18.2079L80.0466 16.7516L80.0465 16.7515L79.0186 18.2078ZM78.962 18.1644L78.9621 18.1644L80.1033 16.795L80.1032 16.795L78.962 18.1644ZM79.0226 18.2106C79.1265 18.2831 79.2297 18.3552 79.3336 18.4289L80.3648 16.9748C80.2545 16.8966 80.1459 16.8208 80.0427 16.7488L79.0226 18.2106ZM80.3753 18.4213C80.9685 17.9875 81.5977 17.4557 82.2651 16.8184L81.0341 15.5292C80.4119 16.1232 79.8422 16.6028 79.3231 16.9824L80.3753 18.4213ZM82.2651 16.8184C84.077 15.0884 85.5531 14.1735 86.7381 13.7819L86.1788 12.0893C84.6481 12.5952 82.9489 13.7009 81.0341 15.5292L82.2651 16.8184Z" fill="url(#paint1_radial_767_465)" mask="url(#path-2-outside-1_767_465)"/>
</g>
<defs>
<filter id="filter0_dddd_767_465" x="0.218536" y="0.200813" width="132.734" height="131.612" filterUnits="userSpaceOnUse" color-interpolation-filters="sRGB">
<feFlood flood-opacity="0" result="BackgroundImageFix"/>
<feColorMatrix in="SourceAlpha" type="matrix" values="0 0 0 0 0 0 0 0 0 0 0 0 0 0 0 0 0 0 127 0" result="hardAlpha"/>
<feOffset dy="2.01825"/>
<feGaussianBlur stdDeviation="1.21095"/>
<feColorMatrix type="matrix" values="0 0 0 0 0.2117 0 0 0 0 0.1305 0 0 0 0 0.3625 0 0 0 1 0"/>
<feBlend mode="normal" in2="BackgroundImageFix" result="effect1_dropShadow_767_465"/>
<feColorMatrix in="SourceAlpha" type="matrix" values="0 0 0 0 0 0 0 0 0 0 0 0 0 0 0 0 0 0 127 0" result="hardAlpha"/>
<feOffset dy="5.5802"/>
<feGaussianBlur stdDeviation="3.34812"/>
<feColorMatrix type="matrix" values="0 0 0 0 0.156069 0 0 0 0 0.0225625 0 0 0 0 0.475 0 0 0 1 0"/>
<feBlend mode="normal" in2="effect1_dropShadow_767_465" result="effect2_dropShadow_767_465"/>
<feColorMatrix in="SourceAlpha" type="matrix" values="0 0 0 0 0 0 0 0 0 0 0 0 0 0 0 0 0 0 127 0" result="hardAlpha"/>
<feOffset dy="13.435"/>
<feGaussianBlur stdDeviation="8.06099"/>
<feColorMatrix type="matrix" values="0 0 0 0 0.219674 0 0 0 0 0.1885 0 0 0 0 0.6 0 0 0 1 0"/>
<feBlend mode="normal" in2="effect2_dropShadow_767_465" result="effect3_dropShadow_767_465"/>
<feColorMatrix in="SourceAlpha" type="matrix" values="0 0 0 0 0 0 0 0 0 0 0 0 0 0 0 0 0 0 127 0" result="hardAlpha"/>
<feOffset dy="44.5648"/>
<feGaussianBlur stdDeviation="26.7389"/>
<feColorMatrix type="matrix" values="0 0 0 0 0.501667 0 0 0 0 0.501667 0 0 0 0 1 0 0 0 1 0"/>
<feBlend mode="normal" in2="effect3_dropShadow_767_465" result="effect4_dropShadow_767_465"/>
<feBlend mode="normal" in="SourceGraphic" in2="effect4_dropShadow_767_465" result="shape"/>
</filter>
<filter id="filter1_bd_767_465" x="50.1311" y="5.54859" width="32.9087" height="33.5692" filterUnits="userSpaceOnUse" color-interpolation-filters="sRGB">
<feFlood flood-opacity="0" result="BackgroundImageFix"/>
<feGaussianBlur in="BackgroundImage" stdDeviation="1.78259"/>
<feComposite in2="SourceAlpha" operator="in" result="effect1_backgroundBlur_767_465"/>
<feColorMatrix in="SourceAlpha" type="matrix" values="0 0 0 0 0 0 0 0 0 0 0 0 0 0 0 0 0 0 127 0" result="hardAlpha"/>
<feOffset dy="1.78259"/>
<feGaussianBlur stdDeviation="1.78259"/>
<feComposite in2="hardAlpha" operator="out"/>
<feColorMatrix type="matrix" values="0 0 0 0 0.733333 0 0 0 0 0.558006 0 0 0 0 0.502639 0 0 0 0.21 0"/>
<feBlend mode="normal" in2="effect1_backgroundBlur_767_465" result="effect2_dropShadow_767_465"/>
<feBlend mode="normal" in="SourceGraphic" in2="effect2_dropShadow_767_465" result="shape"/>
</filter>
<filter id="filter2_bd_767_465" x="57.427" y="0.209475" width="33.4878" height="33.5909" filterUnits="userSpaceOnUse" color-interpolation-filters="sRGB">
<feFlood flood-opacity="0" result="BackgroundImageFix"/>
<feGaussianBlur in="BackgroundImage" stdDeviation="1.78259"/>
<feComposite in2="SourceAlpha" operator="in" result="effect1_backgroundBlur_767_465"/>
<feColorMatrix in="SourceAlpha" type="matrix" values="0 0 0 0 0 0 0 0 0 0 0 0 0 0 0 0 0 0 127 0" result="hardAlpha"/>
<feOffset dy="1.78259"/>
<feGaussianBlur stdDeviation="1.78259"/>
<feComposite in2="hardAlpha" operator="out"/>
<feColorMatrix type="matrix" values="0 0 0 0 0.733333 0 0 0 0 0.558006 0 0 0 0 0.502639 0 0 0 0.21 0"/>
<feBlend mode="normal" in2="effect1_backgroundBlur_767_465" result="effect2_dropShadow_767_465"/>
<feBlend mode="normal" in="SourceGraphic" in2="effect2_dropShadow_767_465" result="shape"/>
</filter>
<radialGradient id="paint0_radial_767_465" cx="0" cy="0" r="1" gradientUnits="userSpaceOnUse" gradientTransform="translate(63.3378 14.7227) rotate(74.163) scale(18.2146 18.8468)">
<stop stop-color="#B0B3DE"/>
<stop offset="0.466667" stop-color="#5D62A8"/>
<stop offset="0.796202" stop-color="#3B42A0"/>
<stop offset="1" stop-color="#282C6B"/>
</radialGradient>
<radialGradient id="paint1_radial_767_465" cx="0" cy="0" r="1" gradientUnits="userSpaceOnUse" gradientTransform="translate(68.7101 10.1649) rotate(57.1683) scale(19.6204 20.3014)">
<stop stop-color="#FEFEFE"/>
<stop offset="0.4875" stop-color="#E6E5E5"/>
<stop offset="0.796202" stop-color="#CCCCCC"/>
<stop offset="1" stop-color="#ABABAB"/>
</radialGradient>
</defs>
</svg>
