<svg width="94" height="31" viewBox="0 0 94 31" fill="none" xmlns="http://www.w3.org/2000/svg">
<path d="M86.2577 6.65691L88.1944 12.0141C88.2773 12.2434 88.4415 12.4253 88.6488 12.517L93.4873 14.6615C94.1709 14.9644 94.1709 16.0359 93.4873 16.3388L88.6486 18.4832C88.4415 18.575 88.2771 18.7567 88.1942 18.986L86.2575 24.3432C85.9838 25.1 85.0162 25.1 84.7425 24.3432L82.8058 18.986C82.7229 18.7567 82.5587 18.5748 82.3514 18.4832L77.5127 16.3388C76.8291 16.0359 76.8291 14.9644 77.5127 14.6615L82.3514 12.5172C82.5587 12.4253 82.7229 12.2437 82.8058 12.0143L84.7425 6.65713C85.0162 5.90013 85.984 5.90013 86.2577 6.65691Z" fill="#5D62A8"/>
<path d="M48.2479 0.934803L51.4378 9.75835C51.5744 10.1362 51.8448 10.4357 52.1862 10.5866L60.1556 14.1189C61.2815 14.6178 61.2815 16.3825 60.1556 16.8814L52.1859 20.4133C51.8448 20.5647 51.5741 20.8638 51.4375 21.2416L48.2476 30.0652C47.7969 31.3116 46.2031 31.3116 45.7524 30.0652L42.5625 21.2416C42.4259 20.8638 42.1556 20.5643 41.8141 20.4133L33.8444 16.8814C32.7185 16.3825 32.7185 14.6178 33.8444 14.1189L41.8141 10.587C42.1556 10.4357 42.4259 10.1365 42.5625 9.7587L45.7524 0.935154C46.2031 -0.31166 47.7972 -0.311659 48.2479 0.934803Z" fill="#5D62A8"/>
<path d="M9.25767 6.65691L11.1944 12.0141C11.2773 12.2434 11.4415 12.4253 11.6488 12.517L16.4873 14.6615C17.1709 14.9644 17.1709 16.0359 16.4873 16.3388L11.6486 18.4832C11.4415 18.575 11.2771 18.7567 11.1942 18.986L9.25745 24.3432C8.98381 25.1 8.01619 25.1 7.74255 24.3432L5.8058 18.986C5.72288 18.7567 5.55874 18.5748 5.35144 18.4832L0.512676 16.3388C-0.170892 16.0359 -0.170892 14.9644 0.512676 14.6615L5.35144 12.5172C5.55874 12.4253 5.72288 12.2437 5.8058 12.0143L7.74255 6.65713C8.01619 5.90013 8.98403 5.90013 9.25767 6.65691Z" fill="#5D62A8"/>
</svg>
