<svg width="30" height="31" viewBox="0 0 30 31" fill="none" xmlns="http://www.w3.org/2000/svg">
<circle cx="15" cy="15.4092" r="15" fill="#5D62A8"/>
<path d="M22.5 10.8522C21.9481 11.097 21.355 11.2624 20.7325 11.3368C21.3679 10.956 21.8559 10.3528 22.0856 9.63422C21.491 9.98689 20.8324 10.243 20.1314 10.381C19.57 9.7829 18.7702 9.40918 17.8851 9.40918C16.1855 9.40918 14.8076 10.7871 14.8076 12.4865C14.8076 12.7278 14.8348 12.9626 14.8873 13.1879C12.3297 13.0595 10.0621 11.8344 8.54423 9.97248C8.27933 10.427 8.12759 10.9556 8.12759 11.5196C8.12759 12.5873 8.6709 13.5292 9.49663 14.0811C8.99217 14.0651 8.51766 13.9267 8.10273 13.6962C8.10251 13.709 8.10247 13.7219 8.10247 13.7349C8.10247 15.2259 9.16325 16.4698 10.5711 16.7525C10.3128 16.8228 10.041 16.8604 9.76031 16.8604C9.562 16.8604 9.36922 16.8411 9.18131 16.8052C9.57293 18.0278 10.7094 18.9176 12.0561 18.9424C11.0028 19.7678 9.67592 20.2598 8.23411 20.2598C7.98571 20.2597 7.74074 20.2452 7.5 20.2168C8.86192 21.0899 10.4795 21.5994 12.2174 21.5994C17.878 21.5994 20.9733 16.9101 20.9733 12.8434C20.9733 12.71 20.9703 12.5773 20.9644 12.4453C21.5657 12.0114 22.0874 11.4694 22.5 10.8522Z" fill="white"/>
</svg>
