<svg width="235" height="168" viewBox="0 0 235 168" fill="none" xmlns="http://www.w3.org/2000/svg">
<path d="M210.376 137.497C208.511 142.511 176.025 149.937 101.983 122.4C21.3429 92.4091 9.3319 68.2619 11.1968 63.2476C13.0617 58.2333 35.1333 37.5499 128.957 62.559C212.407 106.401 212.24 132.483 210.376 137.497Z" fill="#778796"/>
<path d="M25.4991 65.8706C24.891 67.5057 22.8074 68.2396 20.8453 67.5099C18.8832 66.7801 17.7856 64.863 18.3937 63.2279C19.0018 61.5929 21.0854 60.8589 23.0475 61.5887C25.0096 62.3184 26.1072 64.2355 25.4991 65.8706Z" fill="#C4C4C4"/>
<path d="M25.4991 65.8706C24.891 67.5057 22.8074 68.2396 20.8453 67.5099C18.8832 66.7801 17.7856 64.863 18.3937 63.2279C19.0018 61.5929 21.0854 60.8589 23.0475 61.5887C25.0096 62.3184 26.1072 64.2355 25.4991 65.8706Z" fill="#C4C4C4"/>
<path d="M60.0279 92.6421C59.4198 94.2772 57.3362 95.0111 55.3741 94.2814C53.412 93.5516 52.3143 91.6346 52.9225 89.9995C53.5306 88.3644 55.6142 87.6304 57.5763 88.3602C59.5384 89.0899 60.636 91.007 60.0279 92.6421Z" fill="#C4C4C4"/>
<path d="M109.923 114.344C109.314 115.979 107.231 116.713 105.269 115.983C103.307 115.254 102.209 113.337 102.817 111.701C103.425 110.066 105.509 109.332 107.471 110.062C109.433 110.792 110.531 112.709 109.923 114.344Z" fill="#C4C4C4"/>
<path d="M163.993 130.859C163.385 132.494 161.301 133.228 159.339 132.498C157.377 131.768 156.28 129.851 156.888 128.216C157.496 126.581 159.579 125.847 161.542 126.577C163.504 127.307 164.601 129.224 163.993 130.859Z" fill="#C4C4C4"/>
<path d="M206.531 130.054C205.923 131.689 203.84 132.423 201.878 131.693C199.915 130.963 198.818 129.046 199.426 127.411C200.034 125.776 202.118 125.042 204.08 125.772C206.042 126.501 207.139 128.418 206.531 130.054Z" fill="#C4C4C4"/>
<path d="M65.2872 59.7737C70.3111 76.4706 153.056 105.897 172.066 99.4867C173.092 95.9459 173.725 92.5133 174.002 89.1973C178.329 37.4988 96.2705 14.1272 70.1514 50.5737C68.1969 53.301 66.5556 56.3633 65.2872 59.7737Z" fill="#BDBDBD"/>
<path d="M10.987 63.6188C4.09003 77.9053 27.0587 101.922 98.2072 129.534C169.417 153.768 204.449 151.76 210.624 137.867C204.157 144.149 173.105 149.975 100.63 123.02C28.154 96.0656 10.6697 72.1882 10.987 63.6188Z" fill="#BDBDBD"/>
</svg>
