<svg width="715" height="1123" viewBox="0 0 715 1123" fill="none" xmlns="http://www.w3.org/2000/svg">
<path d="M36.8467 327.06L39.1522 328.027L36.8467 327.06ZM703.71 1117.94C705.085 1118.07 706.096 1119.29 705.968 1120.67C705.84 1122.04 704.622 1123.05 703.247 1122.92L703.71 1117.94ZM695.125 1122.15C693.751 1122.01 692.746 1120.79 692.881 1119.42C693.015 1118.04 694.239 1117.04 695.613 1117.17L695.125 1122.15ZM653.431 1112.45C654.801 1112.62 655.771 1113.87 655.598 1115.24C655.425 1116.61 654.175 1117.58 652.805 1117.41L653.431 1112.45ZM637.365 1115.38C635.997 1115.19 635.041 1113.93 635.228 1112.56C635.416 1111.19 636.677 1110.23 638.045 1110.42L637.365 1115.38ZM595.944 1103.98C597.305 1104.21 598.222 1105.5 597.992 1106.87C597.762 1108.23 596.471 1109.14 595.11 1108.91L595.944 1103.98ZM579.645 1106.2C578.286 1105.96 577.385 1104.65 577.632 1103.3C577.879 1101.94 579.18 1101.04 580.538 1101.28L579.645 1106.2ZM538.974 1093C540.323 1093.29 541.179 1094.62 540.885 1095.97C540.591 1097.32 539.259 1098.18 537.91 1097.88L538.974 1093ZM522.51 1094.42C521.165 1094.11 520.327 1092.76 520.639 1091.42C520.951 1090.07 522.295 1089.24 523.64 1089.55L522.51 1094.42ZM482.65 1079.21C483.982 1079.57 484.766 1080.95 484.402 1082.28C484.038 1083.61 482.663 1084.39 481.331 1084.03L482.65 1079.21ZM466.104 1079.74C464.777 1079.36 464.014 1077.97 464.399 1076.64C464.783 1075.32 466.17 1074.55 467.496 1074.94L466.104 1079.74ZM427.192 1062.3C428.5 1062.75 429.202 1064.16 428.76 1065.47C428.318 1066.78 426.899 1067.48 425.591 1067.04L427.192 1062.3ZM410.664 1061.85C409.364 1061.39 408.687 1059.96 409.151 1058.66C409.616 1057.36 411.046 1056.68 412.347 1057.14L410.664 1061.85ZM372.926 1041.97C374.201 1042.5 374.808 1043.96 374.28 1045.23C373.752 1046.51 372.289 1047.12 371.013 1046.59L372.926 1041.97ZM356.534 1040.43C355.268 1039.88 354.69 1038.4 355.243 1037.14C355.796 1035.87 357.269 1035.3 358.535 1035.85L356.534 1040.43ZM320.287 1017.89C321.52 1018.51 322.016 1020.01 321.394 1021.25C320.773 1022.48 319.269 1022.98 318.036 1022.35L320.287 1017.89ZM304.123 1015.15C302.904 1014.5 302.441 1012.99 303.089 1011.77C303.737 1010.55 305.251 1010.09 306.47 1010.74L304.123 1015.15ZM269.82 989.803C270.997 990.525 271.366 992.064 270.644 993.241C269.922 994.418 268.382 994.787 267.206 994.065L269.82 989.803ZM253.631 985.51C252.472 984.76 252.141 983.212 252.892 982.053C253.642 980.894 255.19 980.563 256.349 981.313L253.631 985.51ZM221.815 957.269C222.92 958.096 223.145 959.663 222.318 960.768C221.491 961.873 219.924 962.099 218.818 961.271L221.815 957.269ZM206.144 951.519C205.061 950.662 204.878 949.09 205.735 948.007C206.591 946.924 208.164 946.741 209.246 947.597L206.144 951.519ZM177.22 920.299C178.237 921.233 178.304 922.814 177.37 923.831C176.436 924.848 174.854 924.915 173.837 923.98L177.22 920.299ZM162.39 913.159C161.4 912.197 161.378 910.614 162.34 909.624C163.303 908.634 164.886 908.612 165.876 909.575L162.39 913.159ZM136.851 879.052C137.762 880.089 137.66 881.669 136.623 882.58C135.585 883.491 134.006 883.389 133.094 882.351L136.851 879.052ZM122.681 870.125C121.802 869.061 121.952 867.485 123.016 866.606C124.081 865.726 125.657 865.877 126.536 866.941L122.681 870.125ZM101.089 833.445C101.879 834.578 101.601 836.136 100.468 836.926C99.3353 837.716 97.777 837.438 96.9874 836.305L101.089 833.445ZM88.1395 823.191C87.3849 822.035 87.7104 820.486 88.8667 819.731C90.0229 818.977 91.572 819.302 92.3267 820.458L88.1395 823.191ZM70.7668 784.247C71.4237 785.461 70.9717 786.978 69.7573 787.635C68.5429 788.292 67.0258 787.84 66.369 786.626L70.7668 784.247ZM58.9871 772.463C58.3679 771.229 58.8663 769.726 60.1004 769.107C61.3344 768.488 62.8368 768.986 63.4561 770.22L58.9871 772.463ZM46.14 731.911C46.6576 733.191 46.0395 734.648 44.7594 735.166C43.4794 735.683 42.0221 735.065 41.5046 733.785L46.14 731.911ZM35.7413 718.892C35.2624 717.597 35.9238 716.159 37.2188 715.68C38.5138 715.201 39.9518 715.862 40.4308 717.157L35.7413 718.892ZM27.3862 677.126C27.7626 678.455 26.9909 679.837 25.6625 680.213C24.3341 680.59 22.9521 679.818 22.5756 678.489L27.3862 677.126ZM18.467 663.159C18.1286 661.821 18.9393 660.461 20.2779 660.123C21.6165 659.785 22.976 660.595 23.3144 661.934L18.467 663.159ZM14.5213 620.692C14.7588 622.052 13.8489 623.347 12.4887 623.584C11.1286 623.822 9.83343 622.912 9.59583 621.552L14.5213 620.692ZM7.07647 605.87C6.87599 604.504 7.82092 603.234 9.18699 603.033C10.5531 602.833 11.823 603.778 12.0235 605.144L7.07647 605.87ZM7.40241 563.244C7.50494 564.621 6.47184 565.82 5.09493 565.923C3.71805 566.025 2.51873 564.992 2.41616 563.615L7.40241 563.244ZM1.4428 547.723C1.37646 546.344 2.44068 545.172 3.81978 545.106C5.19893 545.04 6.37068 546.104 6.43702 547.483L1.4428 547.723ZM5.87729 505.353C5.84775 506.733 4.70475 507.828 3.32437 507.799C1.94399 507.769 0.848855 506.626 0.878439 505.246L5.87729 505.353ZM1.42604 489.331C1.49151 487.952 2.66259 486.887 4.04177 486.953C5.4209 487.018 6.4859 488.189 6.42043 489.568L1.42604 489.331ZM9.89787 447.542C9.73511 448.913 8.49173 449.893 7.12062 449.73C5.74956 449.567 4.77001 448.324 4.93273 446.953L9.89787 447.542ZM7.00891 431.28C7.20897 429.914 8.47862 428.968 9.84476 429.168C11.2109 429.368 12.1562 430.638 11.9562 432.004L7.00891 431.28ZM19.686 390.496C19.3784 391.842 18.0379 392.684 16.6919 392.376C15.3459 392.068 14.504 390.728 14.8116 389.382L19.686 390.496ZM18.6314 373.851C18.9839 372.516 20.3518 371.719 21.6868 372.072C23.0218 372.424 23.8182 373.792 23.4658 375.127L18.6314 373.851ZM36.3005 335.099C35.8011 336.387 34.3528 337.025 33.0655 336.526C31.7783 336.027 31.1396 334.578 31.639 333.291L36.3005 335.099ZM37.7047 318.672C38.2536 317.405 39.7256 316.823 40.9925 317.372C42.2594 317.921 42.8415 319.393 42.2926 320.66L37.7047 318.672ZM60.2737 282.58C59.6428 283.808 58.1357 284.293 56.9076 283.662C55.6794 283.031 55.1952 281.524 55.8261 280.296L60.2737 282.58ZM63.2184 266.351C63.881 265.14 65.4002 264.695 66.6114 265.358C67.8228 266.02 68.2677 267.539 67.605 268.751L63.2184 266.351ZM89.1803 232.531C88.4294 233.69 86.8814 234.02 85.7227 233.269C84.5641 232.519 84.2334 230.971 84.9842 229.812L89.1803 232.531ZM93.7836 216.656C94.568 215.52 96.125 215.235 97.2612 216.019C98.3975 216.804 98.6827 218.36 97.8983 219.497L93.7836 216.656ZM123.211 185.85C122.336 186.918 120.761 187.074 119.693 186.199C118.625 185.323 118.469 183.748 119.344 182.68L123.211 185.85ZM129.581 170.59C130.49 169.551 132.07 169.445 133.109 170.354C134.148 171.263 134.254 172.842 133.345 173.882L129.581 170.59ZM162.417 143.455C161.42 144.409 159.837 144.375 158.882 143.377C157.928 142.38 157.962 140.798 158.959 139.843L162.417 143.455ZM170.619 129.053C171.648 128.132 173.229 128.22 174.149 129.249C175.07 130.279 174.982 131.859 173.953 132.78L170.619 129.053ZM206.523 106.223C205.414 107.045 203.848 106.813 203.025 105.704C202.203 104.595 202.435 103.029 203.544 102.207L206.523 106.223ZM216.5 92.9365C217.637 92.1524 219.194 92.4381 219.978 93.5746C220.762 94.7112 220.476 96.2681 219.34 97.0521L216.5 92.9365ZM254.941 74.808C253.738 75.4861 252.214 75.0608 251.535 73.858C250.857 72.6553 251.283 71.1306 252.485 70.4526L254.941 74.808ZM266.508 62.8523C267.733 62.2147 269.242 62.6905 269.88 63.9152C270.518 65.1399 270.042 66.6495 268.817 67.2872L266.508 62.8523ZM306.894 49.5178C305.619 50.0477 304.156 49.4438 303.626 48.1688C303.096 46.8939 303.7 45.4307 304.975 44.9007L306.894 49.5178ZM319.756 39.0248C321.047 38.5346 322.49 39.1836 322.981 40.4744C323.471 41.7652 322.822 43.2089 321.531 43.699L319.756 39.0248ZM361.412 30.3562C360.086 30.7428 358.698 29.9816 358.312 28.6561C357.925 27.3306 358.687 25.9427 360.012 25.5562L361.412 30.3562ZM375.353 21.3173C376.689 20.9682 378.055 21.7683 378.404 23.1041C378.753 24.44 377.953 25.8059 376.617 26.1549L375.353 21.3173ZM417.669 16.995C416.312 17.2483 415.006 16.3533 414.753 14.996C414.5 13.6387 415.395 12.3331 416.752 12.0798L417.669 16.995ZM432.427 9.3588C433.79 9.13964 435.073 10.0671 435.292 11.4303C435.511 12.7935 434.583 14.0762 433.22 14.2954L432.427 9.3588ZM474.973 8.94662C473.599 9.07952 472.377 8.07315 472.244 6.69886C472.111 5.3245 473.117 4.10272 474.492 3.96986L474.973 8.94662ZM490.331 2.61652C491.708 2.51414 492.907 3.54737 493.009 4.9243C493.112 6.30118 492.079 7.5004 490.702 7.60273L490.331 2.61652ZM532.757 5.6672C531.377 5.69289 530.237 4.59464 530.211 3.21414C530.185 1.83368 531.283 0.693722 532.664 0.668034L532.757 5.6672ZM548.574 0.52864C549.955 0.529988 551.073 1.65042 551.071 3.03111C551.07 4.41181 549.95 5.53001 548.569 5.52862L548.574 0.52864ZM590.689 6.62172C589.31 6.55245 588.248 5.3784 588.317 3.99942C588.387 2.62045 589.561 1.55871 590.94 1.62798L590.689 6.62172ZM606.788 2.56285C608.165 2.65606 609.206 3.84839 609.113 5.22593C609.02 6.60351 607.828 7.64467 606.45 7.55146L606.788 2.56285ZM648.404 11.3282C647.031 11.1747 646.044 9.93791 646.197 8.56577C646.351 7.19358 647.587 6.20569 648.96 6.35922L648.404 11.3282ZM664.765 8.25335C666.135 8.42833 667.103 9.68043 666.928 11.05C666.753 12.4196 665.501 13.388 664.132 13.2131L664.765 8.25335ZM705.84 19.3931C704.479 19.164 703.561 17.8745 703.79 16.5129C704.019 15.1513 705.308 14.2333 706.67 14.4624L705.84 19.3931ZM703.247 1122.92C700.53 1122.67 697.822 1122.41 695.125 1122.15L695.613 1117.17C698.302 1117.44 701.001 1117.69 703.71 1117.94L703.247 1122.92ZM652.805 1117.41C647.619 1116.75 642.473 1116.08 637.365 1115.38L638.045 1110.42C643.135 1111.12 648.263 1111.8 653.431 1112.45L652.805 1117.41ZM595.11 1108.91C589.912 1108.03 584.757 1107.13 579.645 1106.2L580.538 1101.28C585.631 1102.21 590.766 1103.11 595.944 1103.98L595.11 1108.91ZM537.91 1097.88C532.73 1096.75 527.596 1095.6 522.51 1094.42L523.64 1089.55C528.704 1090.72 533.816 1091.87 538.974 1093L537.91 1097.88ZM481.331 1084.03C476.204 1082.63 471.129 1081.2 466.104 1079.74L467.496 1074.94C472.496 1076.39 477.548 1077.81 482.65 1079.21L481.331 1084.03ZM425.591 1067.04C420.56 1065.34 415.584 1063.61 410.664 1061.85L412.347 1057.14C417.24 1058.89 422.188 1060.61 427.192 1062.3L425.591 1067.04ZM371.013 1046.59C366.127 1044.56 361.301 1042.51 356.534 1040.43L358.535 1035.85C363.272 1037.92 368.069 1039.96 372.926 1041.97L371.013 1046.59ZM318.036 1022.35C313.334 1019.98 308.697 1017.58 304.123 1015.15L306.47 1010.74C311.012 1013.15 315.617 1015.53 320.287 1017.89L318.036 1022.35ZM267.206 994.065C262.608 991.245 258.084 988.393 253.631 985.51L256.349 981.313C260.767 984.174 265.257 987.004 269.82 989.803L267.206 994.065ZM218.818 961.271C214.516 958.051 210.292 954.8 206.144 951.519L209.246 947.597C213.359 950.851 217.548 954.075 221.815 957.269L218.818 961.271ZM173.837 923.98C169.942 920.401 166.127 916.794 162.39 913.159L165.876 909.575C169.579 913.176 173.36 916.751 177.22 920.299L173.837 923.98ZM133.094 882.351C129.538 878.301 126.067 874.225 122.681 870.125L126.536 866.941C129.89 871.003 133.328 875.04 136.851 879.052L133.094 882.351ZM96.9874 836.305C93.9535 831.953 91.0048 827.581 88.1395 823.191L92.3267 820.458C95.1642 824.806 98.0844 829.136 101.089 833.445L96.9874 836.305ZM66.369 786.626C63.8222 781.918 61.3624 777.196 58.9871 772.463L63.4561 770.22C65.8084 774.908 68.2446 779.584 70.7668 784.247L66.369 786.626ZM41.5046 733.785C39.4991 728.825 37.5788 723.86 35.7413 718.892L40.4308 717.157C42.2512 722.079 44.1535 726.998 46.14 731.911L41.5046 733.785ZM22.5756 678.489C21.1257 673.373 19.757 668.262 18.467 663.159L23.3144 661.934C24.593 666.991 25.9494 672.056 27.3862 677.126L22.5756 678.489ZM9.59583 621.552C8.67948 616.306 7.84064 611.077 7.07647 605.87L12.0235 605.144C12.7811 610.307 13.6128 615.491 14.5213 620.692L9.59583 621.552ZM2.41616 563.615C2.01916 558.283 1.69585 552.985 1.4428 547.723L6.43702 547.483C6.68801 552.701 7.00864 557.956 7.40241 563.244L2.41616 563.615ZM0.878439 505.246C0.993155 499.885 1.17705 494.579 1.42604 489.331L6.42043 489.568C6.17347 494.773 5.99107 500.036 5.87729 505.353L0.878439 505.246ZM4.93273 446.953C5.56311 441.641 6.25695 436.415 7.00891 431.28L11.9562 432.004C11.2108 437.095 10.5229 442.276 9.89787 447.542L4.93273 446.953ZM14.8116 389.382C16.029 384.055 17.3051 378.874 18.6314 373.851L23.4658 375.127C22.1539 380.096 20.8911 385.222 19.686 390.496L14.8116 389.382ZM31.639 333.291C32.5971 330.821 33.5651 328.421 34.5412 326.094L39.1522 328.027C38.1941 330.312 37.2429 332.67 36.3005 335.099L31.639 333.291ZM34.5412 326.094C35.5859 323.602 36.6405 321.128 37.7047 318.672L42.2926 320.66C41.2362 323.098 40.1894 325.554 39.1522 328.027L34.5412 326.094ZM55.8261 280.296C58.2512 275.574 60.7156 270.927 63.2184 266.351L67.605 268.751C65.1232 273.288 62.6791 277.897 60.2737 282.58L55.8261 280.296ZM84.9842 229.812C87.8772 225.347 90.8107 220.963 93.7836 216.656L97.8983 219.497C94.9532 223.763 92.0468 228.107 89.1803 232.531L84.9842 229.812ZM119.344 182.68C122.716 178.566 126.129 174.536 129.581 170.59L133.345 173.882C129.928 177.788 126.55 181.777 123.211 185.85L119.344 182.68ZM158.959 139.843C162.808 136.159 166.695 132.563 170.619 129.053L173.953 132.78C170.07 136.252 166.225 139.81 162.417 143.455L158.959 139.843ZM203.544 102.207C207.828 99.0287 212.148 95.9392 216.5 92.9365L219.34 97.0521C215.034 100.023 210.761 103.079 206.523 106.223L203.544 102.207ZM252.485 70.4526C257.131 67.8334 261.806 65.3007 266.508 62.8523L268.817 67.2872C264.164 69.7102 259.537 72.2164 254.941 74.808L252.485 70.4526ZM304.975 44.9007C309.88 42.8617 314.808 40.9037 319.756 39.0248L321.531 43.699C316.631 45.5599 311.751 47.4988 306.894 49.5178L304.975 44.9007ZM360.012 25.5562C365.112 24.0691 370.226 22.6568 375.353 21.3173L376.617 26.1549C371.535 27.4827 366.466 28.8825 361.412 30.3562L360.012 25.5562ZM416.752 12.0798C421.971 11.1058 427.196 10.1995 432.427 9.3588L433.22 14.2954C428.031 15.1296 422.846 16.0288 417.669 16.995L416.752 12.0798ZM474.492 3.96986C479.774 3.45914 485.054 3.00877 490.331 2.61652L490.702 7.60273C485.461 7.99232 480.218 8.43953 474.973 8.94662L474.492 3.96986ZM532.664 0.668034C537.979 0.569059 543.283 0.523415 548.574 0.52864L548.569 5.52862C543.31 5.52344 538.038 5.56882 532.757 5.6672L532.664 0.668034ZM590.94 1.62798C596.243 1.89439 601.527 2.20688 606.788 2.56285L606.45 7.55146C601.218 7.19739 595.963 6.88663 590.689 6.62172L590.94 1.62798ZM648.96 6.35922C654.261 6.95235 659.53 7.58469 664.765 8.25335L664.132 13.2131C658.922 12.5476 653.678 11.9184 648.404 11.3282L648.96 6.35922ZM706.67 14.4624C709.273 14.9004 711.865 15.3461 714.445 15.7991L713.58 20.7238C711.012 20.2728 708.432 19.8292 705.84 19.3931L706.67 14.4624Z" fill="#FDB913"/>
</svg>
