<svg width="30" height="31" viewBox="0 0 30 31" fill="none" xmlns="http://www.w3.org/2000/svg">
<circle cx="15" cy="15.4092" r="15" fill="#5D62A8"/>
<path fill-rule="evenodd" clip-rule="evenodd" d="M21.7539 10.1963C22.2036 10.6515 22.3502 11.6851 22.3502 11.6851C22.3502 11.6851 22.5 12.899 22.5 14.1128V15.2508C22.5 16.4647 22.3502 17.6785 22.3502 17.6785C22.3502 17.6785 22.2036 18.7122 21.7539 19.1674C21.2397 19.706 20.6694 19.7614 20.3473 19.7928C20.3121 19.7962 20.2798 19.7993 20.251 19.8028C18.1519 19.9545 15 19.9592 15 19.9592C15 19.9592 11.1001 19.9236 9.90006 19.8086C9.843 19.7979 9.7738 19.7895 9.69542 19.7801C9.31524 19.7344 8.71918 19.6627 8.2461 19.1674C7.79636 18.7122 7.65001 17.6785 7.65001 17.6785C7.65001 17.6785 7.5 16.4647 7.5 15.2508V14.1128C7.5 12.899 7.65001 11.6851 7.65001 11.6851C7.65001 11.6851 7.79636 10.6515 8.24609 10.1963C8.76052 9.65766 9.33065 9.60223 9.65278 9.57091C9.68796 9.56749 9.72018 9.56435 9.74904 9.56091C11.8482 9.40918 14.9967 9.40918 14.9967 9.40918H15.0033C15.0033 9.40918 18.1519 9.40918 20.251 9.56091C20.2798 9.56435 20.3121 9.56749 20.3472 9.57091C20.6694 9.60223 21.2397 9.65767 21.7539 10.1963ZM13.4512 12.415L13.4519 16.6296L17.5042 14.5297L13.4512 12.415Z" fill="white"/>
</svg>
